<svg data-name="Слой 1" xmlns="http://www.w3.org/2000/svg" viewBox="0 0 16 16"><path fill="#009d9f" d="M0 0h16v16H0z"/><path d="M2.92 6.62h-.49v-.67H.84v.67H.35V5.36h.18l.12-.22c.08-.15.14-.3.17-.45s.05-.35.05-.6V2.65h1.79v2.7h.26v1.26zm-.77-1.26V3.24h-.81v.94c0 .44-.06.78-.18 1.03l-.07.15h1.06zm3.29-1.92c.05.23.08.51.08.86s-.03.63-.08.86c-.06.23-.14.41-.25.52a.94.94 0 01-.36.25c-.13.05-.29.07-.48.07-.15 0-.28-.01-.39-.04a.721.721 0 01-.32-.15.747.747 0 01-.25-.3c-.06-.12-.12-.29-.15-.49-.04-.2-.06-.44-.06-.72 0-.34.03-.63.08-.86.06-.23.14-.4.25-.52.11-.12.23-.2.36-.24.13-.04.29-.07.48-.07s.35.02.48.06.25.12.36.24c.11.12.19.29.25.52zm-.45.99v-.24c0-.38-.05-.64-.15-.78-.1-.14-.26-.21-.49-.21s-.39.07-.49.21c-.1.14-.15.4-.15.78v.24c0 .38.05.64.15.79.1.15.26.22.49.22s.39-.07.49-.22c.1-.15.15-.41.15-.79zm3.08 1.52h-.6L6.7 4.47c-.11.15-.19.26-.23.31v1.17h-.51V2.67h.51v1.31l.96-1.31H8l-.96 1.31 1.02 1.97zm2.38-2.7h-.82v2.7h-.51v-2.7H8.3v-.58h2.15v.58zm2.55.19c.05.23.08.51.08.86s-.03.63-.08.86-.14.41-.25.52a.94.94 0 01-.36.25c-.13.05-.29.07-.48.07-.15 0-.28-.01-.39-.04a.721.721 0 01-.32-.15c-.1-.07-.19-.17-.25-.3s-.12-.29-.15-.49-.06-.44-.06-.72c0-.34.03-.63.08-.86s.14-.4.25-.52c.11-.12.23-.2.36-.24.13-.04.29-.07.48-.07s.35.02.48.06c.13.04.25.12.36.24.11.12.19.29.25.52zm-.45.99v-.24c0-.38-.05-.64-.15-.78-.1-.14-.26-.21-.49-.21s-.39.07-.49.21-.15.4-.15.78v.24c0 .38.05.64.15.79s.26.22.49.22.39-.07.49-.22.15-.41.15-.79zm2.95-.63c0 .44-.07.74-.22.91s-.39.24-.72.24h-.53v1h-.51V2.67h1.04c.17 0 .3.02.41.05.11.03.21.09.29.17s.14.2.18.35c.04.15.06.34.06.57zm-.54.34c.02-.08.03-.19.03-.33s-.01-.24-.03-.33c-.02-.09-.06-.15-.1-.18s-.09-.06-.13-.07a.696.696 0 00-.16-.02h-.53v1.2h.54c.07 0 .12 0 .16-.02.04-.01.09-.04.13-.07s.08-.1.1-.18z" stroke="#fff" stroke-miterlimit="10" stroke-width=".1" fill="#fff"/><path d="M5.37 9.08c.12.39.18.89.18 1.48s-.06 1.09-.19 1.49c-.12.4-.31.7-.56.9-.25.2-.52.35-.82.43-.3.08-.66.12-1.08.12-.33 0-.62-.02-.87-.07-.25-.04-.49-.13-.71-.25-.23-.13-.42-.3-.56-.51-.14-.21-.26-.5-.34-.85a5.62 5.62 0 01-.13-1.24c0-.59.06-1.09.19-1.48s.31-.7.56-.9c.25-.2.52-.34.81-.42.29-.08.65-.12 1.07-.12s.78.04 1.07.11.56.21.81.42c.25.2.43.5.55.9zm-1.02 1.71v-.42c0-.65-.11-1.11-.34-1.35-.22-.25-.59-.37-1.1-.37s-.87.12-1.09.36c-.22.24-.33.69-.33 1.35v.42c0 .66.11 1.11.34 1.37.22.26.59.39 1.09.39s.87-.13 1.09-.38c.22-.25.33-.71.33-1.36zm5.94 2.51c-.44.12-.99.19-1.64.19-.42 0-.78-.04-1.06-.11-.29-.07-.55-.21-.78-.42-.23-.2-.4-.5-.51-.89s-.17-.89-.17-1.48c0-.48.04-.89.12-1.24.08-.35.19-.63.32-.84.14-.21.32-.38.54-.51s.45-.21.7-.26c.24-.04.53-.07.86-.07.53 0 1.06.06 1.62.17l-.19.97a9.59 9.59 0 00-1.45-.14c-.49 0-.84.12-1.03.36s-.29.68-.29 1.32v.42c0 .63.1 1.08.3 1.34s.55.39 1.04.39c.39 0 .86-.05 1.43-.16l.19.96zm5.27-4.54h-1.83v4.65h-1.14V8.76h-1.84V7.75h4.82v1.01z" fill="#fff"/></svg>