<?xml version="1.0" encoding="UTF-8"?>
<!DOCTYPE svg PUBLIC "-//W3C//DTD SVG 1.1//EN" "http://www.w3.org/Graphics/SVG/1.1/DTD/svg11.dtd">
<!-- Creator: CorelDRAW 2021 (64-Bit Оценочная версия) -->
<svg xmlns="http://www.w3.org/2000/svg" xml:space="preserve" width="3.3327mm" height="3.3333mm" version="1.1" style="shape-rendering:geometricPrecision; text-rendering:geometricPrecision; image-rendering:optimizeQuality; fill-rule:evenodd; clip-rule:evenodd"
viewBox="0 0 18.26 18.26"
 xmlns:xlink="http://www.w3.org/1999/xlink"
 xmlns:xodm="http://www.corel.com/coreldraw/odm/2003">
 <defs>
  <style type="text/css">
   <![CDATA[
    .str0 {stroke:#FEFEFE;stroke-width:1.91;stroke-miterlimit:22.9256}
    .fil0 {fill:none;fill-rule:nonzero}
    .fil1 {fill:#9D9E9E;fill-rule:nonzero}
   ]]>
  </style>
 </defs>
 <g id="Слой_x0020_1">
  <metadata id="CorelCorpID_0Corel-Layer"/>
  <g>
   <path class="fil0 str0" d="M0.96 2.98l0 12.33c0,1.03 0.37,1.67 1.16,1.92 0.43,0.13 0.86,0.1 1.25,-0.1 0.36,-0.18 0.66,-0.33 1.03,-0.51 0.89,-0.44 12.07,-5.96 12.33,-6.21 0.66,-0.61 0.74,-1.55 0.3,-2.19 -0.35,-0.51 -1.22,-0.84 -1.9,-1.18l-10.27 -5.14c-0.45,-0.23 -1.68,-0.94 -2.2,-0.94 -0.49,0 -1.06,0.3 -1.29,0.58 -0.29,0.37 -0.42,0.79 -0.42,1.44z"/>
   <path id="_1" class="fil1" d="M0.96 2.98l0 12.33c0,1.03 0.37,1.67 1.16,1.92 0.43,0.13 0.86,0.1 1.25,-0.1 0.36,-0.18 0.66,-0.33 1.03,-0.51 0.89,-0.44 12.07,-5.96 12.33,-6.21 0.66,-0.61 0.74,-1.55 0.3,-2.19 -0.35,-0.51 -1.22,-0.84 -1.9,-1.18l-10.27 -5.14c-0.45,-0.23 -1.68,-0.94 -2.2,-0.94 -0.49,0 -1.06,0.3 -1.29,0.58 -0.29,0.37 -0.42,0.79 -0.42,1.44z"/>
  </g>
 </g>
</svg>
