<?xml version="1.0" encoding="UTF-8"?>
<!DOCTYPE svg PUBLIC "-//W3C//DTD SVG 1.1//EN" "http://www.w3.org/Graphics/SVG/1.1/DTD/svg11.dtd">
<!-- Creator: CorelDRAW 2021 (64-Bit Оценочная версия) -->
<svg xmlns="http://www.w3.org/2000/svg" xml:space="preserve" width="33.2858mm" height="30.0093mm" version="1.1" style="shape-rendering:geometricPrecision; text-rendering:geometricPrecision; image-rendering:optimizeQuality; fill-rule:evenodd; clip-rule:evenodd"
viewBox="0 0 373 336.28"
 xmlns:xlink="http://www.w3.org/1999/xlink"
 xmlns:xodm="http://www.corel.com/coreldraw/odm/2003">
 <defs>
  <style type="text/css">
   <![CDATA[
    .fil1 {fill:#FEFEFE}
    .fil0 {fill:#AFD100}
    .fil2 {fill:#B0D201}
   ]]>
  </style>
 </defs>
 <g id="Слой_x0020_1">
  <metadata id="CorelCorpID_0Corel-Layer"/>
  <g id="_2238160160416">
   <polygon class="fil0" points="373,0 -0,0 -0,336.28 373,336.28 "/>
   <g>
    <circle class="fil1" cx="186.5" cy="168.14" r="137.53"/>
    <g>
     <path class="fil2" d="M218.93 222.29c0.86,-0.68 2.5,-1.01 3.74,-1.33 11.8,-3.29 19.05,-4.97 31.26,-6.63 2.26,-0.31 10.19,-0.86 11.59,-1.29l-0.01 -126.1c-25.38,1.56 -50.62,9.31 -72.71,19.57 -1.25,0.58 -2.78,1.51 -4.04,1.86l0.01 125.66c2.19,-0.67 5.03,-2.29 7.35,-3.3 4.07,-1.78 20.13,-8.41 22.81,-8.43z"/>
     <path class="fil0" d="M133.59 90.65c-1.08,-0.17 -2.81,-0.36 -3.51,-0.88 -1.57,0.08 -8.76,-1.29 -11.01,-1.61 -2.22,-0.32 -9.71,-1.34 -11.55,-1.05 0,35.71 0.04,71.42 -0,107.13l0 16.93c-0.02,1.68 -0.46,1.93 1.21,2.09 25.86,2.41 42.37,6.92 65.5,16.32l10.05 4.49 -0.06 -125.62 -11.78 -5.42c-3.88,-1.72 -8.03,-3.29 -12.24,-4.82 -4.16,-1.51 -8.54,-2.89 -12.97,-4.15l-13.64 -3.41z"/>
     <path class="fil0" d="M87.15 114.61l-4.69 0.51 0.01 126.91c0.48,0.34 2.31,1.52 2.93,1.58l12.62 -1.23 3.34 -0.23c12.8,-0.89 26.17,-0.98 38.99,0 0.96,0.07 1.86,0 2.47,0.37 3.59,-0.56 20.67,2.63 24.78,3.39 0.9,0.19 1.5,0.2 2.05,0.63 2,-0.09 5.9,1.18 7.98,1.72 1.1,0.28 2.96,0.89 3.96,1.04 1.1,0.17 3.75,-0.08 5.09,-0.1l5.1 0.11c2.23,-1.17 15.55,-3.84 18.91,-4.41 6.98,-1.17 13.84,-2.11 21.12,-2.69 15.38,-1.21 30.84,-0.91 46.09,0.44 2.37,0.12 9.42,1.15 10.37,0.77l2.24 -1.46 0.02 -126.83 -7.9 -0.75 -0.07 115.78c-4.5,0.01 -9.1,-0.36 -13.69,-0.34 -29.37,0.11 -55.39,6.26 -81.94,16.19 -1.09,0.24 -5,-1.61 -6.3,-2.06 -7.34,-2.57 -12.19,-4.16 -19.9,-6.32 -11.61,-3.26 -17.86,-3.95 -29.37,-5.93 -0.93,-0.1 -1.26,-0.01 -1.86,-0.39l-19.13 -1.37c-6.7,-0.34 -13.21,0.08 -19.89,0.22l-0.05 -115.74 -1.44 -0.14 -1.84 0.36z"/>
     <path class="fil0" d="M182.87 240.5c4.91,1.31 7.16,-0.14 11.22,-1.5 11.49,-3.84 19.57,-6.46 32.26,-8.9 16.65,-3.19 33.86,-4.85 51.67,-4.12 0,-20.85 0.09,-41.7 -0,-62.55 -0.03,-6.26 0.27,-61.29 -0.18,-62.36l-6.66 -0.14 -1.15 0.06 -0.01 115.85c-4.22,0.05 -9.53,0.6 -13.7,1.14 -2.04,0.26 -11.72,1.91 -12.62,1.8 -0.31,0.19 0.06,0.04 -0.61,0.28l-3.88 0.79c-1.63,0.55 -4.77,1.11 -6.62,1.56 -9.31,2.25 -22.4,6.64 -30.93,10.31 -1.48,0.64 -10.53,4.85 -11.13,4.92 -0.3,0.3 -0.06,0.18 -0.67,0.51 -0.16,0.09 -0.57,0.23 -0.79,0.31 -2.97,1.88 -7.98,-1.37 -10.19,-2.39 -3.08,-1.42 -6.07,-2.8 -9.31,-4.08 -20.2,-8.01 -43.58,-14.56 -66.55,-15.13l-0.03 -115.83 -1.06 -0.09 -6.77 0.1c-0.56,1.67 -0.17,123.64 -0.17,124.99 17.1,-0.65 32.45,0.69 48.43,3.46 6.82,1.18 14.1,2.92 20.62,4.77 3.62,1.03 16.18,4.82 18.84,6.24z"/>
    </g>
   </g>
  </g>
 </g>
</svg>
