<?xml version="1.0" encoding="UTF-8"?>
<!DOCTYPE svg PUBLIC "-//W3C//DTD SVG 1.1//EN" "http://www.w3.org/Graphics/SVG/1.1/DTD/svg11.dtd">
<!-- Creator: CorelDRAW 2021 (64-Bit Оценочная версия) -->
<svg xmlns="http://www.w3.org/2000/svg" xml:space="preserve" width="45.5344mm" height="45.5344mm" version="1.1" style="shape-rendering:geometricPrecision; text-rendering:geometricPrecision; image-rendering:optimizeQuality; fill-rule:evenodd; clip-rule:evenodd"
viewBox="0 0 8723.2 8723.2"
 xmlns:xlink="http://www.w3.org/1999/xlink"
 xmlns:xodm="http://www.corel.com/coreldraw/odm/2003">
 <defs>
  <style type="text/css">
   <![CDATA[
    .str0 {stroke:#AFD100;stroke-width:287.36;stroke-miterlimit:22.9256}
    .fil1 {fill:none}
    .fil0 {fill:#3BABED}
   ]]>
  </style>
 </defs>
 <g id="Слой_x0020_1">
  <metadata id="CorelCorpID_0Corel-Layer"/>
  <g id="_2267388278400">
   <path class="fil0" d="M2501.4 3464.67l-1.61 -994.31c-19.66,-126.55 -94.54,-71.11 -25.48,-226.57 135.77,-305.66 355.83,-530.95 635.79,-699.82 147.13,-88.72 286.71,-152.9 455.01,-202.23 689.11,-201.96 1528.66,-147.38 2147.02,266.52 225.46,150.92 504.64,445.98 573.4,741.1 -49.77,74.31 -54.68,24.21 -61.19,137.99l-18.58 578.92c-8.87,164.18 56.02,425.27 -179.16,597.58 -135.42,-581.35 196.31,-496.39 -26.8,-1168.16 -290,-873.08 -1329.18,-1328.07 -2181.66,-1040.32 -331.17,111.78 -573.71,272.13 -803.9,530.49 -243.66,273.47 -352.61,618.99 -353.55,1000.88 -1.71,677.62 188.03,624.03 -279.05,1672.67 -184.26,413.74 -319.18,520.58 -517.56,816.83 81.84,19.08 120.75,53.24 199.18,59.75 -43.81,59.77 -229.1,132.19 -310.85,187.07 -236.46,158.81 -348.09,269.07 -448.68,547.15 -60.48,167.21 -53.45,239.03 -85.77,352.38l-11.13 28.72 -4 476.14 4 0 0 -217.23c90.83,130.71 101.13,190.25 165.54,217.23l50.46 0 5903.73 0c56.82,-21.21 104.81,-56.34 138.85,-112.84l54.92 -104.39 0 -298.76 -0.1 -0.36 -47.38 -191.13c-161.13,-654.89 -714.97,-743.67 -808.94,-883.98 78.43,-6.51 117.34,-40.67 199.18,-59.75 -89.04,-132.97 -183.05,-244.93 -274.93,-382.32 -178.43,-266.8 -321.31,-579.53 -424.72,-889.78 -95.58,-286.81 -126.38,-247.84 102.15,-400.87 278.32,147.28 563.59,40.17 680.22,-275.77 24.58,-66.57 55.29,-229.45 57.45,-322.27 3.66,-157.36 -70.02,-455.81 -139.7,-597.42 -82.36,-167.38 -170.52,-318.18 -418.72,-318.18 -190.48,-817.6 -1003.58,-1353.93 -1813.69,-1432.7l-71.67 -15.46 -441.83 0 -27.7 9.43c-22.62,4.98 -30.42,4.18 -52.78,6.97 -798.25,100.1 -1567.02,625.39 -1754.87,1431.76 -231.82,0 -319.09,125.39 -398.72,278.45 -221.75,426.31 -273.53,1292.72 359.16,1296.94 122.65,0.8 185,-30.86 234.56,-105.75 41.48,-62.63 24.14,-199.28 24.06,-294.58zm494.89 321.46c-52.57,-127.63 -62.78,-101.34 -14.98,-238.91 27.47,-79.12 51.04,-149.91 86.02,-233.62 59.37,-142.11 139.45,-294.99 222.59,-414.72 112.93,-162.68 475.68,-560.43 685.32,-609.26 513.21,766.41 942.73,586.75 1462.44,708.46 180.19,42.2 409.7,219.45 409.7,307.28 0,123.91 -156.61,637.48 -331.65,743.82 -118.72,72.13 -593.4,311.73 -743.84,311.73 -39.27,0 -49.29,-79.66 -119.48,-79.66l-458.07 0c-127.2,0 -167.19,378.42 59.75,378.42 689.76,0 359.16,-21.67 528.55,-128.68 27.55,-17.38 170.17,-43.3 219.18,-59.66l407.4 -150.23c-119.43,178.37 -247.32,318.18 -402.75,453.65 -208.78,181.9 -386.84,283.24 -672.73,283.24 -288.87,0 -618.07,-197.46 -779.55,-375.6 -242.65,-267.65 -409.35,-535.68 -557.88,-896.26zm1006.99 2040.47c-81.4,-117.47 -406.46,-519.09 -406.46,-649.11l19.92 -139.41c159.16,13.24 583.34,579.22 1302.82,68.01 83.58,-59.37 58.28,-85.42 171,-87.93 29.85,111.78 39.81,-8.87 39.81,159.33 0,162.09 -452.78,663.76 -597.63,955.84 -48.97,98.72 -132.88,245.75 -159.18,358.65 -28.2,-32.45 -197.05,-415.39 -370.27,-665.37z"/>
   <circle class="fil1 str0" cx="4361.6" cy="4361.59" r="4217.92"/>
  </g>
 </g>
</svg>
