<?xml version="1.0" encoding="UTF-8"?>
<!DOCTYPE svg PUBLIC "-//W3C//DTD SVG 1.1//EN" "http://www.w3.org/Graphics/SVG/1.1/DTD/svg11.dtd">
<!-- Creator: CorelDRAW 2021 (64-Bit Оценочная версия) -->
<svg xmlns="http://www.w3.org/2000/svg" xml:space="preserve" width="41.091mm" height="33.2077mm" version="1.1" style="shape-rendering:geometricPrecision; text-rendering:geometricPrecision; image-rendering:optimizeQuality; fill-rule:evenodd; clip-rule:evenodd"
viewBox="0 0 754.83 610.01"
 xmlns:xlink="http://www.w3.org/1999/xlink"
 xmlns:xodm="http://www.corel.com/coreldraw/odm/2003">
 <defs>
  <style type="text/css">
   <![CDATA[
    .fil1 {fill:#3BABED}
    .fil0 {fill:#AFD100;fill-rule:nonzero}
   ]]>
  </style>
 </defs>
 <g id="Слой_x0020_1">
  <metadata id="CorelCorpID_0Corel-Layer"/>
  <path class="fil0" d="M305.01 0c79.64,0 152.15,30.53 206.47,80.52l-49.69 8.87c-44,-32.05 -98.18,-50.95 -156.77,-50.95 -73.61,0 -140.26,29.84 -188.49,78.08 -48.24,48.24 -78.08,114.88 -78.08,188.49 0,73.61 29.84,140.25 78.08,188.49 48.24,48.24 114.88,78.07 188.49,78.07 67.29,0 128.75,-24.94 175.66,-66.07l34.5 20.54c-54.71,52.03 -128.71,83.97 -210.17,83.97 -84.22,0 -160.48,-34.14 -215.67,-89.34 -55.19,-55.19 -89.34,-131.45 -89.34,-215.67 0,-84.22 34.14,-160.48 89.34,-215.67 55.19,-55.19 131.45,-89.34 215.67,-89.34z"/>
  <g id="_2267186367856">
   <path class="fil1" d="M300.77 141.49c-10.31,-2.86 -37.55,6.14 -46.32,10.22 -25.31,11.79 -44.13,34.78 -55.05,59.72 -5.83,13.31 -11.82,35.64 7.14,39.09 5.58,1.01 74.84,0.34 86.8,0.34 11.46,0.01 16.93,1.15 20.12,-8.99 1.78,-5.66 2.16,-72.21 1.16,-85.04 -1.14,-14.5 -7.64,-13.62 -13.85,-15.34zm130.11 -4.42c-26.74,-2.49 -47.93,-1.47 -60.77,14.72 -7.03,8.86 -8.03,16.62 -8.13,30.38 -0.59,76.83 1.78,68.59 46.11,68.59l115.59 0c12.64,0 24.21,0.9 29.76,-8.46 9.19,-15.49 -18.13,-43.62 -23.82,-50.02 -29.12,-32.75 -52.37,-50.9 -98.74,-55.21zm260.55 306.06c2.01,-22.69 2.34,-34.85 -4.46,-55.51 -4.65,-14.15 -14.67,-30.64 -22.77,-38.84 -9.9,-10.01 -18.86,-18.87 -35.07,-26.55 -63.57,-30.1 -136.55,2.96 -157.29,67.18 -6.21,19.24 -5.92,32.9 -3.79,53.76l-131.73 -0.16c1.7,-21.59 2.66,-34.07 -4.06,-54.19 -15.09,-45.19 -57.04,-77.49 -106.42,-77.83 -36.12,-0.25 -63.43,14.13 -85.64,37.83 -14.93,15.93 -25.96,39.66 -28.28,63.69 -0.46,4.8 0.51,27.42 0.02,28.29 -8.15,-6.06 -17.85,-18.95 -22.85,-29.89 -5.78,-12.64 -9.26,-27.9 -9.19,-43.95 0.23,-52.49 32.82,-70.56 33.86,-72.56 1.43,-14.23 1.76,-20.5 5.56,-34 11.75,-41.81 23.52,-56.55 48.56,-88.94 23.87,-30.89 40.07,-42.3 80.11,-56.56 39.16,-13.94 90.35,-21.55 135.65,-21.29 47.41,0.27 90.1,13.04 124.66,32.24 35.55,19.74 62.69,45.62 85.1,71.84 6.3,7.37 11.7,14.43 17.67,21.98 6.47,8.18 11.61,13.82 18.47,20.36 16.35,15.6 33.48,13.88 56.91,21.56 41.15,13.48 63.02,39.57 67.28,89.36 3.22,37.62 1.22,65.05 -29.85,85.4 -12.48,8.17 -15.1,7.11 -32.43,6.78z"/>
   <path class="fil1" d="M231.83 380.06c-26.56,-4.45 -47.84,14.84 -51.39,36.76 -4.4,27.21 15.11,48.35 37.63,51.65 26.58,3.89 47.27,-15.22 50.76,-37.38 4.2,-26.68 -14.94,-47.33 -37.01,-51.02zm87.11 52.71c-5.25,48.96 -46.94,90.37 -102.3,85.74 -49.74,-4.16 -90.55,-47.39 -86.31,-102.66 3.77,-49.09 48.35,-91.02 103.06,-85.86 48.19,4.54 91.41,48.1 85.55,102.77z"/>
   <path class="fil1" d="M623.72 432.77c5.21,-27.26 -14.13,-48.5 -35.6,-52.56 -27.08,-5.13 -48.57,14.26 -52.42,35.82 -4.87,27.26 14.34,48.22 36.02,52.18 26.67,4.87 47.93,-14.13 52.01,-35.44zm-138.33 -0.84c-4.42,-54.43 36.61,-97.38 85.51,-101.92 54.97,-5.11 98.92,36.52 103.12,85.86 4.72,55.25 -37.09,98.65 -86.35,102.66 -54.93,4.46 -98.25,-36.98 -102.28,-86.59z"/>
  </g>
 </g>
</svg>
