<?xml version="1.0" encoding="UTF-8"?>
<!DOCTYPE svg PUBLIC "-//W3C//DTD SVG 1.1//EN" "http://www.w3.org/Graphics/SVG/1.1/DTD/svg11.dtd">
<!-- Creator: CorelDRAW 2021 (64-Bit Оценочная версия) -->
<svg xmlns="http://www.w3.org/2000/svg" xml:space="preserve" width="33.2858mm" height="30.0093mm" version="1.1" style="shape-rendering:geometricPrecision; text-rendering:geometricPrecision; image-rendering:optimizeQuality; fill-rule:evenodd; clip-rule:evenodd"
viewBox="0 0 374.14 337.31"
 xmlns:xlink="http://www.w3.org/1999/xlink"
 xmlns:xodm="http://www.corel.com/coreldraw/odm/2003">
 <defs>
  <style type="text/css">
   <![CDATA[
    .fil1 {fill:#FEFEFE}
    .fil0 {fill:#AFD100}
    .fil2 {fill:#B0D201}
   ]]>
  </style>
 </defs>
 <g id="Слой_x0020_1">
  <metadata id="CorelCorpID_0Corel-Layer"/>
  <g id="_2274326422272">
   <g>
    <polygon class="fil0" points="374.14,0 -0,0 -0,337.31 374.14,337.31 "/>
    <circle class="fil1" cx="187.07" cy="168.66" r="137.96"/>
   </g>
   <g>
    <path class="fil2" d="M99.9 233.29l0 -5.01 0 -5.01 0 -5.01 0 -5.01 0 -5.01 0 -5.01 0 -5.01 0 -5.01 0 -5.01 0 -22.39c4.43,0 33.42,-0.36 35.23,0.16l-0.14 78.74c-2.7,0.59 -29.68,0.11 -34.93,0.11 -0.55,-2.49 -0.16,-8.61 -0.16,-11.51z"/>
    <path class="fil2" d="M181.42 92.33l0.03 109.88c-0.09,7.54 -0.3,36.37 0.12,42.23 -1.25,0.75 -31.18,0.36 -35.21,0.36l0 -152.38 35.06 -0.09z"/>
    <polygon class="fil2" points="227.9,148.07 227.9,153.08 227.9,158.1 227.9,163.11 227.9,168.12 227.9,173.13 227.9,178.15 227.9,183.16 227.9,188.17 227.9,193.19 227.9,198.2 227.9,203.21 227.9,208.22 227.9,213.24 227.9,218.25 227.9,223.26 227.9,228.28 227.9,233.29 227.9,238.3 227.9,243.31 227.9,244.78 192.66,244.8 192.66,138.98 227.85,139.09 "/>
    <path class="fil2" d="M239.06 238.63l0 -5.68 0 -4.35 0 -5.68 0 -4.35 0 -5.68 0 -4.35 0 -5.68 0 -4.35 0 -5.68 0 -4.35 -0.13 -6.73 35.41 0.05 0.04 63.05c-6.14,-0.42 -22.92,0.04 -31.43,-0.04 -0.48,-0 -2.05,0.08 -2.37,0.04 -1.66,-0.19 -1.23,0.46 -1.52,-0.89l0.01 -5.35z"/>
   </g>
  </g>
 </g>
</svg>
