<?xml version="1.0" encoding="UTF-8"?>
<!DOCTYPE svg PUBLIC "-//W3C//DTD SVG 1.1//EN" "http://www.w3.org/Graphics/SVG/1.1/DTD/svg11.dtd">
<!-- Creator: CorelDRAW 2021 (64-Bit Оценочная версия) -->
<svg xmlns="http://www.w3.org/2000/svg" xml:space="preserve" width="32.3168mm" height="33.3797mm" version="1.1" style="shape-rendering:geometricPrecision; text-rendering:geometricPrecision; image-rendering:optimizeQuality; fill-rule:evenodd; clip-rule:evenodd"
viewBox="0 0 400.14 413.3"
 xmlns:xlink="http://www.w3.org/1999/xlink"
 xmlns:xodm="http://www.corel.com/coreldraw/odm/2003">
 <defs>
  <style type="text/css">
   <![CDATA[
    .fil0 {fill:#3BABED}
    .fil1 {fill:#AFD100}
   ]]>
  </style>
 </defs>
 <g id="Слой_x0020_1">
  <metadata id="CorelCorpID_0Corel-Layer"/>
  <g id="_2267517152224">
   <path class="fil0" d="M128.49 0l-3.41 0 -6.89 2.14c-8.16,4.36 -32.71,21.43 -38.7,26.69l-4.8 4.06c-0.96,0.79 -1.39,0.88 -2.29,1.72 -4.62,4.35 -8.61,8.98 -11.98,14.23 -10.67,16.6 -8.39,30.77 -5.25,49.41 1.07,6.36 5.03,21.44 6.84,27.87l8.21 26.47c2.89,8.7 6.01,17.28 9.15,25.47l15.5 36.98c3.64,8.66 13.65,26.52 18.6,33.39 2.55,3.54 4.91,7.02 6.98,10.37 3.23,5.23 7.64,9.93 11.41,14.84 6.09,7.94 13.6,15.93 20.69,22.87 8.08,7.91 16.04,16 24.61,23.4 6.67,5.76 10.17,8.16 17.03,13.19l15.51 10.73c13.91,10.01 37.34,25.27 53.21,33.51 7.67,3.98 16.34,7.83 24.7,10.01 11.01,2.87 20.32,2.05 30.12,-1.51 3.5,-1.27 8.33,-3.92 11.48,-5.93l33.85 -27.06c1.71,-1.48 3.01,-2.52 4.54,-3.92 3.25,-2.98 6.52,-5.06 8.07,-9.25 5.84,-15.85 -8.93,-36.58 -18.52,-48.6 -5.03,-6.3 -10.64,-12.54 -16.4,-18.27l-13.69 -12.56c-1.37,-1.27 -3.04,-2.54 -4.62,-3.8l-10.34 -7.48c-4.21,-2.53 -7.03,-4.51 -12.99,-2.74 -13.49,4 -27.75,23.3 -34.43,34.89 -0.98,1.7 -2.31,4.11 -3.16,5.71 -1.55,2.92 -7.04,16.5 -8.1,17.61 -2.33,-0.65 -9.46,-5.35 -11.99,-7.03 -14.48,-9.65 -16.84,-10.59 -32.24,-24.21 -3.3,-2.92 -6.74,-5.97 -9.96,-9.15 -13.65,-13.51 -25.98,-27.62 -36.44,-44.06l-12.3 -20.57c-1.15,-2.01 -1.98,-3.6 -3.26,-6.09 -0.66,-1.29 -1.04,-2.03 -1.7,-3.21l-7.56 -16.04c-2.9,-7.25 -12.95,-32.94 -13.72,-40.42 -0.33,-3.2 3.25,-2.68 6.85,-3.53 2.23,-0.53 4.14,-0.92 6.36,-1.57 4.36,-1.28 8.3,-2.5 12.61,-3.77 6.01,-1.77 12.15,-4.61 17.85,-7.06l10.51 -6.01c9.23,-6.85 16.37,-12.75 11.1,-25.57 -9.43,-22.96 -27.52,-66.63 -49.66,-81.52 -3.65,-2.46 -6.35,-3.12 -10.42,-4.25l-0.97 -0.37z"/>
   <path class="fil1" d="M-0 207.5l0 11.84c0.36,0.52 0.79,11.39 1.07,13.42 0.61,4.45 0.96,8.52 1.63,12.97 1.4,9.25 5.58,26.11 8.94,34.7 6.5,16.68 14.28,33.69 24.92,48.02 3.17,4.27 9.35,12.63 12.78,16.14l7.13 7.54c5.94,6.17 8.49,8.22 14.85,14.05 10.2,9.36 26.84,19.83 39.43,25.87 1.63,0.78 3.05,1.7 4.69,2.49 18.52,8.98 48.6,17.34 69.52,18.04 7.72,0.26 20.56,1.33 28.2,0.21 4.28,-0.63 8.82,-0.61 13.35,-1.28 4.52,-0.66 7.86,-1.21 12.13,-2.04 3.87,-0.75 18.45,-3.92 22.25,-5.87l0.57 -0.36c-3.75,-2.58 -7.69,-3.8 -11.81,-6l-11.3 -6.5c-7.65,-4.73 -6.93,-5.04 -12.31,-4.11 -5.53,0.96 -18.14,1.99 -24.18,1.96l-16.95 -0.79c-20.5,-1.87 -44.23,-7.9 -62.22,-17.45 -21.92,-11.63 -33.12,-19.54 -50.59,-37.42 -2.9,-2.97 -5.28,-6.16 -8.05,-9.29 -5.08,-5.74 -10.25,-14.16 -14.6,-20.98 -3.28,-5.13 -2.65,-4.81 -4.67,-8.63 -0.59,-1.12 -0.98,-1.51 -1.67,-2.79 -2.01,-3.76 -3.72,-7.99 -5.29,-12.03 -8.72,-22.44 -10.69,-33.5 -12.94,-57.77 -2.04,-21.97 4.63,-55.14 13.33,-75.23 3.05,-7.04 3.25,-5.03 1.1,-13l-5.24 -21.5c-0.46,-1.82 -0.98,-5.13 -1.58,-6.8 -2.13,1.4 -10.68,17.78 -12.5,21.37 -6.83,13.46 -14.29,36.42 -16.61,51.04 -0.76,4.75 -1.69,9.7 -2.13,14.73 -0.18,2.04 -0.85,14.86 -1.24,15.46z"/>
   <path class="fil1" d="M400.14 222.36l0 -18.19c-0.25,-0.44 -0.21,-0.2 -0.36,-1.05l-0.69 -10.41c-0.52,-3.94 -0.9,-7.7 -1.52,-11.34 -1.26,-7.41 -2.65,-14.15 -4.61,-21.27 -2.72,-9.87 -7.58,-23.24 -12.21,-32.64 -3.56,-7.23 -6.79,-13.47 -11.37,-20.68 -1.77,-2.79 -3.18,-4.96 -5.14,-7.76l-6.87 -9.14c-4.96,-6.68 -10.93,-12.68 -16.75,-18.81 -13.78,-14.5 -35.47,-28.9 -52.43,-37.41 -2.53,-1.27 -5.93,-2.73 -8.86,-3.95 -3.17,-1.33 -6.16,-2.8 -9.2,-3.78 -8.48,-2.75 -9.95,-3.64 -19.64,-6.18 -22.6,-5.91 -35.14,-6.14 -57.98,-6.26 -4.03,-0.02 -8.34,0.8 -12.09,0.8 1.08,2.96 11.86,18.56 13.35,24.01 2.48,0 4.05,-0.46 6.75,-0.46 2.73,0 4.14,0.45 6.65,0.49 18.37,0.22 42.72,5.57 58.87,12.56 7.35,3.18 12.71,5.98 19.48,9.5 4.9,2.55 12.93,7.79 17.4,11.04 6.46,4.69 21.81,17.72 26.46,23.78 1.21,1.58 2.09,2.12 3.4,3.73 4.28,5.23 8.64,10.39 12.6,16.27l5.41 8.86c10.24,17.85 15.46,30.23 20.41,51.06 5.86,24.68 5.34,53.33 -0.35,77.99l-3.1 11.06c-0.92,3.23 0.99,3.93 4.74,8.43l12.53 16.22c4.67,-6.09 11.79,-37.04 13.22,-48.03 0.41,-3.12 0.8,-6.03 1.03,-9.17l0.87 -9.27z"/>
  </g>
 </g>
</svg>
