<?xml version="1.0" encoding="UTF-8"?>
<!DOCTYPE svg PUBLIC "-//W3C//DTD SVG 1.1//EN" "http://www.w3.org/Graphics/SVG/1.1/DTD/svg11.dtd">
<!-- Creator: CorelDRAW 2021 (64-Bit Оценочная версия) -->
<svg xmlns="http://www.w3.org/2000/svg" xml:space="preserve" width="27.8696mm" height="27.8868mm" version="1.1" style="shape-rendering:geometricPrecision; text-rendering:geometricPrecision; image-rendering:optimizeQuality; fill-rule:evenodd; clip-rule:evenodd"
viewBox="0 0 272.67 272.84"
 xmlns:xlink="http://www.w3.org/1999/xlink"
 xmlns:xodm="http://www.corel.com/coreldraw/odm/2003">
 <defs>
  <style type="text/css">
   <![CDATA[
    .fil1 {fill:#FEFEFE}
    .fil0 {fill:#AFD100}
   ]]>
  </style>
 </defs>
 <g id="Слой_x0020_1">
  <metadata id="CorelCorpID_0Corel-Layer"/>
  <g id="_2274330119760">
   <g>
    <path class="fil0" d="M215 250.25c1.27,0.28 2.87,0.65 4.96,1.07l20.42 3.97c10.39,2.08 20.57,4.08 26.27,-7.68 3.27,-6.76 0.62,-12.54 -1.12,-18.61l-7.86 -25.91 -0.87 -2.86c-1.08,-3.37 3.75,-10.53 6.47,-17.26 4.55,-11.29 8.72,-28.68 8.82,-41.1 0.02,-2.67 0.46,-4.71 0.58,-7.13l0 -2.17c-0.04,-0.73 -0.11,-1.51 -0.24,-2.36 -2.05,-13.54 0.49,-12.11 -4.86,-32.58 -1.44,-5.52 -4.23,-13.42 -6.62,-18.34l-4.17 -8.31c-4.45,-8.98 -12.5,-20.38 -20.77,-29.26 -2.78,-2.88 -5.69,-5.64 -8.71,-8.27 -0.3,-0.25 -0.61,-0.49 -0.91,-0.72 -0.69,-0.54 -1.14,-0.97 -1.58,-1.39 -5.21,-4.32 -10.74,-8.25 -16.55,-11.77 -1.06,-0.64 -2.12,-1.26 -3.19,-1.87 -14.17,-8.06 -29.92,-13.68 -46.67,-16.27 -81.53,-11.25 -149.14,45.69 -157.76,122.29 -0.42,4.4 -0.64,8.86 -0.64,13.38 0,53.19 30.25,99.31 74.48,122.1 2.77,1.35 5.73,2.63 8.96,3.85 24.59,9.32 45.23,12.18 72.54,7.78 14.27,-2.29 34.14,-9.16 46.03,-16.37 8.34,-5.06 7.02,-5.53 12.99,-4.2z"/>
    <path class="fil1" d="M35.14 89.41c8.6,-17.12 21.73,-33.87 37.58,-44.37 7.87,-5.22 8.74,-5.78 17.26,-10.06 27.7,-13.9 60.92,-15.05 89.86,-3.55 17.55,6.98 28.7,15.76 40.7,28.22 15.42,16.01 27.77,45.36 27.77,68.47 0,20.33 -1.39,33.64 -9.53,51.94l-5.18 10.34c-1.9,3.39 -3.92,5.91 -3.92,11.6 0,5.43 5.38,18.61 6.83,24.83 -3.83,-0.89 -8,-1.66 -11.85,-2.43 -24.75,-4.96 -15.55,1.42 -46.52,15.46 -29.2,13.24 -60.7,11.81 -89.76,-0.25 -35.53,-14.76 -64.21,-55.28 -64.21,-94.11 0,-21.5 1.35,-36.95 10.97,-56.09z"/>
   </g>
   <g>
    <path class="fil0" d="M84.88 98.97c0,9.7 6.29,16.42 14.69,16.42 11.44,0 13.95,-3.69 18.73,-13.25 1.91,-3.82 2.96,-6.33 5.94,-9.19 0.09,-0.09 0.36,-0.33 0.45,-0.41l3.59 -2.03c7.81,-2.68 22.72,-1.37 22.72,12.35 0,7.72 -6.41,12.05 -10.05,15.45 -6.92,6.47 -24.53,15.13 -24.53,32.52 0,16.96 19.36,20.95 27.57,12.87 2.91,-2.87 3.67,-5.61 5.21,-9.48 1.09,-2.72 1.76,-4.17 3.78,-6.16 0.06,-0.06 0.16,-0.15 0.22,-0.21 7.94,-7.55 18.91,-12.21 26.63,-22.63 9.46,-12.76 10.44,-27.79 3.15,-41.81 -2.71,-5.21 -6.6,-9.25 -11.24,-12.53 -7.46,-5.26 -16.16,-8.3 -25.68,-9.76 -18.84,-2.89 -33.08,0.86 -47.54,12.17 -2.98,2.33 -5.87,5.71 -7.95,8.91 -2.55,3.91 -5.7,10.5 -5.7,16.78z"/>
    <path class="fil0" d="M113.84 191.89c0,6.63 1.12,10.42 5.72,15.03 7.59,7.6 18.96,7.51 27.2,0.61 2.8,-2.34 5.98,-8.48 5.98,-12.61 0,-4.44 0.2,-6.08 -1.8,-10.3 -0.41,-0.86 -0.94,-1.86 -1.59,-2.73 -7.57,-10.16 -21.49,-10.7 -29.57,-2.65 -2.82,2.81 -5.93,7.25 -5.93,12.65z"/>
   </g>
  </g>
 </g>
</svg>
