<?xml version="1.0" encoding="UTF-8"?>
<!DOCTYPE svg PUBLIC "-//W3C//DTD SVG 1.1//EN" "http://www.w3.org/Graphics/SVG/1.1/DTD/svg11.dtd">
<!-- Creator: CorelDRAW 2017 -->
<svg xmlns="http://www.w3.org/2000/svg" xml:space="preserve" width="27.8809mm" height="27.8982mm" version="1.1" style="shape-rendering:geometricPrecision; text-rendering:geometricPrecision; image-rendering:optimizeQuality; fill-rule:evenodd; clip-rule:evenodd"
viewBox="0 0 188.74 188.85"
 xmlns:xlink="http://www.w3.org/1999/xlink">
 <defs>
  <style type="text/css">
   <![CDATA[
    .fil0 {fill:#3BABED}
   ]]>
  </style>
 </defs>
 <g id="Слой_x0020_1">
  <metadata id="CorelCorpID_0Corel-Layer"/>
  <path class="fil0" d="M148.82 173.22c0.88,0.2 1.99,0.45 3.43,0.74l14.14 2.75c7.19,1.44 14.24,2.82 18.18,-5.31 2.27,-4.68 0.43,-8.68 -0.77,-12.88l-5.44 -17.94 -0.6 -1.98c-0.75,-2.33 2.6,-7.29 4.48,-11.95 3.15,-7.81 6.04,-19.85 6.11,-28.45 0.02,-1.85 0.32,-3.26 0.4,-4.94l0 -1.5c-0.02,-0.51 -0.08,-1.05 -0.17,-1.64 -1.42,-9.37 0.34,-8.39 -3.36,-22.55 -1,-3.82 -2.93,-9.29 -4.58,-12.7l-2.89 -5.75c-3.08,-6.22 -8.65,-14.11 -14.38,-20.26 -1.93,-1.99 -3.94,-3.9 -6.03,-5.72 -0.21,-0.17 -0.42,-0.34 -0.63,-0.5 -0.48,-0.37 -0.79,-0.67 -1.09,-0.96 -3.6,-2.99 -7.43,-5.71 -11.46,-8.15 -0.73,-0.44 -1.47,-0.88 -2.21,-1.3 -9.81,-5.58 -20.71,-9.47 -32.3,-11.26 -56.43,-7.78 -103.23,31.63 -109.19,84.64 -0.29,3.05 -0.44,6.14 -0.44,9.26 0,36.81 20.94,68.74 51.55,84.52 1.92,0.93 3.96,1.82 6.2,2.67 17.02,6.45 31.31,8.43 50.21,5.39 9.88,-1.59 23.63,-6.34 31.86,-11.33 5.77,-3.5 4.86,-3.83 8.99,-2.9zm-124.5 -111.33c5.96,-11.85 15.04,-23.44 26.01,-30.71 5.45,-3.61 6.05,-4 11.95,-6.96 19.18,-9.62 42.17,-10.42 62.2,-2.46 12.15,4.83 19.86,10.91 28.17,19.53 10.67,11.08 19.22,31.4 19.22,47.39 0,14.07 -0.96,23.29 -6.59,35.95l-3.58 7.16c-1.31,2.34 -2.72,4.09 -2.72,8.03 0,3.76 3.72,12.88 4.73,17.19 -2.65,-0.62 -5.54,-1.15 -8.2,-1.68 -17.13,-3.43 -10.76,0.98 -32.2,10.7 -20.21,9.16 -42.02,8.18 -62.13,-0.18 -24.6,-10.21 -44.44,-38.26 -44.44,-65.14 0,-14.88 0.93,-25.58 7.59,-38.82z"/>
 </g>
</svg>
