<?xml version="1.0" encoding="UTF-8"?>
<!DOCTYPE svg PUBLIC "-//W3C//DTD SVG 1.1//EN" "http://www.w3.org/Graphics/SVG/1.1/DTD/svg11.dtd">
<!-- Creator: CorelDRAW 2021 (64-Bit Оценочная версия) -->
<svg xmlns="http://www.w3.org/2000/svg" xml:space="preserve" width="27.8809mm" height="27.8982mm" version="1.1" style="shape-rendering:geometricPrecision; text-rendering:geometricPrecision; image-rendering:optimizeQuality; fill-rule:evenodd; clip-rule:evenodd"
viewBox="0 0 272.9 273.07"
 xmlns:xlink="http://www.w3.org/1999/xlink"
 xmlns:xodm="http://www.corel.com/coreldraw/odm/2003">
 <defs>
  <style type="text/css">
   <![CDATA[
    .fil2 {fill:none}
    .fil1 {fill:#FEFEFE}
    .fil0 {fill:#3BABED}
   ]]>
  </style>
    <clipPath id="id0">
     <path d="M35.17 89.49c8.61,-17.13 21.74,-33.89 37.61,-44.41 7.88,-5.22 8.74,-5.79 17.27,-10.07 27.73,-13.91 60.97,-15.07 89.93,-3.56 17.57,6.98 28.72,15.78 40.73,28.24 15.43,16.02 27.8,45.4 27.8,68.52 0,20.35 -1.39,33.67 -9.53,51.99l-5.18 10.35c-1.9,3.39 -3.93,5.92 -3.93,11.61 0,5.43 5.38,18.62 6.83,24.85 -3.83,-0.89 -8.01,-1.66 -11.86,-2.43 -24.77,-4.96 -15.56,1.42 -46.56,15.47 -29.22,13.25 -60.75,11.82 -89.83,-0.25 -35.56,-14.77 -64.26,-55.33 -64.26,-94.19 0,-21.52 1.35,-36.98 10.98,-56.13z"/>
    </clipPath>
     <clipPath id="id1">
      <path d="M35.17 89.49c8.61,-17.13 21.74,-33.89 37.61,-44.41 7.88,-5.22 8.74,-5.79 17.27,-10.07 27.73,-13.91 60.97,-15.07 89.93,-3.56 17.57,6.98 28.72,15.78 40.73,28.24 15.43,16.02 27.8,45.4 27.8,68.52 0,20.35 -1.39,33.67 -9.53,51.99l-5.18 10.35c-1.9,3.39 -3.93,5.92 -3.93,11.61 0,5.43 5.38,18.62 6.83,24.85 -3.83,-0.89 -8.01,-1.66 -11.86,-2.43 -24.77,-4.96 -15.56,1.42 -46.56,15.47 -29.22,13.25 -60.75,11.82 -89.83,-0.25 -35.56,-14.77 -64.26,-55.33 -64.26,-94.19 0,-21.52 1.35,-36.98 10.98,-56.13z"/>
     </clipPath>
      <clipPath id="id2">
       <rect x="-7.59" y="1.74" width="295.72" height="370.69"/>
      </clipPath>
     <clipPath id="id3">
      <path d="M35.17 89.49c8.61,-17.13 21.74,-33.89 37.61,-44.41 7.88,-5.22 8.74,-5.79 17.27,-10.07 27.73,-13.91 60.97,-15.07 89.93,-3.56 17.57,6.98 28.72,15.78 40.73,28.24 15.43,16.02 27.8,45.4 27.8,68.52 0,20.35 -1.39,33.67 -9.53,51.99l-5.18 10.35c-1.9,3.39 -3.93,5.92 -3.93,11.61 0,5.43 5.38,18.62 6.83,24.85 -3.83,-0.89 -8.01,-1.66 -11.86,-2.43 -24.77,-4.96 -15.56,1.42 -46.56,15.47 -29.22,13.25 -60.75,11.82 -89.83,-0.25 -35.56,-14.77 -64.26,-55.33 -64.26,-94.19 0,-21.52 1.35,-36.98 10.98,-56.13z"/>
     </clipPath>
 </defs>
 <g id="Слой_x0020_1">
  <metadata id="CorelCorpID_0Corel-Layer"/>
  <g id="_2274331883056">
   <path class="fil0" d="M215.18 250.46c1.27,0.28 2.87,0.65 4.96,1.07l20.44 3.97c10.4,2.08 20.59,4.08 26.29,-7.68 3.28,-6.76 0.62,-12.55 -1.12,-18.63l-7.87 -25.93 -0.87 -2.86c-1.08,-3.37 3.75,-10.54 6.47,-17.27 4.56,-11.3 8.73,-28.7 8.83,-41.13 0.02,-2.68 0.46,-4.71 0.58,-7.14l0 -2.17c-0.04,-0.74 -0.11,-1.52 -0.24,-2.37 -2.05,-13.55 0.49,-12.12 -4.86,-32.6 -1.44,-5.52 -4.23,-13.43 -6.62,-18.36l-4.18 -8.32c-4.46,-8.99 -12.51,-20.4 -20.79,-29.29 -2.78,-2.88 -5.69,-5.64 -8.72,-8.27 -0.3,-0.25 -0.61,-0.49 -0.91,-0.72 -0.69,-0.54 -1.14,-0.97 -1.58,-1.39 -5.21,-4.32 -10.75,-8.26 -16.56,-11.78 -1.06,-0.64 -2.13,-1.27 -3.2,-1.87 -14.18,-8.07 -29.95,-13.69 -46.71,-16.28 -81.59,-11.25 -149.26,45.73 -157.88,122.39 -0.42,4.4 -0.64,8.87 -0.64,13.39 0,53.23 30.27,99.39 74.54,122.2 2.77,1.35 5.73,2.63 8.97,3.85 24.61,9.33 45.27,12.19 72.6,7.79 14.28,-2.29 34.17,-9.17 46.07,-16.38 8.35,-5.07 7.03,-5.53 13,-4.2z"/>
   <path class="fil1" d="M35.17 89.49c8.61,-17.13 21.74,-33.89 37.61,-44.41 7.88,-5.22 8.74,-5.79 17.27,-10.07 27.73,-13.91 60.97,-15.07 89.93,-3.56 17.57,6.98 28.72,15.78 40.73,28.24 15.43,16.02 27.8,45.4 27.8,68.52 0,20.35 -1.39,33.67 -9.53,51.99l-5.18 10.35c-1.9,3.39 -3.93,5.92 -3.93,11.61 0,5.43 5.38,18.62 6.83,24.85 -3.83,-0.89 -8.01,-1.66 -11.86,-2.43 -24.77,-4.96 -15.56,1.42 -46.56,15.47 -29.22,13.25 -60.75,11.82 -89.83,-0.25 -35.56,-14.77 -64.26,-55.33 -64.26,-94.19 0,-21.52 1.35,-36.98 10.98,-56.13z"/>
   <g style="clip-path:url(#id0)">
    <g>
    </g>
    <g style="clip-path:url(#id1)">
     <image style="clip-path:url(#id2)" x="-835.58" y="-595.01" width="2319.7" height="1449.81" xlink:href="5-1_Images\5-1_ImgID1.png"/>
    </g>
    <g style="clip-path:url(#id3)">
    </g>
   </g>
   <path class="fil2" d="M35.17 89.49c8.61,-17.13 21.74,-33.89 37.61,-44.41 7.88,-5.22 8.74,-5.79 17.27,-10.07 27.73,-13.91 60.97,-15.07 89.93,-3.56 17.57,6.98 28.72,15.78 40.73,28.24 15.43,16.02 27.8,45.4 27.8,68.52 0,20.35 -1.39,33.67 -9.53,51.99l-5.18 10.35c-1.9,3.39 -3.93,5.92 -3.93,11.61 0,5.43 5.38,18.62 6.83,24.85 -3.83,-0.89 -8.01,-1.66 -11.86,-2.43 -24.77,-4.96 -15.56,1.42 -46.56,15.47 -29.22,13.25 -60.75,11.82 -89.83,-0.25 -35.56,-14.77 -64.26,-55.33 -64.26,-94.19 0,-21.52 1.35,-36.98 10.98,-56.13z"/>
  </g>
 </g>
</svg>
