<?xml version="1.0" encoding="UTF-8"?>
<!DOCTYPE svg PUBLIC "-//W3C//DTD SVG 1.1//EN" "http://www.w3.org/Graphics/SVG/1.1/DTD/svg11.dtd">
<!-- Creator: CorelDRAW 2021 (64-Bit Оценочная версия) -->
<svg xmlns="http://www.w3.org/2000/svg" xml:space="preserve" width="14.9366mm" height="14.9366mm" version="1.1" style="shape-rendering:geometricPrecision; text-rendering:geometricPrecision; image-rendering:optimizeQuality; fill-rule:evenodd; clip-rule:evenodd"
viewBox="0 0 140.87 140.87"
 xmlns:xlink="http://www.w3.org/1999/xlink"
 xmlns:xodm="http://www.corel.com/coreldraw/odm/2003">
 <defs>
  <style type="text/css">
   <![CDATA[
    .str0 {stroke:#FEFEFE;stroke-width:8.04;stroke-miterlimit:22.9256}
    .fil1 {fill:none;fill-rule:nonzero}
    .fil0 {fill:#FEFEFE}
    .fil2 {fill:#B6D12E;fill-rule:nonzero}
   ]]>
  </style>
 </defs>
 <g id="Слой_x0020_1">
  <metadata id="CorelCorpID_0Corel-Layer"/>
  <g id="_1608698132256">
   <path class="fil0" d="M70.44 14.21c31.05,0 56.23,25.17 56.23,56.23 0,31.05 -25.17,56.23 -56.23,56.23 -31.05,0 -56.23,-25.17 -56.23,-56.23 0,-31.05 25.17,-56.23 56.23,-56.23z"/>
   <g>
    <path class="fil1 str0" d="M70.44 4.02c18.34,0 34.95,7.43 46.96,19.45 12.02,12.02 19.45,28.62 19.45,46.96 0,18.34 -7.43,34.95 -19.45,46.96 -12.02,12.02 -28.63,19.45 -46.96,19.45 -18.34,0 -34.95,-7.43 -46.96,-19.45 -12.02,-12.02 -19.45,-28.62 -19.45,-46.96 0,-18.34 7.43,-34.94 19.45,-46.96 12.02,-12.02 28.62,-19.45 46.96,-19.45zm-26.76 40.57l0 51.78c0,4.35 1.54,7.03 4.87,8.07 1.8,0.56 3.62,0.4 5.25,-0.4 1.53,-0.75 2.78,-1.4 4.31,-2.16 3.73,-1.86 50.69,-25.05 51.8,-26.09 2.76,-2.57 3.11,-6.5 1.27,-9.2 -1.48,-2.16 -5.11,-3.52 -7.99,-4.96l-43.15 -21.58c-1.9,-0.95 -7.07,-3.94 -9.22,-3.94 -2.04,0 -4.47,1.25 -5.4,2.41 -1.24,1.55 -1.75,3.34 -1.75,6.07z"/>
    <path id="_1" class="fil2" d="M70.44 4.02c18.34,0 34.95,7.43 46.96,19.45 12.02,12.02 19.45,28.62 19.45,46.96 0,18.34 -7.43,34.95 -19.45,46.96 -12.02,12.02 -28.63,19.45 -46.96,19.45 -18.34,0 -34.95,-7.43 -46.96,-19.45 -12.02,-12.02 -19.45,-28.62 -19.45,-46.96 0,-18.34 7.43,-34.94 19.45,-46.96 12.02,-12.02 28.62,-19.45 46.96,-19.45zm-26.76 40.57l0 51.78c0,4.35 1.54,7.03 4.87,8.07 1.8,0.56 3.62,0.4 5.25,-0.4 1.53,-0.75 2.78,-1.4 4.31,-2.16 3.73,-1.86 50.69,-25.05 51.8,-26.09 2.76,-2.57 3.11,-6.5 1.27,-9.2 -1.48,-2.16 -5.11,-3.52 -7.99,-4.96l-43.15 -21.58c-1.9,-0.95 -7.07,-3.94 -9.22,-3.94 -2.04,0 -4.47,1.25 -5.4,2.41 -1.24,1.55 -1.75,3.34 -1.75,6.07z"/>
   </g>
  </g>
 </g>
</svg>
