<?xml version="1.0" encoding="UTF-8"?>
<!DOCTYPE svg PUBLIC "-//W3C//DTD SVG 1.1//EN" "http://www.w3.org/Graphics/SVG/1.1/DTD/svg11.dtd">
<!-- Creator: CorelDRAW 2021 (64-Bit Оценочная версия) -->
<svg xmlns="http://www.w3.org/2000/svg" xml:space="preserve" width="5.8991mm" height="5.8991mm" version="1.1" style="shape-rendering:geometricPrecision; text-rendering:geometricPrecision; image-rendering:optimizeQuality; fill-rule:evenodd; clip-rule:evenodd"
viewBox="0 0 14.91 14.91"
 xmlns:xlink="http://www.w3.org/1999/xlink"
 xmlns:xodm="http://www.corel.com/coreldraw/odm/2003">
 <defs>
  <style type="text/css">
   <![CDATA[
    .str0 {stroke:#FEFEFE;stroke-width:0.85;stroke-miterlimit:22.9256}
    .fil1 {fill:none;fill-rule:nonzero}
    .fil0 {fill:#FEFEFE}
    .fil2 {fill:#9D9E9E;fill-rule:nonzero}
   ]]>
  </style>
 </defs>
 <g id="Слой_x0020_1">
  <metadata id="CorelCorpID_0Corel-Layer"/>
  <g id="_2979416528304">
   <path class="fil0" d="M7.45 2.06c3.29,0 5.95,2.66 5.95,5.95 0,3.29 -2.66,5.95 -5.95,5.95 -3.29,0 -5.95,-2.66 -5.95,-5.95 0,-3.29 2.66,-5.95 5.95,-5.95z"/>
   <g>
    <path class="fil1 str0" d="M7.45 0.43c1.94,0 3.7,0.79 4.97,2.06 1.27,1.27 2.06,3.03 2.06,4.97 0,1.94 -0.79,3.7 -2.06,4.97 -1.27,1.27 -3.03,2.06 -4.97,2.06 -1.94,0 -3.7,-0.79 -4.97,-2.06 -1.27,-1.27 -2.06,-3.03 -2.06,-4.97 0,-1.94 0.79,-3.7 2.06,-4.97 1.27,-1.27 3.03,-2.06 4.97,-2.06zm-2.83 4.29l0 5.48c0,0.46 0.16,0.74 0.52,0.85 0.19,0.06 0.38,0.04 0.56,-0.04 0.16,-0.08 0.29,-0.15 0.46,-0.23 0.4,-0.2 5.37,-2.65 5.48,-2.76 0.29,-0.27 0.33,-0.69 0.13,-0.97 -0.16,-0.23 -0.54,-0.37 -0.85,-0.52l-4.57 -2.28c-0.2,-0.1 -0.75,-0.42 -0.98,-0.42 -0.22,0 -0.47,0.13 -0.57,0.26 -0.13,0.16 -0.18,0.35 -0.18,0.64z"/>
    <path id="_1" class="fil2" d="M7.45 0.43c1.94,0 3.7,0.79 4.97,2.06 1.27,1.27 2.06,3.03 2.06,4.97 0,1.94 -0.79,3.7 -2.06,4.97 -1.27,1.27 -3.03,2.06 -4.97,2.06 -1.94,0 -3.7,-0.79 -4.97,-2.06 -1.27,-1.27 -2.06,-3.03 -2.06,-4.97 0,-1.94 0.79,-3.7 2.06,-4.97 1.27,-1.27 3.03,-2.06 4.97,-2.06zm-2.83 4.29l0 5.48c0,0.46 0.16,0.74 0.52,0.85 0.19,0.06 0.38,0.04 0.56,-0.04 0.16,-0.08 0.29,-0.15 0.46,-0.23 0.4,-0.2 5.37,-2.65 5.48,-2.76 0.29,-0.27 0.33,-0.69 0.13,-0.97 -0.16,-0.23 -0.54,-0.37 -0.85,-0.52l-4.57 -2.28c-0.2,-0.1 -0.75,-0.42 -0.98,-0.42 -0.22,0 -0.47,0.13 -0.57,0.26 -0.13,0.16 -0.18,0.35 -0.18,0.64z"/>
   </g>
  </g>
 </g>
</svg>
