<svg xmlns="http://www.w3.org/2000/svg" width="156" height="189" viewBox="0 0 156 189">
  <metadata><?xpacket begin="﻿" id="W5M0MpCehiHzreSzNTczkc9d"?>
<x:xmpmeta xmlns:x="adobe:ns:meta/" x:xmptk="Adobe XMP Core 5.6-c142 79.160924, 2017/07/13-01:06:39        ">
   <rdf:RDF xmlns:rdf="http://www.w3.org/1999/02/22-rdf-syntax-ns#">
      <rdf:Description rdf:about=""/>
   </rdf:RDF>
</x:xmpmeta>
                                                                                                    
                                                                                                    
                                                                                                    
                                                                                                    
                                                                                                    
                                                                                                    
                                                                                                    
                                                                                                    
                                                                                                    
                                                                                                    
                                                                                                    
                                                                                                    
                                                                                                    
                                                                                                    
                                                                                                    
                                                                                                    
                                                                                                    
                                                                                                    
                                                                                                    
                                                                                                    
                           
<?xpacket end="w"?></metadata>
<defs>
    <style>
      .cls-1 {
        fill: #e54d28;
        fill-rule: evenodd;
      }
    </style>
  </defs>
  <path id="Заливка_цветом_1" data-name="Заливка цветом 1" class="cls-1" d="M76.834,1s26.275,0.993,40.91,3.64c0,10.259,15.878,36.632,35.256,36.4,0,93-35.589,128.739-75.834,144.955C39.915,168.129,1.034,134.018,1,41.045,24.684,41.266,36.589,14.9,36.589,4.309,53.551,1.331,76.834,1,76.834,1Zm0,15.224s-26.941.993-35.256,3.64c0,9.929-14.967,29.454-28.271,29.454,0,96.306,63.86,122.12,63.86,122.12s63.528-24.159,63.528-122.781c-11.974,0-29.269-19.526-28.937-29.454C103.109,16.555,76.834,16.224,76.834,16.224Zm0,5.3V92.342c-21.525.225-37.813-3.568-55.545-5.626-1.324-9.109-3.483-22.339-2.993-33.095,13.735-.37,26.283-16.627,28.271-29.785C56.116,23.21,65.951,21.582,76.834,21.519Zm0.333,71.154c21.042,0.232,37.055-2.569,54.547-5.957-7.074,42.692-40.577,74.132-54.547,79.427V92.673Z"/>
</svg>
