<svg xmlns="http://www.w3.org/2000/svg" width="126" height="172" viewBox="0 0 126 172">
  <metadata><?xpacket begin="﻿" id="W5M0MpCehiHzreSzNTczkc9d"?>
<x:xmpmeta xmlns:x="adobe:ns:meta/" x:xmptk="Adobe XMP Core 5.6-c142 79.160924, 2017/07/13-01:06:39        ">
   <rdf:RDF xmlns:rdf="http://www.w3.org/1999/02/22-rdf-syntax-ns#">
      <rdf:Description rdf:about=""/>
   </rdf:RDF>
</x:xmpmeta>
                                                                                                    
                                                                                                    
                                                                                                    
                                                                                                    
                                                                                                    
                                                                                                    
                                                                                                    
                                                                                                    
                                                                                                    
                                                                                                    
                                                                                                    
                                                                                                    
                                                                                                    
                                                                                                    
                                                                                                    
                                                                                                    
                                                                                                    
                                                                                                    
                                                                                                    
                                                                                                    
                           
<?xpacket end="w"?></metadata>
<defs>
    <style>
      .cls-1 {
        fill: #b5b5b5;
        fill-rule: evenodd;
      }
    </style>
  </defs>
  <path id="Заливка_цветом_1" data-name="Заливка цветом 1" class="cls-1" d="M93.125,9.22c0.172,2.307.851,4.221,0.875,6.974,3.719-2.418,5.993-6.436,6.5-12.081a9.12,9.12,0,0,0,3.75.747V4.985c-0.523,1.969-.955,3.635-1.5,5.355h3.625L105.25,14.2l-4.5-.125C98.7,14.69,88.3,25.649,87.5,27.777a8.247,8.247,0,0,1,4.5-.747v0.125l-0.875,3.114c-7.627.579-9.959,6.726-12.375,12.579-4.1,9.919-7.293,18.272-10,29.509L69,72.231c0.538-3.051,1.949-3.312,3.5-5.473a25.65,25.65,0,0,0,4.625-9.465l4.125-1.37a11.787,11.787,0,0,1-1.125,5.729,10.708,10.708,0,0,0,4.5-5.106l0.75-2.366L89.5,54.3l-1,2.615,6-2.117c4.461-1.359,14.021-2.244,14.75-6.725a4.827,4.827,0,0,1,2.875,1.993l-2.875,3.114h0.125c5.18-1.41,12.186,2.063,15.625,3.238l-1.25,3.114c-2.557-.976-14.13-4.5-17.875-3.114,1.111,0.943,2.771,1.975,3.25,3.487-1.75.582-3.105,1.917-4.25,0.374-1.333-.615-2.41-1.684-4-2.117-5.576-1.52-11.349,3.219-15.5,4.359v0.125h0.25c0.943,0.7,2.1,1.012,2.875,1.868v0.125c-1.233.4-1.8,1.327-2.75,1.993-1.809-.226-3.707-1.45-5.625-0.5-2.5,1.243-3.974,4.283-5.25,6.725C71.853,78.645,70.887,87.415,72.75,99c0.125,3.03.25,9.061,0.375,12.091,0.955,5.935,1.611,16.221,4.125,20.425,6.865,11.479,24.5-1.337,37.75,4.359,4.208,1.809,9.544,4.79,8.375,11.458-0.332,1.9-.33,3.223-1.125,4.484h-0.625v-0.25q-0.375-2.3-.75-4.608c-0.826-2.4-4.272-7.849-7.375-7.223v0.124c0.449,3.558,3.339,8.633,2.5,11.832-4.782.526-6.021-5.648-7-9.341q-0.251-1.306-.5-2.615c-1.214-1.637-12.438,1.352-13.5,1.993l0.25,0.124,5.375,3.736c1.7,2.18,1.642,5.49,2.75,8.345,0.512,1.319,2.17,3.016,1.5,4.608-5.326-.275-5.241-6.223-7.375-9.714-1.911-3.128-5.842-3.82-10.5-4.235v0.125c1.169,0.343,1.869,1.347,2.75,1.992,5.573,4.082,2.219,5.557,3.25,12.579,0.332,2.259.886,4.892,0.375,7.223H92.75c-3.24-1.672-3.315-6.275-4-10.461l-0.25-4.608c-2-1.453-4-1.906-6-3.359-1.291-.249-2.584-1.5-3.875-1.747-3.182-1.255-2.415-1.909-5.375-3.231,1.246,1.674,1.28,1.112,1.875,3.355,1.354,5.107-4.892,9.514-5.375,14.2-0.374,3.628,2.556,6.766.5,9.839l-1.125-.249c-0.838-3.727-2.5-6.576-3.125-9.964-0.8-4.339,3.06-8.729,2.25-11.956-0.487-1.938-3.692-4.938-5.125-6.472l-0.375.249c-1.226,3.038-4.109,3.449-4.875,6.722-0.66,2.819,1.8,6.281,2.25,9.465,0.382,2.68-2.554,10.007-3.375,12.7-3.171-.862.114-8.062-0.375-10.835-0.741-4.2-7.054-9.134-5.125-13.949,0.775-1.934,2.486-2.139,3.625-3.732-2.833,1.743-4.667,2.487-7.5,4.23l-3.625.623c-1.809.643-5.233,2.83-6.25,4.359-0.911,1.369-.06,3.224-0.375,5.106-0.681,4.067-.992,8.563-4.125,10.213l-0.375-.249h-0.25c0.005-5.724-.436-14.273,1.875-18.059,1.166-1.91,3.136-2.3,4.75-3.736-4.359-.018-8.257,1-10.125,3.487-3.24,4.308-1.439,8.5-7.75,10.337L21,158.421c-0.628-1.668,1.222-3.263,1.625-4.483l1.125-5.48c1.264-2.634,4.747-5.257,7.5-6.352v-0.249c-4.4-.314-8.188-3.257-13.25-1.993-2.291,3.46-1.849,13.332-8,11.957,0.03-4.647,3.479-7.046,2.5-11.957H12.375c-5.989,2.2-6.638,5.665-8.125,12.33l-1-.373-0.875-4.359c-1.307-7.928,10.587-14.652,18.5-13.326,10.608,1.776,24.824,4.944,29-2.118,2.42-4.091,2.966-10.13,3.875-16.066,0.76-4.963-.086-10.689.75-16.19,1.654-10.886,1.009-20.5-3.375-27.15C49.89,70.738,48,67.3,45.875,66.385c-2.922-1.259-3.353,1.729-6.875-.872-0.642-.474-0.892-0.4-1-1.121L40.625,62.9,40.5,62.648c-7.557-1.371-12.165-8.392-20-1.245l-3.25-1.619,0.375-.374c0.5-1.337,1.8-1.743,2.625-2.74A44.972,44.972,0,0,0,7,58.414L2,59.908,1,56.919c2.794-1.907,11-4.75,16-3.363-0.526-1.282-2.157-1.485-2.625-2.989l2.5-1.744L17,48.949c1.622,0.858,3.605,3.226,5.625,4.234,2.609,1.3,6.31,1,9.25,1.993l5.875,2.117-1-2.491V54.678l4.375,0.249a10.178,10.178,0,0,0,4.75,6.974c-0.386-1.994-1.439-3.513-.875-5.978l0.125-.125,4,1.868c0.614,6.723,5.3,8.314,7.25,14.19H56.5c-0.444-5.212-1.817-7.637-3.375-11.949-3.142-8.7-5.116-18.531-10.375-25.157a11.94,11.94,0,0,0-5-3.238c-1.027-.385-2.764-0.314-3.375-1.121a6.666,6.666,0,0,1-.75-3.113l4.25,0.872V28.026c-2.5-3.962-8.173-10.6-12.25-12.828-1.312-.717-4.111.027-5.375-0.747-0.589-.462-1.134-3.165-0.5-3.612l2.875-.623a9.9,9.9,0,0,1-1.25-3.861C22.005,5.057,23,4.43,25,4.487c-0.009,5.457,3.66,9.7,7,11.956h0.125c-0.08-2.487.016-5.71,1.25-6.974l3.25,1c-0.5,2.221-1.9,5.547-1,8.344l9.5,13.077H45.25l0.25-3.363h0.125a23.538,23.538,0,0,0,4,1.619c-1.812,5.052.555,8.382,2.25,12.454,2.761,6.634,5.833,13.506,7.75,20.674H59.75L59.375,44.092l-3.25-4.483,0.25-6.725c1.521,1.111,2.688,3.1,4.25,3.985q-0.063-9.091-.125-18.183C59.869,16.515,52,8.828,50,7.352L50.25,7.1a4.149,4.149,0,0,1,1.875-2.491L60,12.333l0.875,1H61c-0.111-3.941-.465-8.654.125-12.33A13.651,13.651,0,0,0,65.25,1V12.084l0.25-.124c0.638-2.075,6.277-8.511,8.75-7.846,0.867,0.3,1.259,1.464,1.625,2.242-3.563,1.154-9.433,8.079-10.25,11.956V36.495c1.57-1.2,2.283-3.17,4.375-3.861v6.85c-0.615,1.673-2.772,2.556-3.25,4.483q-0.063,9.4-.125,18.806H66.75c0.581-3.505,2.282-7.088,3.5-10.212L75,39.234,77.375,34.5c0.536-2.087-1.114-2.917-1.125-4.982L80.125,27.9l0.25,3.238c1.4-.733,9.281-11.4,9.75-13.2,0.714-2.749-.725-5.292-1-7.6C90.55,9.94,91.2,9.252,93.125,9.22Z"/>
</svg>
