<svg width="110" height="110" fill="none" xmlns="http://www.w3.org/2000/svg"><g clip-path="url(#clip0)"><path d="M54.228-2.166a1823.218 1823.218 0 01-8.115 16.744c-1.202 2.448-2.367 4.647-3.736 6.956a92.952 92.952 0 01-5.023 7.6 28.961 28.961 0 01-2.318 2.962c-.68.76-1.468 1.576-1.933 1.932-.695.534-1.816 1.07-2.704 1.932a8.065 8.065 0 00-1.546 2.061c-.308.593-.74 2.155-.902 3.736-.108 1.054-.103 2.117 0 2.704.231 1.312.709 2.245 1.16 2.834a5.99 5.99 0 002.318 1.803c2.058.92 3.743.254 5.925.902 1.025.304 1.679.683 2.19 1.16.783.73 1.01 1.52 1.546 2.704.543 1.205 1.193 2.179 1.674 2.576.427.353 1.563.932 2.962 1.16a8.09 8.09 0 003.865-.258c1.138-.374 2.347-1.083 3.477-2.319.599-.654 1.376-1.842 1.933-3.349.947-2.566.96-4.624.644-5.925-.503-2.066-2.036-3.437-2.834-5.023-.779-1.546-1.219-2.938-1.417-4.122a13.37 13.37 0 010-4.38A1255.124 1255.124 0 0163.888.797" stroke="#009C9D" stroke-width="3.3"/><path d="M63.372 104.719a50.96 50.96 0 00-2.576-5.023c-.968-1.657-2.1-3.292-3.349-5.024-1.17-1.624-2.64-3.67-3.478-4.766-1.974-2.583-4.108-5.163-5.796-6.826a49.411 49.411 0 00-4.25-3.736 4.088 4.088 0 00-1.546-.515c-.927-.107-1.566.16-2.319.386-1.172.354-2.365.46-2.833.387-.848-.133-1.817-.56-2.834-1.546-.88-.852-2.194-3.32-2.319-6.955-.095-2.804.48-4.73 1.288-6.183.98-1.759 2.179-2.563 2.834-2.705 1.073-.232 1.995.29 3.607 1.16 1.115.6 2.117 1.105 3.091 1.416 1.603.512 2.934.61 3.993.515.876-.078 2.14-.41 3.478-1.03 1.398-.648 2.543-1.368 3.349-2.06.568-.49 1.239-1.103 2.19-1.547a6.416 6.416 0 012.704-.644c1.466-.007 2.566.386 3.35 1.03.411.34 1.286 1.552 1.674 3.221.28 1.21.33 2.584 0 4.25a12.97 12.97 0 01-1.03 3.092c-.491 1.021-.93 1.598-1.16 2.705-.152.736-.174 1.887.129 3.22.653 2.87 2.786 6.893 4.508 9.66l6.827 12.623" stroke="#009C9D" stroke-width="3.2"/><path d="M78.737 98.15a614.2 614.2 0 00-9.66-16.874c-.731-1.216-1.389-2.644-1.674-3.993-.2-.94-.165-1.636 0-2.19.098-.33.47-1.049 1.03-1.674.166-.185.952-.779 1.288-1.417.264-.564.396-1.18.386-1.803.004-.39-.039-.78-.128-1.16a4.529 4.529 0 013.606 1.675c.51.62.755 1.288.773 1.546.047.688-.294 1.173-.773 1.932-.33.522-.664 1.102-.773 1.417-.388 1.13-.173 2.14 0 2.834.313 1.253.762 2.732 1.03 3.349.54 1.238 1.058 2.597 1.546 3.606a50.238 50.238 0 001.932 3.607c.793 1.353 2.83 4.886 4.251 7.342" stroke="#009C9D" stroke-width="2"/><path fill-rule="evenodd" clip-rule="evenodd" d="M11.513 46.833L9.324 52.37l10.003 1.613.576 4.963c4.306.2 10.388.353 10.327-.656-.05-.804-3.992-2.06-7.101-2.95l-.93-4.483-10.686-4.024zM.193 66.406l1.144 7.58 12.18-4.673 3.85 5.153c4.925-2.561 11.795-6.325 11.075-7.408-.575-.864-5.777.288-9.814 1.307l-3.934-4.39-14.5 2.43z" fill="#E05222"/></g><defs><clipPath id="clip0"><path fill="#fff" d="M0 0h110v110H0z"/></clipPath></defs></svg>