<svg width="105" height="105" fill="none" xmlns="http://www.w3.org/2000/svg"><g clip-path="url(#clip0)" filter="url(#filter0_d)"><path d="M33.85 43.91c-2.374-2.44-6.396-2.452-8.81-.062a6.167 6.167 0 00-1.719 3.175l-3-2.937a4.592 4.592 0 01-1.334-2.664L16.726 24.41a6.41 6.41 0 00-6.335-5.549A6.398 6.398 0 004 25.25v24.436c0 2.338.833 4.608 2.346 6.392l12.372 14.585.438-1.607h1.924L8.513 54.24a7.048 7.048 0 01-1.671-4.554V25.251a3.553 3.553 0 013.549-3.549 3.56 3.56 0 013.517 3.081l2.262 17.014a7.445 7.445 0 002.163 4.32l6.732 6.59 6.373 6.239a1.427 1.427 0 002.01-.022 1.42 1.42 0 00-.022-2.009l-6.373-6.238a3.35 3.35 0 01-1.014-2.402 3.349 3.349 0 011-2.407c1.31-1.296 3.495-1.291 4.783.034l13.147 13.393a9.455 9.455 0 012.723 6.66V95.58a1.42 1.42 0 102.841 0V65.956c0-3.256-1.256-6.329-3.536-8.652L33.85 43.91zM20.885 68.826a1.421 1.421 0 00-2.167 1.838l6.854 8.081a4.795 4.795 0 011.137 3.099V95.58a1.42 1.42 0 102.842 0V81.843c0-1.806-.644-3.56-1.812-4.937l-6.854-8.08zM94.609 18.86a6.41 6.41 0 00-6.335 5.549l-2.261 17.014a4.59 4.59 0 01-1.334 2.664l-3 2.937a6.165 6.165 0 00-1.72-3.176c-2.425-2.4-6.442-2.37-8.809.063L58.003 57.304a12.281 12.281 0 00-3.537 8.652v29.623a1.42 1.42 0 102.842 0V65.956c0-2.507.967-4.873 2.723-6.661L73.178 45.9c1.28-1.321 3.472-1.33 4.782-.034a3.349 3.349 0 011 2.408 3.35 3.35 0 01-1.013 2.402l-6.373 6.238a1.42 1.42 0 101.987 2.03l6.373-6.238 6.733-6.59a7.444 7.444 0 002.163-4.32l2.261-17.014a3.56 3.56 0 013.518-3.081 3.553 3.553 0 013.549 3.549v24.435a7.047 7.047 0 01-1.671 4.553L77.26 76.906a7.641 7.641 0 00-1.812 4.937v13.736a1.42 1.42 0 102.842 0V81.843c0-1.134.404-2.234 1.137-3.099l19.226-22.666A9.891 9.891 0 00101 49.686V25.251a6.398 6.398 0 00-6.39-6.39z" fill="#009C9D"/><path d="M18.718 70.663L6.346 56.078A9.891 9.891 0 014 49.686V25.251a6.398 6.398 0 016.39-6.39 6.41 6.41 0 016.336 5.548l2.261 17.013a4.592 4.592 0 001.334 2.665l3 2.936a6.167 6.167 0 011.72-3.175c2.413-2.39 6.435-2.378 8.81.063l13.146 13.393a12.281 12.281 0 013.536 8.652v29.623a1.42 1.42 0 11-2.841 0V65.956a9.455 9.455 0 00-2.723-6.661L31.822 45.902c-1.288-1.325-3.473-1.33-4.782-.035a3.349 3.349 0 00-1 2.408 3.35 3.35 0 001.013 2.402l6.373 6.238c.561.549.57 1.449.022 2.01a1.427 1.427 0 01-2.01.02l-6.372-6.237h0l-6.733-6.59a7.445 7.445 0 01-2.163-4.32l-2.262-17.015a3.56 3.56 0 00-3.517-3.08 3.553 3.553 0 00-3.55 3.548v24.435c0 1.666.594 3.283 1.672 4.553L21.08 69.056h-1.924l-.438 1.607zm0 0a1.42 1.42 0 112.167-1.838l6.854 8.08a7.642 7.642 0 011.812 4.938v13.736a1.42 1.42 0 11-2.842 0V81.843a4.795 4.795 0 00-1.137-3.099l-6.854-8.08zM94.609 18.86a6.41 6.41 0 00-6.335 5.549l-2.261 17.014a4.59 4.59 0 01-1.334 2.664l-3 2.937a6.165 6.165 0 00-1.72-3.176c-2.425-2.4-6.442-2.37-8.809.063L58.003 57.304a12.281 12.281 0 00-3.537 8.652v29.623a1.42 1.42 0 102.842 0V65.956c0-2.507.967-4.873 2.723-6.661L73.178 45.9c1.28-1.321 3.472-1.33 4.782-.034a3.348 3.348 0 011 2.408 3.35 3.35 0 01-1.013 2.402l-6.373 6.238a1.42 1.42 0 101.987 2.03l6.373-6.238h0l6.733-6.59a7.444 7.444 0 002.163-4.32l2.261-17.014a3.56 3.56 0 013.518-3.081 3.553 3.553 0 013.549 3.549v24.435a7.047 7.047 0 01-1.671 4.553L77.26 76.906a7.641 7.641 0 00-1.812 4.937v13.736a1.42 1.42 0 102.842 0V81.843c0-1.134.404-2.234 1.137-3.099l19.226-22.666A9.891 9.891 0 00101 49.686V25.251a6.398 6.398 0 00-6.39-6.39z" stroke="#009C9D" stroke-width=".5"/><path d="M61.378 22.074h-4.464V17.61A2.625 2.625 0 0054.3 15h-5.602a2.625 2.625 0 00-2.622 2.622v4.464h-4.464A2.625 2.625 0 0039 24.7v5.605a2.625 2.625 0 002.622 2.622h4.464v4.464A2.625 2.625 0 0048.7 40h5.602a2.625 2.625 0 002.622-2.622v-4.464h4.464A2.625 2.625 0 0064 30.304v-5.605a2.625 2.625 0 00-2.622-2.625z" fill="#E05222"/></g><defs><clipPath id="clip0"><path fill="#fff" transform="translate(4)" d="M0 0h97v97H0z"/></clipPath><filter id="filter0_d" x="0" y="0" width="105" height="105" filterUnits="userSpaceOnUse" color-interpolation-filters="sRGB"><feFlood flood-opacity="0" result="BackgroundImageFix"/><feColorMatrix in="SourceAlpha" values="0 0 0 0 0 0 0 0 0 0 0 0 0 0 0 0 0 0 127 0" result="hardAlpha"/><feOffset dy="4"/><feGaussianBlur stdDeviation="2"/><feComposite in2="hardAlpha" operator="out"/><feColorMatrix values="0 0 0 0 0 0 0 0 0 0 0 0 0 0 0 0 0 0 0.25 0"/><feBlend in2="BackgroundImageFix" result="effect1_dropShadow"/><feBlend in="SourceGraphic" in2="effect1_dropShadow" result="shape"/></filter></defs></svg>