<svg width="108" height="108" fill="none" xmlns="http://www.w3.org/2000/svg"><path d="M102.516 47.46h-5.858v-7.087a6.547 6.547 0 00-6.539-6.539h-3.667a6.543 6.543 0 00-6.458-5.568h-5.062a1.475 1.475 0 00-1.477 1.476v17.719h-38.91V29.742a1.476 1.476 0 00-1.477-1.476h-5.062a6.544 6.544 0 00-6.458 5.568H17.88a6.547 6.547 0 00-6.54 6.54v7.087H5.485a1.475 1.475 0 00-1.476 1.477v10.124a1.476 1.476 0 001.476 1.477h5.858v7.088a6.547 6.547 0 006.539 6.539h3.667a6.543 6.543 0 006.458 5.568h5.062a1.475 1.475 0 001.477-1.476V60.539h38.91v17.719a1.476 1.476 0 001.477 1.476h5.062a6.544 6.544 0 006.458-5.568h3.667a6.547 6.547 0 006.54-6.54V60.54h5.857a1.473 1.473 0 001.476-1.477V48.938a1.481 1.481 0 00-.432-1.045 1.475 1.475 0 00-1.044-.432zM6.961 57.587v-7.172h4.38v7.172h-4.38zm7.334 10.04V40.374a3.59 3.59 0 013.586-3.585h3.586v34.425H17.88a3.59 3.59 0 01-3.586-3.586zm13.71 9.155a3.59 3.59 0 01-3.585-3.586v-38.39a3.59 3.59 0 013.586-3.586h3.586v45.56h-3.586zm6.54-19.195v-7.172h38.91v7.172h-38.91zm49.035 15.61a3.59 3.59 0 01-3.586 3.585h-3.586V31.22h3.586a3.59 3.59 0 013.586 3.586v38.39zm10.125-5.57a3.59 3.59 0 01-3.586 3.587h-3.586V36.788h3.586a3.59 3.59 0 013.586 3.585v27.254zm7.334-10.04h-4.38v-7.172h4.38v7.172z" fill="#009C9D" stroke="#009C9D" stroke-width=".3"/><path d="M63.378 7.074h-4.464V2.61A2.625 2.625 0 0056.3 0h-5.602a2.625 2.625 0 00-2.622 2.622v4.464h-4.464A2.625 2.625 0 0041 9.7v5.605a2.625 2.625 0 002.622 2.622h4.464v4.464A2.625 2.625 0 0050.7 25h5.602a2.625 2.625 0 002.622-2.622v-4.464h4.464A2.625 2.625 0 0066 15.304V9.699a2.625 2.625 0 00-2.622-2.625z" fill="#E05222"/></svg>