<svg width="110" height="110" viewBox="0 0 110 110" fill="none" xmlns="http://www.w3.org/2000/svg">
<g clip-path="url(#clip0)">
<path d="M54.2276 -2.16626C51.5432 3.44567 48.8553 8.99204 46.1129 14.5785C44.9113 17.0258 43.7465 19.2253 42.3775 21.534C40.824 24.1541 39.1496 26.6873 37.3541 29.1335C36.6463 30.1702 35.8718 31.1598 35.0356 32.096C34.3563 32.856 33.5684 33.6716 33.1035 34.0281C32.408 34.5616 31.2874 35.0982 30.3986 35.9602C29.7763 36.5599 29.2544 37.2557 28.8529 38.0211C28.5451 38.6136 28.1133 40.1765 27.9513 41.7565C27.8431 42.8112 27.8483 43.874 27.9513 44.4614C28.1821 45.7731 28.6597 46.7063 29.1105 47.2951C29.7217 48.0793 30.5185 48.699 31.429 49.0984C33.4875 50.018 35.1716 49.3519 37.3541 50C38.379 50.3044 39.033 50.6827 39.5438 51.1593C40.3266 51.8905 40.5547 52.6792 41.0895 53.8642C41.6333 55.0688 42.2829 56.0429 42.7639 56.4403C43.1907 56.7928 44.3274 57.3716 45.7265 57.5995C47.0164 57.8277 48.3424 57.7393 49.5906 57.3419C50.7288 56.9684 51.9381 56.2587 53.0684 55.0234C53.667 54.3692 54.4442 53.1815 55.0005 51.6745C55.9477 49.108 55.9611 47.0504 55.6445 45.7494C55.1422 43.6827 53.6094 42.3119 52.8108 40.726C52.0324 39.1803 51.5922 37.7881 51.3939 36.6042C51.1532 35.1544 51.1532 33.6747 51.3939 32.2248C53.1762 27.5603 54.9663 22.957 56.8038 18.3138C59.1319 12.4305 61.4719 6.64405 63.8881 0.79627" stroke="#009C9D" stroke-width="3.3"/>
<path d="M63.3722 104.719C62.6069 102.998 61.7469 101.321 60.7961 99.6955C59.8275 98.0392 58.6951 96.4038 57.4472 94.6721C56.2767 93.048 54.8066 91.0012 53.9694 89.9063C51.9951 87.3235 49.8605 84.7429 48.1731 83.0796C46.8288 81.7543 45.4096 80.5071 43.9226 79.3442C43.4472 79.0705 42.9215 78.8953 42.3769 78.829C41.4505 78.722 40.8106 78.9886 40.0584 79.2154C38.8855 79.5691 37.6934 79.675 37.2247 79.6019C36.3767 79.4694 35.4085 79.0426 34.3909 78.0562C33.5117 77.2043 32.1967 74.7358 32.0724 71.1007C31.9766 68.2967 32.5519 66.3718 33.3605 64.918C34.3394 63.159 35.5389 62.3548 36.1942 62.2131C37.267 61.9812 38.1889 62.5034 39.8008 63.3723C40.9165 63.9737 41.9182 64.4785 42.8921 64.7892C44.4951 65.3006 45.8262 65.3997 46.8851 65.3044C47.761 65.2257 49.0255 64.8934 50.3628 64.274C51.7614 63.6262 52.9057 62.9059 53.7118 62.2131C54.2802 61.7245 54.9508 61.1109 55.9015 60.6674C56.7452 60.2576 57.6685 60.0378 58.6064 60.0234C60.0723 60.0162 61.1722 60.4087 61.9553 61.0538C62.3675 61.3936 63.2424 62.6052 63.6298 64.274C63.9105 65.4831 63.9593 66.8577 63.6298 68.5246C63.4177 69.5942 63.0714 70.6329 62.5994 71.6159C62.1088 72.6373 61.6691 73.2144 61.4401 74.3208C61.2879 75.0566 61.2656 76.2082 61.5689 77.541C62.2222 80.4117 64.3554 84.4341 66.0771 87.2014L72.9038 99.8243" stroke="#009C9D" stroke-width="3.2"/>
<path d="M78.7374 98.1499C76.8697 94.765 75.0006 91.4526 73.0699 88.103C71.7483 85.8103 70.4276 83.5523 69.077 81.2763C68.3457 80.0604 67.6884 78.6322 67.4025 77.2834C67.2031 76.3431 67.2377 75.6466 67.4025 75.0937C67.501 74.7628 67.873 74.0444 68.4329 73.4192C68.5986 73.2342 69.3851 72.6401 69.721 72.0023C69.985 71.4384 70.1171 70.8217 70.1074 70.1991C70.1113 69.8089 70.068 69.4196 69.9786 69.0398C70.6675 69.0261 71.3505 69.1697 71.9756 69.4599C72.6006 69.7501 73.1511 70.1791 73.5852 70.7143C74.0947 71.3347 74.3402 72.0023 74.358 72.26C74.4055 72.9476 74.0644 73.433 73.5852 74.192C73.2555 74.7141 72.9207 75.2936 72.8123 75.6089C72.424 76.7387 72.6392 77.7499 72.8123 78.4426C73.1253 79.6956 73.5738 81.1746 73.8428 81.7916C74.3827 83.0304 74.9 84.3894 75.3884 85.3981C76.0126 86.6871 76.6183 87.8054 77.3205 89.0047C78.1131 90.3582 80.1503 93.8909 81.5711 96.3466" stroke="#009C9D" stroke-width="2"/>
<path fill-rule="evenodd" clip-rule="evenodd" d="M11.5129 46.8333L9.32416 52.3703L19.3273 53.983C19.519 55.6373 19.7108 57.2916 19.9027 58.946C24.2091 59.1466 30.2911 59.2986 30.2296 58.2901C30.1806 57.4855 26.2376 56.2304 23.129 55.3397L22.1998 50.8573L11.5129 46.8333Z" fill="#E05222"/>
<path fill-rule="evenodd" clip-rule="evenodd" d="M0.193367 66.4056L1.33708 73.9858L13.5175 69.3127C14.8008 71.0306 16.0842 72.7485 17.3677 74.4664C22.2922 71.9049 29.1622 68.1411 28.4416 67.058C27.8667 66.1938 22.6648 67.3462 18.6277 68.3647L14.6945 63.9749L0.193367 66.4056Z" fill="#E05222"/>
</g>
<defs>
<clipPath id="clip0">
<rect width="110" height="110" fill="white"/>
</clipPath>
</defs>
</svg>
