<svg width="105" height="105" viewBox="0 0 105 105" fill="none" xmlns="http://www.w3.org/2000/svg">
<g clip-path="url(#clip0)" filter="url(#filter0_d)">
<path d="M33.8502 43.9105C31.4764 41.47 27.4541 41.4584 25.0407 43.8476C24.1517 44.7276 23.5626 45.8262 23.3214 47.0234L20.321 44.0865C19.5948 43.3757 19.1214 42.4295 18.9874 41.4224L16.7256 24.4089C16.3052 21.2458 13.5818 18.8604 10.3906 18.8604C6.8668 18.8604 4 21.7272 4 25.2509V49.686C4 52.0244 4.83303 54.2944 6.34581 56.0777L18.7177 70.6634L19.1562 69.0557H21.0804L8.51296 54.2395C7.43535 52.969 6.8418 51.3518 6.8418 49.686V25.2509C6.8418 23.2942 8.43377 21.7022 10.3906 21.7022C12.1628 21.7022 13.675 23.0269 13.9084 24.7835L16.1701 41.7971C16.3872 43.4304 17.1552 44.9648 18.3329 46.1174L25.0653 52.7074L25.0655 52.7076L31.4385 58.9457C31.9832 59.4803 32.8912 59.4926 33.4476 58.9243C33.9965 58.3635 33.987 57.464 33.4262 56.9151L27.0532 50.6768C26.4021 50.0393 26.0421 49.1862 26.0395 48.2749C26.0368 47.3635 26.392 46.5087 27.0396 45.8675C28.3485 44.5717 30.5339 44.5766 31.8218 45.9016L44.9687 59.2948C46.7247 61.0837 47.6917 63.4494 47.6917 65.9558V95.5791C47.6917 96.364 48.3277 97 49.1126 97C49.8975 97 50.5335 96.364 50.5335 95.5791V65.9556C50.5335 62.6999 49.2774 59.6273 46.9968 57.3039L33.8502 43.9105ZM20.8848 68.8251C20.3775 68.2268 19.481 68.1533 18.8821 68.6607C18.2838 69.1684 18.2099 70.0649 18.7177 70.6634L25.5719 78.7441C26.3051 79.6084 26.709 80.7089 26.709 81.8426V95.5791C26.709 96.364 27.345 97 28.1299 97C28.9148 97 29.5508 96.364 29.5508 95.5791V81.8428C29.5508 80.0367 28.9074 78.2834 27.7392 76.9058L20.8848 68.8251ZM94.6094 18.8604C91.4182 18.8604 88.6948 21.2458 88.2744 24.4089L86.0127 41.4226C85.879 42.4295 85.4054 43.3759 84.6792 44.0867L81.6788 47.0236C81.4378 45.8264 80.8484 44.7276 79.9595 43.8478C77.5345 41.4472 73.517 41.4783 71.15 43.9107L58.003 57.3039C55.7224 59.6273 54.4663 62.6999 54.4663 65.9556V95.5791C54.4663 96.364 55.1023 97 55.8872 97C56.6721 97 57.3081 96.364 57.3081 95.5791V65.9556C57.3081 63.4492 58.2751 61.0835 60.0311 59.2947L73.178 45.9015C74.4588 44.5796 76.65 44.5702 77.9602 45.8674C78.6078 46.5085 78.963 47.3633 78.9604 48.2747C78.9577 49.186 78.5977 50.0391 77.9466 50.6766L71.5736 56.9149C71.0128 57.4638 71.0031 58.3635 71.5522 58.9241C72.1008 59.4847 73.0007 59.4949 73.5613 58.9455L79.9343 52.7074L79.9345 52.7072L86.6669 46.1172C87.8446 44.9646 88.6128 43.4302 88.8297 41.797L91.0914 24.7833C91.3248 23.0269 92.8372 21.702 94.6092 21.702C96.566 21.702 98.158 23.294 98.158 25.2507V49.686C98.158 51.3518 97.5645 52.969 96.4868 54.2395L77.261 76.906C76.0928 78.2835 75.4494 80.0367 75.4494 81.843V95.5791C75.4494 96.364 76.0854 97 76.8703 97C77.6552 97 78.2912 96.364 78.2912 95.5791V81.8428C78.2912 80.7091 78.6951 79.6086 79.4283 78.7443L98.6542 56.0777C100.167 54.2944 101 52.0244 101 49.686V25.2509C101 21.7272 98.133 18.8604 94.6094 18.8604Z" fill="#009C9D"/>
<path d="M18.7177 70.6634L6.34581 56.0777C4.83303 54.2944 4 52.0244 4 49.686V25.2509C4 21.7272 6.8668 18.8604 10.3906 18.8604C13.5818 18.8604 16.3052 21.2458 16.7256 24.4089L18.9874 41.4224C19.1214 42.4295 19.5948 43.3757 20.321 44.0865L23.3214 47.0234C23.5626 45.8262 24.1517 44.7276 25.0407 43.8476C27.4541 41.4584 31.4764 41.47 33.8502 43.9105L46.9968 57.3039C49.2774 59.6273 50.5335 62.6999 50.5335 65.9556V95.5791C50.5335 96.364 49.8975 97 49.1126 97C48.3277 97 47.6917 96.364 47.6917 95.5791V65.9558C47.6917 63.4494 46.7247 61.0837 44.9687 59.2948L31.8218 45.9016C30.5339 44.5766 28.3485 44.5717 27.0396 45.8675C26.392 46.5087 26.0368 47.3635 26.0395 48.2749C26.0421 49.1862 26.4021 50.0393 27.0532 50.6768L33.4262 56.9151C33.987 57.464 33.9965 58.3635 33.4476 58.9243C32.8912 59.4926 31.9832 59.4803 31.4385 58.9457L25.0655 52.7076L25.0653 52.7074L18.3329 46.1174C17.1552 44.9648 16.3872 43.4304 16.1701 41.7971L13.9084 24.7835C13.675 23.0269 12.1628 21.7022 10.3906 21.7022C8.43377 21.7022 6.8418 23.2942 6.8418 25.2509V49.686C6.8418 51.3518 7.43535 52.969 8.51296 54.2395L21.0804 69.0557H19.1562L18.7177 70.6634ZM18.7177 70.6634C18.2099 70.0649 18.2838 69.1684 18.8821 68.6607C19.481 68.1533 20.3775 68.2268 20.8848 68.8251L27.7392 76.9058C28.9074 78.2834 29.5508 80.0367 29.5508 81.8428V95.5791C29.5508 96.364 28.9148 97 28.1299 97C27.345 97 26.709 96.364 26.709 95.5791V81.8426C26.709 80.7089 26.3051 79.6084 25.5719 78.7441L18.7177 70.6634ZM94.6094 18.8604C91.4182 18.8604 88.6948 21.2458 88.2744 24.4089L86.0127 41.4226C85.879 42.4295 85.4054 43.3759 84.6792 44.0867L81.6788 47.0236C81.4378 45.8264 80.8484 44.7276 79.9595 43.8478C77.5345 41.4472 73.517 41.4783 71.15 43.9107L58.003 57.3039C55.7224 59.6273 54.4663 62.6999 54.4663 65.9556V95.5791C54.4663 96.364 55.1023 97 55.8872 97C56.6721 97 57.3081 96.364 57.3081 95.5791V65.9556C57.3081 63.4492 58.2751 61.0835 60.0311 59.2947L73.1781 45.9015C74.4588 44.5796 76.65 44.5702 77.9602 45.8674C78.6078 46.5085 78.963 47.3633 78.9603 48.2747C78.9577 49.186 78.5977 50.0391 77.9466 50.6766L71.5736 56.9149C71.0128 57.4638 71.0031 58.3635 71.5522 58.9241C72.1008 59.4847 73.0007 59.4949 73.5613 58.9455L79.9343 52.7074L79.9345 52.7072L86.6669 46.1172C87.8446 44.9646 88.6128 43.4302 88.8297 41.797L91.0914 24.7833C91.3248 23.0269 92.8372 21.702 94.6092 21.702C96.566 21.702 98.158 23.294 98.158 25.2507V49.686C98.158 51.3518 97.5645 52.969 96.4868 54.2395L77.261 76.906C76.0928 78.2835 75.4494 80.0367 75.4494 81.843V95.5791C75.4494 96.364 76.0854 97 76.8703 97C77.6552 97 78.2912 96.364 78.2912 95.5791V81.8428C78.2912 80.7091 78.6951 79.6086 79.4283 78.7443L98.6542 56.0777C100.167 54.2944 101 52.0244 101 49.686V25.2509C101 21.7272 98.133 18.8604 94.6094 18.8604Z" stroke="#009C9D" stroke-width="0.5"/>
<path d="M61.378 22.0744H56.9137V17.6101C56.9056 16.1708 55.7399 15.0065 54.3006 15H48.6994C47.252 15.0016 46.079 16.1746 46.0774 17.622V22.0863H41.6131C40.1726 22.0929 39.0065 23.2589 39 24.6994V30.3036C39.0016 31.751 40.1746 32.924 41.622 32.9256H46.0863V37.3899C46.0944 38.8292 47.2601 39.9935 48.6994 40H54.3006C55.748 39.9984 56.921 38.8254 56.9226 37.378V32.9137H61.3869C62.8262 32.9072 63.9919 31.7429 64 30.3036V24.6994C64 23.2508 62.8266 22.076 61.378 22.0744Z" fill="#E05222"/>
</g>
<defs>
<filter id="filter0_d" x="0" y="0" width="105" height="105" filterUnits="userSpaceOnUse" color-interpolation-filters="sRGB">
<feFlood flood-opacity="0" result="BackgroundImageFix"/>
<feColorMatrix in="SourceAlpha" type="matrix" values="0 0 0 0 0 0 0 0 0 0 0 0 0 0 0 0 0 0 127 0" result="hardAlpha"/>
<feOffset dy="4"/>
<feGaussianBlur stdDeviation="2"/>
<feComposite in2="hardAlpha" operator="out"/>
<feColorMatrix type="matrix" values="0 0 0 0 0 0 0 0 0 0 0 0 0 0 0 0 0 0 0.25 0"/>
<feBlend mode="normal" in2="BackgroundImageFix" result="effect1_dropShadow"/>
<feBlend mode="normal" in="SourceGraphic" in2="effect1_dropShadow" result="shape"/>
</filter>
<clipPath id="clip0">
<rect width="97" height="97" fill="white" transform="translate(4)"/>
</clipPath>
</defs>
</svg>
