<svg width="108" height="108" viewBox="0 0 108 108" fill="none" xmlns="http://www.w3.org/2000/svg">
<path d="M102.516 47.4609H96.6583V40.3734C96.6563 38.6398 95.9667 36.9777 94.7408 35.7518C93.515 34.526 91.8529 33.8364 90.1192 33.8344H86.4523C86.2193 32.2874 85.4398 30.8751 84.255 29.8535C83.0702 28.8319 81.5587 28.2686 79.9942 28.2656H74.9317C74.7378 28.2655 74.5458 28.3036 74.3666 28.3778C74.1874 28.452 74.0245 28.5607 73.8874 28.6979C73.7503 28.835 73.6415 28.9978 73.5674 29.177C73.4932 29.3562 73.4551 29.5483 73.4552 29.7422V47.4609H34.5448V29.7422C34.5449 29.5483 34.5068 29.3562 34.4326 29.177C34.3585 28.9978 34.2497 28.835 34.1126 28.6979C33.9755 28.5607 33.8126 28.452 33.6334 28.3778C33.4542 28.3036 33.2622 28.2655 33.0683 28.2656H28.0058C26.4413 28.2686 24.9298 28.8319 23.745 29.8535C22.5602 30.8751 21.7807 32.2874 21.5477 33.8344H17.8807C16.1471 33.8364 14.485 34.526 13.2592 35.7518C12.0333 36.9777 11.3437 38.6398 11.3417 40.3734V47.4609H5.48438C5.29044 47.4608 5.09838 47.4989 4.91919 47.5731C4.73999 47.6473 4.57717 47.756 4.44004 47.8932C4.30291 48.0303 4.19415 48.1931 4.11998 48.3723C4.04582 48.5515 4.0077 48.7436 4.00781 48.9375V59.0625C4.0077 59.2564 4.04582 59.4485 4.11998 59.6277C4.19415 59.8069 4.30291 59.9697 4.44004 60.1068C4.57717 60.244 4.73999 60.3527 4.91919 60.4269C5.09838 60.5011 5.29044 60.5392 5.48438 60.5391H11.3417V67.6266C11.3437 69.3602 12.0333 71.0223 13.2592 72.2482C14.485 73.474 16.1471 74.1636 17.8807 74.1656H21.5477C21.7807 75.7126 22.5602 77.1249 23.745 78.1465C24.9298 79.1681 26.4413 79.7314 28.0058 79.7344H33.0683C33.2622 79.7345 33.4542 79.6964 33.6334 79.6222C33.8126 79.548 33.9755 79.4393 34.1126 79.3022C34.2497 79.165 34.3585 79.0022 34.4326 78.823C34.5068 78.6438 34.5449 78.4517 34.5448 78.2578V60.5391H73.4552V78.2578C73.4551 78.4517 73.4932 78.6438 73.5674 78.823C73.6415 79.0022 73.7503 79.165 73.8874 79.3022C74.0245 79.4393 74.1874 79.548 74.3666 79.6222C74.5458 79.6964 74.7378 79.7345 74.9317 79.7344H79.9942C81.5587 79.7314 83.0702 79.1681 84.255 78.1465C85.4398 77.1249 86.2193 75.7126 86.4523 74.1656H90.1192C91.8529 74.1636 93.515 73.474 94.7408 72.2482C95.9667 71.0223 96.6563 69.3602 96.6583 67.6266V60.5391H102.516C102.71 60.5392 102.902 60.5011 103.081 60.4269C103.26 60.3527 103.423 60.244 103.56 60.1068C103.697 59.9697 103.806 59.8069 103.88 59.6277C103.954 59.4485 103.992 59.2564 103.992 59.0625V48.9375C103.992 48.7436 103.954 48.5515 103.88 48.3723C103.806 48.1931 103.697 48.0303 103.56 47.8932C103.423 47.756 103.26 47.6473 103.081 47.5731C102.902 47.4989 102.71 47.4608 102.516 47.4609ZM6.96094 57.5859V50.4141H11.3417V57.5859H6.96094ZM14.2948 67.6266V40.3734C14.2959 39.4227 14.6741 38.5113 15.3463 37.839C16.0186 37.1668 16.93 36.7886 17.8807 36.7875H21.4667V71.2125H17.8807C16.9302 71.2114 16.0189 70.8333 15.3466 70.1613C14.6744 69.4892 14.2962 68.5771 14.2948 67.6266ZM28.0058 76.7812C27.055 76.7801 26.1436 76.402 25.4713 75.7297C24.7991 75.0575 24.4209 74.146 24.4198 73.1953V34.8047C24.4209 33.854 24.7991 32.9425 25.4713 32.2703C26.1436 31.598 27.055 31.2199 28.0058 31.2188H31.5917V48.9215V48.9375V48.9535V59.0465V59.0625V59.0785V76.7812H28.0058ZM34.5448 57.5859V50.4141H73.4552V57.5859H34.5448ZM83.5802 73.1953C83.5791 74.146 83.2009 75.0575 82.5287 75.7297C81.8564 76.402 80.945 76.7801 79.9942 76.7812H76.4083V59.0785V59.0625V59.0465V48.9535V48.9375V48.9215V31.2188H79.9942C80.945 31.2199 81.8564 31.598 82.5287 32.2703C83.2009 32.9425 83.5791 33.854 83.5802 34.8047V73.1953ZM93.7052 67.6266C93.7041 68.5773 93.3259 69.4887 92.6537 70.161C91.9814 70.8332 91.07 71.2114 90.1192 71.2125H86.5333V36.7875H90.1192C91.07 36.7886 91.9814 37.1668 92.6537 37.839C93.3259 38.5113 93.7041 39.4227 93.7052 40.3734V67.6266ZM101.039 57.5859H96.6583V50.4141H101.039V57.5859Z" fill="#009C9D" stroke="#009C9D" stroke-width="0.3"/>
<path d="M63.378 7.0744H58.9137V2.61012C58.9056 1.17083 57.7399 0.00647321 56.3006 0H50.6994C49.252 0.0016369 48.079 1.17463 48.0774 2.62202V7.08631H43.6131C42.1726 7.09286 41.0065 8.25893 41 9.6994V15.3036C41.0016 16.751 42.1746 17.924 43.622 17.9256H48.0863V22.3899C48.0944 23.8292 49.2601 24.9935 50.6994 25H56.3006C57.748 24.9984 58.921 23.8254 58.9226 22.378V17.9137H63.3869C64.8262 17.9072 65.9919 16.7429 66 15.3036V9.6994C66 8.25082 64.8266 7.07604 63.378 7.0744Z" fill="#E05222"/>
</svg>
