<svg xmlns="http://www.w3.org/2000/svg" width="156" height="189"><path data-name="Заливка цветом 1" d="M76.834 1s26.275.993 40.91 3.64c0 10.259 15.878 36.632 35.256 36.4 0 93-35.589 128.739-75.834 144.955C39.915 168.129 1.034 134.018 1 41.045c23.684.221 35.589-26.145 35.589-36.736C53.551 1.331 76.834 1 76.834 1zm0 15.224s-26.941.993-35.256 3.64c0 9.929-14.967 29.454-28.271 29.454 0 96.306 63.86 122.12 63.86 122.12s63.528-24.159 63.528-122.781c-11.974 0-29.269-19.526-28.937-29.454-8.649-2.648-34.924-2.979-34.924-2.979zm0 5.3v70.818c-21.525.225-37.813-3.568-55.545-5.626-1.324-9.109-3.483-22.339-2.993-33.095 13.735-.37 26.283-16.627 28.271-29.785 9.549-.626 19.384-2.254 30.267-2.317zm.333 71.154c21.042.232 37.055-2.569 54.547-5.957-7.074 42.692-40.577 74.132-54.547 79.427V92.673z" fill="#e54d28" fill-rule="evenodd"/></svg>