<svg xmlns="http://www.w3.org/2000/svg" width="101" height="254"><path data-name="Заливка цветом 1" d="M18.552 1h46.573l1.519 29.293c2.525 15.85-.351 29.112 6.328 40.4 6.738 11.393 18.923 17.5 24.3 30.051 6.147 14.348 1.482 27.3-9.618 31.818l-5.569 1.516C59.623 138.6 68 113.582 55.76 110.85c-10.17-2.269-9.895 9.193-12.656 15.4-2.656 5.976-12.035 9.775-21.768 7.576-9.817-2.217-18.438-8.437-15.693-22.222 3.24-16.273 14.1-24.985 17.971-40.4 2.394-9.523 1.169-22.347-.506-31.566zM75 252.266l-25.565.5c-2.454 0-7.921.754-9.365-.5l-.253-11.111c-1.826-12.169.619-26.206-1.519-37.627-2.883-15.4-7.842-28-15.44-38.637-2.943-4.12-11.861-13.663-9.872-20.96 3.073-11.269 16.443-4.341 24.3-3.03 6.461 1.078 10.642-3.582 15.946-4.546 7.891-1.434 11.011 3.426 16.706 4.546 7.643 1.5 16.206-2.677 22.021.758 4.163 10.527-11.205 29.273-14.428 38.384-7.065 19.964-2.817 48.725-2.531 72.223zm-60.748.5c.021-19.221-.675-39.947-4.809-56.061-2-7.811-6.987-13.547-8.353-20.96-1.174-6.373 10.06-20.293 12.909-19.445l13.412 21.47v.5c.542 3.193-1.95 4.808-2.531 7.324l-.506 7.575.759 40.91.759 18.687H14.249z" fill="#e24c27" fill-rule="evenodd"/></svg>