<svg xmlns="http://www.w3.org/2000/svg" width="126" height="172"><path data-name="Заливка цветом 1" d="M93.125 9.22c.172 2.307.851 4.221.875 6.974 3.719-2.418 5.993-6.436 6.5-12.081a9.12 9.12 0 003.75.747v.125c-.523 1.969-.955 3.635-1.5 5.355h3.625l-1.125 3.86-4.5-.125C98.7 14.69 88.3 25.649 87.5 27.777a8.247 8.247 0 014.5-.747v.125l-.875 3.114c-7.627.579-9.959 6.726-12.375 12.579-4.1 9.919-7.293 18.272-10 29.509l.25-.126c.538-3.051 1.949-3.312 3.5-5.473a25.65 25.65 0 004.625-9.465l4.125-1.37a11.787 11.787 0 01-1.125 5.729 10.708 10.708 0 004.5-5.106l.75-2.366 4.125.12-1 2.615 6-2.117c4.461-1.359 14.021-2.244 14.75-6.725a4.827 4.827 0 012.875 1.993l-2.875 3.114h.125c5.18-1.41 12.186 2.063 15.625 3.238l-1.25 3.114c-2.557-.976-14.13-4.5-17.875-3.114 1.111.943 2.771 1.975 3.25 3.487-1.75.582-3.105 1.917-4.25.374-1.333-.615-2.41-1.684-4-2.117-5.576-1.52-11.349 3.219-15.5 4.359v.125h.25c.943.7 2.1 1.012 2.875 1.868v.125c-1.233.4-1.8 1.327-2.75 1.993-1.809-.226-3.707-1.45-5.625-.5-2.5 1.243-3.974 4.283-5.25 6.725C71.853 78.645 70.887 87.415 72.75 99c.125 3.03.25 9.061.375 12.091.955 5.935 1.611 16.221 4.125 20.425 6.865 11.479 24.5-1.337 37.75 4.359 4.208 1.809 9.544 4.79 8.375 11.458-.332 1.9-.33 3.223-1.125 4.484h-.625v-.25l-.75-4.608c-.826-2.4-4.272-7.849-7.375-7.223v.124c.449 3.558 3.339 8.633 2.5 11.832-4.782.526-6.021-5.648-7-9.341q-.251-1.306-.5-2.615c-1.214-1.637-12.438 1.352-13.5 1.993l.25.124 5.375 3.736c1.7 2.18 1.642 5.49 2.75 8.345.512 1.319 2.17 3.016 1.5 4.608-5.326-.275-5.241-6.223-7.375-9.714-1.911-3.128-5.842-3.82-10.5-4.235v.125c1.169.343 1.869 1.347 2.75 1.992 5.573 4.082 2.219 5.557 3.25 12.579.332 2.259.886 4.892.375 7.223h-.625c-3.24-1.672-3.315-6.275-4-10.461l-.25-4.608c-2-1.453-4-1.906-6-3.359-1.291-.249-2.584-1.5-3.875-1.747-3.182-1.255-2.415-1.909-5.375-3.231 1.246 1.674 1.28 1.112 1.875 3.355 1.354 5.107-4.892 9.514-5.375 14.2-.374 3.628 2.556 6.766.5 9.839l-1.125-.249c-.838-3.727-2.5-6.576-3.125-9.964-.8-4.339 3.06-8.729 2.25-11.956-.487-1.938-3.692-4.938-5.125-6.472l-.375.249c-1.226 3.038-4.109 3.449-4.875 6.722-.66 2.819 1.8 6.281 2.25 9.465.382 2.68-2.554 10.007-3.375 12.7-3.171-.862.114-8.062-.375-10.835-.741-4.2-7.054-9.134-5.125-13.949.775-1.934 2.486-2.139 3.625-3.732-2.833 1.743-4.667 2.487-7.5 4.23l-3.625.623c-1.809.643-5.233 2.83-6.25 4.359-.911 1.369-.06 3.224-.375 5.106-.681 4.067-.992 8.563-4.125 10.213l-.375-.249h-.25c.005-5.724-.436-14.273 1.875-18.059 1.166-1.91 3.136-2.3 4.75-3.736-4.359-.018-8.257 1-10.125 3.487-3.24 4.308-1.439 8.5-7.75 10.337l-.125-.369c-.628-1.668 1.222-3.263 1.625-4.483l1.125-5.48c1.264-2.634 4.747-5.257 7.5-6.352v-.249c-4.4-.314-8.188-3.257-13.25-1.993-2.291 3.46-1.849 13.332-8 11.957.03-4.647 3.479-7.046 2.5-11.957h-.125c-5.989 2.2-6.638 5.665-8.125 12.33l-1-.373-.875-4.359c-1.307-7.928 10.587-14.652 18.5-13.326 10.608 1.776 24.824 4.944 29-2.118 2.42-4.091 2.966-10.13 3.875-16.066.76-4.963-.086-10.689.75-16.19 1.654-10.886 1.009-20.5-3.375-27.15-1.235-1.874-3.125-5.312-5.25-6.227-2.922-1.259-3.353 1.729-6.875-.872-.642-.474-.892-.4-1-1.121l2.625-1.492-.125-.252c-7.557-1.371-12.165-8.392-20-1.245l-3.25-1.619.375-.374c.5-1.337 1.8-1.743 2.625-2.74A44.972 44.972 0 007 58.414l-5 1.494-1-2.989c2.794-1.907 11-4.75 16-3.363-.526-1.282-2.157-1.485-2.625-2.989l2.5-1.744.125.126c1.622.858 3.605 3.226 5.625 4.234 2.609 1.3 6.31 1 9.25 1.993l5.875 2.117-1-2.491v-.124l4.375.249a10.178 10.178 0 004.75 6.974c-.386-1.994-1.439-3.513-.875-5.978l.125-.125 4 1.868c.614 6.723 5.3 8.314 7.25 14.19h.125c-.444-5.212-1.817-7.637-3.375-11.949-3.142-8.7-5.116-18.531-10.375-25.157a11.94 11.94 0 00-5-3.238c-1.027-.385-2.764-.314-3.375-1.121a6.666 6.666 0 01-.75-3.113l4.25.872v-.124c-2.5-3.962-8.173-10.6-12.25-12.828-1.312-.717-4.111.027-5.375-.747-.589-.462-1.134-3.165-.5-3.612l2.875-.623a9.9 9.9 0 01-1.25-3.861C22.005 5.057 23 4.43 25 4.487c-.009 5.457 3.66 9.7 7 11.956h.125c-.08-2.487.016-5.71 1.25-6.974l3.25 1c-.5 2.221-1.9 5.547-1 8.344l9.5 13.077h.125l.25-3.363h.125a23.538 23.538 0 004 1.619c-1.812 5.052.555 8.382 2.25 12.454 2.761 6.634 5.833 13.506 7.75 20.674h.125l-.375-19.182-3.25-4.483.25-6.725c1.521 1.111 2.688 3.1 4.25 3.985L60.5 18.686C59.869 16.515 52 8.828 50 7.352l.25-.252a4.149 4.149 0 011.875-2.491L60 12.333l.875 1H61c-.111-3.941-.465-8.654.125-12.33A13.651 13.651 0 0065.25 1v11.084l.25-.124c.638-2.075 6.277-8.511 8.75-7.846.867.3 1.259 1.464 1.625 2.242-3.563 1.154-9.433 8.079-10.25 11.956v18.183c1.57-1.2 2.283-3.17 4.375-3.861v6.85c-.615 1.673-2.772 2.556-3.25 4.483l-.125 18.806h.125c.581-3.505 2.282-7.088 3.5-10.212L75 39.234l2.375-4.734c.536-2.087-1.114-2.917-1.125-4.982l3.875-1.618.25 3.238c1.4-.733 9.281-11.4 9.75-13.2.714-2.749-.725-5.292-1-7.6 1.425-.398 2.075-1.086 4-1.118z" fill="#b5b5b5" fill-rule="evenodd"/></svg>