<svg xmlns="http://www.w3.org/2000/svg" width="67" height="67"><path data-name="Заливка цветом 1" d="M38.537 15.239c1.577.107 2.83 1.125 4.045 1.227a7.224 7.224 0 01.578-2.782h.826l.414.573c.286 1.129-.853 1.656-1.156 2.618a14.921 14.921 0 007.429-7.364 25.7 25.7 0 011.651-3.927 4.779 4.779 0 012.724 1.473v.573c-2.61 1.912-6.9 6.364-7.842 9.736 2.249-1.713 3.109-4.762 5.118-6.709l.576.082a1.579 1.579 0 01.991 1.8c-2.692 1.3-5.61 4.435-6.109 7.773 1.282.971 1.923 2.475 2.972 3.682a28.294 28.294 0 006.274-4.745c1.544-.008 2.257 1.354 2.311 2.782-1.267 1.87-6.016 1.73-7.925 3.191l.578 1.391a19.429 19.429 0 0010.237-1.883c1.093-.475 1.926-1.382 3.219-1.636l.165.245c.159.792.612 1.913.248 2.7-1.178.272-2.962.116-4.375.409-2.319.481-7.354 2.214-8.172 4.009l.086 4.991-.743 3.764a22.25 22.25 0 0012.63 3.682c.057 1.552-.257 2.746-1.156 3.355C60.314 44.03 57.751 42 51.5 41.994a13.517 13.517 0 01-3.467 4.991c.039 4.359 2.34 6.53 4.953 8.346 1.055.733 2.083 1.136 2.642 2.373a3.124 3.124 0 01-1.9 1.718c-1.15-.715-1.16-2.633-1.9-3.764-1.083-1.658-4.994-5.349-7.017-6.058l-1.4.818c-.065 4.219 2.571 7.23 4.458 9.736.522.693 1.288 1.006 1.4 2.127A5.152 5.152 0 0146.874 64l-.5-.245a21.634 21.634 0 00-3.88-9.818 7.987 7.987 0 00-1.569-2.291l-2.889.818a28.385 28.385 0 01-6.109.245l-1.321 7.036c-.377 2.344.322 4.575-.743 6.055a2.467 2.467 0 01-1.321.164l-.5-.573c-.567-1.87.913-4.04 1.486-5.482.828-2.085.89-4.7.825-7.527L26.9 51.4c-.133 1.246-.1 3.136-.66 4.009a2.006 2.006 0 01-1.74-.979c.072-1.636 1.936-1.786 1.651-3.436-4.267-.762-7.213 5.86-8.585 9-.422.965-.552 2.386-1.238 3.109-.776-.383-2.368-1.1-2.642-1.964 3.377-1.544 5.625-6.021 7.264-9.327l-.248.164-1.981 2.7-1.981 3.518h-.409a4.03 4.03 0 01-1.651-1.473c.592-1.394 2-1.861 2.889-2.946a36.833 36.833 0 003.962-5.645c-1.309-1.722-2.947-2.977-4.045-4.991a69.3 69.3 0 00-5.613 4.255l-1.156 1.145c-2.165 1.074-2.875-2.013-2.476-3.518 1.147-.569 2.414-.264 4.127-.573a10.391 10.391 0 004.458-2.536l-.165-.491a26.365 26.365 0 00-10.9 2.045c-.946.363-2.925 1.947-3.88 1.636-.7-.406-1.362-2.564-.413-3.109l2.972-.082 4.54-.654c2.641-.794 4.454-2.6 6.439-3.6a13.034 13.034 0 01-.413-5.4c.117-.642.549-2.533.33-2.782C13.1 27.193 9.4 27.36 5.517 26.612l-.083-.245a1.716 1.716 0 01.33-1.964l-.083-.164a10.743 10.743 0 01-4.623-.9 7.243 7.243 0 01.825-3.027c1.551.031 2.657 1.291 3.8 1.882 3.255 1.687 6.245 3.666 11.062 3.682.772-2.432 2.865-3.7 3.88-5.727 1.127-4.135-6.6-9.121-8.42-11.455a2.021 2.021 0 012.475-1.555c.672 3.883 4.2 7.348 7.1 9.164-.532-1.789-1.783-2.179-3.054-3.191V12.7c.345-.6 1.055-1.466 1.9-1.064.218 1.672 2.406 5.231 3.632 5.727a2.244 2.244 0 00.991-.573 37.494 37.494 0 00-3.3-8.836L19.22 3.621c-.283-1.137 1.993-1.587 2.642-1.145 1.231 4.824 2.257 10.737 5.778 13.336 2.458-.64 6.114-1.75 9.246-.9.246-2.726 1.005-4.92 1.4-7.282.359-2.132-.353-4.412.082-6.3l.417-.33a1.5 1.5 0 011.651.818c.459 1.337-.343 3.094-.66 4.336a28.307 28.307 0 00-1.239 9.085zM7.416 24.648l.165.082zm.247.082l3.962 1.718a9.754 9.754 0 00-3.962-1.718z" fill="#01a6aa" fill-rule="evenodd"/></svg>