<svg width="116" height="116" fill="none" xmlns="http://www.w3.org/2000/svg"><path d="M99.39 0l-6.34 5.438h6.34V0z" fill="#005A94"/><path d="M42.568 25.375h29.95L99.39 0H70.51a4 4 0 00-2.776 1.12L42.568 25.375z" fill="#106CA6"/><path d="M16.06 0l6.34 5.438h-6.34V0z" fill="#0A649E"/><path d="M78.075 38.907h-42.51V22.3a2 2 0 012-2h38.51a2 2 0 012 2v16.608zm-37.68-4.833h32.85v-8.942h-32.85v8.942z" fill="#BF772D"/><path d="M72.52 25.375H42.57L16 0h28.982a3 3 0 012.082.84L72.52 25.375z" fill="url(#paint0_linear)"/><path d="M58 111.55c-23.196 0-42-18.804-42-42s18.804-42 42-42 42 18.804 42 42-18.804 42-42 42z" fill="url(#paint1_linear)"/><path d="M35.417 105c6.184 4.062 13.788 7 22.011 7 8.224 0 15.828-2.397 22.011-6.459V42.459C73.256 38.397 65.652 36 57.43 36c-8.224 0-15.828 2.397-22.012 6.46V105z" fill="url(#paint2_linear)"/><path d="M57.29 33.24c20.353 0 36.853 16.287 36.853 36.38 0 20.092-16.5 36.38-36.853 36.38S20.437 89.712 20.437 69.62c0-20.093 16.5-36.38 36.853-36.38z" fill="url(#paint3_linear)"/><path d="M90.538 70.844a.16.16 0 00-.148-.03l-.158.048-.024.007a3.662 3.662 0 00-.33.107c-1.64.652-2.932 1.768-3.948 3.412a6.9 6.9 0 00-.6 1.25c.254-1.417.312-1.969.357-3.554.002-.066.002-.134.002-.201 0-.184 0-.357.04-.515.049-.187.145-.374.239-.555l.074-.147a.108.108 0 01.041-.025c.47-.072.884-.27 1.269-.609.388-.342.706-.76.947-1.244.866-1.735 1.3-3.653 1.288-5.7 0-.197-.024-.389-.05-.598-.011-.094-.023-.19-.033-.289a.158.158 0 00-.242-.118 2.89 2.89 0 01-.077.046 1.426 1.426 0 00-.109.07 8.32 8.32 0 00-1.936 1.957 8.537 8.537 0 00-1.55 4.243l-.041-.523-.005-.063c-.055-.684-.112-1.39-.158-2.086-.011-.176-.045-.347-.078-.513-.063-.318-.123-.62-.027-.934a4.28 4.28 0 00.058-.215c.045-.177.263-.45.598-.749l.013-.011c.123-.105.757-.685 1.117-1.831.365-1.166.337-2.383.317-3.272v-.024c-.027-1.222-.16-2.143-.429-2.986a5.694 5.694 0 00-.12-.327 22.055 22.055 0 01-.07-.18.158.158 0 00-.121-.102l-.027-.002a.158.158 0 00-.123.058l-.262.319c-1.255 1.53-1.871 3.324-1.833 5.333.007.354.033.717.08 1.092a31.038 31.038 0 00-1.118-3.202.235.235 0 01-.016-.074l-.002-.141a8.545 8.545 0 010-.62.318.318 0 01.07-.157c.065-.087.138-.172.213-.26.129-.15.262-.304.367-.48.34-.568.499-1.24.501-2.112.005-1.027-.154-2.108-.499-3.402-.189-.705-.474-1.622-1.004-2.454a2.371 2.371 0 00-.119-.164 3.044 3.044 0 01-.06-.08c-.03-.04-.072-.063-.139-.063a.16.16 0 00-.128.081c-.666 1.201-.997 2.484-1.013 3.923a10.58 10.58 0 00.41 3.047 30.374 30.374 0 00-1.983-3.147l-.017-.023c-.016-.022-.023-.032-.022-.025a19.162 19.162 0 01-.099-.808.28.28 0 01.039-.079c.047-.08.1-.16.155-.244.111-.17.226-.344.3-.54.222-.59.272-1.261.152-2.048-.263-1.742-1.032-3.31-2.349-4.796a5.506 5.506 0 00-.443-.43l-.044-.04a9.362 9.362 0 01-.19-.173.16.16 0 00-.156-.037.16.16 0 00-.108.117l-.029.126c-.02.083-.035.15-.046.216-.177 1.057-.164 2.19.04 3.463.202 1.262.606 2.35 1.225 3.296a25.254 25.254 0 00-2.775-2.824.092.092 0 01-.01-.027c.073-.634-.084-1.233-.48-1.828-.52-.783-1.244-1.38-2.15-1.773-.541-.235-1.103-.443-1.653-.647a51.84 51.84 0 01-.798-.3c-.273-.108-.39-.127-.453-.068-.08.075-.061.14-.026.258l.012.038c.332 1.12.773 2.005 1.349 2.706 1.056 1.29 2.291 1.944 3.774 2.002a.222.222 0 01.11.03c.209.157.363.282.499.406.43.392.852.81 1.266 1.251-.615-.382-1.368-.555-2.216-.512-.463.023-.924.091-1.37.157l-.016.003-.393.056c-.287.04-.575.09-.83.134-.103.019-.35.075-.406.194a.135.135 0 00.004.127.78.78 0 00.065.099c.735.954 1.574 1.582 2.564 1.92 1.208.414 2.317.38 3.313-.108a1.13 1.13 0 01.546-.126c.159 0 .277.025.317.034.059.01.139.043.155.064.62.814 1.208 1.684 1.757 2.598-.464-.451-1.069-.755-1.893-.953-.723-.172-1.462-.21-2.176-.245l-.239-.012c-.224-.012-.448-.026-.679-.04l-.386-.024a.157.157 0 00-.127.064.158.158 0 00-.021.15 1.3 1.3 0 00.058.141c.754 1.26 1.638 2.13 2.704 2.664 1.042.52 1.984.657 2.934.43a1.6 1.6 0 01.369-.04c.404 0 .685.123.745.237a32.109 32.109 0 011.39 3.34c-.421-.582-1.011-1.054-1.758-1.407-.742-.35-1.514-.67-2.275-.985-.326-.135-.654-.27-.98-.41a.158.158 0 00-.222.145c-.001.103 1.083 3.11 2.657 4.295.643.483 1.434.98 2.431 1.004.299.006.608.048.84.313a.308.308 0 00.135.093c.08.026.102.075.14.24.324 1.356.56 2.754.704 4.173a5.654 5.654 0 00-.153-.437c-.352-.893-.945-1.674-1.866-2.46a52.11 52.11 0 00-1.453-1.18l-.022-.017c-.22-.174-.438-.347-.656-.522a6.059 6.059 0 01-.14-.116l-.135-.117a.159.159 0 00-.26.132l.016.274.003.04c.01.18.02.349.039.516.17 1.626.654 2.984 1.479 4.15.51.722 1.243 1.604 2.385 2.02.278.102.48.257.696.534.204.26.242.497.237.795-.02 1.25-.109 2.49-.266 3.705a5.084 5.084 0 00-.234-1.048c-.247-.748-.633-1.476-1.179-2.224-.47-.649-.961-1.3-1.435-1.928l-.032-.042-.559-.743a.21.21 0 00-.112-.078.16.16 0 00-.221.093l-.006.017a.396.396 0 00-.017.063c-.327 1.95-.126 3.696.613 5.34.361.803.846 1.713 1.7 2.368.39.299.698.718.867 1.18.036.1.034.143.03.16a28.249 28.249 0 01-1.407 4.306 5.452 5.452 0 00-.031-2.26c-.24-1.11-.652-2.187-1.019-3.109l-.11-.276-.525-1.318a.163.163 0 00-.15-.1.156.156 0 00-.138.085l-.058.109c-.025.047-.049.092-.07.137-.738 1.666-.987 3.374-.74 5.076.176 1.218.475 2.09.97 2.826.256.382.499.806.543 1.328.01.124.006.21-.05.306a23.935 23.935 0 01-2.088 3.079l.009-.016c.55-1.006.567-2.094.51-3.026-.048-.799-.14-1.596-.227-2.367l-.005-.045a70.97 70.97 0 01-.103-.927c-.019-.175-.04-.35-.061-.528l-.028-.241a.157.157 0 00-.086-.123c-.087-.045-.228.025-.38.205-1.045 1.235-1.693 2.63-1.927 4.149-.243 1.574-.112 2.92.402 4.118a.378.378 0 01.014.118l-.028.69a.23.23 0 01-.052.125 18.448 18.448 0 01-3.425 2.605c.584-.528 1.003-1.215 1.275-2.087.301-.966.456-1.972.606-2.947l.013-.087c.053-.342.109-.684.165-1.034l.064-.394a.158.158 0 00-.218-.172l-.055.023c-.06.024-.112.046-.16.071-2.331 1.164-3.865 3.877-3.648 6.452.033.403-.003.782-.114 1.157a.161.161 0 01-.056.078 18.46 18.46 0 01-3.219 1.04.158.158 0 00-.086.258c.115.136.216.283.298.436a.165.165 0 00.175.08 18.278 18.278 0 002.498-.758.302.302 0 01.16-.03c.176.023.363.059.57.11.043.01.08.029.08.029.453.903 1.232 1.478 2.382 1.758.25.06.508.105.766.132a9.802 9.802 0 001.672.015c.997-.112 1.848-.336 2.602-.686.31-.143.662-.336.933-.68a.158.158 0 00-.02-.218c-.766-.675-1.546-1.166-2.384-1.5-1.243-.493-2.375-.627-3.484-.414a5.193 5.193 0 00-.485.12 19.86 19.86 0 002.97-2.18.16.16 0 01.07-.034 6.23 6.23 0 01.566-.072c.02 0 .044.01.047.01.566.633 1.294.94 2.227.94.048 0 .095-.001.143-.003 1.015-.032 2.035-.311 3.032-.828.725-.378 1.48-.818 2.094-1.475.135-.146.257-.31.364-.456l.01-.014c.048-.065.096-.13.145-.193a.16.16 0 00.031-.124.163.163 0 00-.075-.11 5.223 5.223 0 00-.507-.236c-1.587-.613-3.188-.675-4.716-.183-.5.16-.971.401-1.43.735a24.902 24.902 0 002.346-3.226.524.524 0 01.034-.052c.063-.04.126-.077.19-.114.114-.067.232-.136.343-.218.093-.07.12-.072.214-.011.134.087.29.132.425.167.793.203 1.592.102 2.477-.313.807-.379 1.428-.977 1.98-1.567.8-.86 1.325-1.637 1.648-2.444.067-.169.116-.344.166-.527.021-.077.042-.154.065-.229a.158.158 0 00-.099-.195l-.066-.005c-.327 0-3.243.048-4.948 1.702A8.82 8.82 0 0083 83.148a31.22 31.22 0 001.707-4.495l.007-.023c.006-.019.014-.048.02-.055l.446-.613c.016-.024.018-.024.045-.024l.038.001.096.006c.332.02.527.018.688-.007.635-.1 1.208-.42 1.752-.978 1.272-1.304 2.148-2.93 2.677-4.973.057-.22.073-.44.09-.675.007-.106.016-.215.028-.328a.16.16 0 00-.057-.14z" fill="url(#paint4_linear)"/><path d="M47.371 94.59a18.481 18.481 0 01-3.217-1.04.164.164 0 01-.057-.077 3.111 3.111 0 01-.113-1.158c.217-2.575-1.317-5.288-3.647-6.452a2.172 2.172 0 00-.161-.071l-.055-.023a.158.158 0 00-.218.172l.063.394.166 1.034.013.09c.15.972.304 1.978.606 2.944.272.872.691 1.56 1.275 2.087a18.437 18.437 0 01-3.425-2.605.229.229 0 01-.052-.123l-.028-.689c0-.024 0-.09.013-.121.514-1.197.646-2.544.403-4.118-.234-1.518-.883-2.914-1.927-4.15-.123-.144-.23-.217-.321-.217a.127.127 0 00-.058.012.159.159 0 00-.087.124l-.028.24c-.022.179-.042.354-.061.53-.032.309-.067.617-.103.926l-.005.045c-.088.771-.18 1.569-.228 2.367-.056.932-.04 2.02.511 3.026l.008.016a23.941 23.941 0 01-2.088-3.079c-.055-.097-.06-.182-.05-.306.045-.522.288-.947.544-1.327.494-.738.793-1.61.97-2.827.247-1.702-.002-3.41-.741-5.075-.02-.046-.044-.09-.07-.138l-.057-.11a.162.162 0 00-.15-.084.16.16 0 00-.139.1l-.524 1.318-.11.276c-.368.922-.78 1.999-1.019 3.11a5.447 5.447 0 00-.03 2.26 28.223 28.223 0 01-1.409-4.307c-.004-.017-.005-.06.03-.16.17-.462.478-.882.868-1.18.854-.655 1.338-1.565 1.7-2.369.739-1.644.94-3.39.613-5.339a.41.41 0 00-.017-.062l-.006-.018a.16.16 0 00-.09-.098.167.167 0 00-.127.002c-.032.012-.082.03-.114.078l-.561.745-.032.042c-.474.63-.964 1.28-1.436 1.928-.546.749-.931 1.477-1.178 2.225-.12.361-.198.71-.235 1.047a32.913 32.913 0 01-.265-3.704c-.005-.298.033-.536.237-.795.216-.277.417-.432.695-.534 1.142-.417 1.875-1.298 2.386-2.02.825-1.166 1.309-2.524 1.479-4.15.018-.167.028-.336.039-.516l.003-.04c.005-.087.01-.178.017-.274a.159.159 0 00-.261-.132l-.136.116c-.05.044-.094.081-.14.117-.217.175-.436.348-.655.522l-.023.018c-.48.38-.977.773-1.452 1.18-.92.785-1.514 1.566-1.866 2.46-.059.147-.11.292-.153.436.145-1.419.38-2.817.703-4.172.04-.166.061-.215.142-.242a.306.306 0 00.132-.09c.234-.267.543-.309.842-.315.997-.023 1.788-.52 2.43-1.004 1.575-1.185 2.659-4.192 2.659-4.294a.159.159 0 00-.22-.146c-.329.139-.657.274-.997.415-.747.31-1.52.63-2.261.98-.747.353-1.337.825-1.759 1.406a32.065 32.065 0 011.39-3.337c.06-.116.342-.24.746-.24.132 0 .26.015.37.041.949.228 1.89.09 2.933-.43 1.066-.534 1.95-1.405 2.704-2.664.014-.025.042-.1.058-.14a.158.158 0 00-.02-.15.162.162 0 00-.137-.065h-.001l-.377.023c-.23.015-.454.03-.678.04l-.24.013c-.714.035-1.453.072-2.175.245-.825.198-1.43.502-1.894.953a28.827 28.827 0 011.757-2.598.368.368 0 01.162-.065c.033-.008.152-.033.31-.033.21 0 .394.043.55.128.99.484 2.102.52 3.309.106.99-.338 1.829-.966 2.564-1.92a.78.78 0 00.065-.1.135.135 0 00.004-.125c-.057-.12-.303-.176-.407-.194a19.494 19.494 0 00-.828-.134 47.235 47.235 0 01-.394-.057l-.016-.003a14.487 14.487 0 00-1.37-.157c-.848-.043-1.6.13-2.216.512.414-.44.837-.858 1.267-1.25a6.57 6.57 0 01.499-.406.221.221 0 01.108-.03c1.484-.058 2.72-.713 3.776-2.002.575-.702 1.016-1.587 1.349-2.706l.011-.039c.036-.118.055-.182-.026-.258-.063-.059-.174-.041-.462.073-.262.1-.525.198-.796.298-.543.201-1.104.41-1.646.644-.906.394-1.63.99-2.15 1.773-.396.596-.553 1.194-.479 1.826a.123.123 0 01-.008.026 25.317 25.317 0 00-2.777 2.828c.619-.946 1.022-2.035 1.224-3.297.205-1.273.217-2.406.04-3.463a3.536 3.536 0 00-.046-.215l-.029-.128a.161.161 0 00-.108-.116.162.162 0 00-.155.037l-.19.174-.044.04a5.18 5.18 0 00-.444.43c-1.317 1.485-2.085 3.053-2.348 4.795-.12.787-.07 1.458.152 2.048.073.196.188.371.302.545.053.079.105.159.153.24.035.059.038.074.038.071-.022.233-.053.493-.095.804a.296.296 0 01-.027.038l-.015.021c-.72 1-1.385 2.056-1.983 3.148a10.56 10.56 0 00.41-3.047c-.017-1.439-.348-2.722-1.014-3.923a.164.164 0 00-.141-.082.158.158 0 00-.126.065c-.02.028-.04.054-.06.079a2.262 2.262 0 00-.119.164c-.53.831-.815 1.748-1.003 2.454-.346 1.294-.504 2.375-.5 3.402.003.872.162 1.543.501 2.11.106.177.239.332.372.487.07.083.144.168.21.255.046.06.068.122.069.156.009.207.004.417 0 .62l-.003.141a.225.225 0 01-.015.073 31.08 31.08 0 00-1.119 3.204c.047-.375.073-.738.08-1.092.039-2.01-.578-3.803-1.833-5.333l-.262-.319a.157.157 0 00-.122-.059l-.027.003a.159.159 0 00-.122.1 14.11 14.11 0 01-.07.182 5.895 5.895 0 00-.12.326c-.27.843-.402 1.765-.428 2.986v.024c-.021.89-.049 2.107.317 3.272.36 1.147.993 1.727 1.116 1.83l.013.013c.335.298.553.571.598.749.018.071.037.143.058.214.096.315.036.616-.028.94-.032.165-.066.334-.077.508-.046.695-.103 1.402-.158 2.086l-.005.063-.042.523a8.533 8.533 0 00-1.55-4.244 8.322 8.322 0 00-1.935-1.957 1.492 1.492 0 00-.11-.07 2.352 2.352 0 01-.078-.047.159.159 0 00-.24.12c-.01.099-.022.195-.034.294a5.29 5.29 0 00-.05.593c-.01 2.047.423 3.964 1.288 5.7.242.483.56.902.948 1.244.384.338.8.537 1.267.608.01.002.035.017.039.02l.078.153c.093.18.19.367.238.555.04.158.04.33.04.514 0 .067 0 .135.002.201.045 1.586.104 2.138.358 3.554a6.893 6.893 0 00-.6-1.25c-1.017-1.644-2.308-2.76-3.948-3.411-.104-.042-.209-.072-.33-.108l-.024-.007-.157-.047a.159.159 0 00-.206.169c.012.112.02.222.028.328.017.234.033.455.09.674.529 2.043 1.405 3.67 2.677 4.974.544.557 1.117.877 1.752.977.16.025.356.028.688.008l.095-.006.04-.002c.026 0 .028 0 .046.027l.444.61a.303.303 0 01.02.057l.006.022a31.222 31.222 0 001.708 4.495 8.81 8.81 0 00-1.007-1.16c-1.705-1.655-4.621-1.703-4.948-1.703h-.04l-.026.005a.158.158 0 00-.099.195c.023.076.044.153.068.243.047.17.095.345.163.514.323.807.847 1.583 1.649 2.444.55.59 1.172 1.188 1.98 1.566.883.415 1.682.517 2.476.313.135-.035.29-.08.424-.166.095-.061.121-.06.215.01.11.082.229.152.343.219.063.037.127.074.187.112.01.008.03.04.037.053a24.912 24.912 0 002.345 3.226 5.02 5.02 0 00-1.429-.735c-1.528-.492-3.13-.43-4.716.183-.236.092-.496.231-.513.24a.158.158 0 00-.038.229l.144.194.01.014c.108.146.23.31.365.457.613.656 1.368 1.096 2.094 1.474.997.517 2.017.796 3.032.829l.143.002c.933 0 1.661-.307 2.223-.936a.114.114 0 01.044-.014c.215.015.419.046.571.072a.161.161 0 01.072.035 19.84 19.84 0 002.97 2.179 5.294 5.294 0 00-.486-.12c-1.109-.213-2.24-.08-3.483.414-.839.334-1.619.825-2.384 1.5a.158.158 0 00-.02.217c.27.345.623.538.932.68.755.351 1.606.575 2.604.687.003 0 .323.028.773.028.324 0 .626-.015.897-.043.259-.028.517-.072.767-.132 1.15-.28 1.929-.855 2.375-1.748a.235.235 0 01.086-.038 5.24 5.24 0 01.572-.112.314.314 0 01.16.031c.794.306 1.634.56 2.495.757a.158.158 0 00.177-.08c.082-.152.183-.299.298-.435a.157.157 0 00-.087-.257z" fill="url(#paint5_linear)"/><path d="M57.85 82.357c6.469 0 11.027-3.207 11-7.746.027-3.157-2.143-5.383-6.404-5.835v-.202c3.15-.327 5.45-2.3 5.423-5.18.026-4.34-4.106-7.495-9.968-7.495-5.991 0-10.252 3.332-10.278 8.048h6.87c.025-1.56 1.433-2.666 3.408-2.666 1.808 0 3.073 1.069 3.047 2.565.026 1.56-1.472 2.666-3.615 2.666h-2.686v4.829h2.686c2.324 0 3.951 1.107 3.925 2.666.026 1.597-1.368 2.716-3.357 2.716-2.066 0-3.538-1.069-3.564-2.565h-7.23c.025 4.804 4.48 8.199 10.742 8.199z" fill="url(#paint6_linear)"/><path d="M49.096 100.869h3.755v-1.042H50.94V99.8l.459-.375c1.115-.912 1.4-1.386 1.4-1.942 0-.896-.748-1.482-1.921-1.482-1.14 0-1.88.621-1.878 1.632h1.261c-.002-.403.249-.628.617-.628.365 0 .626.222.626.59 0 .34-.222.561-.583.854l-1.825 1.483v.938z" fill="url(#paint7_linear)"/><path d="M55.576 101c1.331.002 2.158-.933 2.16-2.523.002-1.581-.829-2.477-2.16-2.477-1.333 0-2.155.891-2.16 2.477-.004 1.583.827 2.521 2.16 2.523zm0-1.06c-.459 0-.788-.453-.784-1.463.005-.988.325-1.426.784-1.426s.781.438.784 1.425c.002 1.011-.325 1.464-.784 1.464z" fill="url(#paint8_linear)"/><path d="M58.36 100.869h3.755v-1.042h-1.911V99.8l.459-.375c1.116-.912 1.4-1.386 1.4-1.942 0-.896-.748-1.482-1.921-1.482-1.14 0-1.88.621-1.878 1.632h1.261c-.002-.403.249-.628.617-.628.365 0 .626.222.626.59 0 .34-.222.561-.583.854l-1.825 1.483v.938z" fill="url(#paint9_linear)"/><path d="M64.84 101c1.331.002 2.158-.933 2.16-2.523.002-1.581-.829-2.477-2.16-2.477-1.333 0-2.155.891-2.16 2.477-.004 1.583.827 2.521 2.16 2.523zm0-1.06c-.459 0-.788-.453-.784-1.463.005-.988.326-1.426.784-1.426.459 0 .781.438.784 1.425.002 1.011-.325 1.464-.784 1.464z" fill="url(#paint10_linear)"/><defs><linearGradient id="paint0_linear" x1="44.26" y1="0" x2="44.26" y2="25.375" gradientUnits="userSpaceOnUse"><stop stop-color="#117DC1"/><stop offset="1" stop-color="#1599EC"/></linearGradient><linearGradient id="paint1_linear" x1="16" y1="69.55" x2="100" y2="69.55" gradientUnits="userSpaceOnUse"><stop stop-color="#FBC77B"/><stop offset="1" stop-color="#B96F26"/></linearGradient><linearGradient id="paint2_linear" x1="34.417" y1="94.5" x2="93.704" y2="125.464" gradientUnits="userSpaceOnUse"><stop stop-color="#DC9E58"/><stop offset=".779" stop-color="#BC7021"/></linearGradient><linearGradient id="paint3_linear" x1="111.812" y1="54.216" x2="17.318" y2="95.794" gradientUnits="userSpaceOnUse"><stop stop-color="#FFCA7E"/><stop offset="1" stop-color="#D48D3D"/></linearGradient><linearGradient id="paint4_linear" x1="53.927" y1="46.5" x2="94.926" y2="89.02" gradientUnits="userSpaceOnUse"><stop stop-color="#A86F2E"/><stop offset="1" stop-color="#CC8535"/></linearGradient><linearGradient id="paint5_linear" x1="18.409" y1="51" x2="50.405" y2="92.016" gradientUnits="userSpaceOnUse"><stop stop-color="#AB6C25"/><stop offset="1" stop-color="#CA7C25"/></linearGradient><linearGradient id="paint6_linear" x1="47.423" y1="56" x2="69.922" y2="82.011" gradientUnits="userSpaceOnUse"><stop offset=".051" stop-color="#9D6628"/><stop offset="1" stop-color="#D18B3C"/></linearGradient><linearGradient id="paint7_linear" x1="48.427" y1="94.524" x2="63.927" y2="103.024" gradientUnits="userSpaceOnUse"><stop stop-color="#A26929"/><stop offset="1" stop-color="#C37925"/></linearGradient><linearGradient id="paint8_linear" x1="48.427" y1="94.524" x2="63.927" y2="103.024" gradientUnits="userSpaceOnUse"><stop stop-color="#A26929"/><stop offset="1" stop-color="#C37925"/></linearGradient><linearGradient id="paint9_linear" x1="48.427" y1="94.524" x2="63.927" y2="103.024" gradientUnits="userSpaceOnUse"><stop stop-color="#A26929"/><stop offset="1" stop-color="#C37925"/></linearGradient><linearGradient id="paint10_linear" x1="48.427" y1="94.524" x2="63.927" y2="103.024" gradientUnits="userSpaceOnUse"><stop stop-color="#A26929"/><stop offset="1" stop-color="#C37925"/></linearGradient></defs></svg>