<svg width="116" height="116" fill="none" xmlns="http://www.w3.org/2000/svg"><path d="M99.39 0l-6.34 5.438h6.34V0z" fill="#005A94"/><path d="M42.568 25.375h29.95L99.388 0h-28.88a4 4 0 00-2.775 1.12L42.568 25.375z" fill="#106CA6"/><path d="M16.06 0l6.34 5.438h-6.34V0z" fill="#0A649E"/><path d="M78.075 38.907h-42.51V22.3a2 2 0 012-2h38.51a2 2 0 012 2v16.608zm-37.68-4.833h32.849v-8.942H40.395v8.942z" fill="#F8B64C"/><path d="M72.52 25.375H42.568L16 0h28.981a3 3 0 012.082.84L72.52 25.375z" fill="url(#paint0_linear)"/><path d="M58 112c-23.196 0-42-18.804-42-42s18.804-42 42-42 42 18.804 42 42-18.804 42-42 42z" fill="url(#paint1_linear)"/><path d="M36.05 105.61c6.18 4.053 13.781 6.39 22 6.39 8.22 0 15.82-2.392 22-6.444V42.619c-6.18-4.052-13.78-6.444-22-6.444-8.219 0-15.82 2.392-22 6.444v62.991z" fill="url(#paint2_linear)"/><path d="M58 33c20.434 0 37 16.566 37 37s-16.566 37-37 37-37-16.566-37-37 16.566-37 37-37z" fill="url(#paint3_linear)"/><g clip-path="url(#clip0)"><path d="M89.943 71.22a.158.158 0 00-.145-.028l-.155.046-.024.007c-.119.035-.222.065-.323.106-1.61.64-2.877 1.735-3.874 3.349a6.767 6.767 0 00-.589 1.226c.25-1.39.307-1.932.351-3.488.002-.065.002-.131.002-.197 0-.18 0-.35.04-.505.047-.184.142-.368.233-.545.026-.05.052-.1.073-.145a.108.108 0 01.041-.024 2.39 2.39 0 001.245-.598 3.99 3.99 0 00.929-1.222c.85-1.702 1.274-3.585 1.263-5.593a5.047 5.047 0 00-.048-.588 11.694 11.694 0 01-.033-.283.156.156 0 00-.237-.117 2.65 2.65 0 01-.076.046 1.428 1.428 0 00-.107.068 8.163 8.163 0 00-1.9 1.92 8.382 8.382 0 00-1.52 4.166l-.04-.513-.006-.062c-.053-.671-.109-1.365-.154-2.047-.011-.173-.045-.341-.077-.504-.062-.313-.12-.608-.026-.917.02-.07.039-.14.057-.211.044-.174.258-.442.586-.735l.013-.011c.12-.103.743-.672 1.096-1.798.358-1.144.33-2.339.311-3.211v-.024c-.027-1.2-.156-2.103-.42-2.931a5.654 5.654 0 00-.118-.32 19.332 19.332 0 01-.069-.178.155.155 0 00-.12-.1l-.026-.002a.155.155 0 00-.12.058l-.257.313c-1.231 1.501-1.836 3.263-1.798 5.235.006.347.032.703.078 1.071a30.504 30.504 0 00-1.097-3.143.228.228 0 01-.015-.072l-.003-.139c-.004-.2-.009-.406 0-.609a.312.312 0 01.068-.153c.065-.086.136-.169.21-.256.126-.146.257-.298.36-.471.333-.558.49-1.216.492-2.073.004-1.008-.151-2.069-.49-3.339-.185-.693-.465-1.593-.985-2.409a2.374 2.374 0 00-.117-.161 2.943 2.943 0 01-.059-.078c-.03-.04-.07-.063-.136-.063a.157.157 0 00-.125.08c-.654 1.18-.979 2.439-.994 3.85-.013 1.178.17 2.191.401 2.992a29.816 29.816 0 00-1.945-3.09l-.016-.022c-.017-.021-.023-.032-.022-.024a18.865 18.865 0 01-.097-.794c0-.003.005-.022.038-.077.047-.08.098-.158.152-.24.11-.166.222-.337.294-.53.218-.58.267-1.237.15-2.01-.259-1.71-1.013-3.25-2.305-4.707a5.384 5.384 0 00-.435-.422l-.043-.04c-.06-.054-.123-.11-.186-.17a.157.157 0 00-.153-.036.158.158 0 00-.106.114l-.028.124a3.43 3.43 0 00-.046.212c-.173 1.038-.16 2.15.04 3.4.198 1.238.594 2.307 1.201 3.235a24.788 24.788 0 00-2.722-2.772.091.091 0 01-.01-.026c.072-.623-.082-1.21-.47-1.795a4.753 4.753 0 00-2.11-1.74 32.404 32.404 0 00-1.622-.635c-.258-.096-.517-.191-.783-.294-.267-.106-.382-.125-.444-.068-.08.075-.06.138-.026.254l.012.037c.326 1.099.759 1.968 1.323 2.656 1.036 1.266 2.248 1.909 3.703 1.966a.22.22 0 01.108.03c.205.153.356.276.49.397.42.386.836.796 1.242 1.228-.604-.375-1.342-.544-2.174-.502-.455.023-.907.09-1.344.154l-.016.002c-.13.02-.258.038-.386.056-.28.038-.564.088-.814.132-.101.018-.343.073-.398.19a.133.133 0 00.004.124c.019.035.04.068.063.097.722.936 1.545 1.553 2.516 1.885 1.185.407 2.273.373 3.25-.105a1.1 1.1 0 01.536-.124c.155 0 .272.024.31.033.059.01.137.042.153.063.608.8 1.185 1.653 1.724 2.55-.455-.443-1.049-.742-1.858-.936-.709-.169-1.433-.205-2.134-.24l-.235-.012c-.22-.011-.44-.025-.666-.04l-.38-.023a.155.155 0 00-.145.21c.016.042.044.115.058.14.74 1.235 1.607 2.09 2.653 2.613 1.023.511 1.946.646 2.878.423.108-.026.233-.04.362-.04.396 0 .673.121.731.233a31.59 31.59 0 011.365 3.278c-.414-.57-.993-1.034-1.726-1.38-.728-.344-1.486-.658-2.231-.968-.32-.132-.643-.265-.963-.401a.155.155 0 00-.218.142c0 .1 1.063 3.052 2.608 4.216.63.474 1.406.962 2.385.985.293.006.596.047.825.308a.303.303 0 00.132.09c.078.026.1.074.138.237.317 1.33.547 2.702.69 4.095a5.53 5.53 0 00-.15-.428c-.346-.877-.928-1.644-1.832-2.415a45.704 45.704 0 00-1.425-1.158l-.022-.018c-.215-.17-.43-.34-.643-.511a6.176 6.176 0 01-.137-.115l-.133-.114a.156.156 0 00-.256.13c.007.093.012.182.017.268l.002.04c.011.176.021.342.039.506.167 1.596.642 2.929 1.45 4.074.502.708 1.22 1.573 2.341 1.983.273.1.47.251.683.523.2.255.237.488.232.78a32.323 32.323 0 01-.26 3.637 4.997 4.997 0 00-.23-1.028c-.243-.735-.621-1.45-1.157-2.184a134.84 134.84 0 00-1.408-1.892l-.031-.042-.549-.729a.207.207 0 00-.11-.077.157.157 0 00-.217.092l-.005.017a.376.376 0 00-.017.062c-.32 1.913-.124 3.627.602 5.24.354.79.83 1.683 1.667 2.326.383.293.685.705.85 1.158.036.098.035.14.03.157a27.743 27.743 0 01-1.38 4.227 5.353 5.353 0 00-.031-2.218c-.235-1.09-.639-2.147-1-3.052l-.107-.27c-.17-.425-.34-.852-.515-1.295a.16.16 0 00-.148-.099.153.153 0 00-.135.085l-.057.106c-.024.047-.048.09-.068.135-.724 1.636-.97 3.312-.727 4.983.173 1.195.467 2.05.952 2.774.251.374.49.79.533 1.303.01.121.005.205-.049.3a23.498 23.498 0 01-2.049 3.022l.009-.015c.54-.988.557-2.056.502-2.97-.048-.784-.138-1.567-.224-2.324l-.005-.044c-.035-.303-.07-.606-.102-.91a38.117 38.117 0 00-.06-.519l-.027-.236a.154.154 0 00-.084-.12c-.085-.045-.223.024-.372.2-1.026 1.213-1.662 2.583-1.892 4.073-.238 1.545-.109 2.867.396 4.042a.391.391 0 01.013.117l-.027.676a.227.227 0 01-.051.123 18.098 18.098 0 01-3.36 2.557c.572-.518.983-1.193 1.25-2.048.296-.949.448-1.936.595-2.893l.013-.085c.052-.336.106-.672.162-1.015l.062-.388a.155.155 0 00-.213-.168l-.055.023c-.058.024-.11.045-.157.07-2.287 1.141-3.792 3.805-3.58 6.333.034.395-.002.767-.11 1.136a.158.158 0 01-.056.076 18.106 18.106 0 01-3.157 1.021.156.156 0 00-.085.253c.113.133.211.277.292.428a.161.161 0 00.172.078c.846-.193 1.67-.443 2.45-.744a.294.294 0 01.157-.03c.174.023.357.059.56.11.043.01.077.029.078.027.445.887 1.209 1.451 2.337 1.726.245.059.499.102.752.129.266.028.562.042.88.042.442 0 .757-.027.76-.027.978-.11 1.813-.33 2.553-.673.304-.14.65-.33.915-.669a.156.156 0 00-.02-.212c-.75-.663-1.516-1.145-2.338-1.473-1.22-.484-2.33-.616-3.418-.406a5.108 5.108 0 00-.476.117 19.481 19.481 0 002.914-2.139.156.156 0 01.069-.034c.15-.025.35-.056.555-.07.02 0 .043.008.046.01.555.62 1.27.922 2.185.922.047 0 .093-.001.14-.003.995-.032 1.996-.305 2.975-.813.711-.371 1.453-.803 2.054-1.447.133-.143.252-.305.357-.448l.01-.014.142-.19a.157.157 0 00.03-.121.16.16 0 00-.073-.107 5.14 5.14 0 00-.498-.233c-1.556-.601-3.127-.663-4.626-.18-.49.158-.953.395-1.402.722a24.45 24.45 0 002.3-3.167c.008-.012.028-.044.034-.05.061-.04.124-.076.186-.112.112-.066.228-.134.337-.215.091-.068.117-.07.21-.01.131.085.284.13.417.164.778.2 1.562.1 2.43-.307.792-.372 1.401-.96 1.942-1.538.786-.845 1.3-1.607 1.617-2.399.067-.166.114-.338.164-.518a6.3 6.3 0 01.063-.225.155.155 0 00-.097-.191l-.065-.005c-.32 0-3.181.047-4.854 1.67a8.66 8.66 0 00-.989 1.14 30.65 30.65 0 001.676-4.413l.007-.022a.245.245 0 01.019-.055l.437-.6c.017-.025.019-.025.044-.025l.038.002.094.005c.326.02.517.018.675-.007.623-.098 1.186-.412 1.72-.96 1.247-1.28 2.107-2.877 2.626-4.882.055-.214.07-.431.088-.661.007-.105.015-.212.027-.323a.158.158 0 00-.056-.137z" fill="url(#paint4_linear)"/><path d="M47.593 94.53a18.118 18.118 0 01-3.157-1.022.16.16 0 01-.055-.075 3.055 3.055 0 01-.111-1.137c.212-2.527-1.293-5.19-3.579-6.333a2.107 2.107 0 00-.158-.07l-.054-.022a.157.157 0 00-.156.02.155.155 0 00-.058.148l.063.388c.055.343.11.678.162 1.014l.013.088c.147.955.299 1.942.594 2.89.267.856.679 1.531 1.251 2.049a18.097 18.097 0 01-3.36-2.556.224.224 0 01-.05-.121l-.028-.677c0-.024 0-.088.013-.12.504-1.174.633-2.496.395-4.04-.23-1.491-.866-2.861-1.891-4.074-.12-.142-.226-.214-.315-.214a.124.124 0 00-.056.013.155.155 0 00-.086.121l-.027.236c-.021.175-.042.347-.06.52-.032.303-.066.606-.101.91l-.005.043c-.087.757-.177 1.54-.224 2.323-.055.915-.039 1.983.502 2.97l.008.016a23.49 23.49 0 01-2.049-3.022c-.054-.095-.059-.179-.049-.3.044-.513.282-.93.533-1.303.485-.724.779-1.58.952-2.774.243-1.671-.002-3.347-.727-4.983a2.013 2.013 0 00-.068-.135l-.056-.107a.156.156 0 00-.283.014l-.515 1.295-.108.271c-.36.905-.765 1.961-1 3.051a5.351 5.351 0 00-.03 2.219 27.71 27.71 0 01-1.381-4.227c-.004-.017-.005-.059.03-.157.166-.454.468-.865.85-1.159.838-.642 1.314-1.535 1.668-2.324.726-1.614.922-3.328.602-5.24a.415.415 0 00-.017-.063l-.006-.017a.157.157 0 00-.088-.095.163.163 0 00-.124.001.214.214 0 00-.113.076c-.181.243-.366.487-.55.732l-.031.041c-.465.618-.946 1.257-1.409 1.893-.535.735-.913 1.449-1.156 2.184a5.006 5.006 0 00-.23 1.028 32.302 32.302 0 01-.26-3.637c-.005-.293.032-.525.232-.78.212-.272.41-.424.682-.524 1.12-.41 1.84-1.274 2.34-1.982.81-1.145 1.285-2.478 1.452-4.074.018-.164.028-.33.038-.506l.003-.04c.005-.086.01-.175.017-.27a.156.156 0 00-.086-.149.159.159 0 00-.17.02l-.133.115c-.05.042-.093.079-.138.115-.213.171-.428.34-.642.511l-.023.018c-.471.373-.959.76-1.425 1.158-.903.77-1.485 1.538-1.83 2.414a5.604 5.604 0 00-.15.43 31.3 31.3 0 01.689-4.097c.038-.162.06-.21.14-.236a.299.299 0 00.129-.09c.23-.26.533-.302.826-.308.978-.023 1.755-.511 2.384-.986 1.545-1.163 2.609-4.115 2.609-4.215a.156.156 0 00-.217-.143c-.322.137-.643.27-.977.407-.733.304-1.49.618-2.219.962-.732.347-1.311.81-1.725 1.38.394-1.12.852-2.22 1.364-3.275.059-.114.335-.235.732-.235.129 0 .254.014.362.04.931.223 1.855.088 2.878-.423 1.046-.523 1.913-1.378 2.653-2.615a1.15 1.15 0 00.056-.138.155.155 0 00-.153-.21h-.002l-.369.023c-.226.014-.446.028-.666.04l-.235.011c-.7.036-1.425.072-2.134.24-.809.195-1.402.494-1.858.937a28.265 28.265 0 011.724-2.55c.016-.021.095-.054.16-.064.031-.008.148-.032.303-.032.206 0 .387.041.54.125.97.475 2.062.51 3.246.104.972-.332 1.794-.949 2.516-1.884a.767.767 0 00.063-.098.132.132 0 00.005-.124c-.056-.117-.298-.172-.4-.19-.25-.044-.532-.094-.812-.132a49.897 49.897 0 01-.387-.055l-.016-.003a13.942 13.942 0 00-1.344-.154c-.831-.043-1.57.127-2.174.503.406-.433.821-.843 1.243-1.229.133-.121.284-.244.49-.398a.218.218 0 01.105-.029c1.457-.057 2.669-.7 3.705-1.965.565-.69.997-1.558 1.323-2.656l.012-.038c.035-.116.054-.18-.026-.254-.062-.057-.17-.04-.453.072-.257.099-.515.194-.78.293a31.34 31.34 0 00-1.616.632 4.763 4.763 0 00-2.11 1.74c-.388.585-.542 1.172-.47 1.792a.128.128 0 01-.007.026c-.928.8-1.814 1.702-2.725 2.776.607-.929 1.003-1.998 1.202-3.237.2-1.249.213-2.36.039-3.398a3.524 3.524 0 00-.045-.212l-.029-.125a.158.158 0 00-.106-.114.158.158 0 00-.152.036c-.064.06-.126.116-.187.171l-.043.039c-.155.14-.302.272-.435.422-1.292 1.458-2.046 2.997-2.304 4.707-.118.773-.069 1.43.149 2.01.072.193.185.365.297.535.051.078.103.156.15.236.034.058.037.073.037.07a19.38 19.38 0 01-.093.789.283.283 0 01-.026.037l-.015.02a29.798 29.798 0 00-1.946 3.09c.231-.8.415-1.813.402-2.99-.016-1.413-.341-2.672-.995-3.851-.025-.046-.072-.076-.138-.08a.155.155 0 00-.123.063l-.059.078a2.23 2.23 0 00-.117.16c-.52.817-.8 1.717-.985 2.41-.338 1.27-.494 2.331-.49 3.339.003.856.16 1.515.492 2.072.104.173.234.325.365.478.07.08.14.164.205.25a.31.31 0 01.069.153c.008.203.004.41 0 .609l-.004.138a.221.221 0 01-.014.072A30.517 30.517 0 0032 61.934c.046-.368.072-.724.079-1.072.038-1.972-.567-3.733-1.799-5.235l-.257-.313a.154.154 0 00-.12-.057l-.026.002a.155.155 0 00-.12.099l-.068.178c-.043.11-.084.215-.118.32-.265.828-.394 1.732-.42 2.931v.024c-.02.873-.048 2.068.31 3.212.353 1.125.976 1.694 1.096 1.797l.013.011c.328.293.542.561.586.735.018.07.036.141.058.21.093.31.035.606-.029.924-.031.161-.064.327-.075.498-.045.682-.1 1.376-.155 2.047l-.004.062-.042.514a8.38 8.38 0 00-1.52-4.166 8.165 8.165 0 00-1.9-1.92 1.422 1.422 0 00-.107-.07 2.657 2.657 0 01-.076-.045.156.156 0 00-.236.117 9.86 9.86 0 01-.034.289c-.024.2-.047.388-.048.582-.01 2.009.415 3.89 1.264 5.594.236.475.549.886.93 1.222a2.39 2.39 0 001.243.597c.01.002.034.016.038.02l.076.15c.092.177.187.36.234.544.04.155.04.325.04.505l.001.198c.044 1.555.102 2.097.351 3.488a6.767 6.767 0 00-.589-1.227c-.997-1.614-2.264-2.71-3.872-3.349a3.892 3.892 0 00-.325-.105l-.023-.007-.154-.046a.155.155 0 00-.202.165c.012.11.02.218.027.323.017.23.032.446.088.66.52 2.006 1.379 3.603 2.627 4.883.533.547 1.096.861 1.719.96.157.024.35.027.675.007l.093-.006.039-.001c.025 0 .027 0 .045.026l.436.598a.299.299 0 01.02.056l.006.022a30.668 30.668 0 001.675 4.412 8.648 8.648 0 00-.988-1.14c-1.673-1.623-4.534-1.67-4.854-1.67h-.04l-.025.005a.155.155 0 00-.097.191l.067.239a4.7 4.7 0 00.16.504c.317.792.83 1.554 1.617 2.4.54.578 1.15 1.166 1.942 1.537.868.407 1.651.507 2.43.307.133-.035.285-.079.416-.164.094-.06.12-.058.21.01.11.081.225.15.338.215.062.037.124.073.183.11.009.008.029.04.036.053.7 1.14 1.47 2.2 2.301 3.166a4.922 4.922 0 00-1.402-.722c-1.5-.482-3.07-.421-4.627.18-.232.09-.487.227-.504.237a.156.156 0 00-.037.224c.049.063.096.127.142.19l.01.014c.105.143.224.305.358.448.6.644 1.342 1.076 2.054 1.447.978.508 1.979.781 2.974.814l.14.002c.916 0 1.63-.302 2.182-.919a.11.11 0 01.043-.014c.21.015.41.046.56.07a.157.157 0 01.071.035c.92.815 1.895 1.53 2.913 2.139a5.202 5.202 0 00-.476-.117c-1.088-.21-2.198-.078-3.417.406-.823.328-1.588.81-2.34 1.473a.155.155 0 00-.019.212c.266.339.612.528.915.669.74.343 1.575.564 2.554.673.003 0 .317.027.759.027.318 0 .614-.014.88-.042.254-.027.507-.07.752-.13 1.128-.274 1.893-.839 2.33-1.715a.228.228 0 01.085-.038c.203-.05.387-.086.56-.11a.308.308 0 01.158.031c.779.3 1.603.55 2.448.743a.154.154 0 00.173-.078c.081-.15.18-.294.293-.428a.155.155 0 00-.085-.251z" fill="url(#paint5_linear)"/></g><path d="M64.157 82.166V55.8H57.9c-.05 1.088-.31 2.002-.783 2.746a5.402 5.402 0 01-1.81 1.78 7.906 7.906 0 01-2.482.947c-.916.189-1.855.272-2.824.249v5.454h6.222v15.19h7.935z" fill="url(#paint6_linear)"/><path d="M49.096 101.869h3.755v-1.042H50.94v-.028l.459-.375c1.115-.912 1.4-1.386 1.4-1.942 0-.896-.748-1.482-1.921-1.482-1.14 0-1.88.621-1.878 1.632h1.261c-.002-.403.249-.628.617-.628.365 0 .626.222.626.59 0 .34-.222.561-.583.854l-1.825 1.483v.938z" fill="url(#paint7_linear)"/><path d="M55.576 102c1.331.002 2.158-.933 2.16-2.523.002-1.581-.829-2.477-2.16-2.477-1.333 0-2.155.891-2.16 2.477-.004 1.583.827 2.521 2.16 2.523zm0-1.06c-.459 0-.788-.453-.784-1.463.005-.988.325-1.426.784-1.426s.781.438.784 1.425c.002 1.011-.325 1.464-.784 1.464z" fill="url(#paint8_linear)"/><path d="M58.36 101.869h3.755v-1.042h-1.911v-.028l.459-.375c1.116-.912 1.4-1.386 1.4-1.942 0-.896-.748-1.482-1.921-1.482-1.14 0-1.88.621-1.878 1.632h1.261c-.002-.403.249-.628.617-.628.365 0 .626.222.626.59 0 .34-.222.561-.583.854l-1.825 1.483v.938z" fill="url(#paint9_linear)"/><path d="M64.84 102c1.331.002 2.158-.933 2.16-2.523.002-1.581-.829-2.477-2.16-2.477-1.333 0-2.155.891-2.16 2.477-.004 1.583.827 2.521 2.16 2.523zm0-1.06c-.459 0-.788-.453-.784-1.463.005-.988.326-1.426.784-1.426.459 0 .781.438.784 1.425.002 1.011-.325 1.464-.784 1.464z" fill="url(#paint10_linear)"/><defs><linearGradient id="paint0_linear" x1="44.26" y1="0" x2="44.26" y2="25.375" gradientUnits="userSpaceOnUse"><stop stop-color="#117DC1"/><stop offset="1" stop-color="#1599EC"/></linearGradient><linearGradient id="paint1_linear" x1="16" y1="70" x2="100" y2="70" gradientUnits="userSpaceOnUse"><stop stop-color="#FFDA45"/><stop offset="1" stop-color="#FFA425"/></linearGradient><linearGradient id="paint2_linear" x1="56.896" y1="85.725" x2="56.731" y2="128.766" gradientUnits="userSpaceOnUse"><stop stop-color="#FFDA45"/><stop offset=".779" stop-color="#DF7A35"/></linearGradient><linearGradient id="paint3_linear" x1="95" y1="70" x2="21" y2="70" gradientUnits="userSpaceOnUse"><stop stop-color="#FFDA45"/><stop offset="1" stop-color="#FFA425"/></linearGradient><linearGradient id="paint4_linear" x1="61.926" y1="46.365" x2="93.374" y2="88.623" gradientUnits="userSpaceOnUse"><stop stop-color="#D68E21"/><stop offset="1" stop-color="#D89023"/></linearGradient><linearGradient id="paint5_linear" x1="21.633" y1="53.244" x2="56.52" y2="98.942" gradientUnits="userSpaceOnUse"><stop stop-color="#B4761A"/><stop offset="1" stop-color="#EE9815"/></linearGradient><linearGradient id="paint6_linear" x1="47.517" y1="55.437" x2="68.953" y2="84.417" gradientUnits="userSpaceOnUse"><stop stop-color="#AE7115"/><stop offset="1" stop-color="#F5990E"/></linearGradient><linearGradient id="paint7_linear" x1="46.369" y1="96.584" x2="72.857" y2="104.001" gradientUnits="userSpaceOnUse"><stop stop-color="#AD6D0D"/><stop offset="1" stop-color="#D89023"/></linearGradient><linearGradient id="paint8_linear" x1="46.369" y1="96.584" x2="72.857" y2="104.001" gradientUnits="userSpaceOnUse"><stop stop-color="#AD6D0D"/><stop offset="1" stop-color="#D89023"/></linearGradient><linearGradient id="paint9_linear" x1="46.369" y1="96.584" x2="72.857" y2="104.001" gradientUnits="userSpaceOnUse"><stop stop-color="#AD6D0D"/><stop offset="1" stop-color="#D89023"/></linearGradient><linearGradient id="paint10_linear" x1="46.369" y1="96.584" x2="72.857" y2="104.001" gradientUnits="userSpaceOnUse"><stop stop-color="#AD6D0D"/><stop offset="1" stop-color="#D89023"/></linearGradient><clipPath id="clip0"><path fill="#fff" transform="translate(26 38)" d="M0 0h64v64H0z"/></clipPath></defs></svg>