<svg width="116" height="116" fill="none" xmlns="http://www.w3.org/2000/svg"><path d="M100.393 0l-6.34 5.438h6.34V0z" fill="#005A94"/><path d="M43.57 25.375h29.95L100.393 0H71.512a4 4 0 00-2.776 1.12L43.57 25.375z" fill="#106CA6"/><path d="M17.06 0l6.34 5.438h-6.34V0z" fill="#0A649E"/><path d="M79.077 38.907H36.565V22.3a2 2 0 012-2h38.512a2 2 0 012 2v16.608zm-37.681-4.833h32.85v-8.942h-32.85v8.942z" fill="#A9A9A9"/><path d="M73.522 25.375H43.57L17 0h28.983a3 3 0 012.082.84l25.457 24.535z" fill="url(#paint0_linear)"/><path d="M58 112c-23.196 0-42-18.804-42-42s18.804-42 42-42 42 18.804 42 42-18.804 42-42 42z" fill="url(#paint1_linear)"/><path d="M35.775 105.225c6.236 4.041 13.903 6.425 22.196 6.425 8.292 0 15.96-2.384 22.194-6.425V42.479c-6.235-4.04-13.902-6.425-22.195-6.425-8.292 0-15.96 2.385-22.195 6.425v62.746z" fill="url(#paint2_linear)"/><path d="M58 33c20.434 0 37 16.566 37 37s-16.566 37-37 37-37-16.566-37-37 16.566-37 37-37z" fill="url(#paint3_linear)"/><path d="M49.095 101.421h3.755v-1.042h-1.91v-.028l.459-.376c1.115-.912 1.4-1.386 1.4-1.942 0-.897-.748-1.483-1.921-1.483-1.14 0-1.88.621-1.878 1.633h1.261c-.002-.404.249-.63.617-.63.365 0 .626.224.626.592 0 .34-.222.56-.583.854l-1.825 1.483v.939z" fill="url(#paint4_linear)"/><path d="M55.575 101.552c1.331.002 2.158-.934 2.16-2.525.002-1.581-.829-2.477-2.16-2.477-1.333 0-2.155.891-2.16 2.477-.004 1.584.827 2.523 2.16 2.525zm0-1.061c-.459 0-.788-.452-.783-1.464.004-.987.325-1.426.783-1.426.459 0 .781.439.784 1.426.002 1.012-.325 1.464-.784 1.464z" fill="url(#paint5_linear)"/><path d="M58.359 101.421h3.755v-1.042h-1.911v-.028l.459-.376c1.116-.912 1.4-1.386 1.4-1.942 0-.897-.748-1.483-1.921-1.483-1.14 0-1.88.621-1.878 1.633h1.262c-.003-.404.248-.63.616-.63.366 0 .626.224.626.592 0 .34-.222.56-.583.854l-1.825 1.483v.939z" fill="url(#paint6_linear)"/><path d="M64.84 101.552c1.33.002 2.157-.934 2.159-2.525.002-1.581-.829-2.477-2.16-2.477-1.333 0-2.155.891-2.16 2.477-.004 1.584.827 2.523 2.16 2.525zm0-1.061c-.46 0-.79-.452-.784-1.464.004-.987.325-1.426.783-1.426.459 0 .782.439.784 1.426.002 1.012-.325 1.464-.784 1.464z" fill="url(#paint7_linear)"/><path d="M89.945 70.77a.158.158 0 00-.145-.028l-.155.046-.024.007c-.119.035-.222.064-.323.105-1.61.64-2.877 1.735-3.874 3.35a6.773 6.773 0 00-.589 1.226c.25-1.39.307-1.932.351-3.488.002-.065.002-.132.002-.198 0-.18 0-.35.04-.505.047-.184.142-.367.233-.544.026-.05.052-.1.073-.145a.105.105 0 01.04-.025 2.39 2.39 0 001.245-.597 3.99 3.99 0 00.93-1.222c.85-1.703 1.274-3.585 1.263-5.594a5.025 5.025 0 00-.049-.587c-.01-.092-.022-.186-.032-.284a.156.156 0 00-.237-.116 2.886 2.886 0 01-.076.045 1.412 1.412 0 00-.107.069 8.165 8.165 0 00-1.9 1.92 8.382 8.382 0 00-1.52 4.166l-.04-.513-.006-.062c-.053-.671-.109-1.365-.154-2.048-.012-.173-.045-.34-.077-.503-.062-.313-.12-.608-.027-.918.022-.07.04-.14.058-.21.044-.174.258-.443.586-.736l.013-.01c.12-.103.743-.672 1.096-1.798.358-1.144.33-2.34.311-3.212v-.023c-.027-1.2-.156-2.104-.42-2.931a5.58 5.58 0 00-.118-.32 19.332 19.332 0 01-.069-.178.155.155 0 00-.12-.1l-.026-.002a.155.155 0 00-.12.057l-.257.313c-1.231 1.502-1.836 3.263-1.799 5.235.007.348.033.704.08 1.072a30.497 30.497 0 00-1.098-3.143.23.23 0 01-.015-.073l-.003-.138a9.587 9.587 0 010-.61.312.312 0 01.068-.153c.065-.085.136-.168.21-.255.126-.147.257-.299.36-.472.333-.557.49-1.215.492-2.072.004-1.008-.151-2.07-.49-3.34-.185-.692-.465-1.592-.985-2.408a2.41 2.41 0 00-.117-.161 2.783 2.783 0 01-.059-.078c-.03-.04-.07-.063-.136-.063a.157.157 0 00-.125.08c-.653 1.179-.979 2.438-.994 3.85-.013 1.178.17 2.19.4 2.991a29.793 29.793 0 00-1.944-3.09l-.017-.021c-.016-.022-.022-.032-.021-.025a18.575 18.575 0 01-.097-.793c0-.003.005-.022.038-.077.047-.08.098-.158.152-.24a2.68 2.68 0 00.294-.53c.218-.58.267-1.238.15-2.01-.259-1.71-1.013-3.25-2.305-4.708a5.402 5.402 0 00-.435-.422l-.043-.039c-.06-.055-.123-.11-.186-.17a.156.156 0 00-.153-.036.158.158 0 00-.106.114l-.028.124c-.02.082-.034.147-.046.212-.174 1.038-.16 2.15.04 3.399.198 1.239.594 2.308 1.2 3.236a24.78 24.78 0 00-2.72-2.772.092.092 0 01-.012-.026c.073-.624-.081-1.21-.47-1.795-.51-.769-1.22-1.354-2.109-1.74-.531-.231-1.082-.435-1.622-.635-.258-.096-.517-.192-.783-.294-.267-.107-.382-.126-.444-.068-.08.074-.06.138-.026.253l.012.038c.326 1.099.759 1.967 1.323 2.656 1.036 1.266 2.248 1.909 3.703 1.965a.218.218 0 01.108.03c.205.154.356.276.49.398.42.385.836.796 1.242 1.228-.604-.375-1.342-.545-2.174-.503-.455.023-.907.09-1.344.154l-.016.003-.386.056c-.28.038-.564.088-.814.131-.101.018-.343.073-.398.19a.133.133 0 00.004.125c.019.035.04.067.063.097.722.936 1.545 1.553 2.516 1.884 1.185.407 2.272.374 3.25-.105a1.1 1.1 0 01.536-.124c.155 0 .272.025.31.034.058.01.137.042.153.063a28.064 28.064 0 011.724 2.55c-.455-.443-1.049-.742-1.858-.936-.709-.17-1.433-.205-2.134-.24l-.235-.013c-.22-.01-.44-.025-.666-.04l-.38-.023a.155.155 0 00-.145.21c.016.042.044.115.058.14.74 1.236 1.607 2.09 2.653 2.614 1.022.51 1.946.646 2.878.423a1.57 1.57 0 01.362-.04c.396 0 .673.121.73.233a31.378 31.378 0 011.366 3.278c-.414-.571-.993-1.034-1.726-1.381-.728-.344-1.486-.658-2.231-.967-.32-.132-.643-.265-.963-.401a.156.156 0 00-.218.142c0 .1 1.063 3.052 2.608 4.215.63.475 1.406.963 2.385.986.293.006.596.047.825.307a.303.303 0 00.131.09c.079.026.1.074.139.237.317 1.331.547 2.703.69 4.096a5.585 5.585 0 00-.15-.429c-.346-.877-.928-1.644-1.832-2.414-.465-.399-.953-.785-1.425-1.159l-.022-.017c-.215-.17-.43-.34-.643-.512a5.519 5.519 0 01-.137-.114l-.133-.115a.156.156 0 00-.256.13c.007.094.012.183.017.269l.002.04c.011.175.02.341.039.505.167 1.597.642 2.93 1.45 4.075.502.708 1.22 1.573 2.341 1.982.273.1.47.252.683.524.2.255.237.487.232.78a32.303 32.303 0 01-.26 3.637 4.993 4.993 0 00-.23-1.028c-.243-.735-.621-1.45-1.157-2.184-.462-.636-.943-1.275-1.408-1.893l-.031-.04c-.185-.246-.37-.49-.549-.73a.208.208 0 00-.11-.077.156.156 0 00-.217.092l-.005.017a.376.376 0 00-.017.062c-.32 1.913-.124 3.627.602 5.24.354.79.83 1.683 1.667 2.325.383.294.685.705.85 1.159.036.098.035.14.03.156a27.736 27.736 0 01-1.38 4.228 5.355 5.355 0 00-.031-2.219c-.235-1.09-.64-2.147-1-3.051l-.107-.271c-.17-.424-.34-.852-.515-1.294a.16.16 0 00-.148-.1.153.153 0 00-.135.085l-.057.107c-.025.046-.048.09-.068.135-.725 1.635-.97 3.312-.727 4.982.173 1.195.467 2.05.952 2.775.251.374.49.79.533 1.303.01.121.005.205-.049.3a23.478 23.478 0 01-2.049 3.022l.009-.016c.54-.987.557-2.055.501-2.97-.047-.784-.137-1.567-.223-2.323l-.005-.044c-.035-.303-.07-.606-.102-.91a38.128 38.128 0 00-.06-.519l-.027-.237a.154.154 0 00-.084-.12c-.085-.044-.223.024-.373.2-1.025 1.213-1.66 2.584-1.89 4.074-.239 1.545-.11 2.867.395 4.042a.366.366 0 01.013.116l-.028.676a.228.228 0 01-.05.124 18.102 18.102 0 01-3.36 2.556c.572-.517.983-1.192 1.25-2.048.296-.948.448-1.935.595-2.892l.013-.085c.052-.337.106-.672.162-1.015l.062-.388a.155.155 0 00-.213-.168l-.055.022c-.058.024-.11.046-.157.07-2.287 1.142-3.792 3.806-3.58 6.333.034.396-.002.768-.11 1.136a.158.158 0 01-.056.076 18.1 18.1 0 01-3.157 1.022.155.155 0 00-.085.252c.113.134.211.278.292.429a.161.161 0 00.172.078c.846-.194 1.67-.444 2.45-.744a.296.296 0 01.157-.03c.173.023.357.058.56.109.043.01.077.03.078.028.445.886 1.209 1.45 2.337 1.726.246.059.499.102.752.129.266.028.562.042.88.042.442 0 .756-.027.76-.028.978-.109 1.813-.33 2.553-.672.304-.141.65-.33.915-.669a.156.156 0 00-.02-.213c-.75-.663-1.516-1.144-2.338-1.472-1.22-.485-2.33-.616-3.418-.407a5.07 5.07 0 00-.476.118 19.488 19.488 0 002.914-2.14.156.156 0 01.069-.034c.15-.025.35-.055.555-.07.02 0 .043.009.046.01.555.62 1.27.922 2.185.922.047 0 .093 0 .14-.002.996-.032 1.996-.306 2.975-.813.711-.371 1.453-.803 2.054-1.448.133-.143.252-.305.357-.448l.01-.014.142-.19a.157.157 0 00.03-.12.16.16 0 00-.073-.108 5.14 5.14 0 00-.498-.232c-1.556-.601-3.127-.663-4.626-.18a4.92 4.92 0 00-1.402.722 24.436 24.436 0 002.3-3.167c.008-.012.028-.045.034-.05.061-.04.124-.076.186-.113.112-.065.228-.133.337-.214.091-.069.117-.07.21-.01.131.084.284.129.417.164.778.199 1.562.1 2.43-.308.792-.371 1.401-.959 1.942-1.538.786-.844 1.3-1.607 1.617-2.398.067-.167.114-.338.163-.518.02-.075.042-.15.064-.225a.155.155 0 00-.097-.192l-.065-.005c-.32 0-3.181.047-4.854 1.67a8.66 8.66 0 00-.989 1.14 30.651 30.651 0 001.676-4.412l.007-.022a.305.305 0 01.019-.055l.437-.601c.017-.024.019-.024.044-.024l.038.001.094.006c.326.02.517.017.675-.007.623-.099 1.185-.412 1.72-.96 1.247-1.28 2.106-2.877 2.626-4.882.055-.215.07-.432.088-.662a8.93 8.93 0 01.027-.322.158.158 0 00-.056-.138z" fill="url(#paint8_linear)"/><path d="M47.594 94.08a18.118 18.118 0 01-3.157-1.022.16.16 0 01-.055-.075 3.057 3.057 0 01-.111-1.137c.212-2.528-1.293-5.191-3.579-6.333a2.107 2.107 0 00-.158-.07l-.054-.022a.155.155 0 00-.214.168l.063.388c.055.343.11.678.162 1.014l.013.088c.147.955.299 1.942.594 2.89.267.856.679 1.531 1.251 2.048a18.093 18.093 0 01-3.36-2.556.224.224 0 01-.05-.12l-.028-.677c0-.024 0-.088.013-.12.504-1.174.633-2.496.395-4.041-.23-1.49-.866-2.86-1.891-4.073-.12-.142-.226-.214-.315-.214a.124.124 0 00-.056.012.155.155 0 00-.086.122l-.027.236c-.021.175-.042.347-.06.52a86.9 86.9 0 01-.101.909l-.005.044c-.087.757-.177 1.54-.224 2.323-.055.915-.039 1.983.502 2.97l.008.016a23.497 23.497 0 01-2.049-3.022c-.054-.095-.059-.179-.049-.3.044-.513.282-.93.533-1.304.485-.723.779-1.579.952-2.774.243-1.67-.002-3.347-.727-4.982a1.897 1.897 0 00-.068-.135l-.056-.107a.159.159 0 00-.147-.084.156.156 0 00-.137.098c-.175.444-.345.87-.514 1.295l-.108.27c-.36.906-.765 1.962-1 3.052a5.353 5.353 0 00-.03 2.219 27.71 27.71 0 01-1.381-4.228c-.004-.016-.005-.058.03-.156.166-.454.468-.866.85-1.159.838-.643 1.314-1.536 1.668-2.325.725-1.613.922-3.327.601-5.24a.422.422 0 00-.016-.062l-.006-.017a.157.157 0 00-.088-.096.163.163 0 00-.124.002.215.215 0 00-.113.076c-.181.243-.366.487-.55.732l-.031.041c-.465.618-.946 1.256-1.409 1.892-.535.735-.913 1.45-1.156 2.184a5.008 5.008 0 00-.23 1.028 32.323 32.323 0 01-.26-3.636c-.005-.293.032-.526.232-.78.212-.272.41-.424.682-.524 1.12-.41 1.84-1.275 2.34-1.982.81-1.146 1.285-2.478 1.452-4.074.018-.165.028-.33.038-.507l.003-.04c.005-.085.01-.174.017-.268a.156.156 0 00-.086-.15.16.16 0 00-.17.02l-.133.114c-.05.043-.093.08-.138.115-.213.172-.428.341-.642.512l-.023.017c-.471.374-.959.76-1.425 1.159-.903.77-1.485 1.537-1.83 2.414a5.593 5.593 0 00-.151.43 31.51 31.51 0 01.69-4.097c.038-.163.06-.21.14-.236a.299.299 0 00.129-.09c.23-.261.533-.302.826-.308.978-.023 1.755-.511 2.384-.986 1.545-1.163 2.609-4.115 2.609-4.215a.156.156 0 00-.217-.143c-.322.136-.644.27-.977.407-.733.304-1.49.618-2.219.962-.732.346-1.311.81-1.725 1.38.394-1.12.852-2.22 1.364-3.275.059-.114.335-.235.732-.235.129 0 .254.014.361.04.932.223 1.856.087 2.879-.423 1.046-.523 1.913-1.378 2.653-2.615a1.15 1.15 0 00.056-.138.155.155 0 00-.153-.21h-.002l-.369.023c-.226.014-.446.028-.666.04l-.234.011c-.701.035-1.426.072-2.135.24-.809.195-1.402.493-1.858.936a28.246 28.246 0 011.724-2.55.366.366 0 01.16-.064c.031-.007.148-.032.303-.032.206 0 .387.042.54.126.97.475 2.062.51 3.246.104.971-.332 1.794-.949 2.515-1.885a.76.76 0 00.064-.097.132.132 0 00.005-.124c-.056-.117-.298-.172-.4-.19-.25-.044-.532-.094-.813-.132a50.584 50.584 0 01-.386-.056l-.016-.002a13.942 13.942 0 00-1.344-.155c-.831-.042-1.57.128-2.174.503.406-.432.821-.843 1.243-1.228.133-.121.284-.244.49-.398a.218.218 0 01.105-.03c1.457-.056 2.669-.7 3.705-1.965.564-.688.997-1.557 1.323-2.656l.012-.037c.034-.116.054-.18-.026-.254-.062-.057-.17-.04-.453.072-.257.098-.515.194-.78.292-.533.198-1.084.402-1.616.633-.889.386-1.599.972-2.11 1.74-.388.584-.542 1.172-.47 1.792a.12.12 0 01-.007.026 24.874 24.874 0 00-2.725 2.775c.607-.928 1.003-1.997 1.202-3.236.2-1.249.212-2.36.039-3.399a3.438 3.438 0 00-.045-.211l-.029-.125a.158.158 0 00-.106-.114.158.158 0 00-.152.036c-.064.06-.126.116-.187.17l-.043.04c-.155.14-.302.272-.435.422-1.292 1.457-2.046 2.997-2.304 4.707-.118.773-.07 1.43.149 2.01.072.193.185.364.297.535a5.3 5.3 0 01.15.236c.034.057.037.072.037.07a19.21 19.21 0 01-.093.789.309.309 0 01-.026.037l-.015.02a29.781 29.781 0 00-1.945 3.09c.23-.8.414-1.814.4-2.99-.015-1.413-.34-2.672-.994-3.852-.025-.046-.072-.075-.138-.08a.155.155 0 00-.123.064l-.059.077a2.23 2.23 0 00-.117.162c-.52.816-.8 1.715-.984 2.408-.34 1.27-.495 2.332-.49 3.34.002.856.158 1.514.491 2.071.103.174.234.326.365.478.07.081.14.165.205.25.045.06.067.12.069.153.008.203.004.41 0 .61l-.004.137a.221.221 0 01-.014.072 30.525 30.525 0 00-1.098 3.145c.046-.368.072-.724.079-1.072.038-1.972-.567-3.733-1.799-5.235l-.256-.313a.154.154 0 00-.121-.057l-.026.002a.156.156 0 00-.12.099l-.068.178c-.043.11-.084.214-.118.32-.264.828-.394 1.732-.42 2.931v.024c-.02.872-.048 2.067.31 3.211.353 1.126.975 1.695 1.096 1.797l.013.012c.328.293.542.561.586.735.018.07.036.14.058.21.093.31.035.605-.029.924-.031.161-.064.327-.075.498-.045.682-.1 1.376-.155 2.047l-.004.062-.042.514a8.38 8.38 0 00-1.52-4.166 8.169 8.169 0 00-1.9-1.921 1.497 1.497 0 00-.107-.069 2.331 2.331 0 01-.076-.046.156.156 0 00-.236.117c-.01.098-.022.192-.034.29-.024.2-.047.388-.048.582-.01 2.008.415 3.89 1.264 5.594.236.475.549.886.93 1.222.377.33.783.526 1.243.597.01.001.034.016.038.019.024.05.05.1.076.15.092.177.187.36.234.544.04.156.04.326.04.506l.001.197c.044 1.556.102 2.098.351 3.488a6.777 6.777 0 00-.589-1.226c-.997-1.614-2.264-2.71-3.872-3.349-.103-.041-.205-.07-.324-.106l-.024-.007-.154-.045a.156.156 0 00-.202.165c.012.11.02.218.027.322.017.23.033.447.088.662.52 2.004 1.378 3.602 2.627 4.882.533.547 1.096.86 1.719.96.157.024.35.027.675.007l.093-.006.038-.002c.026 0 .028 0 .046.027l.436.598c.006.008.014.036.02.056l.006.022a30.648 30.648 0 001.675 4.412 8.655 8.655 0 00-.988-1.14c-1.673-1.623-4.534-1.67-4.854-1.67h-.04l-.025.005a.155.155 0 00-.097.191l.067.239c.046.166.093.338.16.504.317.792.83 1.554 1.617 2.399.54.579 1.15 1.166 1.942 1.538.868.407 1.651.507 2.43.307.133-.035.285-.079.416-.164.094-.06.12-.058.21.01.11.081.225.15.337.215.063.036.125.073.184.11a.34.34 0 01.036.052c.7 1.14 1.47 2.2 2.301 3.167a4.923 4.923 0 00-1.402-.722c-1.5-.483-3.07-.421-4.627.18-.232.09-.487.227-.504.236a.156.156 0 00-.038.224c.05.064.096.127.143.19l.01.014c.105.144.224.305.358.449.6.644 1.342 1.076 2.054 1.447.978.508 1.979.781 2.974.813l.14.003c.916 0 1.63-.302 2.182-.919a.111.111 0 01.043-.014c.21.015.41.046.56.07a.158.158 0 01.071.035c.92.815 1.895 1.53 2.913 2.139a5.21 5.21 0 00-.476-.118c-1.088-.209-2.198-.078-3.418.407-.822.328-1.587.81-2.338 1.472a.155.155 0 00-.02.213c.266.338.612.528.915.668.74.344 1.575.564 2.554.674.003 0 .318.027.759.027.318 0 .614-.014.88-.042.254-.027.507-.07.752-.13 1.128-.274 1.893-.839 2.33-1.715a.231.231 0 01.085-.038c.204-.05.387-.086.56-.11a.309.309 0 01.158.031c.779.3 1.603.55 2.448.743a.155.155 0 00.173-.078c.081-.15.18-.294.293-.428a.155.155 0 00-.085-.252z" fill="url(#paint9_linear)"/><path d="M48.507 81.55H68.43v-5.561H58.291v-.15l2.433-2.004c5.918-4.872 7.426-7.402 7.426-10.37 0-4.784-3.966-7.916-10.189-7.916-6.045 0-9.973 3.32-9.96 8.717h6.69c-.012-2.154 1.319-3.356 3.27-3.356 1.94 0 3.32 1.19 3.32 3.156 0 1.816-1.178 2.993-3.092 4.559l-9.682 7.915v5.01z" fill="url(#paint10_linear)"/><defs><linearGradient id="paint0_linear" x1="45.261" y1="0" x2="45.261" y2="25.375" gradientUnits="userSpaceOnUse"><stop stop-color="#117DC1"/><stop offset="1" stop-color="#1599EC"/></linearGradient><linearGradient id="paint1_linear" x1="16" y1="70" x2="100" y2="70" gradientUnits="userSpaceOnUse"><stop stop-color="#EBEBEB"/><stop offset="1" stop-color="#A0A0A0"/></linearGradient><linearGradient id="paint2_linear" x1="56.806" y1="85.648" x2="53.141" y2="122.867" gradientUnits="userSpaceOnUse"><stop offset=".417" stop-color="silver"/><stop offset="1" stop-color="#EDEDED"/></linearGradient><linearGradient id="paint3_linear" x1="89.022" y1="83.646" x2="15.787" y2="30.25" gradientUnits="userSpaceOnUse"><stop stop-color="#EBEBEB"/><stop offset="1" stop-color="#979797"/></linearGradient><linearGradient id="paint4_linear" x1="49" y1="96.074" x2="67" y2="102.574" gradientUnits="userSpaceOnUse"><stop stop-color="#878787"/><stop offset="1" stop-color="#9E9E9E"/></linearGradient><linearGradient id="paint5_linear" x1="49" y1="96.074" x2="67" y2="102.574" gradientUnits="userSpaceOnUse"><stop stop-color="#878787"/><stop offset="1" stop-color="#9E9E9E"/></linearGradient><linearGradient id="paint6_linear" x1="49" y1="96.074" x2="67" y2="102.574" gradientUnits="userSpaceOnUse"><stop stop-color="#878787"/><stop offset="1" stop-color="#9E9E9E"/></linearGradient><linearGradient id="paint7_linear" x1="49" y1="96.074" x2="67" y2="102.574" gradientUnits="userSpaceOnUse"><stop stop-color="#878787"/><stop offset="1" stop-color="#9E9E9E"/></linearGradient><linearGradient id="paint8_linear" x1="66.834" y1="48.347" x2="92.355" y2="92.519" gradientUnits="userSpaceOnUse"><stop stop-color="#767676"/><stop offset="1" stop-color="#AEAEAE"/></linearGradient><linearGradient id="paint9_linear" x1="17.265" y1="51.292" x2="53.092" y2="92.519" gradientUnits="userSpaceOnUse"><stop stop-color="#7A7A7A"/><stop offset="1" stop-color="#AAA"/></linearGradient><linearGradient id="paint10_linear" x1="48.904" y1="56.632" x2="70.032" y2="83.164" gradientUnits="userSpaceOnUse"><stop stop-color="#6F6F6F"/><stop offset="1" stop-color="#BAB9B9"/></linearGradient></defs></svg>