<svg width="48" height="66" viewBox="0 0 48 66" fill="none" xmlns="http://www.w3.org/2000/svg">
<path d="M24 1.5C11.5933 1.5 1.5 11.4686 1.5 23.722C1.5 38.6382 22.1287 63.0132 23.0071 64.0436C23.2523 64.3316 23.6135 64.4983 23.9945 64.5H24C24.3789 64.5 24.7392 64.3364 24.9858 64.052C25.8642 63.039 46.5 39.0667 46.5 23.722C46.4998 11.4686 36.4067 1.5 24 1.5Z" stroke="white" stroke-width="3"/>
<path d="M23.9999 11.123C18.0462 11.123 13.2026 15.9666 13.2026 21.9203C13.2026 27.8741 18.0462 32.7176 23.9999 32.7176C29.9537 32.7176 34.7972 27.8741 34.7972 21.9203C34.7972 15.9666 29.9537 11.123 23.9999 11.123Z" stroke="white" stroke-width="3"/>
</svg>