<svg width="77" height="79" viewBox="0 0 77 79" fill="none" xmlns="http://www.w3.org/2000/svg">
<path d="M59.6507 62.6552L49.9788 52.9832C47.9655 50.9701 44.7012 50.9678 42.6857 52.9832L39.8689 55.8C33.4329 51.8696 28.0257 46.4624 24.0951 40.0262L27.1836 36.9378C29.1941 34.9271 29.1941 31.6553 27.1835 29.6446L17.5116 19.9727C15.504 17.9653 12.2444 17.9467 10.2124 19.9788L4.1346 26.1039C1.22663 28.5456 0.203779 32.5546 1.52994 36.3543C8.33506 55.8552 24.0402 71.5602 43.541 78.3653C47.2099 79.6454 50.9776 78.688 53.3731 76.22C53.4077 76.1895 53.4415 76.1579 53.4745 76.1247L59.6507 69.9483C61.6615 67.9377 61.6615 64.6661 59.6507 62.6552ZM56.5697 66.8674L50.5331 72.904C50.4594 72.9651 50.3897 73.0315 50.3242 73.1028C49.0536 74.484 47.0096 74.9608 44.9768 74.2511C26.7191 67.88 12.0154 53.1762 5.64414 34.9183C4.91463 32.8279 5.44095 30.6621 6.98507 29.4006C7.04374 29.3527 7.09994 29.3017 7.1533 29.2479L13.2996 23.0537C13.5033 22.8498 13.7415 22.8194 13.8652 22.8194C13.989 22.8194 14.2269 22.8497 14.4307 23.0537L24.1024 32.7256C24.4142 33.0375 24.4142 33.5447 24.1025 33.8566L19.8232 38.1359C19.1315 38.8275 18.9855 39.895 19.466 40.7469C24.1099 48.9796 30.9157 55.7856 39.1483 60.4291C40.0001 60.9097 41.0676 60.7635 41.7593 60.0721L45.767 56.0645C46.0789 55.7525 46.5855 55.7521 46.898 56.0645L56.5699 65.7364C56.8815 66.0482 56.8815 66.5556 56.5697 66.8674Z" fill="white"/>
<path d="M40.1629 20.2363C38.7563 20.2363 37.616 21.3766 37.616 22.7833C37.616 24.1899 38.7561 25.3302 40.1629 25.3302C46.686 25.3302 51.9928 30.6371 51.9928 37.1601C51.9928 38.5668 53.1332 39.7071 54.5398 39.7071C55.9464 39.7071 57.0867 38.5668 57.0867 37.1601C57.0867 27.8284 49.4947 20.2363 40.1629 20.2363Z" fill="white"/>
<path d="M40.1629 10.2402C38.7563 10.2402 37.616 11.3805 37.616 12.7872C37.616 14.1938 38.7561 15.3341 40.1629 15.3341C52.198 15.3341 61.9892 25.1253 61.9892 37.1604C61.9892 38.567 63.1295 39.7074 64.5361 39.7074C65.9428 39.7074 67.0831 38.567 67.0831 37.1604C67.0831 22.3166 55.0067 10.2402 40.1629 10.2402Z" fill="white"/>
<path d="M66.1876 11.136C59.2362 4.18465 49.9937 0.356445 40.1629 0.356445C38.7563 0.356445 37.616 1.49676 37.616 2.90338C37.616 4.31 38.7563 5.45032 40.1629 5.45032C57.6482 5.45032 71.8734 19.6755 71.8734 37.1607C71.8734 38.5673 73.0137 39.7076 74.4203 39.7076C75.827 39.7076 76.9673 38.5673 76.9673 37.1607C76.9671 27.3298 73.1389 18.0875 66.1876 11.136Z" fill="white"/>
</svg>
