<svg width="82" height="82" viewBox="0 0 82 82" fill="none" xmlns="http://www.w3.org/2000/svg">
<path d="M40.6508 24.1748H12.1008C10.7941 24.1748 9.73474 25.2342 9.73474 26.5408C9.73474 35.6593 17.2877 43.103 26.4547 43.103C35.5871 43.103 43.0169 35.6732 43.0169 26.5408C43.0169 25.2342 41.9575 24.1748 40.6508 24.1748ZM26.4547 38.371C20.6655 38.371 15.8216 34.3 14.7077 28.9053H38.0471C36.9478 34.3 32.1677 38.371 26.4547 38.371Z" fill="white"/>
<path d="M16.9905 19.442H21.7226C23.0293 19.442 24.0886 18.3827 24.0886 17.076C24.0886 15.7693 23.0293 14.71 21.7226 14.71H16.9905C15.6839 14.71 14.6245 15.7693 14.6245 17.076C14.6245 18.3827 15.6839 19.442 16.9905 19.442Z" fill="white"/>
<path d="M31.1867 19.442H35.9188C37.2254 19.442 38.2848 18.3827 38.2848 17.076C38.2848 15.7693 37.2254 14.71 35.9188 14.71H31.1867C29.88 14.71 28.8207 15.7693 28.8207 17.076C28.8207 18.3827 29.88 19.442 31.1867 19.442Z" fill="white"/>
<path d="M54.847 28.9065C54.0161 28.9065 53.1864 28.9483 52.3616 29.0266C52.4395 28.2081 52.481 27.379 52.481 26.5405C52.481 12.1025 40.8056 0.356445 26.4547 0.356445C12.0661 0.356445 0.27063 12.1546 0.27063 26.5405C0.27063 40.8914 12.0167 52.5668 26.4547 52.5668C27.2932 52.5668 28.1222 52.5253 28.9407 52.4474C28.8625 53.2722 28.8207 54.1019 28.8207 54.9328C28.8207 69.3708 40.4961 81.1169 54.847 81.1169C69.2356 81.1169 81.0311 69.3187 81.0311 54.9328C81.0311 40.5819 69.285 28.9065 54.847 28.9065ZM5.00269 26.5405C5.00269 14.7118 14.626 5.0885 26.4547 5.0885C38.1963 5.0885 47.7489 14.7118 47.7489 26.5405C47.7489 38.2821 38.1963 47.8347 26.4547 47.8347C14.626 47.8347 5.00269 38.2821 5.00269 26.5405ZM54.847 76.3848C43.1054 76.3848 33.5528 66.7615 33.5528 54.9328C33.5528 53.7801 33.6469 52.631 33.8296 51.5008C42.2605 49.0055 48.9196 42.3463 51.415 33.9154C52.5452 33.7327 53.6943 33.6386 54.847 33.6386C66.6757 33.6386 76.299 43.1912 76.299 54.9328C76.299 66.7615 66.6757 76.3848 54.847 76.3848Z" fill="white"/>
<path d="M54.847 69.7002C50.1509 69.7002 45.655 67.6886 42.512 64.181C41.64 63.2078 41.722 61.712 42.6951 60.8399C43.6682 59.9679 45.1641 60.05 46.0362 61.023C48.2827 63.5302 51.4942 64.9681 54.847 64.9681C58.1998 64.9681 61.4113 63.5302 63.6578 61.0232C64.5263 60.0542 66.0217 59.9646 66.9989 60.8401C67.972 61.7122 68.054 63.208 67.182 64.1812C64.039 67.6886 59.5431 69.7002 54.847 69.7002Z" fill="white"/>
<path d="M45.3829 52.567H50.1149C51.4216 52.567 52.481 51.5077 52.481 50.201C52.481 48.8943 51.4216 47.835 50.1149 47.835H45.3829C44.0762 47.835 43.0168 48.8943 43.0168 50.201C43.0168 51.5077 44.0762 52.567 45.3829 52.567Z" fill="white"/>
<path d="M59.579 52.567H64.3111C65.6178 52.567 66.6771 51.5077 66.6771 50.201C66.6771 48.8943 65.6178 47.835 64.3111 47.835H59.579C58.2724 47.835 57.213 48.8943 57.213 50.201C57.213 51.5077 58.2724 52.567 59.579 52.567Z" fill="white"/>
</svg>
