<svg width="42" height="66" viewBox="0 0 42 66" fill="none" xmlns="http://www.w3.org/2000/svg">
<path d="M36.1907 5.17011C32.4092 1.71352 27.3572 0 21.0054 0C15.0081 0 10.1925 1.59535 6.55865 4.81558C2.9248 8.03582 0.709043 12.6741 0 18.701L8.18354 19.6759C8.89258 15.1558 10.3698 11.8469 12.6446 9.7198C14.9194 7.59267 17.7556 6.5291 21.1531 6.5291C24.6688 6.5291 27.6231 7.71084 30.0457 10.0448C32.4683 12.3787 33.6795 15.1263 33.6795 18.1988C33.6795 19.9123 33.2659 21.4781 32.4387 22.9257C31.6115 24.3734 29.8094 26.3232 27.0618 28.7458C24.3143 31.1684 22.3939 33.0296 21.3304 34.3C19.8827 36.043 18.8487 37.7565 18.1988 39.4701C17.3125 41.7449 16.8693 44.4334 16.8693 47.565C16.8693 48.0968 16.8989 48.8944 16.9284 49.958H24.5802C24.6392 46.7673 24.8461 44.4629 25.2301 43.0448C25.6142 41.6267 26.2051 40.3859 27.0027 39.2928C27.8004 38.1997 29.4844 36.5157 32.0842 34.2113C35.9544 30.7843 38.5542 27.889 39.8837 25.496C41.2131 23.103 41.8631 20.5032 41.8631 17.667C41.8631 12.8219 39.9723 8.62669 36.1907 5.17011Z" fill="white"/>
<path d="M25.496 56.9307H16.4261V66.0005H25.496V56.9307Z" fill="white"/>
</svg>
