<svg width="45" height="70" viewBox="0 0 45 70" fill="none" xmlns="http://www.w3.org/2000/svg">
<path d="M37.8091 7.17011C34.0152 3.71352 28.9467 2 22.5741 2C16.5572 2 11.7258 3.59535 8.0801 6.81558C4.63679 9.85703 2.4626 14.1634 1.63246 19.71C1.55075 20.2559 1.94417 20.7538 2.49233 20.8188L8.75423 21.5624C9.28801 21.6258 9.77459 21.2548 9.8744 20.7266C10.6373 16.6895 12.0666 13.6951 14.186 11.7198C16.4682 9.59268 19.3137 8.5291 22.7223 8.5291C26.2495 8.5291 29.2134 9.71085 31.644 12.0448C34.0745 14.3787 35.2896 17.1263 35.2896 20.1988C35.2896 21.9123 34.8747 23.4781 34.0448 24.9257C33.2149 26.3734 31.4069 28.3232 28.6503 30.7458C25.8938 33.1684 23.9671 35.0296 22.9002 36.3C21.4477 38.043 20.4103 39.7565 19.7583 41.4701C18.8691 43.7449 18.4245 46.4334 18.4245 49.565C18.4245 49.9201 18.4377 50.3936 18.4553 50.9857C18.4714 51.5269 18.9149 51.958 19.4563 51.958H25.179C25.724 51.958 26.1679 51.5209 26.1844 50.9761C26.2656 48.2901 26.4681 46.3131 26.8126 45.0448C27.198 43.6267 27.7908 42.3859 28.591 41.2928C29.3913 40.1997 31.0808 38.5157 33.6891 36.2113C37.572 32.7843 40.1803 29.889 41.5141 27.496C42.8479 25.103 43.5 22.5032 43.5 19.667C43.5 14.8219 41.603 10.6267 37.8091 7.17011Z" stroke="white" stroke-width="2.6"/>
<path d="M27 60C27 59.4477 26.5523 59 26 59H19C18.4477 59 18 59.4477 18 60V67C18 67.5523 18.4477 68 19 68H26C26.5523 68 27 67.5523 27 67V60Z" stroke="white" stroke-width="2.6"/>
</svg>