<svg width="105" height="105" viewBox="0 0 105 105" fill="none" xmlns="http://www.w3.org/2000/svg">
<path d="M55.7804 13.1795H55.5617V12.9608C55.5617 11.2617 54.1847 9.88464 52.4855 9.88464C50.7864 9.88464 49.4094 11.2617 49.4094 12.9608V13.1795H49.1907C47.4924 13.1795 46.1145 14.5566 46.1145 16.2557C46.1145 17.9548 47.4924 19.3319 49.1907 19.3319H49.4094V19.5506C49.4094 21.2497 50.7864 22.6267 52.4855 22.6267C54.1847 22.6267 55.5617 21.2497 55.5617 19.5506V19.3319H55.7804C57.4795 19.3319 58.8566 17.9548 58.8566 16.2557C58.8566 14.5566 57.4795 13.1795 55.7804 13.1795Z" fill="white"/>
<path d="M101.572 101.078L97.5193 86.897C95.656 80.373 91.0313 75.0514 84.8325 72.2964L65.4462 63.68V58.122C71.4135 53.9964 75.3316 47.1071 75.3316 39.3197V3.07617C75.3316 1.37707 73.9538 0 72.2555 0H32.7154C31.0171 0 29.6393 1.37707 29.6393 3.07617V39.3197C29.6393 47.1071 33.5574 53.9964 39.5247 58.122V63.68L20.1392 72.2964C13.9396 75.0514 9.3149 80.373 7.45158 86.8962L3.39888 101.078C2.85735 102.972 4.24403 105 6.35809 105C7.69671 105 8.92798 104.12 9.3141 102.768L13.3676 88.5865C14.7286 83.8201 18.1076 79.9316 22.6378 77.9185L30.5157 74.4161C30.5245 74.4249 30.5317 74.4353 30.5405 74.4442L50.3105 94.2134C50.9113 94.8142 51.698 95.1146 52.4855 95.1146C53.2729 95.1146 54.0596 94.8142 54.6604 94.2134L74.4296 74.4442C74.4384 74.4353 74.4464 74.4257 74.4544 74.4161L82.3331 77.9185C86.8633 79.9316 90.2423 83.8193 91.6033 88.5865L95.656 102.768C96.0429 104.119 97.2742 105 98.6128 105C100.823 105 102.089 102.884 101.572 101.078ZM35.7916 6.15234H69.1793V26.3589H35.7916V6.15234ZM35.7916 39.3197V32.5113H69.1793V39.3197C69.1793 48.5242 61.6899 56.0128 52.4855 56.0128C43.281 56.0128 35.7916 48.5242 35.7916 39.3197ZM52.4855 87.6877L36.5374 71.7405L43.8505 68.4897C44.9608 67.9962 45.677 66.8947 45.677 65.6787V61.1293C47.8279 61.8022 50.115 62.1651 52.4855 62.1651C54.8559 62.1651 57.143 61.8022 59.2939 61.1293V65.6787C59.2939 66.8947 60.0101 67.9962 61.1212 68.4897L68.4335 71.7405L52.4855 87.6877Z" fill="white"/>
<path d="M82.1394 92.2571H72.2556C70.5565 92.2571 69.1794 93.6341 69.1794 95.3333C69.1794 97.0324 70.5565 98.4094 72.2556 98.4094H82.1394C83.8385 98.4094 85.2156 97.0324 85.2156 95.3333C85.2156 93.6341 83.8385 92.2571 82.1394 92.2571Z" fill="white"/>
</svg>
