<svg width="85" height="85" viewBox="0 0 85 85" fill="none" xmlns="http://www.w3.org/2000/svg">
<path d="M42.5 25.0684H12.4512C11.0759 25.0684 9.96094 26.1833 9.96094 27.5586C9.96094 37.1558 17.9104 44.9902 27.5586 44.9902C37.1704 44.9902 44.9902 37.1704 44.9902 27.5586C44.9902 26.1833 43.8753 25.0684 42.5 25.0684ZM27.5586 40.0098C21.4655 40.0098 16.3673 35.7251 15.1949 30.0472H39.7596C38.6026 35.7251 33.5715 40.0098 27.5586 40.0098Z" fill="white"/>
<path d="M17.5977 20.0879H22.5781C23.9534 20.0879 25.0684 18.9729 25.0684 17.5977C25.0684 16.2224 23.9534 15.1074 22.5781 15.1074H17.5977C16.2224 15.1074 15.1074 16.2224 15.1074 17.5977C15.1074 18.9729 16.2224 20.0879 17.5977 20.0879Z" fill="white"/>
<path d="M32.5391 20.0879H37.5195C38.8948 20.0879 40.0098 18.9729 40.0098 17.5977C40.0098 16.2224 38.8948 15.1074 37.5195 15.1074H32.5391C31.1638 15.1074 30.0488 16.2224 30.0488 17.5977C30.0488 18.9729 31.1638 20.0879 32.5391 20.0879Z" fill="white"/>
<path d="M57.4414 30.0488C56.5668 30.0488 55.6936 30.0928 54.8255 30.1752C54.9075 29.3137 54.9512 28.4411 54.9512 27.5586C54.9512 12.3627 42.6629 0 27.5586 0C12.4146 0 0 12.4175 0 27.5586C0 42.6629 12.3627 54.9512 27.5586 54.9512C28.4411 54.9512 29.3137 54.9075 30.1752 54.8255C30.0928 55.6936 30.0488 56.5668 30.0488 57.4414C30.0488 72.6373 42.3371 85 57.4414 85C72.5854 85 85 72.5825 85 57.4414C85 42.3371 72.6373 30.0488 57.4414 30.0488ZM4.98047 27.5586C4.98047 15.1089 15.1089 4.98047 27.5586 4.98047C39.9166 4.98047 49.9707 15.1089 49.9707 27.5586C49.9707 39.9166 39.9166 49.9707 27.5586 49.9707C15.1089 49.9707 4.98047 39.9166 4.98047 27.5586ZM57.4414 80.0195C45.0834 80.0195 35.0293 69.8911 35.0293 57.4414C35.0293 56.2282 35.1284 55.0187 35.3207 53.8292C44.1942 51.2029 51.2029 44.1942 53.8292 35.3207C55.0187 35.1284 56.2282 35.0293 57.4414 35.0293C69.8911 35.0293 80.0195 45.0834 80.0195 57.4414C80.0195 69.8911 69.8911 80.0195 57.4414 80.0195Z" fill="white"/>
<path d="M57.4414 72.9834C52.4988 72.9834 47.7669 70.8662 44.4588 67.1745C43.5411 66.1502 43.6274 64.5759 44.6516 63.658C45.6757 62.7402 47.2502 62.8266 48.1681 63.8507C50.5325 66.4895 53.9126 68.0029 57.4414 68.0029C60.9702 68.0029 64.3503 66.4895 66.7147 63.8509C67.6288 62.831 69.2028 62.7367 70.2312 63.6581C71.2554 64.576 71.3417 66.1504 70.424 67.1747C67.116 70.8662 62.384 72.9834 57.4414 72.9834Z" fill="white"/>
<path d="M47.4805 54.9512H52.4609C53.8362 54.9512 54.9512 53.8362 54.9512 52.4609C54.9512 51.0857 53.8362 49.9707 52.4609 49.9707H47.4805C46.1052 49.9707 44.9902 51.0857 44.9902 52.4609C44.9902 53.8362 46.1052 54.9512 47.4805 54.9512Z" fill="white"/>
<path d="M62.4219 54.9512H67.4023C68.7776 54.9512 69.8926 53.8362 69.8926 52.4609C69.8926 51.0857 68.7776 49.9707 67.4023 49.9707H62.4219C61.0466 49.9707 59.9316 51.0857 59.9316 52.4609C59.9316 53.8362 61.0466 54.9512 62.4219 54.9512Z" fill="white"/>
</svg>
