<svg width="45" height="77" viewBox="0 0 45 77" fill="none" xmlns="http://www.w3.org/2000/svg">
<path d="M21.4816 62.3018C17.6802 62.3659 14.6182 65.4278 14.5541 69.2292C14.5484 69.3458 14.5484 69.468 14.5541 69.5843C14.6881 73.4089 17.8897 76.401 21.7144 76.273H21.4816C25.3237 76.2089 28.4091 73.0771 28.4091 69.2292C28.3158 65.4396 25.2713 62.3948 21.4816 62.3018Z" fill="white"/>
<path d="M22.8204 0.0129143C14.6123 -0.231582 6.68362 3.00499 0.990344 8.91957C0.332441 9.74611 -0.0168395 10.7765 0.000624503 11.8303C0.0298222 14.4093 2.07885 16.5107 4.65779 16.6038C5.85708 16.6095 7.01544 16.1729 7.91784 15.3813C11.5272 11.6382 16.5159 9.53654 21.7144 9.56001C29.5732 9.56001 33.3572 13.8095 33.3572 18.816C33.3572 29.5271 14.3214 30.8661 14.3214 44.7793C14.3214 48.1555 16.4171 54.3845 20.7831 54.3845C20.818 54.3845 20.8587 54.3845 20.8996 54.3845C23.2455 54.3845 25.1491 52.4809 25.1491 50.135C25.1491 48.5632 24.0431 47.2242 24.0431 45.6525C24.0431 35.174 44.5342 33.7188 45 17.4772C44.9997 7.58085 36.617 0.0129143 22.8204 0.0129143Z" fill="white"/>
</svg>
