<svg width="80" height="83" viewBox="0 0 80 83" fill="none" xmlns="http://www.w3.org/2000/svg">
<path d="M61.7743 65.569L51.5947 55.3892C49.4757 53.2705 46.0401 53.268 43.9187 55.3892L40.9541 58.3539C34.1802 54.2171 28.4891 48.5261 24.3522 41.752L27.6029 38.5015C29.7189 36.3853 29.7189 32.9417 27.6027 30.8254L17.4231 20.6458C15.3101 18.5331 11.8794 18.5134 9.74072 20.6522L3.34386 27.0988C0.28324 29.6688 -0.793308 33.8883 0.60247 37.8874C7.76483 58.412 24.2944 74.9414 44.8189 82.1038C48.6805 83.451 52.6459 82.4435 55.1672 79.8459C55.2036 79.8137 55.2391 79.7804 55.2739 79.7456L61.7743 73.245C63.8906 71.1288 63.8906 67.6854 61.7743 65.569ZM58.5316 70.0022L52.1781 76.3557C52.1005 76.4201 52.0272 76.49 51.9582 76.565C50.6209 78.0187 48.4696 78.5206 46.3301 77.7736C27.1139 71.068 11.6384 55.5923 4.93265 36.376C4.16484 34.1759 4.71879 31.8964 6.34397 30.5687C6.40572 30.5182 6.46487 30.4645 6.52103 30.4079L12.99 23.8885C13.2044 23.674 13.4551 23.642 13.5852 23.642C13.7156 23.642 13.966 23.6739 14.1805 23.8885L24.3599 34.0682C24.6881 34.3964 24.6881 34.9303 24.36 35.2585L19.856 39.7625C19.128 40.4904 18.9744 41.614 19.4801 42.5106C24.3678 51.1755 31.5308 58.3388 40.1957 63.226C41.0922 63.7319 42.2157 63.578 42.9437 62.8502L47.1617 58.6322C47.4901 58.3039 48.0232 58.3035 48.3521 58.6322L58.5317 68.8119C58.8597 69.1401 58.8597 69.6741 58.5316 70.0022Z" fill="white"/>
<path d="M41.2636 20.9238C39.7832 20.9238 38.583 22.124 38.583 23.6045C38.583 25.0849 39.783 26.2851 41.2636 26.2851C48.1291 26.2851 53.7146 31.8706 53.7146 38.7361C53.7146 40.2165 54.9148 41.4167 56.3952 41.4167C57.8757 41.4167 59.0759 40.2165 59.0759 38.7361C59.0759 28.9144 51.0853 20.9238 41.2636 20.9238Z" fill="white"/>
<path d="M41.2636 10.4023C39.7832 10.4023 38.583 11.6025 38.583 13.083C38.583 14.5634 39.783 15.7636 41.2636 15.7636C53.9305 15.7636 64.2357 26.0689 64.2357 38.7357C64.2357 40.2162 65.4359 41.4164 66.9164 41.4164C68.3968 41.4164 69.597 40.2162 69.597 38.7357C69.597 23.1127 56.8867 10.4023 41.2636 10.4023Z" fill="white"/>
<path d="M68.6543 11.3454C61.338 4.02917 51.6102 0 41.2634 0C39.7829 0 38.5828 1.20018 38.5828 2.68064C38.5828 4.1611 39.7829 5.36128 41.2634 5.36128C59.6666 5.36128 74.6386 20.3332 74.6386 38.7363C74.6386 40.2168 75.8388 41.4169 77.3192 41.4169C78.7997 41.4169 79.9999 40.2168 79.9999 38.7363C79.9997 28.3893 75.9705 18.6619 68.6543 11.3454Z" fill="white"/>
</svg>
