<svg width="90" height="90" viewBox="0 0 90 90" fill="none" xmlns="http://www.w3.org/2000/svg">
<path d="M47.8118 11.2968H47.6243V11.1094C47.6243 9.653 46.444 8.47266 44.9876 8.47266C43.5313 8.47266 42.3509 9.653 42.3509 11.1094V11.2968H42.1635C40.7078 11.2968 39.5267 12.4772 39.5267 13.9335C39.5267 15.3899 40.7078 16.5703 42.1635 16.5703H42.3509V16.7577C42.3509 18.2141 43.5313 19.3944 44.9876 19.3944C46.444 19.3944 47.6243 18.2141 47.6243 16.7577V16.5703H47.8118C49.2682 16.5703 50.4485 15.3899 50.4485 13.9335C50.4485 12.4772 49.2682 11.2968 47.8118 11.2968Z" fill="white"/>
<path d="M87.0619 86.6382L83.5881 74.4832C81.991 68.8911 78.027 64.3298 72.7137 61.9684L56.0969 54.5828V49.8189C61.2117 46.2827 64.5701 40.3775 64.5701 33.7026V2.63672C64.5701 1.18034 63.3891 0 61.9334 0H28.0419C26.5862 0 25.4052 1.18034 25.4052 2.63672V33.7026C25.4052 40.3775 28.7636 46.2827 33.8784 49.8189V54.5828L17.2623 61.9684C11.9483 64.3298 7.98433 68.8911 6.38719 74.4825L2.91345 86.6382C2.44928 88.2614 3.63786 90 5.44992 90C6.5973 90 7.65268 89.2454 7.98364 88.087L11.4581 75.9313C12.6247 71.8458 15.5209 68.5128 19.4039 66.7873L26.1564 63.7852C26.164 63.7928 26.1701 63.8017 26.1777 63.8093L43.1234 80.7543C43.6384 81.2693 44.3127 81.5268 44.9877 81.5268C45.6626 81.5268 46.3369 81.2693 46.8519 80.7543L63.7969 63.8093C63.8045 63.8017 63.8113 63.7935 63.8182 63.7852L70.5714 66.7873C74.4544 68.5128 77.3506 71.8451 78.5172 75.9313L81.991 88.087C82.3226 89.2447 83.378 90 84.5254 90C86.4198 90 87.5047 88.1866 87.0619 86.6382ZM30.6786 5.27344H59.2967V22.5934H30.6786V5.27344ZM30.6786 33.7026V27.8668H59.2967V33.7026C59.2967 41.5922 52.8772 48.0109 44.9877 48.0109C37.0981 48.0109 30.6786 41.5922 30.6786 33.7026ZM44.9877 75.1609L31.3179 61.4919L37.5863 58.7054C38.538 58.2825 39.1519 57.3383 39.1519 56.296V52.3965C40.9955 52.9733 42.9559 53.2844 44.9877 53.2844C47.0194 53.2844 48.9798 52.9733 50.8234 52.3965V56.296C50.8234 57.3383 51.4373 58.2825 52.3897 58.7054L58.6574 61.4919L44.9877 75.1609Z" fill="white"/>
<path d="M70.4052 79.0771H61.9333C60.477 79.0771 59.2966 80.2575 59.2966 81.7139C59.2966 83.1702 60.477 84.3506 61.9333 84.3506H70.4052C71.8616 84.3506 73.0419 83.1702 73.0419 81.7139C73.0419 80.2575 71.8616 79.0771 70.4052 79.0771Z" fill="white"/>
</svg>
