<svg width="20" height="20" viewBox="0 0 20 20" fill="none" xmlns="http://www.w3.org/2000/svg">
<path d="M10.6256 2.51041H10.5839V2.46875C10.5839 2.14511 10.3216 1.88281 9.99796 1.88281C9.67432 1.88281 9.41202 2.14511 9.41202 2.46875V2.51041H9.37036C9.04688 2.51041 8.78442 2.77271 8.78442 3.09634C8.78442 3.41998 9.04688 3.68228 9.37036 3.68228H9.41202V3.72394C9.41202 4.04758 9.67432 4.30988 9.99796 4.30988C10.3216 4.30988 10.5839 4.04758 10.5839 3.72394V3.68228H10.6256C10.9492 3.68228 11.2115 3.41998 11.2115 3.09634C11.2115 2.77271 10.9492 2.51041 10.6256 2.51041Z" fill="#009C9D"/>
<path d="M19.347 19.2529L18.5751 16.5518C18.2202 15.3091 17.3393 14.2955 16.1586 13.7708L12.4659 12.1295V11.0709C13.6026 10.285 14.3489 8.97278 14.3489 7.48947V0.585938C14.3489 0.262299 14.0864 0 13.7629 0H6.23151C5.90803 0 5.64557 0.262299 5.64557 0.585938V7.48947C5.64557 8.97278 6.39188 10.285 7.52851 11.0709V12.1295L3.83603 13.7708C2.65516 14.2955 1.77427 15.3091 1.41935 16.5517L0.647406 19.2529C0.544256 19.6136 0.808386 20 1.21107 20C1.46604 20 1.70057 19.8323 1.77411 19.5749L2.54621 16.8736C2.80546 15.9657 3.44907 15.2251 4.31196 14.8416L5.81251 14.1745C5.81418 14.1762 5.81556 14.1782 5.81724 14.1798L9.58295 17.9454C9.69739 18.0598 9.84723 18.1171 9.99723 18.1171C10.1472 18.1171 10.2971 18.0598 10.4115 17.9454L14.1771 14.1798C14.1787 14.1782 14.1803 14.1763 14.1818 14.1745L15.6825 14.8416C16.5454 15.2251 17.189 15.9656 17.4482 16.8736L18.2202 19.5749C18.2939 19.8322 18.5284 20 18.7834 20C19.2044 20 19.4455 19.597 19.347 19.2529ZM6.81745 1.17188H13.177V5.02075H6.81745V1.17188ZM6.81745 7.48947V6.19263H13.177V7.48947C13.177 9.24271 11.7505 10.6691 9.99723 10.6691C8.24399 10.6691 6.81745 9.24271 6.81745 7.48947ZM9.99723 16.7024L6.95951 13.6649L8.35248 13.0457C8.56397 12.9517 8.70038 12.7419 8.70038 12.5102V11.6437C9.11008 11.7719 9.54572 11.841 9.99723 11.841C10.4487 11.841 10.8844 11.7719 11.2941 11.6437V12.5102C11.2941 12.7419 11.4305 12.9517 11.6421 13.0457L13.0349 13.6649L9.99723 16.7024Z" fill="#009C9D"/>
<path d="M15.6448 17.5728H13.7622C13.4386 17.5728 13.1763 17.8351 13.1763 18.1587C13.1763 18.4823 13.4386 18.7446 13.7622 18.7446H15.6448C15.9685 18.7446 16.2308 18.4823 16.2308 18.1587C16.2308 17.8351 15.9685 17.5728 15.6448 17.5728Z" fill="#009C9D"/>
</svg>
