<svg width="38" height="38" viewBox="0 0 38 38" fill="none" xmlns="http://www.w3.org/2000/svg">
<path d="M8.3125 0H1.1875C0.532 0 0 0.532 0 1.1875V8.3125C0 8.968 0.532 9.5 1.1875 9.5H8.3125C8.968 9.5 9.5 8.968 9.5 8.3125V1.1875C9.5 0.532 8.968 0 8.3125 0ZM7.125 7.125H2.375V2.375H7.125V7.125Z" fill="#009C9D"/>
<path d="M8.3125 14.25H1.1875C0.532 14.25 0 14.782 0 15.4375V22.5625C0 23.218 0.532 23.75 1.1875 23.75H8.3125C8.968 23.75 9.5 23.218 9.5 22.5625V15.4375C9.5 14.782 8.968 14.25 8.3125 14.25ZM7.125 21.375H2.375V16.625H7.125V21.375Z" fill="#009C9D"/>
<path d="M8.3125 28.5H1.1875C0.532 28.5 0 29.032 0 29.6875V36.8125C0 37.468 0.532 38 1.1875 38H8.3125C8.968 38 9.5 37.468 9.5 36.8125V29.6875C9.5 29.032 8.968 28.5 8.3125 28.5ZM7.125 35.625H2.375V30.875H7.125V35.625Z" fill="#009C9D"/>
<path d="M38 1.1875H14.25V3.5625H38V1.1875Z" fill="#009C9D"/>
<path d="M38 5.9375H14.25V8.3125H38V5.9375Z" fill="#009C9D"/>
<path d="M38 15.4375H14.25V17.8125H38V15.4375Z" fill="#009C9D"/>
<path d="M38 20.1875H14.25V22.5625H38V20.1875Z" fill="#009C9D"/>
<path d="M38 29.6875H14.25V32.0625H38V29.6875Z" fill="#009C9D"/>
<path d="M38 34.4375H14.25V36.8125H38V34.4375Z" fill="#009C9D"/>
</svg>
