<svg width="31" height="31" viewBox="0 0 31 31" fill="none" xmlns="http://www.w3.org/2000/svg">
<rect x="1" y="1" width="29" height="29" fill="#009C9D" stroke="white" stroke-width="2"/>
<path d="M14.9 20.5796C13.9935 20.5949 13.2634 21.3251 13.2481 22.2316C13.2467 22.2593 13.2467 22.2885 13.2481 22.3162C13.28 23.2282 14.0435 23.9417 14.9555 23.9112H14.9C15.8162 23.8959 16.552 23.1491 16.552 22.2316C16.5297 21.3279 15.8037 20.6018 14.9 20.5796Z" fill="white"/>
<path d="M15.2191 5.72613C13.2618 5.66783 11.3711 6.43963 10.0135 7.85003C9.85662 8.04713 9.77333 8.29283 9.77749 8.54413C9.78446 9.15911 10.2731 9.66022 10.888 9.68241C11.174 9.68378 11.4503 9.57966 11.6654 9.39089C12.5261 8.49832 13.7157 7.99715 14.9554 8.00275C16.8294 8.00275 17.7318 9.01609 17.7318 10.2099C17.7318 12.7641 13.1924 13.0834 13.1924 16.4012C13.1924 17.2063 13.6922 18.6917 14.7333 18.6917C14.7416 18.6917 14.7513 18.6917 14.7611 18.6917C15.3205 18.6917 15.7744 18.2377 15.7744 17.6783C15.7744 17.3035 15.5107 16.9842 15.5107 16.6094C15.5107 14.1107 20.397 13.7637 20.5081 9.8907C20.508 7.53079 18.5091 5.72613 15.2191 5.72613Z" fill="white"/>
</svg>
