<svg width="13" height="9" viewBox="0 0 13 9" fill="none" xmlns="http://www.w3.org/2000/svg">
<path d="M12.957 6.49355C12.8936 2.49407 12.3712 1.35444 8.37414 0.633057C8.37414 0.633057 7.81149 1.35002 6.50006 1.35002C5.18864 1.35002 4.62589 0.633057 4.62589 0.633057C0.672416 1.34657 0.118313 2.4693 0.0454559 6.36362C0.0394817 6.68162 0.0367131 6.69833 0.0356445 6.66141C0.0358874 6.73058 0.0361787 6.85851 0.0361787 7.0816C0.0361787 7.0816 0.98779 8.99998 6.50006 8.99998C12.0122 8.99998 12.964 7.0816 12.964 7.0816C12.964 6.93827 12.9641 6.8386 12.9642 6.77079C12.9631 6.79362 12.961 6.74937 12.957 6.49355Z" fill="black" fill-opacity="0.52"/>
</svg>
