<svg width="17" height="16" viewBox="0 0 17 16" fill="none" xmlns="http://www.w3.org/2000/svg">
<path d="M0.464686 6.78721C0.164355 6.02369 -0.0531268 5.24392 0.0124628 4.41542C0.0538879 3.90532 0.257561 3.46996 0.654551 3.11256C1.08606 2.72918 1.49341 2.3263 1.91801 1.93642C2.47035 1.42307 3.16422 1.42632 3.71655 1.93642C4.05831 2.25157 4.39661 2.57323 4.73492 2.89488C5.06286 3.20354 5.39426 3.51219 5.72221 3.8241C6.29871 4.37318 6.30216 5.01324 5.72566 5.55908C5.31141 5.94896 4.90062 6.34209 4.47946 6.72547C4.36899 6.82619 4.35864 6.91067 4.41732 7.03738C4.69349 7.66119 5.09393 8.21678 5.5427 8.73662C6.44715 9.7828 7.46897 10.712 8.68755 11.4301C8.94991 11.5828 9.23643 11.6965 9.50915 11.8362C9.65069 11.9077 9.74389 11.8849 9.85781 11.7745C10.2686 11.3748 10.6898 10.9817 11.1109 10.5886C11.6633 10.0752 12.3537 10.072 12.906 10.5886C13.5826 11.2189 14.2558 11.8524 14.9255 12.4892C15.4882 13.0221 15.4847 13.6751 14.9186 14.2112C14.5354 14.5751 14.1315 14.9195 13.7725 15.2996C13.2478 15.852 12.585 16.0339 11.8324 15.9949C10.7346 15.9397 9.72318 15.5953 8.74624 15.1502C6.57833 14.1592 4.72801 12.7849 3.17803 11.0499C2.03193 9.76331 1.08606 8.36623 0.464686 6.78721ZM17.0002 7.95036C17.0002 3.56743 13.2098 0 8.55292 0V1.51404C12.3226 1.51404 15.3915 4.40242 15.3915 7.95036H17.0002ZM12.3744 7.95036H13.9831C13.9831 5.13345 11.5459 2.83964 8.55292 2.83964V4.35369C9.57474 4.35369 10.5344 4.72733 11.2559 5.40637C11.9774 6.08542 12.3744 6.98865 12.3744 7.95036Z" fill="black" fill-opacity="0.49"/>
</svg>
