<svg width="20" height="20" viewBox="0 0 20 20" fill="none" xmlns="http://www.w3.org/2000/svg">
<path d="M10.0003 9.78131C12.224 9.78131 14.0268 7.59171 14.0268 4.89069C14.0268 2.1896 13.4349 0 10.0003 0C6.56575 0 5.97375 2.1896 5.97375 4.89069C5.97375 7.59171 7.77655 9.78131 10.0003 9.78131Z" fill="black" fill-opacity="0.52"/>
<path d="M2.39496 17.2487C2.39427 17.084 2.39358 17.2023 2.39496 17.2487V17.2487Z" fill="black" fill-opacity="0.52"/>
<path d="M17.605 17.3774C17.6071 17.3323 17.6057 17.0646 17.605 17.3774V17.3774Z" fill="black" fill-opacity="0.52"/>
<path d="M17.5966 17.0512C17.522 12.3459 16.9075 11.0052 12.205 10.1565C12.205 10.1565 11.5431 11 10.0002 11C8.45736 11 7.7953 10.1565 7.7953 10.1565C3.14416 10.9959 2.49228 12.3168 2.40656 16.8983C2.39953 17.2724 2.39628 17.2921 2.39502 17.2487C2.39531 17.33 2.39565 17.4806 2.39565 17.743C2.39565 17.743 3.51519 19.9999 10.0002 19.9999C16.4851 19.9999 17.6048 17.743 17.6048 17.743C17.6048 17.5744 17.6049 17.4571 17.6051 17.3774C17.6038 17.4042 17.6013 17.3522 17.5966 17.0512Z" fill="black" fill-opacity="0.52"/>
</svg>
