<svg width="36" height="36" viewBox="0 0 36 36" fill="none" xmlns="http://www.w3.org/2000/svg">
<g clip-path="url(#clip0)" filter="url(#filter0_d)">
<path d="M30.1739 5.45378H28.1358C28.4046 5.02831 28.582 4.55072 28.6326 4.04563C28.7942 2.43142 27.9441 0.984385 26.4968 0.342845C25.1665 -0.246851 23.6715 -0.0057881 22.595 0.970603L20.0214 3.30303C19.5201 2.75484 18.7996 2.41031 18 2.41031C17.1989 2.41031 16.4773 2.75593 15.976 3.30582L13.3991 0.97033C12.3208 -0.00606149 10.8264 -0.246195 9.4967 0.343173C8.04977 0.984767 7.19949 2.43229 7.36159 4.04645C7.41228 4.55116 7.58958 5.02853 7.85837 5.45378H5.82607C4.81752 5.45378 4 6.27136 4 7.27985V10.019C4 10.5232 4.40879 10.932 4.91306 10.932H31.087C31.5912 10.932 32.0001 10.5233 32.0001 10.019V7.27985C32 6.27136 31.1825 5.45378 30.1739 5.45378ZM15.2609 5.14944V5.45378H10.9655C9.83067 5.45378 8.93752 4.39579 9.22096 3.21421C9.34581 2.69386 9.72141 2.25029 10.2072 2.02574C10.8743 1.71742 11.6132 1.8164 12.1735 2.32352L15.2616 5.12254C15.2615 5.13156 15.2609 5.14042 15.2609 5.14944ZM26.8208 3.8032C26.7527 4.75219 25.8955 5.45389 24.9441 5.45389H20.7391V5.14955C20.7391 5.13878 20.7385 5.12811 20.7384 5.11734C21.4379 4.48318 22.9556 3.10768 23.7787 2.36158C24.2465 1.93759 24.901 1.73967 25.5061 1.92014C26.3744 2.17914 26.8843 2.91753 26.8208 3.8032Z" fill="white"/>
<path d="M5.82617 12.7581V26.1494C5.82617 27.158 6.6437 27.9755 7.65224 27.9755H16.174V12.7581H5.82617Z" fill="white"/>
<path d="M19.8262 12.7581V27.9755H28.3479C29.3565 27.9755 30.174 27.158 30.174 26.1494V12.7581H19.8262Z" fill="white"/>
</g>
<defs>
<filter id="filter0_d" x="0" y="0" width="36" height="36" filterUnits="userSpaceOnUse" color-interpolation-filters="sRGB">
<feFlood flood-opacity="0" result="BackgroundImageFix"/>
<feColorMatrix in="SourceAlpha" type="matrix" values="0 0 0 0 0 0 0 0 0 0 0 0 0 0 0 0 0 0 127 0" result="hardAlpha"/>
<feOffset dy="4"/>
<feGaussianBlur stdDeviation="2"/>
<feColorMatrix type="matrix" values="0 0 0 0 0 0 0 0 0 0 0 0 0 0 0 0 0 0 0.25 0"/>
<feBlend mode="normal" in2="BackgroundImageFix" result="effect1_dropShadow"/>
<feBlend mode="normal" in="SourceGraphic" in2="effect1_dropShadow" result="shape"/>
</filter>
<clipPath id="clip0">
<rect width="28" height="28" fill="white" transform="translate(4)"/>
</clipPath>
</defs>
</svg>
