<svg width="36" height="37" viewBox="0 0 36 37" fill="none" xmlns="http://www.w3.org/2000/svg">
<g clip-path="url(#clip0)" filter="url(#filter0_d)">
<path d="M21.5627 10.4955L19.4467 10.7884C19.4547 11.5289 19.505 12.2915 19.613 13.0717C19.721 13.8518 19.8798 14.5995 20.0732 15.3143L22.1892 15.0214C23.437 14.8487 24.3116 13.6931 24.1389 12.4452C23.9662 11.1974 22.8106 10.3228 21.5627 10.4955Z" fill="white"/>
<path d="M23.5358 2.53476C21.3395 2.83875 19.8023 5.59065 19.4969 9.2439L21.3538 8.98688C23.4333 8.69904 25.3596 10.1568 25.6474 12.2364C25.9353 14.316 24.4775 16.2422 22.3979 16.53L20.541 16.787C21.8272 20.22 24.0542 22.4509 26.2504 22.1469C29.1665 21.7433 30.9732 17.0187 30.2236 11.6031C29.474 6.18738 26.4519 2.13113 23.5358 2.53476Z" fill="white"/>
<path d="M16.0179 20.7935L16.0808 21.2482C16.1384 21.6644 15.8471 22.0493 15.4309 22.1069L14.6766 22.2113L14.4743 20.7501C14.2406 20.7626 14.0066 20.7665 13.7738 20.7987C12.3843 20.991 11.4505 21.1203 9.94189 21.3291L10.6727 26.6093C10.8455 27.8571 12.001 28.7317 13.2489 28.559C14.4967 28.3863 15.3713 27.2307 15.1986 25.9828L14.8854 23.7199L15.6397 23.6155C16.8417 23.4491 17.6875 22.3695 17.5944 21.1752C17.0789 21.0023 16.5542 20.864 16.0179 20.7935Z" fill="white"/>
<path d="M19.4191 4.67282L17.0414 6.60099C15.7175 7.6735 14.0698 8.38857 12.3778 8.67234C10.9723 10.1278 10.2124 12.1742 10.511 14.3315C10.8096 16.4888 12.0968 18.2519 13.8448 19.2708C15.5503 19.0843 17.3302 19.3249 18.8957 19.9975L21.7077 21.2073C19.9891 19.677 18.5846 16.7502 18.1043 13.2805C17.6241 9.81071 18.1808 6.61236 19.4191 4.67282Z" fill="white"/>
<path d="M10.2029 8.99281L9.28222 9.12025C6.3706 9.52325 4.2076 12.1135 4.43679 14.8801C4.70615 18.0033 7.52491 20.1261 10.4875 19.7161L11.6646 19.5531C10.2694 18.2827 9.28079 16.5523 9.0023 14.5403C8.72381 12.5283 9.20533 10.5944 10.2029 8.99281Z" fill="white"/>
</g>
<defs>
<filter id="filter0_d" x="-1" y="0.988708" width="37.3192" height="37.3192" filterUnits="userSpaceOnUse" color-interpolation-filters="sRGB">
<feFlood flood-opacity="0" result="BackgroundImageFix"/>
<feColorMatrix in="SourceAlpha" type="matrix" values="0 0 0 0 0 0 0 0 0 0 0 0 0 0 0 0 0 0 127 0" result="hardAlpha"/>
<feOffset dy="4"/>
<feGaussianBlur stdDeviation="2"/>
<feColorMatrix type="matrix" values="0 0 0 0 0 0 0 0 0 0 0 0 0 0 0 0 0 0 0.25 0"/>
<feBlend mode="normal" in2="BackgroundImageFix" result="effect1_dropShadow"/>
<feBlend mode="normal" in="SourceGraphic" in2="effect1_dropShadow" result="shape"/>
</filter>
<clipPath id="clip0">
<rect width="26" height="26" fill="white" transform="translate(3 4.55347) rotate(-7.88045)"/>
</clipPath>
</defs>
</svg>
