<svg width="24" height="26" viewBox="0 0 24 26" fill="none" xmlns="http://www.w3.org/2000/svg">
<path d="M23.3854 6.85036L23.3783 6.82193C22.8032 4.49713 20.2107 2.0025 17.8298 1.48351L17.8029 1.47798C13.952 0.743341 10.0473 0.743341 6.19713 1.47798L6.16949 1.48351C3.7894 2.0025 1.19682 4.49713 0.62095 6.82193L0.61463 6.85036C-0.0963155 10.097 -0.0963155 13.3895 0.61463 16.6361L0.62095 16.6646C1.17225 18.8901 3.57177 21.2702 5.86378 21.9247V24.5198C5.86378 25.459 7.0084 25.9204 7.65931 25.2426L10.2886 22.5095C10.8589 22.5414 11.4295 22.5592 12 22.5592C13.9385 22.5592 15.8778 22.3759 17.8029 22.0086L17.8298 22.0031C20.2107 21.4841 22.8032 18.9894 23.3783 16.6647L23.3854 16.6362C24.0964 13.3895 24.0964 10.097 23.3854 6.85036ZM21.3047 16.1653C20.9208 17.682 18.9523 19.5676 17.3882 19.916C15.3406 20.3053 13.2768 20.4718 11.2151 20.4147C11.1741 20.4135 11.1347 20.4294 11.1061 20.4588C10.8135 20.7591 9.18627 22.4296 9.18627 22.4296L7.14427 24.5253C6.99497 24.6809 6.73271 24.575 6.73271 24.3602V20.0612C6.73271 19.9901 6.682 19.9298 6.61225 19.9161C6.61185 19.916 6.61146 19.916 6.61106 19.9159C5.04698 19.5675 3.07924 17.6819 2.69454 16.1653C2.05469 13.2306 2.05469 10.2557 2.69454 7.32109C3.07924 5.8044 5.04698 3.91882 6.61106 3.57046C10.1871 2.89032 13.8129 2.89032 17.3882 3.57046C18.9531 3.91882 20.9208 5.8044 21.3047 7.32109C21.9453 10.2558 21.9453 13.2307 21.3047 16.1653Z" fill="white"/>
<path d="M15.4023 18.1497C15.1619 18.0767 14.9327 18.0277 14.7199 17.9394C12.5147 17.0244 10.4852 15.8441 8.87759 14.0348C7.9634 13.0059 7.24787 11.8443 6.64301 10.615C6.35618 10.032 6.11446 9.42618 5.86808 8.82432C5.64342 8.27547 5.97433 7.70845 6.32277 7.29492C6.64973 6.90682 7.07045 6.60981 7.52609 6.39091C7.88172 6.22005 8.23253 6.31855 8.49226 6.62C9.05375 7.2717 9.5695 7.95673 9.98714 8.71215C10.244 9.17679 10.1735 9.74476 9.70806 10.061C9.59494 10.1378 9.49185 10.228 9.38647 10.3149C9.29405 10.3909 9.20708 10.4678 9.14372 10.5708C9.02792 10.7593 9.02239 10.9816 9.09696 11.1865C9.67093 12.7638 10.6384 13.9904 12.226 14.651C12.48 14.7567 12.7352 14.8798 13.0279 14.8456C13.518 14.7884 13.6767 14.2507 14.0202 13.9698C14.3559 13.6953 14.7849 13.6917 15.1466 13.9205C15.5083 14.1495 15.8589 14.3952 16.2074 14.6436C16.5496 14.8873 16.8902 15.1258 17.2058 15.4037C17.5092 15.671 17.6137 16.0215 17.4428 16.3842C17.13 17.0484 16.6749 17.6009 16.0183 17.9537C15.8329 18.0531 15.6114 18.0853 15.4023 18.1497C15.1619 18.0766 15.6114 18.0853 15.4023 18.1497Z" fill="white"/>
<path d="M12.006 5.63157C14.8905 5.71238 17.2596 7.62665 17.7673 10.4783C17.8538 10.9642 17.8846 11.461 17.923 11.9542C17.9392 12.1616 17.8218 12.3587 17.5979 12.3614C17.3667 12.3642 17.2626 12.1707 17.2476 11.9633C17.2179 11.5529 17.1973 11.1406 17.1408 10.7336C16.8422 8.58484 15.1288 6.80716 12.99 6.4257C12.6682 6.36827 12.3388 6.35318 12.0128 6.31898C11.8067 6.29733 11.5368 6.28485 11.4911 6.02867C11.4528 5.81389 11.6341 5.64287 11.8386 5.63189C11.8942 5.62881 11.9501 5.63133 12.006 5.63157C14.8905 5.71238 11.9501 5.63133 12.006 5.63157Z" fill="white"/>
<path d="M16.3896 11.314C16.3849 11.35 16.3824 11.4347 16.3613 11.5145C16.2847 11.8041 15.8457 11.8403 15.7446 11.548C15.7146 11.4613 15.7101 11.3626 15.71 11.2693C15.7089 10.6583 15.5761 10.048 15.2681 9.51646C14.9514 8.97014 14.4675 8.51087 13.9001 8.23297C13.5569 8.06495 13.1858 7.96052 12.8097 7.89827C12.6453 7.8711 12.4792 7.85459 12.314 7.8316C12.1138 7.80379 12.007 7.67622 12.0164 7.47897C12.0253 7.29412 12.1604 7.16118 12.3618 7.17255C13.0238 7.21015 13.6632 7.35321 14.2517 7.66484C15.4484 8.29861 16.132 9.29899 16.3316 10.6348C16.3406 10.6953 16.3551 10.7552 16.3597 10.816C16.371 10.966 16.3781 11.1162 16.3896 11.314C16.3849 11.35 16.3781 11.1162 16.3896 11.314Z" fill="white"/>
<path d="M14.5955 11.2443C14.3541 11.2486 14.225 11.115 14.2001 10.8938C14.1828 10.7395 14.1691 10.5832 14.1323 10.4331C14.0598 10.1375 13.9027 9.86352 13.654 9.68239C13.5366 9.59684 13.4036 9.53451 13.2642 9.4943C13.0872 9.44319 12.9034 9.45726 12.7268 9.41397C12.535 9.36697 12.4289 9.21166 12.4591 9.03171C12.4865 8.86796 12.6458 8.74015 12.8247 8.7531C13.943 8.83383 14.7423 9.41199 14.8564 10.7285C14.8644 10.8214 14.8739 10.9196 14.8533 11.0085C14.818 11.1606 14.7053 11.2368 14.5955 11.2443C14.3541 11.2486 14.7053 11.2368 14.5955 11.2443Z" fill="white"/>
</svg>
