<svg width="25" height="25" viewBox="0 0 25 25" fill="none" xmlns="http://www.w3.org/2000/svg">
<path d="M23.9974 14.5667C24.1372 13.8481 24.2113 13.106 24.2113 12.3465C24.2113 5.96217 19.0358 0.786642 12.6515 0.786642C11.8919 0.786642 11.1498 0.860739 10.4312 1.00056C9.44321 0.422401 8.29424 0.0895996 7.06691 0.0895996C3.38185 0.0895996 0.394531 3.07691 0.394531 6.76198C0.394531 7.98931 0.727412 9.13828 1.30549 10.1262C1.16567 10.8448 1.09157 11.5869 1.09157 12.3465C1.09157 18.7308 6.2671 23.9063 12.6514 23.9063C13.4109 23.9063 14.1531 23.8322 14.8717 23.6924C15.8597 24.2705 17.0086 24.6033 18.2359 24.6033C21.9209 24.6033 24.9083 21.616 24.9083 17.9309C24.9084 16.7036 24.5755 15.5547 23.9974 14.5667ZM12.8711 20.2853C8.76339 20.2853 6.70955 18.7449 6.07759 16.8095C5.44564 14.8742 6.82804 14.3212 7.2625 14.2817C7.69697 14.2422 8.61859 14.3475 8.88188 15.1507C9.15559 15.9854 10.0668 17.639 12.0416 17.8365C14.0165 18.0339 15.3199 17.1255 15.7149 16.1776C16.1098 15.2297 15.3989 13.9263 12.3576 13.4918C9.31635 13.0573 6.15659 11.7144 6.15659 8.67316C6.15659 5.6319 9.63232 4.40749 12.9501 4.40749C16.2678 4.40749 17.9498 6.28131 18.3217 7.01429C18.7824 7.92272 18.6244 9.43632 17.5317 9.70008C16.3863 9.97656 15.7939 9.34461 14.9644 7.80423C14.1067 6.21132 11.0542 6.61932 10.0273 7.52775C9.00037 8.43618 9.27685 9.73958 13.5425 10.569C17.8082 11.3985 19.3881 12.9388 19.3881 15.3482C19.3881 17.7575 16.9788 20.2853 12.8711 20.2853Z" fill="white"/>
</svg>
