<svg width="28" height="24" viewBox="0 0 28 24" fill="none" xmlns="http://www.w3.org/2000/svg">
<path d="M25.3465 0.946919L1.27289 10.3282C0.493141 10.6321 0.540379 11.751 1.34304 11.988L7.46041 13.7944L9.74341 21.0386C9.9819 21.7953 10.9408 22.0247 11.4959 21.4579L14.6587 18.2285L20.8645 22.7837C21.624 23.3412 22.7055 22.927 22.8984 22.0049L27.0085 2.35435C27.2098 1.39181 26.2628 0.589866 25.3465 0.946919ZM22.3283 5.30786L11.1463 15.1962C11.0348 15.2948 10.9639 15.4312 10.9473 15.5791L10.5168 19.4062C10.5027 19.531 10.328 19.5475 10.2908 19.4276L8.51948 13.72C8.43835 13.4587 8.54413 13.1756 8.77661 13.0314L21.9815 4.84164C22.2851 4.65316 22.5961 5.0712 22.3283 5.30786Z" fill="white"/>
</svg>
