<svg width="116" height="103" viewBox="0 0 116 103" fill="none" xmlns="http://www.w3.org/2000/svg">
<path d="M0 103.001V0.000854492H116L0 103.001Z" fill="#E05222"/>
<path d="M10.5599 44.634C10.814 44.9957 11.0835 45.289 11.3684 45.5141C11.66 45.7337 11.9578 45.8869 12.2618 45.9737C12.5676 46.0479 12.8745 46.0487 13.1827 45.9761C13.4908 45.9034 13.7927 45.7466 14.0884 45.5058C14.3773 45.2704 14.5961 45.0029 14.7448 44.7033C14.9002 44.3982 14.983 44.0799 14.993 43.7483C15.0048 43.4042 14.9488 43.0539 14.8252 42.6975C14.7082 42.3356 14.5227 41.9738 14.2686 41.6122C14.0145 41.2505 13.7416 40.9599 13.45 40.7403C13.1601 40.5082 12.8623 40.355 12.5566 40.2807C12.2526 40.1939 11.9431 40.1895 11.6282 40.2677C11.3201 40.3404 11.0216 40.4944 10.7327 40.7298C10.437 40.9707 10.2173 41.2444 10.0736 41.5511C9.92489 41.8507 9.84464 42.1726 9.83287 42.5167C9.82283 42.8483 9.87877 43.1985 10.0007 43.5675C10.1243 43.924 10.3107 44.2795 10.5599 44.634ZM15.8912 40.2901C16.3346 40.9212 16.6351 41.5518 16.7925 42.1818C16.9516 42.7992 16.9912 43.397 16.9114 43.975C16.8265 44.5459 16.6264 45.0881 16.311 45.6016C16.0023 46.1096 15.6027 46.5634 15.1123 46.963C14.6352 47.3517 14.1278 47.6369 13.5899 47.8187C13.052 48.0005 12.5131 48.0605 11.9731 47.9987C11.4281 47.9298 10.898 47.7317 10.3828 47.4044C9.86254 47.07 9.38071 46.5872 8.93727 45.9561C8.49383 45.325 8.19926 44.6952 8.05356 44.0668C7.90288 43.4313 7.87083 42.8218 7.95742 42.2383C8.05073 41.6494 8.24836 41.1036 8.55033 40.6011C8.85902 40.0931 9.24516 39.6503 9.70875 39.2725C10.1858 38.8839 10.6932 38.5986 11.2311 38.4168C11.769 38.235 12.3104 38.1786 12.8554 38.2475C13.4004 38.3164 13.933 38.518 14.4532 38.8524C14.9684 39.1797 15.4478 39.659 15.8912 40.2901ZM18.8285 32.1094L20.4007 30.8284L25.58 38.1998L24.0078 39.4808L21.8105 36.3536L19.1701 38.505L21.3673 41.6322L19.7951 42.9133L14.6159 35.5419L16.188 34.2609L18.1686 37.0797L20.8091 34.9282L18.8285 32.1094ZM26.0572 28.4274C26.3709 28.919 26.6803 29.4195 26.9855 29.9291C27.2925 30.4261 27.5626 30.9308 27.7959 31.4433C28.0359 31.9503 28.219 32.459 28.3452 32.9694C28.4781 33.4744 28.5216 33.9798 28.4755 34.4857C28.4362 34.9861 28.2907 35.4782 28.039 35.962C27.7873 36.4459 27.3968 36.9202 26.8676 37.3849L25.6798 36.0778C26.1237 35.627 26.4069 35.1955 26.5294 34.7834C26.647 34.3643 26.6259 33.8908 26.4663 33.3629C26.2706 32.7084 25.9198 31.946 25.414 31.0757C24.91 30.1929 24.3017 29.2445 23.5892 28.2305L28.3562 24.3464L33.5354 31.7177L31.9633 32.9987L27.7705 27.0315L26.0572 28.4274ZM39.8248 26.5932C39.5716 26.3981 39.3032 26.2042 39.0198 26.0113C38.7432 25.813 38.4665 25.6147 38.1898 25.4164L35.4687 27.6336C35.5707 27.9742 35.6693 28.3176 35.7646 28.6637C35.8666 29.0043 35.9703 29.3324 36.0758 29.6479L34.4431 30.9782C34.1471 29.9705 33.88 29.034 33.6418 28.1687C33.4037 27.3034 33.1862 26.4826 32.9894 25.7063C32.7993 24.9245 32.6249 24.1801 32.4662 23.4731C32.3092 22.7535 32.169 22.0426 32.0454 21.3404L33.547 20.1169C34.1342 20.4413 34.728 20.7827 35.3284 21.141C35.9238 21.4921 36.5416 21.8752 37.1819 22.2903C37.8288 22.6998 38.5066 23.1456 39.2151 23.6277C39.9236 24.1097 40.6878 24.6411 41.5079 25.2218L39.8248 26.5932ZM33.9343 22.4274C33.9755 22.5611 34.0272 22.7475 34.0896 22.9867C34.1519 23.2258 34.2241 23.5015 34.3062 23.8137C34.3883 24.126 34.4777 24.4713 34.5745 24.8496C34.678 25.2225 34.7881 25.6123 34.9048 26.019L36.8902 24.4013C36.5585 24.1698 36.2401 23.9497 35.935 23.7411C35.6299 23.5324 35.3457 23.3459 35.0822 23.1814C34.8255 23.0115 34.5987 22.8617 34.402 22.7321C34.2053 22.6025 34.0494 22.5009 33.9343 22.4274ZM42.4119 24.4852L37.2327 17.1139L38.7948 15.8411L41.8515 20.1915C41.8243 19.6115 41.804 19.0037 41.7905 18.3679C41.772 17.7251 41.7659 17.1 41.7724 16.4926C41.7805 15.8726 41.7994 15.283 41.829 14.7236C41.8586 14.1643 41.902 13.6773 41.9593 13.2626L43.2392 12.2197L48.4185 19.5911L46.8665 20.8557L43.4734 16.0265C43.3954 17.2387 43.3833 18.4696 43.4372 19.7191C43.4911 20.9687 43.5894 22.1989 43.7322 23.4095L42.4119 24.4852ZM39.901 13.9194C39.686 14.0946 39.4553 14.2324 39.2089 14.3328C38.9642 14.4206 38.7164 14.4664 38.4655 14.4702C38.2096 14.4668 37.9631 14.4168 37.726 14.32C37.4907 14.2106 37.2783 14.0436 37.0887 13.8189L37.925 12.6859C38.1681 12.9116 38.3899 13.0319 38.5906 13.0468C38.798 13.0563 38.9856 12.9926 39.1536 12.8557C39.3283 12.7134 39.4412 12.5433 39.4924 12.3455C39.5453 12.1351 39.499 11.8662 39.3535 11.5387L40.5832 10.9884C40.7325 11.2459 40.8206 11.5142 40.8477 11.7932C40.8764 12.0597 40.855 12.3225 40.7835 12.5815C40.7186 12.8351 40.6103 13.0794 40.4586 13.3145C40.3019 13.5426 40.116 13.7442 39.901 13.9194ZM49.063 7.47457L50.6352 6.19355L55.8145 13.5649L54.2423 14.8459L52.045 11.7187L49.4045 13.8701L51.6018 16.9974L50.0296 18.2784L44.8503 10.907L46.4225 9.62601L48.4031 12.4448L51.0435 10.2933L49.063 7.47457ZM27.9582 46.8138L31.867 52.3769L30.6475 53.3705L27.4936 48.8818L25.5485 50.4666L28.7024 54.9554L27.483 55.949L23.5742 50.3859L27.9582 46.8138ZM34.9791 45.5091C34.5755 44.9347 34.1373 44.5892 33.6645 44.4726C33.1984 44.3506 32.6933 44.5113 32.149 44.9547C32.0348 45.0478 31.9189 45.1534 31.8012 45.2716C31.6852 45.3773 31.5792 45.4971 31.4832 45.6311L33.7179 48.8115C33.8802 48.8019 34.0736 48.7614 34.2981 48.69C34.5243 48.606 34.7382 48.4819 34.9398 48.3177C35.3832 47.9563 35.5936 47.534 35.571 47.0507C35.5551 46.5619 35.3578 46.048 34.9791 45.5091ZM36.2138 44.4695C36.5128 44.895 36.7331 45.3288 36.8747 45.771C37.023 46.2077 37.0895 46.633 37.074 47.0471C37.0585 47.4611 36.9528 47.8595 36.7568 48.2422C36.5676 48.6194 36.2882 48.9586 35.9186 49.2597C35.67 49.4622 35.4192 49.6164 35.1661 49.7223C34.9129 49.8282 34.6918 49.8969 34.5026 49.9284L36.0198 52.0877L34.8003 53.0813L29.636 45.7312C29.8347 45.4577 30.0931 45.1413 30.4111 44.7818C30.729 44.4224 31.0896 44.0784 31.4927 43.75C31.9093 43.4105 32.3295 43.1741 32.7534 43.0406C33.1773 42.9071 33.5931 42.8749 34.0009 42.944C34.4105 43.0006 34.8028 43.1605 35.1778 43.4236C35.5546 43.6741 35.8999 44.0228 36.2138 44.4695ZM40.1283 36.8977L44.037 42.4608L42.8277 43.4462C42.5437 43.042 42.2622 42.6414 41.9831 42.2443C41.7108 41.8417 41.4551 41.4702 41.216 41.1298C40.9835 40.784 40.7801 40.4869 40.6057 40.2387C40.4331 39.978 40.3044 39.7873 40.2197 39.6668C40.2124 40.1076 40.2184 40.5822 40.2376 41.0907C40.2568 41.5991 40.2759 42.1076 40.2951 42.6161C40.321 43.1191 40.352 43.6068 40.3881 44.0792C40.4242 44.5515 40.4613 44.9729 40.4996 45.3431L39.4213 46.2218L35.5125 40.6587L36.7118 39.6815C37.0008 40.0928 37.2739 40.4891 37.5313 40.8704C37.7904 41.2391 38.0271 41.576 38.2413 41.8809C38.4556 42.1858 38.639 42.4545 38.7918 42.6869C38.9512 42.9138 39.0733 43.0875 39.158 43.2081C39.1318 42.7499 39.1075 42.2791 39.0848 41.7958C39.0572 41.3053 39.037 40.8255 39.0243 40.3564C39.0134 39.8746 39.0115 39.4134 39.0188 38.9726C39.026 38.5318 39.0465 38.1249 39.0802 37.7517L40.1283 36.8977ZM43.3642 38.6769C43.0204 38.1876 42.7862 37.7039 42.6614 37.2256C42.5434 36.7419 42.514 36.2864 42.573 35.8592C42.627 35.4249 42.7595 35.027 42.9705 34.6656C43.1764 34.2971 43.4339 33.9869 43.743 33.7351C44.4686 33.1438 45.1999 32.9215 45.9368 33.0682C46.6805 33.2094 47.3837 33.7515 48.0463 34.6947C48.0962 34.7656 48.1501 34.8499 48.2082 34.9475C48.268 35.0326 48.3194 35.1134 48.3625 35.1897L44.8855 38.0228C45.233 38.4421 45.625 38.6692 46.0614 38.7039C46.4996 38.726 46.9706 38.5318 47.4745 38.1212C47.7701 37.8803 48.019 37.633 48.221 37.3792C48.4297 37.1199 48.5822 36.9008 48.6784 36.7221L49.5796 37.6437C49.5373 37.7339 49.4707 37.8496 49.3796 37.9907C49.2903 38.1192 49.1784 38.2606 49.0438 38.4148C48.9209 38.5707 48.7795 38.7305 48.6198 38.8941C48.4601 39.0577 48.2895 39.2134 48.1081 39.3612C47.6445 39.739 47.1915 39.9965 46.7492 40.1339C46.3019 40.2642 45.8777 40.292 45.4767 40.2174C45.0706 40.1356 44.6917 39.9648 44.3401 39.705C43.9835 39.438 43.6582 39.0953 43.3642 38.6769ZM46.498 35.2202C46.3735 35.043 46.2329 34.8955 46.0762 34.7778C45.9146 34.653 45.7469 34.5722 45.5731 34.5354C45.4011 34.486 45.2254 34.4842 45.0462 34.5298C44.8687 34.5629 44.6893 34.6534 44.5079 34.8012C44.3198 34.9545 44.1826 35.1276 44.0963 35.3206C44.005 35.5064 43.9513 35.7007 43.9353 35.9034C43.9259 36.1006 43.9491 36.2991 44.005 36.4989C44.0609 36.6987 44.136 36.8883 44.2305 37.0679L46.498 35.2202ZM50.0157 31.8523C50.2049 32.1665 50.4039 32.495 50.613 32.8376C50.817 33.1731 51.0244 33.5059 51.2352 33.836C51.446 34.166 51.6493 34.4854 51.8451 34.7942C52.0409 35.103 52.2252 35.3878 52.3978 35.6485L51.2187 36.6093C50.9431 36.187 50.6519 35.7274 50.3449 35.2304C50.033 34.7263 49.7219 34.2159 49.4117 33.6992C49.1033 33.17 48.8023 32.6514 48.5088 32.1434C48.2153 31.6355 47.95 31.1602 47.7131 30.7177L48.7713 29.8555C49.3305 30.08 49.9479 30.3798 50.6235 30.7549C51.2941 31.1229 52.0522 31.5478 52.8979 32.0296C52.7007 30.9971 52.5256 30.0637 52.3726 29.2294C52.2146 28.388 52.116 27.6989 52.0769 27.1621L53.1452 26.2917C53.4762 26.6575 53.8288 27.0616 54.2029 27.5039C54.5838 27.9407 54.9654 28.3936 55.3478 28.8626C55.7252 29.3245 56.0967 29.7856 56.4624 30.2459C56.8231 30.6992 57.1546 31.1259 57.4571 31.5263L56.2477 32.5117C55.8257 31.9411 55.3811 31.3611 54.9141 30.7715C54.4487 30.1694 53.9817 29.5798 53.5129 29.0028C53.5616 29.2977 53.6176 29.6256 53.681 29.9865C53.7512 30.3419 53.8238 30.7009 53.8989 31.0634C53.974 31.426 54.0475 31.7787 54.1194 32.1216C54.1863 32.4573 54.2467 32.7538 54.3006 33.011L53.3935 33.75C53.1784 33.6242 52.924 33.4802 52.6304 33.318C52.3435 33.1503 52.0483 32.9783 51.7448 32.8019C51.4412 32.6255 51.1393 32.4589 50.839 32.3022C50.5404 32.1328 50.266 31.9829 50.0157 31.8523Z" fill="white"/>
</svg>
