<svg width="108" height="95" viewBox="0 0 108 95" fill="none" xmlns="http://www.w3.org/2000/svg">
<path d="M0 95V6H108L0 95Z" fill="#E05222"/>
<path d="M10.8341 47.3085C11.1007 47.661 11.3828 47.9475 11.6801 48.1681C11.9843 48.3835 12.2944 48.5348 12.6102 48.6218C12.9277 48.6967 13.2458 48.7006 13.5645 48.6334C13.8831 48.5662 14.1945 48.4175 14.4986 48.1874C14.7958 47.9626 15.02 47.7059 15.1714 47.4176C15.3296 47.124 15.4123 46.8168 15.4197 46.4961C15.4287 46.1633 15.3674 45.8238 15.2359 45.4777C15.1114 45.1263 14.9158 44.7744 14.6491 44.422C14.3824 44.0695 14.0969 43.7855 13.7927 43.5702C13.4901 43.3426 13.1801 43.1914 12.8625 43.1165C12.5467 43.0294 12.226 43.0221 11.9004 43.0946C11.5818 43.1618 11.2739 43.3078 10.9767 43.5327C10.6726 43.7628 10.4475 44.0255 10.3014 44.3207C10.1501 44.6091 10.0699 44.9197 10.0609 45.2526C10.0536 45.5733 10.1149 45.9128 10.2447 46.271C10.3761 46.6171 10.5726 46.963 10.8341 47.3085ZM16.3181 43.1591C16.7836 43.7742 17.1008 44.3873 17.2697 44.9985C17.4404 45.5975 17.4871 46.1762 17.4097 46.7347C17.3271 47.2862 17.1248 47.8088 16.8027 48.3025C16.4876 48.7909 16.0777 49.226 15.5732 49.6077C15.0825 49.979 14.5593 50.2499 14.0036 50.4203C13.448 50.5908 12.8901 50.6435 12.3299 50.5782C11.7645 50.5061 11.2134 50.3091 10.6764 49.9872C10.1342 49.6584 9.63039 49.1865 9.16498 48.5714C8.69958 47.9563 8.38845 47.344 8.2316 46.7345C8.06953 46.1181 8.03063 45.5281 8.11491 44.9644C8.20611 44.3955 8.40582 43.8694 8.71404 43.3863C9.02918 42.8978 9.42518 42.4732 9.90206 42.1124C10.3928 41.7411 10.916 41.4703 11.4716 41.2998C12.0273 41.1293 12.5879 41.0801 13.1532 41.1523C13.7186 41.2244 14.2724 41.4249 14.8146 41.7536C15.3516 42.0755 15.8527 42.544 16.3181 43.1591ZM19.2856 35.2733L20.9029 34.0497L26.3387 41.234L24.7215 42.4576L22.4153 39.4097L19.6992 41.4649L22.0053 44.5127L20.3881 45.7364L14.9522 38.5521L16.5695 37.3285L18.6481 40.0757L21.3643 38.0206L19.2856 35.2733ZM26.742 31.7834C27.0716 32.2622 27.397 32.7496 27.718 33.2457C28.0407 33.7297 28.3253 34.2208 28.5719 34.7189C28.8253 35.2119 29.0198 35.7059 29.1553 36.2011C29.2978 36.691 29.3475 37.1805 29.3045 37.6695C29.2685 38.1532 29.1223 38.6279 28.866 39.0935C28.6097 39.5591 28.2095 40.0141 27.6653 40.4584L26.4223 39.1819C26.8781 38.7501 27.1675 38.3354 27.2907 37.938C27.4086 37.5336 27.3823 37.0752 27.212 36.5629C27.0031 35.9276 26.6325 35.1865 26.1002 34.3394C25.5697 33.4802 24.9305 32.5564 24.1827 31.5681L29.0862 27.8579L34.5221 35.0422L32.9048 36.2658L28.5044 30.45L26.742 31.7834ZM40.9917 30.1471C40.7274 29.9558 40.4475 29.7654 40.152 29.576C39.8635 29.3814 39.5749 29.1867 39.2864 28.9921L36.4873 31.1099C36.5962 31.4405 36.7016 31.7738 36.8035 32.1096C36.9124 32.4402 37.023 32.7587 37.1352 33.065L35.4557 34.3357C35.1396 33.3577 34.8541 32.4489 34.5992 31.6093C34.3443 30.7697 34.1113 29.9734 33.9001 29.2202C33.6958 28.4619 33.5082 27.7399 33.3371 27.0542C33.1678 26.3564 33.0158 25.6672 32.8812 24.9865L34.4258 23.8178C35.0373 24.1376 35.6558 24.4738 36.2813 24.8265C36.9016 25.1723 37.5454 25.5492 38.2127 25.9572C38.887 26.3599 39.5934 26.7981 40.3321 27.2716C41.0708 27.7452 41.8677 28.267 42.7229 28.8371L40.9917 30.1471ZM34.8487 26.0572C34.8926 26.187 34.948 26.3679 35.0148 26.5999C35.0817 26.8319 35.1591 27.0994 35.247 27.4023C35.335 27.7053 35.4308 28.0403 35.5347 28.4073C35.6454 28.7691 35.7631 29.1474 35.8879 29.542L37.9301 27.9968C37.5842 27.7694 37.2523 27.5533 36.9342 27.3484C36.6161 27.1435 36.3198 26.9601 36.0453 26.7984C35.7776 26.6313 35.5413 26.4841 35.3362 26.3567C35.1311 26.2293 34.9686 26.1295 34.8487 26.0572ZM43.6529 28.1335L38.217 20.9492L39.8239 19.7334L43.0321 23.9735C42.9985 23.412 42.9717 22.8237 42.9518 22.2084C42.9266 21.5862 42.9146 20.9814 42.9155 20.3937C42.9182 19.794 42.9323 19.2237 42.9577 18.6827C42.9831 18.1418 43.0236 17.6711 43.0791 17.2704L44.3957 16.2742L49.8316 23.4585L48.2351 24.6665L44.6739 19.9599C44.6043 21.1319 44.6033 22.3228 44.6708 23.5323C44.7383 24.7419 44.8517 25.9331 45.011 27.1059L43.6529 28.1335ZM40.9523 17.8852C40.7311 18.0526 40.4934 18.1836 40.239 18.2782C39.9862 18.3608 39.7299 18.4026 39.4699 18.4037C39.2047 18.3979 38.9488 18.347 38.7022 18.2509C38.4574 18.1428 38.2357 17.9791 38.0371 17.7598L38.8932 16.6719C39.1472 16.8927 39.3782 17.0113 39.5863 17.0278C39.8012 17.039 39.9951 16.9793 40.1679 16.8485C40.3476 16.7126 40.463 16.5491 40.5142 16.3583C40.5671 16.1552 40.5166 15.8946 40.3627 15.5763L41.6319 15.0561C41.789 15.3068 41.8828 15.5673 41.9134 15.8375C41.9457 16.0957 41.926 16.3497 41.8543 16.5996C41.7894 16.8443 41.6795 17.0796 41.5245 17.3056C41.3642 17.5247 41.1735 17.7179 40.9523 17.8852ZM50.3863 11.7416L52.0036 10.5179L57.4394 17.7022L55.8222 18.9258L53.5161 15.8779L50.7999 17.9331L53.106 20.9809L51.4888 22.2046L46.053 15.0203L47.6702 13.7967L49.7488 16.5439L52.465 14.4888L50.3863 11.7416ZM28.8835 49.5924L32.9859 55.0143L31.7315 55.9635L28.4214 51.5886L26.4205 53.1025L29.7307 57.4773L28.4763 58.4265L24.3739 53.0046L28.8835 49.5924ZM36.1468 48.4005C35.7232 47.8407 35.2659 47.5021 34.7748 47.3845C34.2907 47.2618 33.7687 47.4122 33.2089 47.8358C33.0914 47.9247 32.9723 48.0257 32.8514 48.1389C32.7322 48.2399 32.6235 48.3548 32.5253 48.4835L34.8706 51.5832C35.0387 51.5755 35.2388 51.5383 35.4707 51.4714C35.7044 51.3924 35.9249 51.2745 36.1322 51.1176C36.5884 50.7725 36.8025 50.366 36.7745 49.8981C36.7534 49.425 36.5442 48.9258 36.1468 48.4005ZM37.4166 47.4072C37.7303 47.8218 37.9626 48.2438 38.1135 48.673C38.2713 49.097 38.3441 49.5093 38.332 49.9097C38.3198 50.3102 38.2139 50.6946 38.0144 51.0629C37.8218 51.426 37.5355 51.7513 37.1554 52.0389C36.8996 52.2324 36.6411 52.3791 36.3798 52.479C36.1185 52.5789 35.89 52.6431 35.6942 52.6717L37.2865 54.7762L36.0321 55.7253L30.612 48.5618C30.8154 48.2992 31.0802 47.9956 31.4063 47.651C31.7325 47.3064 32.1029 46.9772 32.5176 46.6635C32.9461 46.3393 33.3793 46.1147 33.8173 45.9898C34.2553 45.8649 34.686 45.8379 35.1092 45.9089C35.5341 45.9678 35.9421 46.1264 36.3332 46.3847C36.726 46.6309 37.0871 46.9718 37.4166 47.4072ZM41.4023 40.1203L45.5047 45.5422L44.2606 46.4835C43.9626 46.0896 43.6671 45.6991 43.3743 45.3121C43.0883 44.9198 42.8199 44.5578 42.5689 44.2261C42.3248 43.8891 42.1112 43.5996 41.9282 43.3578C41.7468 43.1037 41.6117 42.918 41.5228 42.8005C41.5194 43.2269 41.53 43.6862 41.5546 44.1783C41.5793 44.6705 41.6039 45.1627 41.6285 45.6548C41.66 46.1418 41.6967 46.614 41.7385 47.0714C41.7803 47.5288 41.8228 47.9368 41.8659 48.2955L40.7566 49.1348L36.6542 43.7129L37.8879 42.7794C38.1912 43.1803 38.478 43.5665 38.7482 43.938C39.0201 44.2974 39.2685 44.6257 39.4934 44.9229C39.7182 45.2201 39.9109 45.4818 40.0713 45.7082C40.2386 45.9294 40.3668 46.0987 40.4557 46.2162C40.4243 45.7726 40.3947 45.3169 40.3667 44.849C40.3335 44.3742 40.3081 43.9097 40.2906 43.4557C40.2747 42.9895 40.2685 42.5432 40.2719 42.1167C40.2753 41.6903 40.2927 41.2968 40.3241 40.9361L41.4023 40.1203ZM44.7721 41.8743C44.4113 41.3975 44.164 40.927 44.0303 40.4631C43.9035 39.9939 43.8687 39.5529 43.9259 39.1401C43.9779 38.7204 44.1115 38.3368 44.3267 37.9892C44.5366 37.6347 44.8006 37.3372 45.1185 37.0966C45.8649 36.5319 46.6206 36.3241 47.3857 36.4734C48.1576 36.6175 48.8913 37.1491 49.5868 38.0683C49.6391 38.1374 49.6958 38.2195 49.7569 38.3146C49.8196 38.3975 49.8737 38.4762 49.9191 38.5505L46.3425 41.2567C46.7065 41.6659 47.1148 41.8896 47.5673 41.9275C48.0216 41.9533 48.5079 41.7701 49.0262 41.3779C49.3303 41.1478 49.5859 40.911 49.7928 40.6675C50.0067 40.4187 50.1627 40.2083 50.2608 40.0363L51.2032 40.9371C51.1602 41.024 51.0922 41.1352 50.9992 41.2708C50.9079 41.3942 50.7932 41.5299 50.6551 41.6778C50.5292 41.8274 50.3843 41.9806 50.2203 42.1373C50.0563 42.294 49.8809 42.4429 49.6943 42.5841C49.2175 42.9449 48.7505 43.1896 48.2934 43.318C47.8311 43.4396 47.3918 43.4623 46.9755 43.386C46.554 43.3029 46.1598 43.1338 45.793 42.8788C45.4209 42.6169 45.0806 42.2821 44.7721 41.8743ZM47.9873 38.5613C47.8566 38.3885 47.7095 38.2444 47.5461 38.129C47.3774 38.0066 47.2029 37.9267 47.0225 37.8894C46.8437 37.8399 46.6617 37.8363 46.4764 37.8787C46.2928 37.9089 46.1077 37.9946 45.9211 38.1358C45.7276 38.2823 45.587 38.4484 45.4994 38.6342C45.4066 38.8132 45.3527 39.0006 45.338 39.1965C45.3301 39.3872 45.3561 39.5795 45.4158 39.7734C45.4756 39.9673 45.5552 40.1515 45.6548 40.3262L47.9873 38.5613ZM51.6011 35.3379C51.8 35.6439 52.0094 35.9637 52.2292 36.2973C52.4438 36.624 52.6618 36.9481 52.8833 37.2695C53.1048 37.591 53.3184 37.9021 53.5242 38.2028C53.7301 38.5035 53.9236 38.7809 54.105 39.035L52.892 39.9527C52.6026 39.5414 52.2965 39.0937 51.9738 38.6098C51.6458 38.1189 51.3187 37.6219 50.9924 37.1189C50.6679 36.6038 50.3511 36.099 50.0422 35.6045C49.7333 35.1101 49.454 34.6476 49.2043 34.2171L50.2929 33.3934C50.8745 33.6163 51.5171 33.9126 52.2206 34.2823C52.919 34.6451 53.7086 35.0638 54.5894 35.5385C54.3754 34.5375 54.1853 33.6326 54.0189 32.8239C53.8473 32.0082 53.7387 31.3404 53.6932 30.8206L54.7921 29.9892C55.1386 30.3465 55.5077 30.741 55.8995 31.1727C56.2983 31.5992 56.6979 32.0412 57.0985 32.4988C57.4939 32.9496 57.8832 33.3995 58.2665 33.8485C58.6445 34.2906 58.992 34.7069 59.3092 35.0973L58.0651 36.0386C57.6225 35.4823 57.1564 34.9166 56.6669 34.3415C56.1791 33.7542 55.6896 33.1791 55.1984 32.6161C55.2516 32.9019 55.3128 33.2197 55.3819 33.5695C55.4579 33.9141 55.5365 34.2622 55.6177 34.6137C55.6989 34.9652 55.7784 35.3073 55.856 35.6397C55.9285 35.9653 55.9938 36.2527 56.0521 36.5021L55.1191 37.2081C54.8949 37.0842 54.63 36.9423 54.3242 36.7824C54.0254 36.6173 53.7179 36.4478 53.4017 36.2741C53.0855 36.1004 52.7711 35.9362 52.4584 35.7815C52.1474 35.6147 51.8617 35.4668 51.6011 35.3379Z" fill="white"/>
</svg>
