<svg width="26" height="26" viewBox="0 0 26 26" fill="none" xmlns="http://www.w3.org/2000/svg">
<path d="M0.410645 25.8492L2.17403 19.5862C1.04007 17.6598 0.443032 15.4679 0.443032 13.2163C0.443032 6.2834 6.08336 0.643066 13.0163 0.643066C19.9492 0.643066 25.5894 6.2834 25.5894 13.2163C25.5894 20.1492 19.9492 25.7895 13.0163 25.7895C10.856 25.7895 8.74072 25.2366 6.86943 24.1866L0.410645 25.8492ZM7.19962 21.8992L7.58448 22.1342C9.21603 23.1302 11.0943 23.6567 13.0163 23.6567C18.7731 23.6567 23.4566 18.9731 23.4566 13.2163C23.4566 7.45946 18.7731 2.7759 13.0163 2.7759C7.25942 2.7759 2.57587 7.45946 2.57587 13.2163C2.57587 15.2222 3.14597 17.1701 4.2244 18.8494L4.48357 19.253L3.46811 22.8597L7.19962 21.8992Z" fill="white"/>
<path d="M9.48421 7.36431L8.66836 7.31984C8.4121 7.30586 8.16074 7.39148 7.96705 7.55974C7.57153 7.90321 6.9391 8.56723 6.74485 9.43253C6.45518 10.7227 6.90284 12.3026 8.06145 13.8825C9.22005 15.4624 11.3792 17.9902 15.1972 19.0698C16.4275 19.4177 17.3954 19.1831 18.1421 18.7055C18.7335 18.3272 19.1412 17.7199 19.2882 17.0335L19.4184 16.4251C19.4598 16.2317 19.3616 16.0355 19.182 15.9527L16.4247 14.6818C16.2457 14.5993 16.0334 14.6514 15.9131 14.8074L14.8306 16.2107C14.7488 16.3167 14.6089 16.3587 14.4825 16.3143C13.7412 16.0538 11.2581 15.0138 9.89561 12.3894C9.83652 12.2755 9.85121 12.1374 9.93503 12.0403L10.9695 10.8435C11.0752 10.7213 11.1019 10.5495 11.0384 10.401L9.84987 7.62033C9.7866 7.4723 9.6448 7.37308 9.48421 7.36431Z" fill="white"/>
</svg>
