<svg width="11" height="15" viewBox="0 0 11 15" fill="none" xmlns="http://www.w3.org/2000/svg">
<path d="M5.06397 0C3.74132 0 2.47284 0.526784 1.53759 1.46447C0.602325 2.40215 0.0769043 3.67392 0.0769043 5C0.0769043 7.76 5.06397 15 5.06397 15C5.06397 15 10.051 7.76 10.051 5C10.051 3.67392 9.52562 2.40215 8.59035 1.46447C7.6551 0.526784 6.38662 0 5.06397 0ZM5.06397 7C4.66943 7 4.28375 6.8827 3.9557 6.66294C3.62765 6.44318 3.37198 6.13082 3.22099 5.76537C3.07001 5.39991 3.0305 4.99778 3.10747 4.60982C3.18444 4.22186 3.37443 3.86549 3.65342 3.58579C3.93239 3.30608 4.28784 3.1156 4.6748 3.03843C5.06175 2.96126 5.46284 3.00087 5.82736 3.15224C6.19186 3.30362 6.50342 3.55996 6.72261 3.88886C6.9418 4.21776 7.05879 4.60444 7.05879 5C7.05879 5.53043 6.84863 6.03914 6.47452 6.41421C6.10042 6.78929 5.59303 7 5.06397 7Z" fill="white"/>
</svg>
