<svg width="10" height="15" viewBox="0 0 10 15" fill="none" xmlns="http://www.w3.org/2000/svg">
<path d="M5 0C3.674 0 2.40199 0.5268 1.46399 1.4645C0.526989 2.4021 0 3.6739 0 5C0 7.76 5 15 5 15C5 15 10 7.76 10 5C10 3.6739 9.47301 2.4021 8.53601 1.4645C7.59801 0.5268 6.326 0 5 0ZM5 7C4.604 7 4.21798 6.8827 3.88898 6.6629C3.55998 6.4432 3.30398 6.1308 3.15198 5.7654C3.00098 5.3999 2.96102 4.9978 3.03802 4.6098C3.11602 4.2219 3.306 3.8655 3.586 3.5858C3.865 3.3061 4.22199 3.1156 4.60999 3.0384C4.99799 2.9613 5.40001 3.0009 5.76501 3.1522C6.13101 3.3036 6.44303 3.56 6.66302 3.8889C6.88302 4.2178 7 4.6044 7 5C7 5.5304 6.789 6.0391 6.414 6.4142C6.039 6.7893 5.53 7 5 7Z" fill="#009B9D"/>
</svg>
