<svg width="10" height="17" viewBox="0 0 10 17" fill="none" xmlns="http://www.w3.org/2000/svg">
<path d="M4.77404 13.8447C3.92928 13.859 3.24885 14.5394 3.2346 15.3842C3.23332 15.4101 3.23332 15.4372 3.2346 15.4631C3.26437 16.313 3.97585 16.9779 4.82577 16.9494H4.77404C5.62784 16.9352 6.31348 16.2392 6.31348 15.3842C6.29274 14.542 5.6162 13.8654 4.77404 13.8447Z" fill="#009C9D"/>
<path d="M5.0712 0.00286985C3.24718 -0.0514627 1.48525 0.667776 0.220076 1.98213C0.0738758 2.1658 -0.00374212 2.39478 0.000138778 2.62896C0.00662715 3.20206 0.461966 3.66904 1.03507 3.68972C1.30157 3.691 1.55899 3.59397 1.75952 3.41806C2.56159 2.58627 3.67019 2.11923 4.82543 2.12445C6.57183 2.12445 7.41271 3.06878 7.41271 4.18132C7.41271 6.56159 3.18254 6.85914 3.18254 9.95094C3.18254 10.7012 3.64824 12.0854 4.61847 12.0854C4.62623 12.0854 4.63526 12.0854 4.64436 12.0854C5.16567 12.0854 5.58869 11.6624 5.58869 11.1411C5.58869 10.7918 5.34292 10.4943 5.34292 10.145C5.34292 7.81645 9.89649 7.49306 10 3.88383C9.99994 1.68463 8.13711 0.00286985 5.0712 0.00286985Z" fill="#009C9D"/>
</svg>
