<svg width="80" height="80" viewBox="0 0 80 80" fill="none" xmlns="http://www.w3.org/2000/svg">
<rect x="2.5" y="2.5" width="75" height="75" fill="#F5F5F5" stroke="#009C9D" stroke-width="5"/>
<path d="M43.493 20.8721H31.5771C30.3484 20.8721 29.3522 21.8297 29.3522 23.0108V39.1987H26.8109C25.5821 39.1987 24.5859 40.1563 24.5859 41.3375C24.5859 42.5186 25.5821 43.4762 26.8109 43.4762H29.3522V48.3621H26.8109C25.5821 48.3621 24.5859 49.3197 24.5859 50.5009C24.5859 51.682 25.5821 52.6396 26.8109 52.6396H29.3522V57.3734C29.3522 58.5545 30.3484 59.5121 31.5771 59.5121C32.8059 59.5121 33.8021 58.5545 33.8021 57.3734V52.6396H43.493C44.7217 52.6396 45.7179 51.682 45.7179 50.5009C45.7179 49.3197 44.7217 48.3621 43.493 48.3621H33.8021V43.4762H43.493C49.9762 43.4762 55.2506 38.4061 55.2506 32.1741C55.2504 25.7881 49.8389 20.8721 43.493 20.8721ZM43.493 39.1987H33.8021V25.1496H43.493C47.4982 25.1496 50.8007 28.255 50.8007 32.1742C50.8006 36.0476 47.5225 39.1987 43.493 39.1987Z" fill="#009C9D"/>
</svg>
