<svg width="32" height="40" viewBox="0 0 32 40" fill="none" xmlns="http://www.w3.org/2000/svg">
<path d="M19.4927 0.87207H7.57688C6.34812 0.87207 5.35195 1.82966 5.35195 3.01082V19.1987H2.81063C1.58187 19.1987 0.585693 20.1563 0.585693 21.3375C0.585693 22.5186 1.58187 23.4762 2.81063 23.4762H5.35195V28.3621H2.81063C1.58187 28.3621 0.585693 29.3197 0.585693 30.5009C0.585693 31.682 1.58187 32.6396 2.81063 32.6396H5.35195V37.3734C5.35195 38.5545 6.34812 39.5121 7.57688 39.5121C8.80564 39.5121 9.80182 38.5545 9.80182 37.3734V32.6396H19.4927C20.7215 32.6396 21.7177 31.682 21.7177 30.5009C21.7177 29.3197 20.7215 28.3621 19.4927 28.3621H9.80182V23.4762H19.4927C25.9759 23.4762 31.2503 18.4061 31.2503 12.1741C31.2502 5.78805 25.8387 0.87207 19.4927 0.87207ZM19.4927 19.1987H9.80182V5.14957H19.4927C23.4979 5.14957 26.8005 8.25503 26.8005 12.1742C26.8003 16.0476 23.5222 19.1987 19.4927 19.1987Z" fill="#E05222"/>
</svg>
