<svg width="86" height="86" viewBox="0 0 86 86" fill="none" xmlns="http://www.w3.org/2000/svg">
<g clip-path="url(#clip0_456_4776)">
<path d="M43 86C66.7482 86 86 66.7482 86 43C86 19.2518 66.7482 0 43 0C19.2518 0 0 19.2518 0 43C0 66.7482 19.2518 86 43 86Z" fill="#E05222"/>
<path d="M43.0011 7.81862C61.9693 7.81862 77.4011 23.6009 77.4011 42.9999C77.4011 62.399 61.9693 78.1813 43.0011 78.1813C24.0329 78.1813 8.60104 62.399 8.60104 42.9999C8.60104 23.6009 24.0329 7.81862 43.0011 7.81862ZM43.0011 0.000488281C19.2528 0.000488281 0.000976562 19.252 0.000976562 42.9999C0.000976562 66.7479 19.2526 85.9994 43.0009 85.9994C66.7491 85.9994 86.001 66.7479 86.001 42.9999C86.001 19.252 66.7494 0.000488281 43.0011 0.000488281Z" fill="#FC8657"/>
<path d="M34.4554 60.2734V54.3945H31V50.4753H34.4554V46.556H31V42.6367H34.4554V25H45.6853C48.3344 25 50.5804 26.0451 52.4232 28.1354C54.2661 30.2257 55.1875 32.7732 55.1875 35.778C55.1875 38.7828 54.2661 41.3303 52.4232 43.4206C50.5804 45.5109 48.3344 46.556 45.6853 46.556H37.9107V50.4753H44.8214V54.3945H37.9107V60.2734H34.4554ZM37.9107 42.6367H45.6853C47.3554 42.6367 48.7807 41.9672 49.9613 40.6281C51.1419 39.289 51.7321 37.6723 51.7321 35.778C51.7321 33.8837 51.1419 32.267 49.9613 30.9279C48.7807 29.5888 47.3554 28.9193 45.6853 28.9193H37.9107V42.6367Z" fill="#FFF6F2"/>
</g>
<defs>
<clipPath id="clip0_456_4776">
<rect width="86" height="86" fill="white"/>
</clipPath>
</defs>
</svg>