<svg width="27" height="30" viewBox="0 0 27 30" fill="none" xmlns="http://www.w3.org/2000/svg">
<path d="M26.0898 28.0494L18.4643 19.3346C19.9107 17.2939 20.7813 14.6996 20.7813 11.875C20.7813 5.32718 16.12 0 10.3906 0C4.66123 0 0 5.32718 0 11.875C0 18.4229 4.66128 23.7501 10.3907 23.7501C12.8622 23.7501 15.1322 22.755 16.9177 21.1022L24.5432 29.817C24.7568 30.061 25.103 30.061 25.3166 29.817L26.0898 28.9332C26.3034 28.6891 26.3034 28.2934 26.0898 28.0494ZM10.3907 21.2501C5.86719 21.2501 2.18752 17.0447 2.18752 11.875C2.18752 6.70537 5.86719 2.50002 10.3907 2.50002C14.9141 2.50002 18.5938 6.70537 18.5938 11.875C18.5938 17.0447 14.9141 21.2501 10.3907 21.2501Z" fill="#009C9D"/>
</svg>
