<svg width="17" height="27" viewBox="0 0 17 27" fill="none" xmlns="http://www.w3.org/2000/svg">
<path d="M7.59807 18.6809C5.55251 18.4676 3.70737 17.9609 2.12803 16.7196C1.93162 16.5649 1.72853 16.4156 1.55083 16.2436C0.858715 15.5769 0.78924 14.8116 1.33705 14.0249C1.80469 13.3502 2.59032 13.1702 3.40674 13.5582C3.56437 13.6316 3.71398 13.7262 3.85968 13.8262C6.80311 15.8582 10.8475 15.9142 13.8017 13.9182C14.0956 13.6916 14.4083 13.5076 14.7704 13.4142C15.4759 13.2329 16.1332 13.4929 16.5113 14.1129C16.9442 14.8196 16.9389 15.5129 16.4058 16.0609C15.5894 16.9049 14.6061 17.5142 13.5144 17.9396C12.4816 18.3422 11.3499 18.5449 10.2316 18.6782C10.3999 18.8636 10.4801 18.9542 10.5857 19.0609C12.1049 20.5942 13.632 22.1236 15.1472 23.6622C15.6629 24.1876 15.7711 24.8369 15.4865 25.4476C15.1753 26.1142 14.4804 26.5529 13.7977 26.5062C13.3661 26.4756 13.0294 26.2596 12.7288 25.9569C11.5824 24.7969 10.4146 23.6582 9.291 22.4769C8.96361 22.1329 8.80599 22.1982 8.51739 22.4969C7.36428 23.6902 6.19254 24.8649 5.01138 26.0342C4.48228 26.5582 3.85167 26.6529 3.23699 26.3542C2.58498 26.0342 2.16811 25.3662 2.20151 24.6929C2.2229 24.2369 2.44602 23.8902 2.75734 23.5782C4.26182 22.0689 5.76094 20.5556 7.26137 19.0449C7.36027 18.9436 7.45377 18.8369 7.59807 18.6809Z" fill="#009C9D"/>
<path d="M8.84477 13.4253C5.19462 13.412 2.20174 10.372 2.22178 6.69737C2.24315 2.98269 5.23871 -0.00930824 8.92493 2.17612e-05C12.618 0.00936177 15.5827 3.04669 15.5654 6.80002C15.5453 10.4667 12.5324 13.4373 8.84477 13.4253ZM12.1623 6.70536C12.1648 6.27597 12.0822 5.85032 11.9193 5.45289C11.7564 5.05547 11.5164 4.69409 11.2131 4.38953C10.9097 4.08497 10.549 3.84324 10.1518 3.67823C9.75455 3.51322 9.32857 3.42819 8.89828 3.42802C8.46388 3.42761 8.03389 3.51356 7.63316 3.68085C7.23253 3.84815 6.86918 4.09344 6.56465 4.4024C6.26002 4.71136 6.02013 5.07779 5.859 5.4803C5.69786 5.88281 5.6187 6.31332 5.62611 6.7467C5.62662 7.17626 5.71229 7.60152 5.87814 7.99792C6.04408 8.39432 6.28678 8.75402 6.59251 9.05642C6.89834 9.35882 7.26099 9.59782 7.65962 9.75982C8.05834 9.92172 8.48522 10.0034 8.91561 10C9.346 9.99852 9.77188 9.91182 10.1686 9.74512C10.5653 9.57842 10.925 9.33492 11.2269 9.02872C11.5287 8.72252 11.7668 8.35962 11.9273 7.96112C12.088 7.56252 12.1678 7.13622 12.1623 6.7067V6.70536Z" fill="#009C9D"/>
</svg>
