<svg width="51" height="50" viewBox="0 0 51 50" fill="none" xmlns="http://www.w3.org/2000/svg">
<rect x="0.604248" width="50.104" height="50" fill="white"/>
<path fill-rule="evenodd" clip-rule="evenodd" d="M25.2533 11C21.0085 11 20.4758 11.018 18.8079 11.0936C17.1437 11.1692 16.0073 11.4332 15.0128 11.8184C13.97 12.2104 13.0253 12.8246 12.2447 13.6184C11.4491 14.3977 10.8336 15.3408 10.441 16.382C10.055 17.3732 9.7916 18.5072 9.71464 20.168C9.63889 21.8324 9.62085 22.364 9.62085 26.6C9.62085 30.836 9.63889 31.3676 9.71464 33.032C9.7904 34.6928 10.055 35.8268 10.441 36.818C10.8414 37.844 11.3753 38.714 12.2447 39.5816C13.0253 40.3753 13.97 40.9896 15.0128 41.3816C16.0073 41.7656 17.1437 42.0296 18.8079 42.1064C20.4758 42.182 21.0085 42.2 25.2533 42.2C29.4981 42.2 30.0308 42.182 31.6987 42.1064C33.3629 42.0308 34.4993 41.7668 35.4925 41.3816C36.5359 40.9898 37.4811 40.3755 38.2619 39.5816C39.0575 38.8023 39.673 37.8592 40.0656 36.818C40.4504 35.8268 40.715 34.6928 40.792 33.032C40.8677 31.3676 40.8857 30.836 40.8857 26.6C40.8857 22.364 40.8677 21.8324 40.792 20.168C40.7162 18.5072 40.4516 17.3732 40.0644 16.382C39.6722 15.3409 39.0571 14.3978 38.2619 13.6184C37.4811 12.8245 36.5359 12.2102 35.4925 11.8184C34.4993 11.4344 33.3629 11.1704 31.6987 11.0936C30.0308 11.018 29.4981 11 25.2533 11ZM25.2533 13.8104C29.4272 13.8104 29.9214 13.8272 31.57 13.9016C33.0936 13.9712 33.9221 14.2256 34.4728 14.4392C35.2028 14.7224 35.7234 15.0596 36.2706 15.6056C36.8177 16.1516 37.1556 16.6712 37.4394 17.3996C37.6534 17.9492 37.9084 18.7748 37.9781 20.2964C38.0527 21.9404 38.0695 22.4348 38.0695 26.6C38.0695 30.7652 38.0527 31.2584 37.9781 32.9036C37.9084 34.4252 37.6534 35.2508 37.4394 35.8004C37.189 36.478 36.7896 37.091 36.2706 37.5944C35.7662 38.1124 35.1519 38.5109 34.4728 38.7608C33.9221 38.9744 33.0936 39.2288 31.57 39.2984C29.9226 39.3728 29.4272 39.3896 25.2533 39.3896C21.0794 39.3896 20.584 39.3728 18.9366 39.2984C17.4118 39.2288 16.5845 38.9744 16.0338 38.7608C15.3548 38.5109 14.7404 38.1124 14.236 37.5944C13.7171 37.091 13.3177 36.478 13.0672 35.8004C12.8532 35.2508 12.5982 34.4252 12.5285 32.9036C12.4539 31.2596 12.4371 30.7652 12.4371 26.6C12.4371 22.4348 12.4539 21.9416 12.5285 20.2964C12.5982 18.7748 12.8532 17.9492 13.0672 17.3996C13.351 16.6712 13.6889 16.1516 14.236 15.6056C14.7405 15.0876 15.3548 14.6891 16.0338 14.4392C16.5845 14.2256 17.4118 13.9712 18.9366 13.9016C20.584 13.8272 21.0794 13.8104 25.2533 13.8104Z" fill="#009C9D"/>
<path fill-rule="evenodd" clip-rule="evenodd" d="M25.2533 18.2004C23.0208 18.2004 20.8798 19.0854 19.3012 20.6607C17.7227 22.236 16.8358 24.3726 16.8358 26.6004C16.8358 28.8282 17.7227 30.9648 19.3012 32.5401C20.8798 34.1154 23.0208 35.0004 25.2533 35.0004C27.4858 35.0004 29.6267 34.1154 31.2053 32.5401C32.7839 30.9648 33.6707 28.8282 33.6707 26.6004C33.6707 24.3726 32.7839 22.236 31.2053 20.6607C29.6267 19.0854 27.4858 18.2004 25.2533 18.2004ZM25.2533 32.0004C23.8182 32.0004 22.4418 31.4315 21.427 30.4188C20.4122 29.4061 19.8421 28.0326 19.8421 26.6004C19.8421 25.1682 20.4122 23.7947 21.427 22.782C22.4418 21.7693 23.8182 21.2004 25.2533 21.2004C26.6884 21.2004 28.0648 21.7693 29.0796 22.782C30.0944 23.7947 30.6645 25.1682 30.6645 26.6004C30.6645 28.0326 30.0944 29.4061 29.0796 30.4188C28.0648 31.4315 26.6884 32.0004 25.2533 32.0004ZM35.715 18.3204C35.715 18.5725 35.6653 18.8222 35.5686 19.0551C35.4719 19.2881 35.3302 19.4997 35.1515 19.678C34.9728 19.8563 34.7607 19.9977 34.5273 20.0942C34.2938 20.1907 34.0437 20.2404 33.791 20.2404C33.5384 20.2404 33.2881 20.1907 33.0548 20.0942C32.8213 19.9977 32.6092 19.8563 32.4306 19.678C32.2519 19.4997 32.1102 19.2881 32.0135 19.0551C31.9168 18.8222 31.867 18.5725 31.867 18.3204C31.867 17.8112 32.0697 17.3228 32.4306 16.9627C32.7914 16.6027 33.2807 16.4004 33.791 16.4004C34.3013 16.4004 34.7907 16.6027 35.1515 16.9627C35.5122 17.3228 35.715 17.8112 35.715 18.3204Z" fill="#009C9D"/>
</svg>
