<svg width="37" height="22" viewBox="0 0 37 22" fill="none" xmlns="http://www.w3.org/2000/svg">
<g clip-path="url(#clip0)">
<path d="M36.0292 3.48983C36.2812 2.63032 36.0292 2 34.8374 2H30.8893C29.8848 2 29.4258 2.54529 29.1736 3.14418C29.1736 3.14418 27.1664 8.17005 24.3218 11.4288C23.4037 12.3771 22.9843 12.6765 22.4838 12.6765C22.2335 12.6765 21.8698 12.3771 21.8698 11.5176V3.48983C21.8698 2.45841 21.58 2 20.7429 2H14.5391C13.9126 2 13.5345 2.4769 13.5345 2.93161C13.5345 3.90758 14.9567 4.13309 15.1026 6.88355V12.8503C15.1026 14.1571 14.874 14.3956 14.3698 14.3956C13.0322 14.3956 9.77731 9.3512 7.8456 3.57671C7.46934 2.45471 7.08948 2.00185 6.08131 2.00185H2.13507C1.00629 2.00185 0.78125 2.54714 0.78125 3.14603C0.78125 4.22181 2.11886 9.54529 7.01207 16.586C10.2742 21.3937 14.8668 24 19.0507 24C21.5584 24 21.868 23.4214 21.868 22.4233V18.7893C21.868 17.6322 22.1075 17.3993 22.9015 17.3993C23.4847 17.3993 24.4893 17.7024 26.8315 20.0185C29.5067 22.7652 29.9495 23.9982 31.4529 23.9982H35.3991C36.526 23.9982 37.0896 23.4196 36.7655 22.2773C36.4109 21.1405 35.1326 19.4861 33.4368 17.5286C32.515 16.4122 31.1378 15.2107 30.7183 14.61C30.1332 13.8355 30.3025 13.4935 30.7183 12.8059C30.7202 12.8078 35.5287 5.85397 36.0292 3.48983Z" fill="#009C9D"/>
</g>
<defs>
<clipPath id="clip0">
<rect width="36.0751" height="22" fill="white" transform="translate(0.78125)"/>
</clipPath>
</defs>
</svg>
