<svg width="80" height="80" viewBox="0 0 80 80" fill="none" xmlns="http://www.w3.org/2000/svg">
<rect x="2.5" y="2.5" width="75" height="75" fill="white" stroke="#009C9D" stroke-width="5"/>
<path d="M39.6507 50.4673C42.4987 50.4673 44.8078 48.1329 44.8078 45.2539V21.4839C44.8078 18.6045 42.4987 16.2705 39.6507 16.2705C36.8028 16.2705 34.4937 18.6045 34.4937 21.4839V45.2543C34.4937 48.1333 36.8028 50.4673 39.6507 50.4673Z" fill="#009C9D"/>
<path d="M39.6519 53.3057C38.2946 53.3057 36.9616 53.8604 36.0044 54.8322C35.0436 55.7998 34.4949 57.1428 34.4949 58.515C34.4949 59.8872 35.0436 61.2344 36.0044 62.202C36.9616 63.1738 38.2946 63.7285 39.6519 63.7285C41.0093 63.7285 42.3377 63.1738 43.299 62.202C44.2557 61.2344 44.809 59.8872 44.809 58.515C44.809 57.1428 44.2557 55.7998 43.299 54.8322C42.3377 53.8604 41.0093 53.3057 39.6519 53.3057Z" fill="#009C9D"/>
</svg>
