<svg width="11" height="19" viewBox="0 0 11 19" fill="none" xmlns="http://www.w3.org/2000/svg">
<mask id="path-1-inside-1" fill="white">
<path d="M8.65484 9.2858L0.675399 1.21914C0.399542 0.940226 0.399542 0.488037 0.675399 0.209123C0.951339 -0.0697076 1.3986 -0.0697076 1.6745 0.209123L10.1535 8.78079C10.4293 9.05971 10.4293 9.5119 10.1535 9.79081L1.6745 18.3625C1.3938 18.6365 0.946495 18.6287 0.675399 18.3449C0.410969 18.0681 0.410969 17.6292 0.675399 17.3525L8.65484 9.2858Z"/>
</mask>
<path d="M8.65484 9.2858L0.675399 1.21914C0.399542 0.940226 0.399542 0.488037 0.675399 0.209123C0.951339 -0.0697076 1.3986 -0.0697076 1.6745 0.209123L10.1535 8.78079C10.4293 9.05971 10.4293 9.5119 10.1535 9.79081L1.6745 18.3625C1.3938 18.6365 0.946495 18.6287 0.675399 18.3449C0.410969 18.0681 0.410969 17.6292 0.675399 17.3525L8.65484 9.2858Z" fill="white"/>
<path d="M8.65484 9.2858L10.0767 7.8793L11.468 9.2858L10.0767 10.6923L8.65484 9.2858ZM0.675399 1.21914L-0.74648 2.62565L-0.746586 2.62554L0.675399 1.21914ZM0.675399 0.209123L-0.746586 -1.19728L-0.746163 -1.1977L0.675399 0.209123ZM1.6745 0.209123L3.09617 -1.1976L3.09638 -1.19738L1.6745 0.209123ZM10.1535 8.78079L11.5754 7.37429L11.5756 7.3745L10.1535 8.78079ZM10.1535 9.79081L11.5756 11.1971L11.5754 11.1973L10.1535 9.79081ZM1.6745 18.3625L3.09638 19.769L3.08413 19.7814L3.07168 19.7935L1.6745 18.3625ZM0.675399 18.3449L-0.770739 19.7265L-0.770812 19.7264L0.675399 18.3449ZM0.675399 17.3525L-0.770707 15.9709L-0.758702 15.9583L-0.74648 15.946L0.675399 17.3525ZM7.23296 10.6923L-0.74648 2.62565L2.09728 -0.187366L10.0767 7.8793L7.23296 10.6923ZM-0.746586 2.62554C-1.79313 1.5674 -1.79313 -0.139135 -0.746586 -1.19728L2.09738 1.61552C2.59221 1.11521 2.59221 0.313054 2.09738 -0.187259L-0.746586 2.62554ZM-0.746163 -1.1977C0.312417 -2.26737 2.03749 -2.26753 3.09617 -1.1976L0.252829 1.61584C0.759712 2.12811 1.59026 2.12796 2.09696 1.61595L-0.746163 -1.1977ZM3.09638 -1.19738L11.5754 7.37429L8.73161 10.1873L0.252618 1.61563L3.09638 -1.19738ZM11.5756 7.3745C12.6219 8.43262 12.6219 10.139 11.5756 11.1971L8.7314 8.38452C8.23667 8.88481 8.23667 9.6868 8.7314 10.1871L11.5756 7.3745ZM11.5754 11.1973L3.09638 19.769L0.252617 16.956L8.73161 8.38431L11.5754 11.1973ZM3.07168 19.7935C1.99405 20.8457 0.268743 20.8145 -0.770739 19.7265L2.12154 16.9634C1.62425 16.4428 0.793547 16.4274 0.277315 16.9314L3.07168 19.7935ZM-0.770812 19.7264C-1.77357 18.6766 -1.77372 17.0207 -0.770707 15.9709L2.12151 18.7341C2.59566 18.2378 2.59551 17.4595 2.12161 16.9634L-0.770812 19.7264ZM-0.74648 15.946L7.23296 7.8793L10.0767 10.6923L2.09728 18.759L-0.74648 15.946Z" fill="white" mask="url(#path-1-inside-1)"/>
</svg>
