<svg width="160" height="196" viewBox="0 0 160 196" fill="none" xmlns="http://www.w3.org/2000/svg">
<g clip-path="url(#clip0)">
<rect x="66.9387" y="71" width="103.673" height="60" fill="#E05222"/>
<path d="M83.5777 90.1784H76.7952V85.7347H94.7952V90.1784H87.9327V114.905H83.5777V90.1784Z" fill="white"/>
<path d="M111.045 108.575C111.045 111.083 111.118 113.169 111.185 114.899H107.365L107.153 111.686H107.09C105.923 114.035 103.818 115.438 101.573 115.361C98.4251 115.361 95.5726 113.061 95.5726 106.174V93.8105H99.9076V105.286C99.9076 108.789 100.835 111.065 103.128 111.065C105.12 110.994 106.703 108.988 106.693 106.544V93.8166H111.043L111.045 108.575Z" fill="white"/>
<path d="M115.603 114.902C115.675 113.466 115.753 111.141 115.753 108.97V84.1636H120.093V96.7199H120.165C121.39 94.4934 123.478 93.2164 125.665 93.3511C129.878 93.3511 132.875 97.6386 132.845 104.042C132.845 111.622 128.918 115.374 125.038 115.374C122.81 115.511 120.708 114.109 119.598 111.738H119.525L119.313 114.899L115.603 114.902ZM120.103 106.198C120.098 106.621 120.135 107.04 120.21 107.451C120.65 109.625 122.233 111.16 124.06 111.187C126.78 111.187 128.445 108.495 128.445 104.263C128.445 100.527 126.995 97.4916 124.095 97.4916C122.238 97.5682 120.658 99.1668 120.245 101.387C120.16 101.84 120.115 102.306 120.105 102.771L120.103 106.198Z" fill="white"/>
<path d="M139.498 105.858C139.593 109.019 141.763 111.487 144.343 111.371C144.495 111.365 144.648 111.349 144.798 111.322C146.423 111.368 148.04 111.04 149.565 110.354L150.205 114.029C148.285 114.926 146.243 115.37 144.188 115.337C139.708 115.836 135.743 111.79 135.335 106.302C135.295 105.76 135.29 105.215 135.323 104.673C134.925 98.9218 138.408 93.8656 143.103 93.3787C143.313 93.3572 143.52 93.345 143.73 93.3419C149.32 93.3419 151.155 98.9861 151.155 103.614C151.16 104.367 151.113 105.12 151.015 105.864H139.498V105.858ZM147.06 102.122C147.335 99.6384 145.915 97.3507 143.888 97.0139C143.755 96.9924 143.623 96.9771 143.488 96.974C141.258 97.1364 139.508 99.3842 139.488 102.122H147.06Z" fill="white"/>
<path d="M7.53 114.902V102.75L0 85.7347H4.95L7.81 93.2072C8.63 95.3754 9.23 97.0261 9.87 99.0106H9.9325C10.54 97.1517 11.2025 95.3356 12.0225 93.2072L14.8825 85.7347H19.7875L11.87 102.615V114.899L7.53 114.902Z" fill="black"/>
<path d="M35.31 104.162C35.665 109.907 32.1501 114.914 27.4601 115.349C27.1326 115.38 26.805 115.386 26.4801 115.371C21.8951 115.594 18.03 111.218 17.8475 105.601C17.835 105.243 17.84 104.881 17.86 104.523C17.505 98.7901 21.015 93.7891 25.695 93.3542C26.0525 93.3205 26.41 93.3144 26.7675 93.3389C31.32 93.1276 35.1525 97.4763 35.3251 103.053C35.3375 103.424 35.3325 103.794 35.31 104.162ZM22.3475 104.398C22.3475 108.449 23.9675 111.533 26.615 111.533C29.0925 111.533 30.8276 108.553 30.8276 104.293C30.8276 101.001 29.6201 97.2497 26.6575 97.2497C23.5851 97.2344 22.3475 100.867 22.3475 104.398Z" fill="black"/>
<path d="M54.2875 108.575C54.2875 111.083 54.36 113.169 54.4275 114.899H50.6075L50.395 111.686H50.33C49.1625 114.035 47.0575 115.438 44.8125 115.361C41.665 115.361 38.8125 113.061 38.8125 106.174V93.8105H43.1525V105.286C43.1525 108.789 44.08 111.065 46.3725 111.065C48.365 110.994 49.9475 108.988 49.9375 106.544V93.8166H54.2875V108.575Z" fill="black"/>
</g>
<defs>
<clipPath id="clip0">
<rect width="160" height="196" fill="white"/>
</clipPath>
</defs>
</svg>
