<svg width="35" height="57" viewBox="0 0 35 57" fill="none" xmlns="http://www.w3.org/2000/svg">
<path d="M0.843767 15.1625C0.835211 15.3643 0.868033 15.5658 0.940213 15.7545C1.01239 15.9432 1.12241 16.1151 1.26349 16.2597C1.40457 16.4043 1.57374 16.5185 1.76059 16.5953C1.94744 16.6721 2.14803 16.7098 2.35001 16.7063H7.50627C8.36877 16.7063 9.05626 16 9.16876 15.1438C9.73126 11.0437 12.5438 8.05625 17.5563 8.05625C21.8438 8.05625 25.7688 10.2 25.7688 15.3562C25.7688 19.325 23.4313 21.15 19.7375 23.925C15.5313 26.9813 12.2 30.55 12.4375 36.3438L12.4563 37.7C12.4628 38.1101 12.6303 38.5011 12.9227 38.7887C13.215 39.0764 13.6087 39.2375 14.0188 39.2375H19.0875C19.5019 39.2375 19.8993 39.0729 20.1924 38.7799C20.4854 38.4868 20.65 38.0894 20.65 37.675V37.0187C20.65 32.5312 22.3563 31.225 26.9625 27.7312C30.7688 24.8375 34.7375 21.625 34.7375 14.8813C34.7375 5.4375 26.7625 0.875 18.0313 0.875C10.1125 0.875 1.43752 4.5625 0.843767 15.1625ZM10.575 51.1812C10.575 54.5125 13.2313 56.975 16.8875 56.975C20.6938 56.975 23.3125 54.5125 23.3125 51.1812C23.3125 47.7312 20.6875 45.3063 16.8813 45.3063C13.2313 45.3063 10.575 47.7312 10.575 51.1812Z" fill="#00AAEA"/>
</svg>
