<svg width="50" height="65" viewBox="0 0 50 65" fill="none" xmlns="http://www.w3.org/2000/svg">
<path d="M25 0C11.2149 0 0 11.2149 0 25C0 31.6964 4.05702 40.2959 12.0583 50.5584C15.7241 55.2481 19.6939 59.6919 23.9421 63.8612C24.2269 64.1336 24.6059 64.2857 25 64.2857C25.3941 64.2857 25.7731 64.1336 26.0579 63.8612C30.3061 59.6919 34.2759 55.2481 37.9417 50.5584C45.943 40.2959 50 31.6964 50 25C50 11.2149 38.7851 0 25 0ZM25 42.8571C15.1531 42.8571 7.14286 34.8469 7.14286 25C7.14286 15.1531 15.1531 7.14286 25 7.14286C34.8469 7.14286 42.8571 15.1531 42.8571 25C42.8571 34.8469 34.8469 42.8571 25 42.8571Z" fill="#00AAEA"/>
<path d="M37.2541 22.8472L26.0296 12.6432C25.7478 12.387 25.3808 12.2451 25 12.2451C24.6192 12.2451 24.2521 12.387 23.9704 12.6432L12.7459 22.8472C12.4844 23.085 12.3132 23.406 12.2614 23.7556C12.2095 24.1052 12.2802 24.462 12.4615 24.7655C12.6045 24.9965 12.8049 25.1866 13.0432 25.3171C13.2815 25.4476 13.5495 25.5142 13.8212 25.5104H15.3061V35.2043C15.3061 35.6102 15.4674 35.9995 15.7544 36.2866C16.0415 36.5736 16.4308 36.7349 16.8367 36.7349H20.4082C20.8141 36.7349 21.2034 36.5736 21.4905 36.2866C21.7775 35.9995 21.9388 35.6102 21.9388 35.2043V29.592C21.9388 29.1861 22.1 28.7968 22.3871 28.5097C22.6741 28.2227 23.0634 28.0614 23.4694 28.0614H26.5306C26.9366 28.0614 27.3259 28.2227 27.6129 28.5097C27.9 28.7968 28.0612 29.1861 28.0612 29.592V35.2043C28.0612 35.6102 28.2225 35.9995 28.5095 36.2866C28.7966 36.5736 29.1859 36.7349 29.5918 36.7349H33.1633C33.5692 36.7349 33.9585 36.5736 34.2456 36.2866C34.5326 35.9995 34.6939 35.6102 34.6939 35.2043V25.5104H36.1788C36.4505 25.5142 36.7185 25.4476 36.9568 25.3171C37.1951 25.1866 37.3955 24.9965 37.5385 24.7655C37.7198 24.462 37.7905 24.1052 37.7386 23.7556C37.6868 23.406 37.5156 23.085 37.2541 22.8472Z" fill="#00AAEA"/>
</svg>
