<svg width="19" height="27" viewBox="0 0 19 27" fill="none" xmlns="http://www.w3.org/2000/svg">
<path d="M9.5005 11.1473C12.5787 11.1473 15.0741 8.65189 15.0741 5.57365C15.0741 2.49541 12.5787 0 9.5005 0C6.42226 0 3.92685 2.49541 3.92685 5.57365C3.92685 8.65189 6.42226 11.1473 9.5005 11.1473Z" fill="#00AAEA"/>
<path d="M11.8644 11.5264H7.13532C3.20136 11.5264 0 14.7274 0 18.662V24.4467L0.0145678 24.5371L0.413403 24.6617C4.16802 25.8346 7.43056 26.2266 10.1159 26.2266C15.36 26.2266 18.4001 24.7306 18.5885 24.6358L18.9608 24.4467H19V18.662C19.0003 14.7274 15.7996 11.5264 11.8644 11.5264ZM10.6015 22.7523L9.58109 24.2457C9.56717 24.2661 9.54516 24.2781 9.52088 24.2781C9.52023 24.2781 9.51959 24.2781 9.51894 24.2781C9.49498 24.2781 9.472 24.2654 9.45872 24.2444L8.51085 22.7501C8.50275 22.7374 8.49887 22.7222 8.49951 22.706L8.97378 15.4535C8.97637 15.415 9.00777 15.3859 9.04662 15.3859H10.0304C10.069 15.3859 10.1007 15.415 10.1039 15.4535L10.6135 22.7054C10.6154 22.7225 10.6106 22.7384 10.6015 22.7523ZM10.1399 15.1664H8.97022L7.95338 13.0647C7.95338 12.863 8.11654 12.7005 8.31823 12.7005H10.7601C10.9612 12.7005 11.1243 12.863 11.1243 13.0647L10.1399 15.1664Z" fill="#00AAEA"/>
</svg>
