<svg width="80" height="71" viewBox="0 0 80 71" fill="none" xmlns="http://www.w3.org/2000/svg">
<rect width="80" height="71" fill="#AFD200"/>
<ellipse cx="40" cy="35.9863" rx="30" ry="29.1781" fill="white"/>
<g clip-path="url(#clip0_6:3468)">
<path d="M24.9074 38.2722C25.0402 39.6068 25.2607 40.6004 25.5698 41.2524C25.8796 41.905 26.4337 42.2321 27.2289 42.2321C27.3782 42.2321 27.5132 42.2078 27.646 42.1835C27.7788 42.2078 27.9137 42.2321 28.0614 42.2321C28.8583 42.2321 29.4108 41.905 29.7221 41.2524C30.0297 40.6004 30.2517 39.6068 30.3846 38.2722L31.0927 27.9698C31.2255 25.9619 31.2919 24.5203 31.2919 23.6455C31.2919 22.4551 30.97 21.5266 30.3304 20.86C29.686 20.194 28.8434 19.8602 27.7947 19.8602C27.7405 19.8602 27.6991 19.8721 27.6454 19.8742C27.5912 19.8721 27.5498 19.8602 27.494 19.8602C26.448 19.8602 25.6028 20.194 24.961 20.8606C24.3193 21.5271 24 22.4551 24 23.6455C24 24.5198 24.0664 25.9614 24.1992 27.9698L24.9074 38.2722Z" fill="#AFD200"/>
<path d="M27.6683 45.9947C26.6552 45.9947 25.7898 46.3068 25.0737 46.9294C24.357 47.5546 24.0005 48.3105 24.0005 49.1987C24.0005 50.2032 24.3618 50.9917 25.0864 51.5652C25.811 52.1382 26.6557 52.426 27.621 52.426C28.6033 52.426 29.4602 52.1423 30.1933 51.576C30.9259 51.0092 31.2914 50.2182 31.2914 49.1982C31.2914 48.3095 30.9403 47.5536 30.2406 46.9284C29.5415 46.3068 28.684 45.9947 27.6688 45.9947" fill="#AFD200"/>
<path d="M45.9088 45.9947C44.8957 45.9947 44.0297 46.3068 43.3136 46.9304C42.5969 47.5546 42.2405 48.3105 42.2405 49.2003C42.2405 50.2037 42.6028 50.9922 43.3264 51.5657C44.0515 52.1387 44.8967 52.4265 45.862 52.4265C46.8443 52.4265 47.7001 52.1428 48.4333 51.5765C49.1659 51.0097 49.5308 50.2176 49.5308 49.1998C49.5308 48.31 49.1813 47.5541 48.4805 46.9299C47.7804 46.3068 46.925 45.9947 45.9098 45.9947" fill="#AFD200"/>
<path d="M56.2554 23.9163C55.3236 22.5403 53.9917 21.4398 52.2933 20.6425C50.6055 19.853 48.6399 19.452 46.4496 19.452C44.0908 19.452 41.9903 19.9315 40.2111 20.8786C38.4298 21.8268 37.0539 23.0431 36.1205 24.4939C35.1818 25.9521 34.7052 27.4179 34.7052 28.8523C34.7052 29.6185 35.0335 30.3331 35.6769 30.9754C36.3234 31.6207 37.1277 31.9478 38.0675 31.9478C39.6719 31.9478 40.7631 31.0327 41.3198 29.2382C41.8266 27.7538 42.4509 26.6217 43.1739 25.8725C43.8534 25.1656 44.9557 24.8071 46.4496 24.8071C47.7379 24.8071 48.7541 25.1584 49.56 25.8823C50.3543 26.5959 50.7415 27.4479 50.7415 28.4864C50.7459 28.9892 50.6157 29.4844 50.3638 29.9234C50.0948 30.3909 49.7609 30.8202 49.3714 31.1991C48.9587 31.6011 48.2776 32.2056 47.3463 32.9982C46.2615 33.9231 45.3865 34.7328 44.749 35.405C44.0719 36.1215 43.5289 36.9478 43.1447 37.8464C42.742 38.7728 42.5369 39.8806 42.5369 41.1351C42.5369 42.2073 42.8445 43.0376 43.4517 43.6024C44.0526 44.1614 44.8011 44.4466 45.6771 44.4466C47.3522 44.4466 48.4051 43.5569 48.7185 41.8906C48.8774 41.1987 48.9975 40.7146 49.0777 40.4386C49.1505 40.188 49.2551 39.9318 49.39 39.675C49.5207 39.4259 49.729 39.1422 50.0079 38.8327C50.2995 38.5067 50.6927 38.1233 51.1756 37.6955C52.9802 36.1253 54.2542 34.9885 54.9607 34.3163C55.6896 33.6239 56.3244 32.791 56.8493 31.8419C57.3901 30.87 57.6627 29.726 57.6627 28.4425C57.6627 26.8211 57.1899 25.2979 56.2575 23.9168" fill="#AFD200"/>
</g>
<defs>
<clipPath id="clip0_6:3468">
<rect width="34" height="33.0685" fill="white" transform="translate(24 19.452)"/>
</clipPath>
</defs>
</svg>
