<svg xmlns="http://www.w3.org/2000/svg" width="253" height="148" viewBox="0 0 40.21 23.55" shape-rendering="geometricPrecision" text-rendering="geometricPrecision" image-rendering="optimizeQuality" fill-rule="evenodd" clip-rule="evenodd"><path d="M.96 6.39l.71-1.65.61-1.47c.23-.57.45-1.12.66-1.66.19-.49.37-.97.54-1.45h.12c.05.01.09.02.11.03.03 0 .06.01.1.01h.22c.04-.01.07-.01.1-.02.08-.01.15-.02.21-.02.68 1.85 1.48 3.92 2.43 6.23h.48l-.06.55c0 .17.02.35.06.55H7.1c-.12-.15-.33-.25-.64-.29-.3-.05-.64-.07-1.03-.07H2.42c-.45 0-.82.02-1.11.06-.3.04-.51.14-.63.3H.52c.02-.07.03-.16.04-.25.01-.09.02-.19.02-.3 0-.06-.01-.14-.02-.24-.01-.09-.02-.2-.04-.31h.44zm4.08 0c-.19-.6-.41-1.23-.66-1.87l-.9-2.42c-.76 1.87-1.31 3.3-1.65 4.29l.7.03.84.01.91-.01.76-.03zm5.87.92c-.76 0-1.42-.14-1.99-.42A3.01 3.01 0 017.6 5.64c-.31-.55-.47-1.2-.47-1.97 0-.51.09-.98.27-1.42.17-.45.44-.84.79-1.18.36-.34.78-.61 1.28-.79C9.96.09 10.52 0 11.15 0c.69 0 1.28.11 1.77.33.5.22.89.51 1.18.86.28.35.49.74.62 1.17.14.42.2.84.2 1.27 0 .49-.09.97-.28 1.41-.18.45-.45.84-.8 1.18-.35.34-.77.61-1.27.8-.5.2-1.05.29-1.66.29zM8.82 3.97c0 .47.08.91.22 1.32.15.42.39.76.71 1.02.32.26.72.39 1.2.39.5 0 .92-.15 1.26-.45.35-.29.6-.69.77-1.19a5 5 0 00.25-1.62c0-.35-.04-.69-.12-1.02-.08-.32-.21-.63-.39-.9-.17-.28-.4-.5-.68-.66-.27-.17-.6-.25-.96-.25-.47 0-.88.12-1.22.37-.33.24-.58.61-.77 1.11-.18.51-.27 1.13-.27 1.88zM15.64.18l.33.04.44.02h.21l.26-.03.29-.03v3.2c.27-.31.57-.66.89-1.04.28-.33.57-.68.89-1.07.27-.33.56-.69.87-1.09l.21.03.18.03h.29c.05-.01.11-.01.18-.02l.23-.04v.08c-.23.22-.46.46-.71.71-.24.25-.49.51-.75.79-.52.57-.91 1.01-1.18 1.33l2.85 3.95v.13l-.44-.02-.43-.02-.44.02-.43.02-2.21-3.23v3.23l-.38-.02-.38-.02-.38.02-.39.02V.18zm8.92 6.99l-.38-.02-.38-.02-.39.02-.38.02V.91c-.54 0-1.18.04-1.9.14.04-.23.05-.38.05-.44 0-.05-.01-.2-.05-.43h5.26l-.04.17-.02.14v.25l.02.15.04.16c-.82-.1-1.43-.14-1.83-.14v6.26zm5.6.14c-.76 0-1.42-.14-1.98-.42a3.01 3.01 0 01-1.32-1.25c-.32-.55-.47-1.2-.47-1.97 0-.51.09-.98.26-1.42.18-.45.45-.84.8-1.18.35-.34.78-.61 1.27-.79.5-.19 1.06-.28 1.69-.28.68 0 1.28.11 1.77.33.5.22.89.51 1.17.86.29.35.5.74.63 1.17.13.42.2.84.2 1.27 0 .49-.09.97-.28 1.41-.18.45-.45.84-.8 1.18-.35.34-.77.61-1.27.8-.5.2-1.06.29-1.67.29zm-2.08-3.34c0 .47.07.91.22 1.32.15.42.38.76.7 1.02.32.26.73.39 1.21.39.5 0 .92-.15 1.26-.45.34-.29.6-.69.77-1.19.16-.5.25-1.04.25-1.62 0-.35-.04-.69-.12-1.02-.09-.32-.21-.63-.39-.9-.18-.28-.4-.5-.68-.66-.28-.17-.6-.25-.96-.25-.48 0-.88.12-1.22.37-.33.24-.59.61-.77 1.11-.18.51-.27 1.13-.27 1.88zm8.35 3.2l-.39-.02-.38-.02h-.2c-.08.01-.14.02-.18.02l-.38.02V.18h2.51c.71 0 1.25.15 1.62.44.37.29.56.72.56 1.29 0 .57-.13 1.02-.39 1.35-.26.32-.62.55-1.09.68-.47.12-1.03.18-1.68.18v3.05zm0-3.62c.15 0 .28-.01.38-.02.1-.01.2-.03.29-.05.31-.08.54-.25.69-.5.15-.26.22-.55.22-.89 0-.4-.09-.73-.27-.97-.18-.25-.41-.37-.68-.37h-.63v2.8zm-28.96 20c-.55 0-1.08-.05-1.59-.13s-.99-.21-1.46-.38c-.46-.17-.89-.37-1.29-.62a5.9 5.9 0 01-1.08-.84c-.33-.32-.62-.67-.88-1.05-.25-.38-.47-.8-.65-1.24-.08-.23-.16-.46-.23-.69-.06-.23-.12-.46-.16-.7A7.796 7.796 0 010 16.37c0-.55.05-1.06.14-1.56.1-.49.24-.97.42-1.42a6.735 6.735 0 011.62-2.32c.34-.31.71-.58 1.1-.82.4-.24.82-.45 1.27-.62.46-.17.93-.29 1.42-.38.49-.08 1.01-.13 1.54-.13.48 0 .96.04 1.44.11.47.07.94.17 1.4.31a7.25 7.25 0 012.48 1.26c.36.28.68.6.97.97.29.36.54.76.75 1.2.21.44.37.92.48 1.44.11.51.16 1.06.16 1.65 0 .73-.08 1.42-.25 2.07-.16.65-.4 1.26-.73 1.83-.33.57-.72 1.07-1.18 1.51-.46.44-.98.82-1.57 1.14-.59.31-1.22.54-1.89.7-.66.16-1.37.24-2.1.24zm5.68-7.33c0-.33-.01-.64-.03-.92-.02-.28-.04-.54-.07-.76-.04-.23-.08-.47-.15-.7-.06-.24-.14-.47-.24-.71-.1-.25-.21-.48-.34-.71-.13-.22-.28-.43-.44-.63-.16-.21-.34-.4-.53-.57-.19-.18-.39-.34-.61-.48-.22-.14-.45-.27-.69-.38-.24-.11-.5-.2-.77-.28-.26-.08-.53-.14-.79-.18-.27-.04-.53-.05-.79-.05-.43 0-.85.04-1.24.12a5.235 5.235 0 00-2.09.93c-.3.23-.58.5-.82.79-.25.3-.47.63-.65.99-.19.35-.35.74-.47 1.16-.13.42-.23.86-.29 1.32-.06.46-.1.94-.1 1.44 0 .49.04.95.11 1.39.07.43.17.84.3 1.23.14.39.31.74.5 1.07a5.107 5.107 0 002.46 2.12c.34.13.68.23 1.04.3.35.07.71.1 1.08.1.47 0 .92-.05 1.33-.15.42-.1.8-.25 1.16-.46.36-.2.68-.44.98-.71.29-.26.55-.56.77-.9.23-.33.43-.68.6-1.04.17-.37.32-.75.43-1.15.12-.4.2-.78.26-1.14.06-.37.09-.71.09-1.04zm15.33 4.87l-.11 1.27v.02l-.01.01c-.2.13-.41.25-.63.36-.23.11-.47.21-.72.3-.23.08-.47.15-.72.21s-.51.11-.77.16c-.27.04-.54.07-.81.09-.27.03-.55.04-.83.04-.55 0-1.07-.04-1.57-.13-.5-.08-.97-.21-1.41-.37-.44-.17-.85-.38-1.22-.62a5.19 5.19 0 01-1.02-.84h-.01c-.3-.31-.57-.67-.81-1.05a6.45 6.45 0 01-.6-1.27c-.17-.45-.29-.93-.37-1.43a9.75 9.75 0 01-.13-1.56c0-.74.09-1.43.25-2.07.17-.64.42-1.23.76-1.77.33-.54.72-1.02 1.18-1.43.46-.41.98-.76 1.57-1.04.58-.28 1.2-.49 1.85-.63.65-.15 1.33-.22 2.04-.22.25 0 .49.01.74.03.25.02.5.04.75.07.25.04.5.08.75.13.24.05.49.12.73.19s.48.15.71.24c.23.08.45.18.67.28l.03.01-.02.03c-.08.2-.15.44-.22.69-.07.26-.14.54-.2.85v.02h-.02l-.14.03-.02.01-.01-.02c-.08-.1-.18-.21-.3-.32-.13-.12-.27-.23-.44-.36-.17-.13-.36-.25-.59-.37a8.69 8.69 0 00-.74-.35 4.532 4.532 0 00-1.76-.33c-.59 0-1.14.07-1.64.21-.5.14-.95.36-1.37.64-.41.29-.77.63-1.09 1.02-.31.39-.57.84-.78 1.34-.22.5-.38 1.01-.48 1.55a8.13 8.13 0 00-.16 1.66c0 .63.06 1.22.17 1.77.11.56.28 1.07.51 1.55.22.48.49.91.81 1.28a4.974 4.974 0 002.4 1.53c.47.13.96.2 1.48.2.33 0 .66-.03.97-.08.31-.05.62-.12.91-.22.29-.1.56-.21.8-.32.24-.11.46-.23.65-.35.2-.12.37-.24.53-.35.15-.11.29-.22.41-.32l.06-.04-.01.07zm7.5-10.63V23.3h-.03c-.16-.02-.31-.03-.46-.04-.14-.01-.29-.02-.42-.02-.3 0-.6.02-.9.06l-.03.01V10.46a47.372 47.372 0 00-4.39.23l-.04.01.01-.04.04-.33.02-.27-.01-.19-.02-.16-.03-.26v-.03h10.49v.03l-.04.37-.02.24.02.25.04.35v.04h-.04l-1.95-.17c-.25 0-.53-.01-.83-.02-.37-.02-.68-.03-.92-.04-.21-.01-.38-.01-.49-.01z" fill="#00a4a7" fill-rule="nonzero"/></svg>