<svg xmlns="http://www.w3.org/2000/svg" width="992.511" height="273.782" viewBox="0 0 25300.58 6979.11" shape-rendering="geometricPrecision" text-rendering="geometricPrecision" image-rendering="optimizeQuality" fill-rule="evenodd" clip-rule="evenodd"><defs><style>.fil1{fill:#e84e28}.fil0{fill:#00a4a7}</style></defs><g id="Слой_x0020_1"><g id="_1338164812496"><path class="fil0" d="M2290.18 4793.27c-238.06 8.03-458.5 15.48-662.75 22.38-190.03 6.4-367.52 12.39-533.29 18.02v-1135.6c165.77-43.77 343.28-90.62 533.29-140.76 204.27-53.92 424.69-112.09 662.75-174.91v1410.87z"/><path class="fil1" d="M2345.09 6079.29c-153.36-25.54-299.37-49.9-438.45-73.1-132.59-22.1-259.32-43.27-380.41-63.43v-770.03c121.09 2.81 247.84 5.76 380.41 8.84 139.1 3.24 285.09 6.66 438.45 10.23v887.49z"/><path class="fil0" d="M1657.2 6979.11c-102.71-36.95-201.55-72.54-296.87-106.86-91.81-33.05-180.62-64.99-266.19-95.83v-595.67c85.57 20.48 174.39 41.73 266.19 63.69 95.32 22.8 194.16 46.46 296.87 71.03v663.63z"/><path class="fil1" d="M1372.67 3384.88c-135.28 20.69-277.22 42.43-426.25 65.21-156.71 23.98-322.18 49.31-496.34 75.91 0-170.08.16-340.59.16-511.07v-512.27c174 .64 339.47 1.19 496.18 1.73 149.04.52 290.97 1.02 426.25 1.49v878.99z"/><path class="fil0" d="M733.94 2174.69c-111.65-6.57-227.12-13.39-346.71-20.46-124.34-7.33-253.43-14.97-387.23-22.88v-737.11c133.81 22.15 262.89 43.49 387.23 64.02 119.61 19.77 235.06 38.86 346.71 57.3v659.14z"/><path class="fil1" d="M1163.31 1251.33c-74.96-17.81-152-36.13-230.94-54.89-81.02-19.25-164.42-39.06-249.88-59.37V622.63c85.46 27.29 168.85 53.91 249.88 79.76 78.94 25.21 155.98 49.79 230.94 73.74v475.2z"/><path class="fil0" d="M1525.82 483.79c-50.25-19.77-101.39-39.93-153.3-60.35-52.93-20.85-106.76-42.07-161.75-63.71V0c54.98 25.05 108.79 49.69 161.59 73.76 52.02 23.71 103.2 46.97 153.45 69.89v340.14z"/><path d="M3659.83 3468.03l294.36-691.35 257.29-618.66c98.36-238.07 190.31-470.41 275.12-695.64 81.27-205.27 156.81-407.69 228.09-608.68h52.04c19.24 5 34.92 7.85 45.61 9.98 11.4 2.14 25.66 4.28 42.76 5.7 17.82 1.43 30.65 2.13 39.19 2.13h49.91c17.8-4.27 32.06-7.12 41.33-8.55 33.5-5.7 64.15-9.27 91.94-9.27 281.53 773.33 620.09 1645 1014.94 2614.32h204.56l-24.95 226.64c0 70.56 8.56 147.55 24.95 230.94h-64.85c-49.91-62.73-138.28-102.65-265.87-121.89-127.58-18.54-271.55-27.8-433.34-27.8H4269.94c-189.6 0-344.97 8.56-466.84 24.95-121.87 16.39-210.26 58.43-264.42 124.73h-64.87c7.13-30.65 12.83-64.86 17.11-104.06 4.28-38.49 6.42-81.25 6.42-126.88 0-24.93-2.14-57.72-6.42-97.63-4.28-40.63-9.98-83.41-17.11-129.02h186.03zm1710.57 0c-82.68-253.73-175.34-516.03-277.98-787.58l-377.74-1014.22c-319.31 782.59-549.53 1382.72-691.37 1799.67l292.24 10.69 352.81 8.55 382.02-8.55 320.02-8.57zm1033.46-660.7c0-167.51 24.95-320.02 75.56-457.59 49.89-138.26 122.58-256.58 218.81-355.64 96.21-99.07 210.97-175.33 343.54-228.8 133.28-53.45 280.1-80.53 439.74-80.53 214.54 0 404.84 41.33 570.2 123.3 166.07 81.95 295.07 200.99 387.02 356.36 91.94 155.39 137.55 338.55 137.55 548.81 0 215.95-44.91 409.83-135.42 580.88-90.52 171.77-218.81 305.76-383.46 401.98-165.36 96.21-357.07 143.97-575.9 143.97-208.82 0-394.84-42.05-558.78-126.15-163.21-84.82-290.79-205.27-382.02-362.09-91.23-156.79-136.86-338.53-136.86-544.52zm632.91-11.41c0 112.62 12.83 234.49 37.78 364.93 24.94 130.41 70.56 244.47 136.85 341.39 66.28 96.93 156.09 145.41 270.12 145.41 151.83 0 266.57-101.21 344.98-303.63 77.69-202.41 116.89-436.19 116.89-702.76 0-219.51-37.77-401.98-112.61-548.81-75.55-146.11-181.75-219.51-320.02-219.51-162.51 0-282.24 84.09-359.22 253.01-76.26 168.92-114.76 392.01-114.76 669.98zm1878.09-1068.4c45.61 5.7 96.21 10.69 151.1 14.26 54.87 4.27 102.63 6.42 143.26 6.42 91.23 0 190.29-7.13 295.78-20.68v910.88l37.78 4.27c36.35-36.33 78.41-79.82 127.58-131.85 33.5-34.93 74.84-79.82 125.43-135.42l258.74-292.92 310.03-354.96 47.76 4.27 46.32 6.43 49.91 4.27 39.91 1.44 39.2-1.44 48.45-4.27 43.49-6.43 48.46-4.27v24.94c-22.09 29.23-48.46 61.3-79.11 96.22-19.95 22.09-49.17 54.18-87.67 95.52l-203.14 204.54-189.6 187.46-158.93 173.19 346.39 541.68c57.72 90.52 105.48 168.2 144.68 233.05 51.32 84.82 97.65 163.23 139.71 235.92 33.48 57.02 78.39 136.85 135.4 239.49v29.21l-164.64-6.4-161.08-6.43c-44.91 0-99.78 2.86-165.36 8.56l-158.94 7.83c-191.02-353.5-357.79-637.18-501.76-851.72-36.36-58.44-75.55-103.34-119.04-135.42v983.57l-152.52-6.4-143.27-6.43h-60.58c-36.35 4.28-64.87 7.13-85.53 8.56l-148.25 7.83v-2064.8zm3100.4 248.03v1813.2h-60.58c-36.34-3.56-64.86-5.69-85.52-6.4l-148.97-6.43-148.25 6.43c-57.74 4.27-106.21 6.4-146.82 6.4v-1813.2H11150c-30.65 0-55.6.71-74.84 2.15-19.24 1.42-71.28 7.13-154.66 16.39l-149.68 14.96 10.69-70.56 9.97-73.41c0-20.68-3.55-44.19-9.97-69.85l-10.69-67.71h1903.01c0 14.96-4.28 38.5-12.82 69.85l-9.98 67.71 9.98 71.28c2.84 12.82 5.69 25.66 8.55 40.63 2.86 14.24 4.28 24.93 4.28 32.06l-150.39-14.96-230.92-18.54h-277.26zm668.54 831.77c0-167.51 24.95-320.02 75.56-457.59 49.89-138.26 122.58-256.58 218.81-355.64 96.21-99.07 210.97-175.33 343.53-228.8 133.28-53.45 280.11-80.53 439.75-80.53 214.53 0 404.84 41.33 570.2 123.3 166.06 81.95 295.07 200.99 387.02 356.36 91.93 155.39 137.55 338.55 137.55 548.81 0 215.95-44.91 409.83-135.42 580.88-90.52 171.77-218.81 305.76-383.46 401.98-165.36 96.21-357.07 143.97-575.9 143.97-208.83 0-394.84-42.05-558.78-126.15-163.22-84.82-290.8-205.27-382.03-362.09-91.22-156.79-136.85-338.53-136.85-544.52zm632.91-11.41c0 112.62 12.84 234.49 37.78 364.93 24.95 130.41 70.56 244.47 136.86 341.39 66.28 96.93 156.08 145.41 270.12 145.41 151.82 0 266.57-101.21 344.98-303.63 77.69-202.41 116.89-436.19 116.89-702.76 0-219.51-37.78-401.98-112.62-548.81-75.54-146.11-181.74-219.51-320.01-219.51-162.51 0-282.25 84.09-359.22 253.01-76.27 168.92-114.77 392.01-114.77 669.98zm1878.1-1068.4l75.54 4.27 72.69 6.43 77.69 4.27 60.58 1.44 60.58-1.44 75.55-4.27 68.42-6.43 77.69-4.27v371.34c48.45-127.58 124.01-228.08 225.22-302.9 101.92-74.13 220.95-111.19 357.09-111.19 150.39 0 280.1 27.79 387.73 82.67 107.63 54.87 195.29 130.43 263 225.94 67.71 95.5 116.9 205.99 148.25 331.42 31.36 124.73 47.05 258.73 47.05 401.27 0 246.62-39.2 453.31-118.32 619.38-78.41 166.77-183.16 290.79-313.6 372.03-130.44 81.97-270.85 122.6-423.36 122.6-236.63 0-420.52-102.63-551.67-307.9v1351.36c-51.31-6.42-103.34-12.11-155.38-15.68-52.04-4.28-99.06-6.43-140.4-6.43-36.35 0-80.55 2.15-132.58 6.43-52.02 4.27-106.19 9.96-161.77 17.09V1727.52zm1364.18 1045.59c0-543.1-124.02-814.66-371.35-814.66-161.79 0-270.85 87.67-328.57 263-57.73 174.63-86.95 366.35-86.95 574.47 0 511.04 130.41 766.19 390.57 766.19 133.29-15.68 233.07-92.65 297.94-231.63 65.56-138.28 98.36-324.29 98.36-557.36zm3036.83 1079.79c-317.18 0-594.47-59.19-831.76-178.18-237.3-118.97-421.95-293.64-553.09-523.15-131.86-229.51-197.42-505.33-197.42-826.77 0-210.97 37.06-410.54 111.89-596.55 74.13-186.75 185.38-351.44 333.57-493.95 148.2-142.49 326.49-253.06 533.85-330.7 207.36-77.65 442.6-116.89 705.61-116.89 287.94 0 535.97 46.32 744.09 138.99 208.13 92.65 372.05 212.38 491.8 359.92 119.74 147.53 207.45 310.09 263 488.23 55.53 178.13 83.39 356.36 83.39 534.56 0 207.41-39.21 404.84-116.89 593-77.69 187.45-190.36 352.86-336.41 494.63-146.07 141.79-323.59 253.02-533.14 334.99-209.55 81.26-441.89 121.87-698.48 121.87zm-872.39-1402.66c0 196 30.69 381.36 92.66 555.23 61.96 173.86 160.36 315.73 294.37 426.21 134.71 109.76 302.9 164.64 506.75 164.64 206.69 0 382.74-62.71 526.71-188.16 143.97-124.73 251.6-292.22 321.44-501.77 70.56-209.53 105.49-436.2 105.49-679.24 0-144.67-17.15-286.56-51.31-424.09-34.15-137.5-87.66-264.42-161.79-380.6-73.42-116.16-168.21-208.82-284.38-276.53-116.89-68.42-250.87-102.63-404.12-102.63-197.42 0-368.48 51.3-511.75 154.66-137.54 98.35-244.47 253.73-320.02 465.41-76.26 211.68-114.03 473.97-114.03 786.87zm4490.96-133.99h-98.35c-14.97-124.74-62.02-230.23-139.7-315.04-77.69-85.53-178.19-128.28-300.77-128.28-122.6 0-223.09 44.9-300.78 134.71-78.41 90.52-134.76 200.32-169.63 330.7-34.88 130.38-52.04 258.73-52.04 384.17 0 176.04 21.39 325.73 64.87 449.03 42.76 124.03 113.32 219.52 210.25 287.95 96.23 68.42 220.25 102.63 370.63 102.63 42.05 0 82.68-4.28 123.29-12.82 39.92-8.55 81.97-22.81 125.45-42.78 84.81-37.04 151.81-86.95 200.27-149.66l73.41 60.58-106.91 254.44c-51.32 49.17-137.56 89.1-258.73 121.18-121.16 31.35-226.64 47.03-315.74 47.03-223.09 0-418.38-39.92-585.86-120.45-168.22-79.82-298.68-197.47-392.72-352.81-94.04-155.33-141.14-343.54-141.14-563.77 0-172.49 26.37-327.86 79.12-464.71 53.46-137.55 128.29-254.44 224.51-350.67 96.94-96.21 215.96-170.34 356.36-223.79 141.13-52.74 295.79-79.11 464-79.11 61.3 0 126.15 4.27 194.57 12.82 67.71 7.83 134 19.96 198.14 34.93 126.88 27.79 240.2 74.83 340.69 139.69l-163.22 444.04zm1427.62-340.7v1813.2h-60.58c-36.34-3.56-64.86-5.69-85.52-6.4l-148.97-6.43-148.25 6.43c-57.74 4.27-106.21 6.4-146.82 6.4v-1813.2h-275.12c-30.64 0-55.65.76-74.84 2.15-19.2 1.37-71.28 7.13-154.66 16.39l-149.68 14.96 10.69-70.56 9.97-73.41c0-20.68-3.56-44.19-9.97-69.85l-10.69-67.71h1903.01c0 14.96-4.28 38.5-12.82 69.85l-9.98 67.71 9.98 71.28c2.84 12.82 5.69 25.66 8.55 40.63 2.86 14.24 4.28 24.93 4.28 32.06l-150.39-14.96-230.93-18.54h-277.25z" fill="#00a4a7" fill-rule="nonzero"/><path d="M4282.38 6282.69h-107.54l-15.7-151.02h-486.86v-845.71h152.22v705.57h217.46v-705.57h152.24v705.57h88.19v291.17zm96.45-996.74h422.84v140.16h-270.63v207.8h245.25v140.13h-245.25v217.47h275.45v140.14h-427.67v-845.71zm928.83 488.1h-230.75v357.62h-152.22v-845.71h152.22v347.96h230.75v-347.96h152.24v845.71h-152.24v-357.62zm794.78-347.93h-199.36v705.55h-152.21v-705.55h-200.55v-140.16h552.12v140.16zm90.4-131.7c28.99-6.45 60.79-11.47 95.43-15.1 34.65-3.61 69.26-5.43 103.9-5.43 37.04 0 73.5 3.42 109.33 10.28 35.85 6.84 67.88 20.34 96.05 40.46 28.19 20.15 51.14 48.54 68.87 85.19 17.72 36.65 26.59 84.36 26.59 143.17 0 53.13-7.47 98.25-22.35 135.29-14.9 37.06-34.84 67.27-59.8 90.61-24.97 23.37-53.77 40.29-86.39 50.76-32.61 10.44-66.26 15.69-100.87 15.69h-15.7c-7.25 0-14.91-.19-22.96-.61-8.04-.39-15.9-.99-23.57-1.79-7.66-.83-13.08-1.63-16.31-2.43v291.17h-152.21v-837.25zm152.21 409.56c4.85 1.63 13.89 3.03 27.2 4.25 13.29 1.21 22.35 1.82 27.18 1.82 17.72 0 34.64-2.43 50.74-7.25 16.12-4.85 30.4-13.08 42.88-24.77 12.49-11.69 22.35-27.79 29.6-48.34 7.27-20.53 10.89-46.5 10.89-77.91 0-26.59-3.42-49.14-10.28-67.65-6.84-18.53-16.1-33.24-27.79-44.1-11.68-10.89-25.16-18.74-40.46-23.57-15.32-4.82-31.42-7.25-48.34-7.25-24.97 0-45.5 2.01-61.62 6.04v288.73zm1006.19-277.85h-128.07c-5.62 153.02-13.28 280.89-22.95 383.57-9.65 102.69-28.2 181.03-55.56 235-9.67 19.32-20.75 35.22-33.24 47.71-12.48 12.48-24.96 22.15-37.45 28.99-12.49 6.86-25.17 11.69-38.06 14.49-12.87 2.84-24.56 4.25-35.03 4.25-16.92 0-31.8-1.41-44.7-4.25-12.89-2.8-24.96-7.02-36.24-12.68l16.92-137.71c14.5 5.62 28.99 5.82 43.49.61 14.49-5.24 26.57-18.33 36.24-39.27 9.67-17.73 18.13-43.71 25.39-77.94 7.25-34.22 13.48-78.32 18.71-132.28 5.24-53.96 9.26-118 12.07-192.08 2.84-74.11 5.05-160.29 6.67-258.56h424.06v845.71h-152.24v-705.55zm288.55-140.16h422.84v140.16h-270.64v207.8h245.25v140.13h-245.25v217.47h275.45v140.14h-427.66v-845.71zm684.79 0v277.88c0 49.94 7.25 85.57 21.75 106.92 14.5 21.34 38.26 32.03 71.3 32.03 23.34 0 45.31-3.63 65.84-10.89 20.53-7.25 36.84-17.72 48.91-31.41v-374.53h152.24v845.71h-152.24v-340.69c-16.1 11.27-38.44 21.94-67.05 32-28.59 10.09-62.21 15.1-100.87 15.1-26.59 0-51.55-3.81-74.9-11.47-23.37-7.66-43.71-20.15-61.02-37.45-17.31-17.3-31-40.26-41.09-68.87-10.06-28.59-15.11-64.24-15.11-106.93v-327.4h152.24zm495.16 0h422.84v140.16h-270.64v207.8h245.25v140.13h-245.25v217.47h275.45v140.14h-427.66v-845.71zm928.83 488.1h-230.76v357.62H9365.6v-845.71h152.21v347.96h230.76v-347.96h152.24v845.71h-152.24v-357.62zm687.23-93.03l12.07-119.61h-6.03l-45.92 128.07-240.4 442.19h-119.6v-845.71h152.22v442.19l-13.29 123.25h6.03l48.34-131.7 240.43-433.73h118.39v845.71h-152.24v-450.65zm765.77 450.65h-152.24v-337.08l-65.24 22.95-134.1 314.13h-175.2l137.75-287.53 60.41-48.34c-42.69-12.07-78.14-38.44-106.33-79.12-28.19-40.68-42.28-97.67-42.28-170.95 0-51.56 7.25-94.64 21.75-129.29 14.5-34.64 35.03-62.42 61.59-83.36 26.6-20.95 58.4-36.05 95.47-45.31 37.04-9.26 77.71-13.89 122-13.89 10.47 0 23.57.41 39.27 1.21 15.71.8 31.61 2.01 47.73 3.61 16.1 1.63 32.01 3.83 47.71 6.64 15.7 2.84 29.6 5.85 41.7 9.07v837.25zm-152.24-711.61c-7.25-2.4-14.5-4.02-21.75-4.82-7.25-.81-16.12-1.21-26.59-1.21-16.1 0-31.4 2.23-45.89 6.64-14.5 4.44-26.99 12.1-37.46 22.96-10.47 10.89-18.74 25.18-24.77 42.9-6.04 17.7-9.07 39.86-9.07 66.45 0 50.74 11.08 87.17 33.23 109.32 22.14 22.16 50.94 33.21 86.37 33.21h45.92v-275.45zm907.11 6.06h-219.89v705.55h-152.22v-845.71h524.32v845.71h-152.22v-705.55zm267.99 282.71c0-143.36 24.59-252.5 73.69-327.4 49.14-74.91 124.05-112.36 224.72-112.36 52.36 0 97.47 10.25 135.32 30.81 37.86 20.53 68.87 49.94 93.04 88.19 24.14 38.25 42.08 84.55 53.74 138.93 11.69 54.37 17.53 114.97 17.53 181.83 0 143.36-25.17 252.49-75.52 327.4-50.32 74.9-125.04 112.36-224.11 112.36-53.15 0-98.47-10.28-135.9-30.81-37.45-20.53-68.26-49.94-92.43-88.19-24.16-38.27-41.88-84.57-53.15-138.95-11.27-54.35-16.93-114.97-16.93-181.8zm159.49 0c0 42.69 2.42 82.35 7.25 119 4.83 36.63 12.89 68.26 24.16 94.83 11.27 26.57 25.58 47.52 42.88 62.84 17.31 15.29 38.87 22.95 64.63 22.95 46.72 0 81.77-23.78 105.11-71.29 23.36-47.52 35.03-123.63 35.03-228.33 0-41.09-2.4-79.95-7.25-116.61-4.82-36.62-12.68-68.45-23.54-95.43-10.88-26.99-25.18-48.32-42.9-64.02-17.72-15.71-39.86-23.57-66.45-23.57-92.63 0-138.92 99.87-138.92 299.63zm618.35 44.69V5630.3h28.99c12.09 0 26.98-.4 44.7-1.21 17.72-.8 31.82-3.23 42.3-7.25 21.75-6.43 40.26-18.53 55.56-36.25 15.3-17.72 22.96-40.68 22.96-68.87 0-39.46-9.46-66.84-28.39-82.15-18.93-15.3-45.3-22.93-79.15-22.93-27.36 0-52.94 4.21-76.7 12.68-23.75 8.46-42.49 17.11-56.19 25.96l-38.66-131.68c8.07-4.83 19.35-10.06 33.85-15.7 14.49-5.63 30.8-10.87 48.91-15.71 18.13-4.83 37.45-8.65 58.01-11.47 20.53-2.83 41.26-4.24 62.2-4.24 30.62 0 60.22 3.03 88.8 9.07 28.61 6.03 53.76 16.92 75.51 32.62 21.75 15.71 39.08 37.24 51.95 64.63 12.9 27.39 19.35 62.42 19.35 105.11 0 41.06-8.68 79.34-25.98 114.79-17.31 35.44-45.31 61.59-83.97 78.51v7.25c41.89 11.27 74.3 33.85 97.26 67.66 22.95 33.82 34.44 79.73 34.44 137.74 0 45.89-7.47 85.35-22.35 118.4-14.9 33.01-35.05 59.99-60.41 80.94-25.38 20.95-54.57 36.24-87.59 45.91-33.04 9.65-67.27 14.5-102.7 14.5-43.49 0-83.34-3.83-119.61-11.49-36.24-7.63-65.23-17.91-86.97-30.81l39.88-135.29c15.29 8.84 36.43 17.31 63.41 25.36 26.98 8.04 58.59 12.09 94.83 12.09 33.04 0 61.62-10.68 85.79-32.02 24.17-21.36 36.25-54.98 36.25-100.89 0-39.46-11.08-69.07-33.21-88.8-22.16-19.73-61.02-30.4-116.61-32-8.84 0-14.89-.21-18.1-.61-3.23-.41-10.09-.61-20.56-.61h-27.78zm971.16-271.84c0 20.95-2.21 41.7-6.65 62.23-4.43 20.53-11.48 39.85-21.14 57.98-9.67 18.13-22.35 34.04-38.06 47.73-15.7 13.68-34.44 24.14-56.19 31.4v7.25c19.35 4.85 37.67 12.1 54.97 21.77 17.31 9.64 32.41 22.74 45.31 39.24 12.87 16.5 23.15 36.65 30.81 60.41 7.63 23.76 11.47 51.76 11.47 83.97 0 43.49-7.45 81.13-22.35 112.97-14.9 31.8-35.03 57.79-60.41 77.91-25.36 20.15-54.96 35.06-88.79 44.7-33.82 9.67-69.68 14.5-107.51 14.5h-43.52c-17.72 0-36.84-.61-57.37-1.8-20.53-1.2-41.67-3.03-63.41-5.45-21.75-2.4-41.89-6.03-60.41-10.86v-833.61c26.56-4.85 59.39-9.07 98.47-12.7 39.05-3.61 77.91-5.43 116.58-5.43 35.44 0 69.47 2.81 102.08 8.46 32.63 5.63 61.21 16.1 85.79 31.42 24.56 15.3 44.1 36.44 58.6 63.41 14.49 26.99 21.75 61.82 21.75 104.51zm-254.92 530.37c33.84 0 61.61-10.88 83.36-32.62 21.75-21.75 32.63-53.55 32.63-95.44 0-26.57-3.63-47.71-10.89-63.41-7.25-15.71-16.92-27.81-28.99-36.25-12.07-8.46-25.98-13.91-41.7-16.31-15.68-2.43-32-3.63-48.91-3.63h-61.62v240.42c6.45 2.43 17.53 4.22 33.24 5.43 15.7 1.2 29.98 1.81 42.88 1.81zm-41.07-367.28c8.85 0 19.13-.61 30.79-1.79 11.69-1.21 21.16-2.62 28.41-4.24 23.34-8.85 43.29-23.34 59.8-43.49 16.5-20.15 24.75-46.32 24.75-78.54 0-20.93-2.81-38.64-8.46-53.13-5.63-14.5-13.29-25.99-22.94-34.45-9.67-8.46-21.16-14.49-34.44-18.1-13.29-3.64-27.58-5.45-42.88-5.45-33.02 0-56.38 1.62-70.08 4.85v234.36h35.05zm411.76 64.05c0-143.36 24.59-252.5 73.69-327.4 49.14-74.91 124.05-112.36 224.72-112.36 52.36 0 97.47 10.25 135.32 30.81 37.86 20.53 68.87 49.94 93.04 88.19 24.14 38.25 42.08 84.55 53.74 138.93 11.69 54.37 17.53 114.97 17.53 181.83 0 143.36-25.17 252.49-75.52 327.4-50.32 74.9-125.03 112.36-224.11 112.36-53.15 0-98.47-10.28-135.9-30.81-37.45-20.53-68.26-49.94-92.43-88.19-24.16-38.27-41.88-84.57-53.15-138.95-11.27-54.35-16.93-114.97-16.93-181.8zm159.49 0c0 42.69 2.42 82.35 7.25 119 4.83 36.63 12.9 68.26 24.17 94.83 11.27 26.57 25.57 47.52 42.87 62.84 17.31 15.29 38.87 22.95 64.63 22.95 46.72 0 81.77-23.78 105.11-71.29 23.37-47.52 35.03-123.63 35.03-228.33 0-41.09-2.4-79.95-7.25-116.61-4.82-36.62-12.67-68.45-23.54-95.43-10.88-26.99-25.18-48.32-42.9-64.02-17.72-15.71-39.86-23.57-66.45-23.57-92.63 0-138.92 99.87-138.92 299.63zm937.29 65.23h-230.76v357.62h-152.21v-845.71h152.21v347.96h230.76v-347.96h152.24v845.71h-152.24v-357.62zm268.01-65.23c0-143.36 24.59-252.5 73.69-327.4 49.14-74.91 124.05-112.36 224.72-112.36 52.36 0 97.48 10.25 135.32 30.81 37.86 20.53 68.87 49.94 93.04 88.19 24.14 38.25 42.08 84.55 53.74 138.93 11.69 54.37 17.53 114.97 17.53 181.83 0 143.36-25.17 252.49-75.52 327.4-50.32 74.9-125.03 112.36-224.11 112.36-53.15 0-98.47-10.28-135.9-30.81-37.45-20.53-68.26-49.94-92.43-88.19-24.16-38.27-41.88-84.57-53.15-138.95-11.27-54.35-16.93-114.97-16.93-181.8zm159.49 0c0 42.69 2.42 82.35 7.25 119 4.83 36.63 12.9 68.26 24.17 94.83 11.27 26.57 25.57 47.52 42.88 62.84 17.3 15.29 38.86 22.95 64.62 22.95 46.72 0 81.77-23.78 105.11-71.29 23.37-47.52 35.03-123.63 35.03-228.33 0-41.09-2.4-79.95-7.25-116.61-4.82-36.62-12.67-68.45-23.54-95.43-10.88-26.99-25.18-48.32-42.9-64.02-17.72-15.71-39.85-23.57-66.45-23.57-92.63 0-138.92 99.87-138.92 299.63zm693.25-422.87v277.88c0 49.94 7.25 85.57 21.75 106.92 14.5 21.34 38.26 32.03 71.3 32.03 23.34 0 45.31-3.63 65.84-10.89 20.53-7.25 36.84-17.72 48.91-31.41v-374.53h152.24v845.71h-152.24v-340.69c-16.09 11.27-38.44 21.94-67.05 32-28.59 10.09-62.2 15.1-100.87 15.1-26.59 0-51.55-3.81-74.9-11.47-23.37-7.66-43.71-20.15-61.02-37.45-17.31-17.3-31-40.26-41.09-68.87-10.06-28.59-15.1-64.24-15.1-106.93v-327.4h152.23zm878.12 488.1h-230.76v357.62h-152.21v-845.71h152.21v347.96h230.76v-347.96h152.24v845.71h-152.24v-357.62zm687.23-93.03l12.07-119.61h-6.03l-45.91 128.07-240.4 442.19h-119.61v-845.71h152.22v442.19l-13.29 123.25h6.03l48.34-131.7 240.43-433.73h118.39v845.71h-152.24v-450.65zm472.18 88.21h-32.63v362.43h-152.21v-845.71h152.21v375.74l30.2-14.49 177.59-361.25h171.55l-193.3 356.42-56.78 44.7 57.99 45.89 223.5 398.7h-186.05l-192.08-362.43zm792.33 171.55h-199.34l-49.55 190.88h-151.02l245.27-851.74h119.61l246.46 851.74h-159.49l-51.94-190.88zm-166.74-125.66h140.13l-48.31-196.91-19.35-132.9h-4.83l-20.53 134.1-47.12 195.71zm1059.34-134.1l12.07-119.61h-6.03l-45.92 128.07-240.39 442.19h-119.61v-845.71h152.22v442.19l-13.29 123.25h6.03l48.34-131.7 240.43-433.73h118.39v845.71h-152.24v-450.65zm1000.13 416.83c-20.92 17.69-48.91 30.59-83.95 38.63-35.05 8.07-69.89 12.1-104.51 12.1-43.51 0-83.97-7.47-121.42-22.35-37.45-14.9-70.27-39.68-98.47-74.3-28.19-34.64-50.33-80.14-66.45-136.52-16.09-56.39-24.16-125.64-24.16-207.8 0-85.38 9.07-156.26 27.2-212.64 18.1-56.36 41.86-101.28 71.27-134.71 29.4-33.4 63.03-56.97 100.89-70.66 37.84-13.7 76.09-20.53 114.76-20.53 39.46 0 73.92 3.22 103.29 9.64 29.4 6.45 53.38 13.7 71.9 21.75l-30.2 134.1c-15.32-8.05-33.24-14.28-53.77-18.72-20.53-4.43-44.9-6.64-73.09-6.64-55.58 0-98.27 24.17-128.06 72.48-29.8 48.34-44.7 124.05-44.7 227.14 0 44.29 3.42 84.77 10.28 121.4 6.83 36.66 17.7 68.26 32.6 94.86 14.9 26.56 33.84 47.09 56.8 61.59 22.93 14.5 50.52 21.76 82.73 21.76 28.2 0 52.36-3.82 72.51-11.48 20.12-7.66 38.25-16.71 54.35-27.18l30.2 128.07zm299.43-443.4l18.13 112.36h6.03l15.71-115.99 95.43-364.86h157.06l-188.47 584.75c-14.5 45.91-28.2 85.57-41.07 119-12.89 33.43-26.98 61.41-42.3 83.97-15.3 22.54-32.41 39.27-51.34 50.13-18.93 10.89-42.08 16.32-69.46 16.32-21.75 0-40.48-2.01-56.19-6.04-15.7-4.02-32.03-11.69-48.91-22.96l37.45-128.06c11.27 6.45 21.33 10.67 30.2 12.68 8.84 2.01 18.1 3.42 27.78 4.24 29.8 0 50.33-30.62 61.62-91.83l-260.95-622.2h179.98l129.29 368.49zm806.82 443.4c-20.92 17.69-48.91 30.59-83.95 38.63-35.05 8.07-69.89 12.1-104.51 12.1-43.51 0-83.97-7.47-121.42-22.35-37.45-14.9-70.27-39.68-98.47-74.3-28.19-34.64-50.32-80.14-66.45-136.52-16.09-56.39-24.16-125.64-24.16-207.8 0-85.38 9.07-156.26 27.2-212.64 18.1-56.36 41.86-101.28 71.27-134.71 29.4-33.4 63.03-56.97 100.89-70.66 37.84-13.7 76.09-20.53 114.76-20.53 39.46 0 73.92 3.22 103.29 9.64 29.4 6.45 53.39 13.7 71.9 21.75l-30.2 134.1c-15.32-8.05-33.24-14.28-53.77-18.72-20.53-4.43-44.9-6.64-73.09-6.64-55.58 0-98.27 24.17-128.06 72.48-29.79 48.34-44.7 124.05-44.7 227.14 0 44.29 3.42 84.77 10.28 121.4 6.83 36.66 17.7 68.26 32.6 94.86 14.9 26.56 33.84 47.09 56.8 61.59 22.93 14.5 50.52 21.76 82.74 21.76 28.19 0 52.35-3.82 72.5-11.48 20.13-7.66 38.26-16.71 54.35-27.18l30.2 128.07zm560.39-671.73h-199.36v705.55h-152.21v-705.55h-200.55v-140.16h552.12v140.16zm352.57 514.67h-199.34l-49.54 190.88h-151.03l245.28-851.74h119.6l246.46 851.74h-159.48l-51.95-190.88zm-166.73-125.66h140.13l-48.32-196.91-19.34-132.9h-4.83l-20.53 134.1-47.12 195.71zm939.74-333.44c0 20.95-2.21 41.7-6.65 62.23-4.43 20.53-11.48 39.85-21.14 57.98-9.67 18.13-22.35 34.04-38.06 47.73-15.7 13.68-34.44 24.14-56.19 31.4v7.25c19.35 4.85 37.67 12.1 54.97 21.77 17.31 9.64 32.41 22.74 45.31 39.24 12.87 16.5 23.15 36.65 30.81 60.41 7.63 23.76 11.47 51.76 11.47 83.97 0 43.49-7.45 81.13-22.35 112.97-14.9 31.8-35.03 57.79-60.41 77.91-25.36 20.15-54.96 35.06-88.79 44.7-33.82 9.67-69.68 14.5-107.51 14.5h-43.52c-17.72 0-36.84-.61-57.37-1.8-20.53-1.2-41.67-3.03-63.41-5.45-21.75-2.4-41.89-6.03-60.41-10.86v-833.61c26.56-4.85 59.39-9.07 98.47-12.7 39.05-3.61 77.91-5.43 116.58-5.43 35.44 0 69.47 2.81 102.08 8.46 32.63 5.63 61.21 16.1 85.79 31.42 24.56 15.3 44.1 36.44 58.6 63.41 14.49 26.99 21.75 61.82 21.75 104.51zm-254.92 530.37c33.84 0 61.62-10.88 83.36-32.62 21.75-21.75 32.63-53.55 32.63-95.44 0-26.57-3.63-47.71-10.89-63.41-7.25-15.71-16.92-27.81-28.99-36.25-12.07-8.46-25.98-13.91-41.69-16.31-15.69-2.43-32.01-3.63-48.92-3.63h-61.62v240.42c6.45 2.43 17.53 4.22 33.24 5.43 15.7 1.2 29.98 1.81 42.88 1.81zm-41.07-367.28c8.85 0 19.13-.61 30.79-1.79 11.69-1.21 21.16-2.62 28.41-4.24 23.34-8.85 43.29-23.34 59.8-43.49 16.5-20.15 24.75-46.32 24.75-78.54 0-20.93-2.81-38.64-8.46-53.13-5.63-14.5-13.29-25.99-22.94-34.45-9.66-8.46-21.16-14.49-34.44-18.1-13.29-3.64-27.58-5.45-42.88-5.45-33.02 0-56.38 1.62-70.08 4.85v234.36h35.05zm411.77 64.05c0-143.36 24.58-252.5 73.69-327.4 49.14-74.91 124.05-112.36 224.72-112.36 52.36 0 97.48 10.25 135.32 30.81 37.86 20.53 68.87 49.94 93.04 88.19 24.14 38.25 42.08 84.55 53.74 138.93 11.69 54.37 17.53 114.97 17.53 181.83 0 143.36-25.17 252.49-75.51 327.4-50.33 74.9-125.04 112.36-224.12 112.36-53.15 0-98.47-10.28-135.9-30.81-37.45-20.53-68.26-49.94-92.43-88.19-24.16-38.27-41.88-84.57-53.15-138.95-11.27-54.35-16.92-114.97-16.92-181.8zm159.48 0c0 42.69 2.42 82.35 7.25 119 4.83 36.63 12.9 68.26 24.17 94.83 11.27 26.57 25.57 47.52 42.88 62.84 17.3 15.29 38.86 22.95 64.62 22.95 46.72 0 81.77-23.78 105.11-71.29 23.37-47.52 35.03-123.63 35.03-228.33 0-41.09-2.4-79.95-7.25-116.61-4.83-36.62-12.68-68.45-23.55-95.43-10.88-26.99-25.18-48.32-42.9-64.02-17.72-15.71-39.85-23.57-66.45-23.57-92.63 0-138.92 99.87-138.92 299.63zm1037.58-227.14c0 20.95-2.21 41.7-6.65 62.23-4.43 20.53-11.48 39.85-21.14 57.98-9.67 18.13-22.34 34.04-38.06 47.73-15.7 13.68-34.44 24.14-56.19 31.4v7.25c19.35 4.85 37.67 12.1 54.97 21.77 17.31 9.64 32.41 22.74 45.31 39.24 12.87 16.5 23.15 36.65 30.81 60.41 7.63 23.76 11.47 51.76 11.47 83.97 0 43.49-7.45 81.13-22.35 112.97-14.9 31.8-35.03 57.79-60.41 77.91-25.36 20.15-54.96 35.06-88.79 44.7-33.82 9.67-69.68 14.5-107.51 14.5h-43.51c-17.73 0-36.85-.61-57.38-1.8-20.53-1.2-41.67-3.03-63.41-5.45-21.75-2.4-41.89-6.03-60.41-10.86v-833.61c26.56-4.85 59.39-9.07 98.47-12.7 39.06-3.61 77.91-5.43 116.58-5.43 35.44 0 69.47 2.81 102.08 8.46 32.63 5.63 61.21 16.1 85.8 31.42 24.55 15.3 44.09 36.44 58.59 63.41 14.5 26.99 21.75 61.82 21.75 104.51zm-254.92 530.37c33.84 0 61.62-10.88 83.37-32.62 21.74-21.75 32.62-53.55 32.62-95.44 0-26.57-3.63-47.71-10.89-63.41-7.25-15.71-16.92-27.81-28.99-36.25-12.07-8.46-25.98-13.91-41.69-16.31-15.69-2.43-32.01-3.63-48.92-3.63h-61.62v240.42c6.46 2.43 17.53 4.22 33.24 5.43 15.7 1.2 29.98 1.81 42.88 1.81zm-41.06-367.28c8.84 0 19.12-.61 30.78-1.79 11.69-1.21 21.16-2.62 28.41-4.24 23.34-8.85 43.3-23.34 59.8-43.49 16.5-20.15 24.75-46.32 24.75-78.54 0-20.93-2.81-38.64-8.46-53.13-5.63-14.5-13.29-25.99-22.93-34.45-9.67-8.46-21.17-14.49-34.45-18.1-13.29-3.64-27.58-5.45-42.88-5.45-33.02 0-56.38 1.62-70.08 4.85v234.36h35.06z" fill="#e84e28" fill-rule="nonzero"/></g></g></svg>