<svg width="16" height="16" fill="none" xmlns="http://www.w3.org/2000/svg"><g clip-path="url(#clip0)"><path d="M11.2 8.375c4.65-.888 4.799-6.807 4.8-6.868A.498.498 0 0015.5 1H12V.5a.5.5 0 00-.5-.5h-7a.5.5 0 00-.5.5V1H.5a.501.501 0 00-.5.507c.001.061.148 5.981 4.8 6.868a4.01 4.01 0 001.7 1.327v1.767a2.476 2.476 0 01-1.58 2.317l-.61.25A.504.504 0 004 14.5v1a.5.5 0 00.5.5h7a.5.5 0 00.5-.5v-1a.5.5 0 00-.311-.463l-.616-.252A2.474 2.474 0 019.5 11.47V9.703a4.008 4.008 0 001.7-1.328zM12 6V2h2.963c-.128 1.201-.698 4.185-3.157 5.168C11.92 6.796 12 6.41 12 6zM1.033 2H4v4c0 .41.08.798.195 1.171-2.492-.98-3.043-3.963-3.162-5.17z" fill="#009C9D"/></g><defs><clipPath id="clip0"><path fill="#fff" d="M0 0h16v16H0z"/></clipPath></defs></svg>