<svg width="20" height="20" fill="none" xmlns="http://www.w3.org/2000/svg"><g clip-path="url(#clip0)" fill="#009C9D"><path d="M2.346 2.344h1.172v1.172H2.346V2.344zm2.344 0h8.241v1.172H4.69V2.344zM2.346 4.688H12.93v1.171H2.346V4.688z"/><path d="M15.275 20v-2.237L17.512 20l2.486-2.486-4.723-4.723V0H.002v14.969l5.03 5.03h10.243zm2.237-3.314l.829.828-.829.829-.828-.829.828-.828zm-.828-.83l-.83.83-5.58-5.582.828-.829 5.582 5.582zm-7.24-5.58l-.316-.317-.414-1.243 1.243.414.316.317-.828.828zm-8.27-9.104h12.93v10.447L10.59 8.106 6.86 6.863l1.244 3.729 6 5.999v2.237H5.86V14.14H1.174V1.172zm3.515 16.827l-2.687-2.687H4.69V18z"/></g><defs><clipPath id="clip0"><path fill="#fff" d="M0 0h20v20H0z"/></clipPath></defs></svg>