<svg width="30" height="30" fill="none" xmlns="http://www.w3.org/2000/svg"><g clip-path="url(#clip0)" fill="#009C9D"><path d="M28.117 19.914v-9.331l-1.758.586v8.745a2.766 2.766 0 00-1.882 2.617v4.707c0 .486.393.88.878.88h3.766a.88.88 0 00.879-.88v-4.707c0-1.215-.79-2.25-1.883-2.617zm-13.951-5.237l-8.518-2.839v5.986a.88.88 0 00.258.622A12.778 12.778 0 0015 22.213c3.436 0 6.665-1.338 9.094-3.767a.879.879 0 00.258-.622v-5.986l-8.518 2.84a2.637 2.637 0 01-1.668 0z"/><path d="M15 13.055a.88.88 0 00.278-.045l14.121-4.707a.879.879 0 000-1.668L15.278 1.928a.88.88 0 00-.556 0L.601 6.635a.879.879 0 000 1.668l14.121 4.707a.88.88 0 00.278.045z"/></g><defs><clipPath id="clip0"><path fill="#fff" d="M0 0h30v30H0z"/></clipPath></defs></svg>