<svg width="30" height="30" fill="none" xmlns="http://www.w3.org/2000/svg"><g clip-path="url(#clip0)" fill="#E05222"><path d="M1.883 19.914v-9.331l1.758.586v8.745a2.766 2.766 0 011.882 2.617v4.707a.879.879 0 01-.878.88H.879a.879.879 0 01-.879-.88v-4.707c0-1.215.79-2.25 1.883-2.617zm13.951-5.237l8.518-2.84v5.987a.879.879 0 01-.258.622A12.778 12.778 0 0115 22.213a12.775 12.775 0 01-9.094-3.767.879.879 0 01-.258-.622v-5.986l8.518 2.84a2.637 2.637 0 001.668 0z"/><path d="M15 13.055a.88.88 0 01-.278-.045L.601 8.303a.879.879 0 010-1.668l14.121-4.707a.88.88 0 01.556 0l14.121 4.707a.879.879 0 010 1.668L15.278 13.01a.88.88 0 01-.278.045z"/></g><defs><clipPath id="clip0"><path fill="#fff" transform="matrix(-1 0 0 1 30 0)" d="M0 0h30v30H0z"/></clipPath></defs></svg>