<svg width="16" height="16" viewBox="0 0 16 16" fill="none" xmlns="http://www.w3.org/2000/svg">
<g clip-path="url(#clip0)">
<path d="M11.2 8.37518C15.8509 7.48719 15.9989 1.56823 15.9999 1.50723C16.0019 1.37323 15.9499 1.24423 15.8559 1.14924C15.7619 1.05424 15.6339 1.00024 15.4999 1.00024H12V0.50024C12 0.224242 11.776 0.000244141 11.5 0.000244141H4.50002C4.22402 0.000244141 4.00002 0.224242 4.00002 0.50024V1.00024H0.500052C0.366053 1.00024 0.238054 1.05424 0.144055 1.14924C0.0500552 1.24423 -0.00194435 1.37323 5.56316e-05 1.50723C0.00105562 1.56823 0.148055 7.48819 4.80002 8.37518C5.23501 8.95918 5.81701 9.42417 6.5 9.70217V11.4692C6.5 12.4981 5.88201 13.4071 4.92002 13.7861L4.31002 14.0361C4.12302 14.1141 4.00002 14.2971 4.00002 14.5001V15.5001C4.00002 15.7761 4.22402 16.0001 4.50002 16.0001H11.5C11.776 16.0001 12 15.7761 12 15.5001V14.5001C12 14.2971 11.877 14.1141 11.689 14.0371L11.073 13.7851C10.117 13.4071 9.49998 12.4991 9.49998 11.4702V9.70317C10.184 9.42417 10.766 8.95918 11.2 8.37518ZM12 6.0002V2.00023H14.9629C14.8349 3.20122 14.2649 6.1852 11.806 7.16819C11.92 6.79619 12 6.40919 12 6.0002ZM1.03305 2.00023H4.00002V6.0002C4.00002 6.41019 4.08002 6.79819 4.19502 7.17119C1.70304 6.1902 1.15205 3.20822 1.03305 2.00023Z" fill="#009C9D"/>
</g>
<defs>
<clipPath id="clip0">
<rect width="16" height="16" fill="white"/>
</clipPath>
</defs>
</svg>
