<svg width="20" height="20" viewBox="0 0 20 20" fill="none" xmlns="http://www.w3.org/2000/svg">
<g clip-path="url(#clip0)">
<path d="M2.3457 2.34375H3.51758V3.51562H2.3457V2.34375Z" fill="#009C9D"/>
<path d="M4.68945 2.34375H12.9314V3.5156H4.68945V2.34375Z" fill="#009C9D"/>
<path d="M2.3457 4.6875H12.9314V5.85935H2.3457V4.6875Z" fill="#009C9D"/>
<path d="M15.275 19.9995V17.7628L17.5122 20L19.998 17.5141L15.275 12.7911V0H0.00195312V14.9689L5.03257 19.9995H15.275ZM17.5122 16.6855L18.3408 17.5142L17.5122 18.3428L16.6836 17.5141L17.5122 16.6855ZM16.6836 15.8569L15.8549 16.6855L10.2733 11.1039L11.1019 10.2752L16.6836 15.8569ZM9.44464 10.2753L9.12813 9.95877L8.71384 8.71583L9.95674 9.13016L10.2733 9.44667L9.44464 10.2753ZM1.1738 1.17185H14.1032V11.6193L10.5897 8.10589L6.86092 6.86295L8.10389 10.5918L14.1032 16.591V18.8276H5.86118V14.1403H1.1738V1.17185ZM4.68933 17.999L2.00241 15.3121H4.68933V17.999Z" fill="#009C9D"/>
</g>
<defs>
<clipPath id="clip0">
<rect width="20" height="20" fill="white"/>
</clipPath>
</defs>
</svg>
