<svg width="30" height="30" viewBox="0 0 30 30" fill="none" xmlns="http://www.w3.org/2000/svg">
<g clip-path="url(#clip0)">
<path d="M28.1172 19.9137V10.5826L26.3594 11.1686V19.9137C25.2663 20.2817 24.4766 21.3156 24.4766 22.5311V27.2381C24.4766 27.7235 24.8701 28.1171 25.3555 28.1171H29.1211C29.6064 28.1171 30 27.7235 30 27.2381V22.5311C30 21.3156 29.2102 20.2817 28.1172 19.9137Z" fill="#009C9D"/>
<path d="M14.1665 14.6773L5.64844 11.838V17.8243C5.64844 18.0574 5.74107 18.281 5.9059 18.4458C8.33531 20.8749 11.5652 22.2127 15.0004 22.2127C18.4357 22.2127 21.6653 20.8749 24.0942 18.4457C24.259 18.2809 24.3516 18.0573 24.3516 17.8243V11.838L15.8338 14.6773C15.2515 14.8712 14.6654 14.8436 14.1665 14.6773Z" fill="#009C9D"/>
<path d="M15 13.0547C15.0939 13.0547 15.1877 13.0396 15.2779 13.0096L29.399 8.30257C29.7579 8.18292 30 7.84706 30 7.46878C30 7.0905 29.7579 6.75464 29.399 6.63499L15.2779 1.92798C15.0976 1.86792 14.9024 1.86792 14.7221 1.92798L0.600996 6.63499C0.242051 6.75458 0 7.09044 0 7.46878C0 7.84712 0.242051 8.18292 0.600996 8.30257L14.7221 13.0096C14.8123 13.0396 14.9061 13.0547 15 13.0547Z" fill="#009C9D"/>
</g>
<defs>
<clipPath id="clip0">
<rect width="30" height="30" fill="white"/>
</clipPath>
</defs>
</svg>
