<svg width="30" height="30" viewBox="0 0 30 30" fill="none" xmlns="http://www.w3.org/2000/svg">
<g clip-path="url(#clip0)">
<path d="M1.88283 19.9138V10.5827L3.64064 11.1687V19.9138C4.73371 20.2818 5.52344 21.3157 5.52344 22.5312V27.2382C5.52344 27.7236 5.12992 28.1171 4.64453 28.1171H0.878945C0.393554 28.1171 3.8147e-05 27.7236 3.8147e-05 27.2382V22.5312C3.8147e-05 21.3157 0.789764 20.2818 1.88283 19.9138Z" fill="#E05222"/>
<path d="M15.8335 14.6773L24.3516 11.8379V17.8242C24.3516 18.0574 24.2589 18.2809 24.0941 18.4457C21.6647 20.8748 18.4348 22.2126 14.9996 22.2126C11.5643 22.2126 8.33473 20.8748 5.90584 18.4456C5.74102 18.2808 5.64844 18.0572 5.64844 17.8242V11.8379L14.1662 14.6772C14.7485 14.8711 15.3346 14.8435 15.8335 14.6773Z" fill="#E05222"/>
<path d="M15 13.0547C14.9061 13.0547 14.8123 13.0396 14.7221 13.0096L0.600996 8.30255C0.242109 8.18291 0 7.84705 0 7.46876C0 7.09048 0.24205 6.75462 0.600996 6.63497L14.7221 1.92796C14.9024 1.8679 15.0976 1.8679 15.2779 1.92796L29.399 6.63497C29.7579 6.75457 30 7.09042 30 7.46876C30 7.8471 29.7579 8.18291 29.399 8.30255L15.2779 13.0096C15.1877 13.0396 15.0939 13.0547 15 13.0547Z" fill="#E05222"/>
</g>
<defs>
<clipPath id="clip0">
<rect width="30" height="30" fill="white" transform="matrix(-1 0 0 1 30 0)"/>
</clipPath>
</defs>
</svg>
