<svg width="80" height="83" fill="none" xmlns="http://www.w3.org/2000/svg"><path d="M61.774 65.569l-10.18-10.18a5.427 5.427 0 00-7.675 0l-2.965 2.965a49.968 49.968 0 01-16.602-16.602l3.25-3.25a5.434 5.434 0 000-7.677l-10.179-10.18a5.424 5.424 0 00-7.682.007L3.344 27.1C.284 29.67-.793 33.89.602 37.888 7.765 58.412 24.294 74.941 44.82 82.104c3.861 1.347 7.827.34 10.348-2.258.037-.032.072-.066.107-.1l6.5-6.501a5.434 5.434 0 000-7.676zm-3.242 4.433l-6.354 6.354a2.26 2.26 0 00-.22.209c-1.337 1.454-3.488 1.956-5.628 1.209-19.216-6.706-34.692-22.182-41.397-41.398-.768-2.2-.214-4.48 1.411-5.807.062-.05.12-.104.177-.161l6.469-6.52a.838.838 0 011.19 0l10.18 10.18a.843.843 0 010 1.19l-4.504 4.505a2.293 2.293 0 00-.376 2.748 54.555 54.555 0 0020.716 20.715c.896.506 2.02.352 2.748-.376l4.218-4.218a.842.842 0 011.19 0l10.18 10.18a.843.843 0 010 1.19zM41.264 20.924a2.68 2.68 0 000 5.361c6.865 0 12.45 5.586 12.45 12.451a2.68 2.68 0 005.362 0c0-9.822-7.99-17.812-17.812-17.812z" fill="#fff"/><path d="M41.264 10.402a2.68 2.68 0 000 5.362c12.666 0 22.972 10.305 22.972 22.972a2.68 2.68 0 005.361 0c0-15.623-12.71-28.334-28.333-28.334z" fill="#fff"/><path d="M68.654 11.345C61.338 4.03 51.61 0 41.264 0a2.68 2.68 0 000 5.361c18.403 0 33.375 14.972 33.375 33.375a2.68 2.68 0 005.36 0c0-10.347-4.028-20.074-11.345-27.39z" fill="#fff"/></svg>