<svg width="45" height="77" fill="none" xmlns="http://www.w3.org/2000/svg"><path d="M21.482 62.302a7.044 7.044 0 00-6.928 6.927 3.69 3.69 0 000 .355 6.932 6.932 0 007.16 6.689h-.232a7.045 7.045 0 006.927-7.044 7.1 7.1 0 00-6.927-6.927zM22.82.013A29.1 29.1 0 00.99 8.92 4.555 4.555 0 000 11.83a4.83 4.83 0 004.658 4.774 4.91 4.91 0 003.26-1.223A19.05 19.05 0 0121.714 9.56c7.86 0 11.643 4.25 11.643 9.256 0 10.711-19.036 12.05-19.036 25.963 0 3.377 2.096 9.605 6.462 9.605h.117a4.25 4.25 0 004.25-4.249c0-1.572-1.107-2.91-1.107-4.482 0-10.479 20.491-11.934 20.957-28.176C45 7.581 36.617.013 22.82.013z" fill="#fff"/></svg>