<svg width="85" height="85" fill="none" xmlns="http://www.w3.org/2000/svg"><path d="M42.5 25.068H12.451a2.49 2.49 0 00-2.49 2.49c0 9.598 7.95 17.432 17.598 17.432 9.611 0 17.431-7.82 17.431-17.431a2.49 2.49 0 00-2.49-2.49zM27.559 40.01c-6.094 0-11.192-4.285-12.364-9.963H39.76c-1.157 5.678-6.188 9.963-12.201 9.963zm-9.961-19.922h4.98a2.49 2.49 0 000-4.98h-4.98a2.49 2.49 0 000 4.98zm14.942 0h4.98a2.49 2.49 0 000-4.98h-4.98a2.49 2.49 0 000 4.98z" fill="#fff"/><path d="M57.441 30.049c-.874 0-1.747.044-2.616.126a27.59 27.59 0 00.126-2.616C54.951 12.363 42.663 0 27.56 0 12.415 0 0 12.418 0 27.559 0 42.663 12.363 54.95 27.559 54.95c.882 0 1.755-.044 2.616-.126a27.689 27.689 0 00-.126 2.616C30.049 72.637 42.337 85 57.44 85 72.585 85 85 72.582 85 57.441 85 42.337 72.637 30.05 57.441 30.05zm-52.46-2.49c0-12.45 10.128-22.579 22.578-22.579 12.358 0 22.411 10.13 22.411 22.58 0 12.358-10.054 22.412-22.412 22.412-12.45 0-22.579-10.054-22.579-22.412zm52.46 52.46c-12.358 0-22.412-10.128-22.412-22.578 0-1.213.1-2.422.292-3.612 8.873-2.626 15.882-9.635 18.508-18.508a22.65 22.65 0 013.612-.292c12.45 0 22.578 10.054 22.578 22.412 0 12.45-10.128 22.578-22.578 22.578z" fill="#fff"/><path d="M57.441 72.983a17.459 17.459 0 01-12.982-5.809 2.49 2.49 0 013.71-3.323 12.472 12.472 0 009.272 4.152c3.53 0 6.91-1.513 9.274-4.152a2.49 2.49 0 013.709 3.324 17.46 17.46 0 01-12.983 5.808zM47.48 54.951h4.98a2.49 2.49 0 000-4.98h-4.98a2.49 2.49 0 000 4.98zm14.942 0h4.98a2.49 2.49 0 000-4.98h-4.98a2.49 2.49 0 000 4.98z" fill="#fff"/></svg>