<svg width="90" height="90" fill="none" xmlns="http://www.w3.org/2000/svg"><path d="M47.812 11.297h-.188v-.188a2.636 2.636 0 10-5.273 0v.188h-.188a2.637 2.637 0 000 5.273h.188v.188a2.637 2.637 0 105.273 0v-.188h.188a2.637 2.637 0 100-5.273z" fill="#fff"/><path d="M87.062 86.638l-3.474-12.155a19.53 19.53 0 00-10.874-12.515l-16.617-7.385v-4.764c5.115-3.536 8.473-9.442 8.473-16.116V2.637A2.637 2.637 0 0061.933 0H28.042a2.637 2.637 0 00-2.637 2.637v31.066c0 6.674 3.359 12.58 8.473 16.116v4.764l-16.616 7.385A19.53 19.53 0 006.387 74.482L2.913 86.639C2.45 88.261 3.638 90 5.45 90a2.637 2.637 0 002.534-1.913l3.474-12.156a14.269 14.269 0 017.946-9.144l6.752-3.002c.008.008.014.017.022.024l16.945 16.945c.515.515 1.19.773 1.865.773s1.349-.258 1.864-.773L63.797 63.81c.008-.007.014-.015.021-.024l6.753 3.002a14.267 14.267 0 017.946 9.144l3.474 12.156A2.64 2.64 0 0084.525 90c1.895 0 2.98-1.813 2.537-3.362zM30.679 5.273h28.618v17.32H30.679V5.273zm0 28.43v-5.836h28.618v5.836c0 7.89-6.42 14.308-14.31 14.308-7.889 0-14.308-6.419-14.308-14.308zM44.988 75.16l-13.67-13.67 6.268-2.786a2.637 2.637 0 001.566-2.409v-3.9c1.843.577 3.804.888 5.836.888 2.031 0 3.992-.31 5.835-.887v3.899c0 1.042.614 1.986 1.567 2.41l6.267 2.786-13.67 13.669z" fill="#fff"/><path d="M70.405 79.077h-8.472a2.637 2.637 0 100 5.274h8.472a2.637 2.637 0 100-5.274z" fill="#fff"/></svg>