<svg width="38" height="38" fill="none" xmlns="http://www.w3.org/2000/svg"><path d="M8.313 0H1.186C.532 0 0 .532 0 1.188v7.125C0 8.967.532 9.5 1.188 9.5h7.125c.655 0 1.187-.532 1.187-1.188V1.189C9.5.531 8.968 0 8.312 0zM7.125 7.125h-4.75v-4.75h4.75v4.75zm1.188 7.125H1.186C.532 14.25 0 14.782 0 15.438v7.124c0 .656.532 1.188 1.188 1.188h7.125c.655 0 1.187-.532 1.187-1.188v-7.125c0-.655-.532-1.187-1.188-1.187zm-1.188 7.125h-4.75v-4.75h4.75v4.75zM8.313 28.5H1.186C.532 28.5 0 29.032 0 29.688v7.125C0 37.468.532 38 1.188 38h7.125c.655 0 1.187-.532 1.187-1.188v-7.124c0-.656-.532-1.188-1.188-1.188zm-1.188 7.125h-4.75v-4.75h4.75v4.75zM38 1.188H14.25v2.375H38V1.187zm0 4.75H14.25v2.375H38V5.937zm0 9.5H14.25v2.374H38v-2.375zm0 4.75H14.25v2.375H38v-2.375zm0 9.5H14.25v2.375H38v-2.376zm0 4.75H14.25v2.374H38v-2.374z" fill="#009C9D"/></svg>