<svg width="20" height="20" fill="none" xmlns="http://www.w3.org/2000/svg"><path d="M10.626 2.51h-.042v-.04a.586.586 0 10-1.172 0v.041H9.37a.586.586 0 000 1.172h.042v.042a.586.586 0 101.172 0v-.042h.042a.586.586 0 100-1.172z" fill="#009C9D"/><path d="M19.347 19.253l-.772-2.701a4.34 4.34 0 00-2.416-2.781l-3.693-1.642v-1.058a4.35 4.35 0 001.883-3.582V.586A.586.586 0 0013.763 0H6.232a.586.586 0 00-.586.586v6.903a4.35 4.35 0 001.883 3.582v1.059l-3.693 1.64a4.34 4.34 0 00-2.417 2.782l-.772 2.7a.587.587 0 001.127.323l.772-2.701a3.17 3.17 0 011.766-2.032l1.5-.668.005.006 3.766 3.765a.584.584 0 00.829 0l3.765-3.765a.08.08 0 00.005-.005l1.5.667a3.17 3.17 0 011.766 2.032l.772 2.7a.587.587 0 001.127-.321zM6.817 1.172h6.36V5.02h-6.36V1.17zm0 6.317V6.193h6.36v1.296a3.183 3.183 0 01-3.18 3.18 3.183 3.183 0 01-3.18-3.18zm3.18 9.213L6.96 13.665l1.392-.62a.586.586 0 00.348-.535v-.866a4.336 4.336 0 002.594 0v.866c0 .232.136.442.348.536l1.393.619-3.038 3.037z" fill="#009C9D"/><path d="M15.645 17.573h-1.883a.586.586 0 000 1.172h1.883a.586.586 0 100-1.172z" fill="#009C9D"/></svg>