<svg width="31" height="31" fill="none" xmlns="http://www.w3.org/2000/svg"><path fill="#009C9D" stroke="#fff" stroke-width="2" d="M1 1h29v29H1z"/><path d="M14.9 20.58a1.68 1.68 0 00-1.652 1.736 1.653 1.653 0 001.708 1.595H14.9a1.68 1.68 0 001.652-1.68A1.693 1.693 0 0014.9 20.58zm.32-14.854a6.94 6.94 0 00-5.207 2.124c-.156.197-.24.443-.236.694a1.152 1.152 0 001.111 1.138 1.17 1.17 0 00.777-.291 4.543 4.543 0 013.29-1.388c1.874 0 2.777 1.013 2.777 2.207 0 2.554-4.54 2.873-4.54 6.191 0 .805.5 2.29 1.541 2.29h.028c.56 0 1.013-.453 1.013-1.013 0-.375-.263-.694-.263-1.069 0-2.498 4.886-2.845 4.997-6.718 0-2.36-1.999-4.165-5.289-4.165z" fill="#fff"/></svg>