<svg width="17" height="16" fill="none" xmlns="http://www.w3.org/2000/svg"><path d="M.465 6.787c-.3-.763-.518-1.543-.453-2.372.042-.51.246-.945.643-1.302.431-.384.838-.787 1.263-1.177.552-.513 1.246-.51 1.799 0 .341.316.68.637 1.018.959.328.309.66.617.987.93.577.548.58 1.188.004 1.734-.415.39-.825.783-1.247 1.166-.11.101-.12.186-.062.312.276.624.677 1.18 1.126 1.7.904 1.046 1.926 1.975 3.145 2.693.262.153.548.267.821.406.142.072.235.049.349-.062.41-.4.832-.792 1.253-1.185.552-.514 1.243-.517 1.795 0 .677.63 1.35 1.263 2.02 1.9.562.533.559 1.186-.007 1.722-.384.364-.787.708-1.146 1.089-.525.552-1.188.734-1.94.695-1.098-.055-2.11-.4-3.087-.845a16.69 16.69 0 01-5.568-4.1C2.032 9.763 1.086 8.366.465 6.787zM17 7.95C17 3.567 13.21 0 8.553 0v1.514c3.77 0 6.838 2.888 6.838 6.436h1.61zm-4.626 0h1.61c0-2.817-2.438-5.11-5.431-5.11v1.514a3.92 3.92 0 012.703 1.052 3.47 3.47 0 011.118 2.544z" fill="#000" fill-opacity=".49"/></svg>