<svg width="20" height="20" fill="none" xmlns="http://www.w3.org/2000/svg"><path d="M10 9.781c2.224 0 4.027-2.19 4.027-4.89C14.027 2.19 13.435 0 10 0 6.566 0 5.974 2.19 5.974 4.89c0 2.702 1.803 4.891 4.026 4.891zm-7.605 7.468c0-.165-.001-.047 0 0zm15.21.128c.002-.045 0-.312 0 0zm-.008-.326c-.075-4.705-.69-6.046-5.392-6.894 0 0-.662.843-2.205.843-1.543 0-2.205-.844-2.205-.844-4.65.84-5.303 2.16-5.388 6.742-.007.374-.01.394-.012.35v.495S3.516 20 10 20s7.605-2.257 7.605-2.257v-.366c-.001.027-.004-.025-.008-.326z" fill="#000" fill-opacity=".52"/></svg>