<svg width="36" height="36" fill="none" xmlns="http://www.w3.org/2000/svg"><g clip-path="url(#clip0)" filter="url(#filter0_d)" fill="#fff"><path d="M30.174 5.454h-2.038c.269-.426.446-.903.497-1.408.161-1.615-.689-3.062-2.136-3.703a3.579 3.579 0 00-3.902.628l-2.574 2.332a2.733 2.733 0 00-4.045.003L13.399.97A3.581 3.581 0 009.497.343C8.05.985 7.199 2.433 7.362 4.046c.05.505.228.983.496 1.408H5.826A1.826 1.826 0 004 7.28v2.739c0 .504.409.913.913.913h26.174a.913.913 0 00.913-.913v-2.74a1.826 1.826 0 00-1.826-1.825zM15.26 5.149v.305h-4.295a1.802 1.802 0 01-1.745-2.24c.125-.52.5-.964.986-1.188a1.757 1.757 0 011.966.298l3.089 2.799-.001.026zm11.56-1.346c-.068.95-.926 1.65-1.877 1.65H20.74v-.336l3.04-2.755c.468-.424 1.122-.622 1.727-.442.868.26 1.378.998 1.315 1.883zM5.826 12.758V26.15c0 1.009.818 1.826 1.826 1.826h8.522V12.758H5.826zm14 0v15.218h8.522a1.826 1.826 0 001.826-1.827V12.76H19.826z"/></g><defs><clipPath id="clip0"><path fill="#fff" transform="translate(4)" d="M0 0h28v28H0z"/></clipPath><filter id="filter0_d" x="0" y="0" width="36" height="36" filterUnits="userSpaceOnUse" color-interpolation-filters="sRGB"><feFlood flood-opacity="0" result="BackgroundImageFix"/><feColorMatrix in="SourceAlpha" values="0 0 0 0 0 0 0 0 0 0 0 0 0 0 0 0 0 0 127 0" result="hardAlpha"/><feOffset dy="4"/><feGaussianBlur stdDeviation="2"/><feColorMatrix values="0 0 0 0 0 0 0 0 0 0 0 0 0 0 0 0 0 0 0.25 0"/><feBlend in2="BackgroundImageFix" result="effect1_dropShadow"/><feBlend in="SourceGraphic" in2="effect1_dropShadow" result="shape"/></filter></defs></svg>