<svg width="36" height="37" fill="none" xmlns="http://www.w3.org/2000/svg"><g clip-path="url(#clip0)" filter="url(#filter0_d)" fill="#fff"><path d="M21.563 10.495l-2.116.293c.008.74.058 1.503.166 2.284.108.78.267 1.528.46 2.242l2.116-.293a2.287 2.287 0 001.95-2.576 2.287 2.287 0 00-2.576-1.95z"/><path d="M23.536 2.535c-2.197.304-3.734 3.056-4.04 6.709l1.858-.257a3.812 3.812 0 014.293 3.25 3.812 3.812 0 01-3.25 4.293l-1.856.257c1.286 3.433 3.513 5.664 5.71 5.36 2.915-.404 4.722-5.128 3.973-10.544-.75-5.416-3.772-9.472-6.688-9.068zm-7.518 18.259l.063.454a.762.762 0 01-.65.859l-.754.104-.203-1.46c-.233.012-.467.015-.7.048l-3.832.53.73 5.28a2.287 2.287 0 002.577 1.95 2.287 2.287 0 001.95-2.576l-.314-2.263.755-.104a2.28 2.28 0 001.954-2.44 8.419 8.419 0 00-1.576-.382z"/><path d="M19.42 4.673L17.04 6.6c-1.324 1.072-2.971 1.788-4.663 2.071-1.406 1.456-2.166 3.502-1.867 5.66.299 2.157 1.586 3.92 3.334 4.939 1.705-.187 3.485.054 5.05.726l2.813 1.21c-1.719-1.53-3.123-4.457-3.604-7.927-.48-3.47.077-6.668 1.315-8.607z"/><path d="M10.203 8.993l-.92.127c-2.912.403-5.075 2.994-4.846 5.76.27 3.123 3.088 5.246 6.05 4.836l1.178-.163a8.293 8.293 0 01-2.663-5.013 8.302 8.302 0 011.2-5.547z"/></g><defs><clipPath id="clip0"><path fill="#fff" transform="rotate(-7.88 34.554 -19.5)" d="M0 0h26v26H0z"/></clipPath><filter id="filter0_d" x="-1" y=".989" width="37.319" height="37.319" filterUnits="userSpaceOnUse" color-interpolation-filters="sRGB"><feFlood flood-opacity="0" result="BackgroundImageFix"/><feColorMatrix in="SourceAlpha" values="0 0 0 0 0 0 0 0 0 0 0 0 0 0 0 0 0 0 127 0" result="hardAlpha"/><feOffset dy="4"/><feGaussianBlur stdDeviation="2"/><feColorMatrix values="0 0 0 0 0 0 0 0 0 0 0 0 0 0 0 0 0 0 0.25 0"/><feBlend in2="BackgroundImageFix" result="effect1_dropShadow"/><feBlend in="SourceGraphic" in2="effect1_dropShadow" result="shape"/></filter></defs></svg>