<svg width="26" height="26" fill="none" xmlns="http://www.w3.org/2000/svg"><path d="M.41 25.85l1.764-6.264a12.534 12.534 0 01-1.731-6.37C.443 6.283 6.083.643 13.016.643c6.933 0 12.573 5.64 12.573 12.573 0 6.933-5.64 12.574-12.573 12.574a12.56 12.56 0 01-6.147-1.603L.411 25.849zM7.2 21.9l.384.234a10.42 10.42 0 005.432 1.523c5.757 0 10.44-4.684 10.44-10.44 0-5.758-4.683-10.441-10.44-10.441s-10.44 4.683-10.44 10.44c0 2.006.57 3.954 1.648 5.633l.26.404-1.016 3.607L7.2 21.9z" fill="#fff"/><path d="M9.484 7.364l-.816-.044a.987.987 0 00-.7.24c-.396.343-1.029 1.007-1.223 1.873-.29 1.29.158 2.87 1.316 4.45 1.16 1.58 3.318 4.107 7.136 5.187 1.23.348 2.198.113 2.945-.364.591-.379 1-.986 1.146-1.672l.13-.609a.423.423 0 00-.236-.472l-2.757-1.271a.423.423 0 00-.512.125l-1.082 1.404a.31.31 0 01-.348.103c-.742-.26-3.225-1.3-4.587-3.925a.313.313 0 01.039-.349l1.034-1.196a.423.423 0 00.07-.443l-1.19-2.78a.423.423 0 00-.365-.257z" fill="#fff"/></svg>