<svg width="116" height="103" fill="none" xmlns="http://www.w3.org/2000/svg"><path d="M0 103.001v-103h116L0 103z" fill="#E05222"/><path d="M10.56 44.634c.254.362.524.655.808.88.292.22.59.373.894.46.306.074.612.075.92.002.309-.073.61-.23.906-.47.29-.236.508-.503.657-.803a2.23 2.23 0 00.248-.955 2.888 2.888 0 00-.168-1.05 4.077 4.077 0 00-.556-1.086 3.84 3.84 0 00-.819-.872 2.304 2.304 0 00-.893-.46 1.771 1.771 0 00-.929-.012 2.232 2.232 0 00-.895.462c-.296.24-.516.514-.66.821-.148.3-.228.622-.24.966-.01.331.046.681.168 1.05.123.357.31.712.559 1.067zm5.331-4.344c.444.631.744 1.262.902 1.892.159.617.198 1.215.118 1.793a4.288 4.288 0 01-.6 1.627 5.31 5.31 0 01-1.199 1.361 4.875 4.875 0 01-1.522.856 3.685 3.685 0 01-1.617.18 3.85 3.85 0 01-1.59-.595c-.52-.334-1.002-.817-1.446-1.448-.443-.631-.738-1.26-.883-1.89a4.812 4.812 0 01-.097-1.828 4.536 4.536 0 01.593-1.637c.309-.508.695-.95 1.159-1.328a4.876 4.876 0 011.522-.856 3.601 3.601 0 011.624-.17 3.83 3.83 0 011.598.605c.515.328.995.807 1.438 1.438zm2.937-8.18l1.573-1.282L25.58 38.2l-1.572 1.28-2.197-3.126-2.64 2.151 2.196 3.127-1.572 1.281-5.18-7.371 1.573-1.281 1.98 2.819 2.641-2.152-1.98-2.819zm7.23-3.683c.313.492.622.992.927 1.502.308.497.578 1.002.81 1.514a8.12 8.12 0 01.55 1.526 4.36 4.36 0 01.13 1.517c-.039.5-.184.992-.436 1.476s-.642.958-1.171 1.423l-1.188-1.307c.444-.451.727-.883.85-1.295.117-.419.096-.892-.064-1.42-.195-.655-.546-1.417-1.052-2.287a36.313 36.313 0 00-1.825-2.846l4.767-3.884 5.18 7.372-1.573 1.28-4.193-5.966-1.713 1.395zm13.767-1.834a16.886 16.886 0 00-.805-.582l-.83-.595-2.721 2.218c.102.34.2.684.296 1.03.102.34.205.668.31.984l-1.632 1.33a171.89 171.89 0 01-.801-2.81 126.18 126.18 0 01-.653-2.462c-.19-.782-.364-1.526-.523-2.233-.157-.72-.297-1.43-.42-2.133l1.501-1.223c.587.324 1.181.666 1.781 1.024a49.49 49.49 0 011.854 1.15 71.78 71.78 0 012.033 1.337c.709.482 1.473 1.013 2.293 1.594l-1.683 1.371zm-5.89-4.166c.04.134.092.32.155.56l.216.827c.082.312.172.657.269 1.036.103.372.213.762.33 1.169l1.985-1.618c-.331-.231-.65-.451-.955-.66a25.23 25.23 0 00-.853-.56l-.68-.449a47.64 47.64 0 00-.468-.305zm8.477 2.058l-5.18-7.371 1.563-1.273 3.056 4.35a71.296 71.296 0 01-.06-1.823 44.548 44.548 0 01.038-3.644c.03-.56.073-1.047.13-1.461l1.28-1.043 5.18 7.371-1.552 1.265-3.394-4.83a34.391 34.391 0 00-.036 3.693c.054 1.25.152 2.48.295 3.69l-1.32 1.076zM39.9 13.92a2.712 2.712 0 01-.692.414 2.29 2.29 0 01-.744.137 2.01 2.01 0 01-.739-.15 1.863 1.863 0 01-.637-.501l.836-1.133c.243.226.465.346.666.36a.807.807 0 00.563-.19.96.96 0 00.338-.51c.053-.21.007-.48-.139-.807l1.23-.55c.15.257.238.525.265.804.028.267.007.53-.065.789a2.483 2.483 0 01-.324.732 2.88 2.88 0 01-.558.605zm9.162-6.444l1.572-1.281 5.18 7.37-1.573 1.282-2.197-3.127-2.64 2.151 2.197 3.127-1.572 1.281-5.18-7.371 1.572-1.281 1.981 2.819 2.64-2.152-1.98-2.818zM27.958 46.814l3.909 5.563-1.22.993-3.153-4.488-1.945 1.585 3.153 4.488-1.219.994-3.909-5.563 4.384-3.572zm7.021-1.305c-.404-.574-.842-.92-1.315-1.036-.466-.122-.97.038-1.515.482-.114.093-.23.198-.348.317a2.282 2.282 0 00-.318.36l2.235 3.18c.162-.01.356-.05.58-.122a2.26 2.26 0 00.642-.372c.443-.362.654-.784.631-1.267-.016-.49-.213-1.003-.592-1.542zm1.235-1.04c.299.426.52.86.66 1.302.149.437.215.862.2 1.276a2.827 2.827 0 01-.317 1.195 3.12 3.12 0 01-.838 1.018 3.11 3.11 0 01-.753.462 3.075 3.075 0 01-.663.206l1.517 2.16-1.22.993-5.164-7.35c.199-.273.457-.59.775-.95a9.18 9.18 0 011.082-1.031c.416-.34.837-.576 1.26-.71.424-.133.84-.165 1.248-.096.41.057.802.216 1.177.48.377.25.722.599 1.036 1.045zm3.914-7.571l3.909 5.563-1.21.985-.844-1.202a76.953 76.953 0 00-.767-1.114 53.563 53.563 0 00-.61-.891 30.114 30.114 0 00-.386-.572c-.008.44-.002.915.018 1.424l.057 1.525a59.098 59.098 0 00.205 2.727l-1.079.879-3.908-5.563 1.199-.977c.289.41.562.807.82 1.188.258.37.495.706.71 1.01.214.306.397.575.55.807l.366.521c-.026-.458-.05-.929-.073-1.412a45.69 45.69 0 01-.06-1.44 32.153 32.153 0 01-.006-1.383c.007-.441.028-.848.061-1.221l1.048-.854zm3.236 1.779c-.344-.49-.578-.973-.703-1.451a3.64 3.64 0 01-.088-1.367 3.1 3.1 0 01.398-1.193 3.15 3.15 0 01.772-.93c.726-.592 1.457-.814 2.194-.668.744.141 1.447.684 2.11 1.627.05.07.103.155.161.252.06.086.111.166.154.243l-3.477 2.833c.348.42.74.646 1.176.68.439.023.91-.171 1.413-.582a4.92 4.92 0 00.747-.742 4.53 4.53 0 00.457-.657l.902.922c-.043.09-.11.206-.2.347a5.3 5.3 0 01-.336.424 6.074 6.074 0 01-.936.946c-.463.378-.916.636-1.359.773-.447.13-.871.158-1.272.083a2.84 2.84 0 01-1.137-.512 4.499 4.499 0 01-.976-1.028zm3.134-3.457a1.946 1.946 0 00-.422-.442 1.243 1.243 0 00-.503-.243.991.991 0 00-.527-.005 1.217 1.217 0 00-.538.271 1.42 1.42 0 00-.412.52c-.091.185-.145.38-.16.582-.01.198.013.396.069.596.056.2.131.39.225.569l2.268-1.848zm3.518-3.368c.189.314.388.643.597.986.204.335.411.668.622.998l.61.958c.196.309.38.594.553.855l-1.18.96a65.901 65.901 0 01-.873-1.379 134.56 134.56 0 01-.933-1.53c-.309-.53-.61-1.049-.903-1.557a50.555 50.555 0 01-.796-1.425l1.058-.863c.56.225 1.177.525 1.852.9.671.368 1.43.793 2.275 1.275a391.09 391.09 0 01-.525-2.8c-.158-.842-.257-1.531-.296-2.068l1.068-.87c.331.365.684.77 1.058 1.212.38.437.762.89 1.145 1.359.377.462.749.923 1.114 1.383.361.453.693.88.995 1.28l-1.21.986c-.421-.57-.866-1.15-1.333-1.74a92.992 92.992 0 00-1.401-1.77c.049.296.105.624.168.985.07.355.143.714.218 1.076l.22 1.059c.067.335.128.632.182.889l-.907.739c-.216-.126-.47-.27-.764-.432l-.885-.516a22.787 22.787 0 00-.906-.5 26.89 26.89 0 00-.823-.45z" fill="#fff"/></svg>