<svg width="24" height="26" fill="none" xmlns="http://www.w3.org/2000/svg"><path d="M23.385 6.85l-.007-.028c-.575-2.325-3.167-4.82-5.548-5.338l-.027-.006a30.833 30.833 0 00-11.606 0l-.028.006C3.79 2.002 1.197 4.497.621 6.822l-.006.028a22.715 22.715 0 000 9.786l.006.029c.551 2.225 2.95 4.605 5.243 5.26v2.595c0 .939 1.144 1.4 1.795.723l2.63-2.733c.57.031 1.14.05 1.711.05 1.938 0 3.878-.184 5.803-.551l.027-.006c2.38-.519 4.973-3.014 5.548-5.338l.007-.029a22.715 22.715 0 000-9.786zm-2.08 9.315c-.384 1.517-2.353 3.403-3.917 3.751-2.047.39-4.111.556-6.173.499a.146.146 0 00-.109.044l-1.92 1.97-2.042 2.096a.239.239 0 01-.411-.165v-4.299a.148.148 0 00-.12-.145H6.61c-1.564-.349-3.532-2.234-3.916-3.75-.64-2.935-.64-5.91 0-8.845.384-1.517 2.352-3.402 3.916-3.75 3.576-.68 7.202-.68 10.777 0 1.565.348 3.533 2.233 3.917 3.75.64 2.935.64 5.91 0 8.844z" fill="#fff"/><path d="M15.402 18.15c-.24-.073-.47-.122-.682-.21-2.205-.916-4.235-2.096-5.842-3.905-.915-1.03-1.63-2.19-2.235-3.42-.287-.583-.529-1.189-.775-1.79-.225-.55.106-1.117.455-1.53a3.592 3.592 0 011.203-.904c.356-.171.707-.072.966.229.562.652 1.077 1.337 1.495 2.092.257.465.187 1.033-.279 1.349-.113.077-.216.167-.322.254a1.051 1.051 0 00-.242.256.701.701 0 00-.047.616c.574 1.577 1.541 2.803 3.129 3.464.254.106.51.229.802.195.49-.058.649-.595.992-.876.336-.275.765-.278 1.127-.05.361.23.712.475 1.06.724.343.243.683.482.999.76.303.267.408.617.237.98-.313.664-.768 1.217-1.425 1.57-.185.1-.407.131-.616.196-.24-.073.21-.065 0 0zM12.006 5.632c2.884.08 5.254 1.995 5.761 4.846.087.486.118.983.156 1.476.016.208-.101.405-.325.407-.231.003-.335-.19-.35-.398-.03-.41-.05-.822-.107-1.23-.299-2.148-2.012-3.926-4.151-4.307-.322-.058-.651-.073-.977-.107-.206-.022-.476-.034-.522-.29-.038-.215.143-.386.348-.397.055-.003.111 0 .167 0 2.884.08-.056 0 0 0z" fill="#fff"/><path d="M16.39 11.314c-.005.036-.008.12-.029.2-.076.29-.515.326-.616.034a.868.868 0 01-.035-.279c-.001-.61-.134-1.221-.442-1.753A3.262 3.262 0 0013.9 8.233a3.936 3.936 0 00-1.09-.335c-.165-.027-.33-.043-.496-.066-.2-.028-.307-.156-.298-.353a.31.31 0 01.346-.306c.662.037 1.301.18 1.89.492 1.196.634 1.88 1.634 2.08 2.97.009.06.023.12.028.181.011.15.018.3.03.498-.005.036-.012-.198 0 0z" fill="#fff"/><path d="M14.595 11.244c-.24.005-.37-.129-.395-.35-.017-.155-.03-.31-.068-.46a1.296 1.296 0 00-.478-.752 1.248 1.248 0 00-.39-.188c-.177-.05-.36-.037-.537-.08-.192-.047-.298-.202-.268-.382a.347.347 0 01.366-.279c1.118.08 1.917.659 2.031 1.976.008.092.018.19-.003.28-.035.152-.148.228-.258.235-.24.005.11-.007 0 0z" fill="#fff"/></svg>