<svg width="25" height="25" fill="none" xmlns="http://www.w3.org/2000/svg"><path d="M23.997 14.567c.14-.719.214-1.461.214-2.22 0-6.385-5.175-11.56-11.56-11.56-.76 0-1.501.074-2.22.214a6.672 6.672 0 00-9.126 9.126 11.59 11.59 0 00-.213 2.22c0 6.384 5.175 11.56 11.56 11.56.759 0 1.501-.075 2.22-.215a6.672 6.672 0 009.126-9.126zm-11.126 5.718c-4.108 0-6.161-1.54-6.793-3.476-.632-1.935.75-2.488 1.184-2.527.435-.04 1.357.066 1.62.869.274.834 1.185 2.488 3.16 2.686 1.975.197 3.278-.712 3.673-1.66.395-.947-.316-2.25-3.357-2.685-3.042-.435-6.201-1.778-6.201-4.819s3.475-4.266 6.793-4.266 5 1.874 5.372 2.607c.46.909.302 2.422-.79 2.686-1.146.277-1.738-.355-2.568-1.896-.857-1.593-3.91-1.185-4.937-.276-1.027.908-.75 2.212 3.516 3.041 4.265.83 5.845 2.37 5.845 4.78 0 2.409-2.41 4.936-6.517 4.936z" fill="#fff"/></svg>