<svg width="10" height="17" fill="none" xmlns="http://www.w3.org/2000/svg"><path d="M4.774 13.845a1.565 1.565 0 00-1.54 1.618 1.54 1.54 0 001.592 1.486h-.052a1.565 1.565 0 001.54-1.565 1.578 1.578 0 00-1.54-1.54zM5.071.003a6.467 6.467 0 00-4.85 1.98 1.012 1.012 0 00-.22.646c.006.573.461 1.04 1.034 1.06a1.09 1.09 0 00.725-.27 4.233 4.233 0 013.065-1.295c1.747 0 2.588.945 2.588 2.057 0 2.38-4.23 2.678-4.23 5.77 0 .75.465 2.134 1.435 2.134h.026a.945.945 0 00.945-.944c0-.35-.246-.647-.246-.996 0-2.329 4.553-2.652 4.657-6.261C10 1.684 8.137.003 5.071.003z" fill="#009C9D"/></svg>