<svg width="86" height="86" fill="none" xmlns="http://www.w3.org/2000/svg"><g clip-path="url(#clip0_456_4776)"><path d="M43 86c23.748 0 43-19.252 43-43S66.748 0 43 0 0 19.252 0 43s19.252 43 43 43z" fill="#E05222"/><path d="M43.001 7.819c18.968 0 34.4 15.782 34.4 35.18 0 19.4-15.432 35.182-34.4 35.182-18.968 0-34.4-15.782-34.4-35.181 0-19.4 15.432-35.181 34.4-35.181zm0-7.819c-23.748 0-43 19.252-43 43s19.252 43 43 43 43-19.252 43-43-19.252-43-43-43z" fill="#FC8657"/><path d="M34.455 60.273v-5.879H31v-3.919h3.455v-3.919H31v-3.92h3.455V25h11.23c2.65 0 4.895 1.045 6.738 3.135 1.843 2.09 2.764 4.638 2.764 7.643s-.92 5.552-2.764 7.643c-1.843 2.09-4.089 3.135-6.738 3.135h-7.774v3.92h6.91v3.919h-6.91v5.878h-3.456zm3.456-17.636h7.774c1.67 0 3.096-.67 4.276-2.009 1.18-1.339 1.771-2.956 1.771-4.85 0-1.894-.59-3.511-1.77-4.85-1.181-1.34-2.607-2.009-4.277-2.009h-7.774v13.718z" fill="#FFF6F2"/></g><defs><clipPath id="clip0_456_4776"><path fill="#fff" d="M0 0h86v86H0z"/></clipPath></defs></svg>