<svg width="32" height="40" fill="none" xmlns="http://www.w3.org/2000/svg"><path d="M19.493.872H7.577c-1.229 0-2.225.958-2.225 2.139v16.188H2.811c-1.23 0-2.225.957-2.225 2.138 0 1.182.996 2.14 2.225 2.14h2.541v4.885H2.811c-1.23 0-2.225.958-2.225 2.139 0 1.181.996 2.139 2.225 2.139h2.541v4.733c0 1.181.996 2.14 2.225 2.14s2.225-.959 2.225-2.14V32.64h9.69c1.23 0 2.226-.958 2.226-2.14 0-1.18-.997-2.138-2.225-2.138H9.802v-4.886h9.69c6.484 0 11.758-5.07 11.758-11.302C31.25 5.788 25.84.872 19.493.872zm0 18.327H9.802V5.149h9.69c4.006 0 7.308 3.106 7.308 7.025 0 3.874-3.278 7.025-7.307 7.025z" fill="#E05222"/></svg>