<svg width="80" height="80" fill="none" xmlns="http://www.w3.org/2000/svg"><path fill="#F5F5F5" stroke="#009C9D" stroke-width="5" d="M2.5 2.5h75v75h-75z"/><path d="M43.493 20.872H31.577c-1.229 0-2.225.958-2.225 2.139v16.188h-2.541c-1.229 0-2.225.957-2.225 2.139 0 1.18.996 2.138 2.225 2.138h2.541v4.886h-2.541c-1.229 0-2.225.958-2.225 2.139 0 1.181.996 2.139 2.225 2.139h2.541v4.733c0 1.181.996 2.14 2.225 2.14s2.225-.959 2.225-2.14V52.64h9.691c1.229 0 2.225-.958 2.225-2.14 0-1.18-.996-2.138-2.225-2.138h-9.69v-4.886h9.69c6.483 0 11.758-5.07 11.758-11.302 0-6.386-5.412-11.302-11.758-11.302zm0 18.327h-9.69v-14.05h9.69c4.005 0 7.308 3.106 7.308 7.025 0 3.874-3.279 7.025-7.308 7.025z" fill="#009C9D"/></svg>