<svg width="17" height="27" fill="none" xmlns="http://www.w3.org/2000/svg"><path d="M7.598 18.68c-2.045-.212-3.89-.72-5.47-1.96-.196-.155-.4-.304-.577-.476-.692-.667-.762-1.432-.214-2.22.468-.674 1.253-.854 2.07-.466.157.074.307.168.453.268 2.943 2.032 6.988 2.088 9.942.092.294-.226.606-.41.968-.504.706-.181 1.363.079 1.741.699.433.707.428 1.4-.105 1.948-.817.844-1.8 1.453-2.892 1.879-1.032.402-2.164.605-3.282.738.168.186.248.276.354.383 1.519 1.533 3.046 3.063 4.561 4.601.516.526.624 1.175.34 1.786-.312.666-1.007 1.105-1.69 1.058-.43-.03-.768-.246-1.068-.55-1.147-1.16-2.314-2.298-3.438-3.48-.327-.343-.485-.278-.774.02a224.58 224.58 0 01-3.506 3.538c-.529.524-1.16.619-1.774.32-.652-.32-1.069-.988-1.035-1.661.02-.456.244-.803.555-1.115 1.505-1.51 3.004-3.022 4.504-4.533.1-.101.193-.208.337-.364z" fill="#009C9D"/><path d="M8.845 13.425c-3.65-.013-6.643-3.053-6.623-6.728C2.243 2.983 5.239-.009 8.925 0c3.693.01 6.658 3.047 6.64 6.8-.02 3.667-3.033 6.637-6.72 6.625zm3.317-6.72a3.252 3.252 0 00-2.01-3.027 3.271 3.271 0 00-3.587.724 3.262 3.262 0 00-.939 2.345A3.252 3.252 0 007.66 9.76a3.27 3.27 0 001.256.24 3.264 3.264 0 003.011-2.039c.161-.398.24-.825.235-1.254v-.002z" fill="#009C9D"/></svg>