<svg width="51" height="50" fill="none" xmlns="http://www.w3.org/2000/svg"><path fill="#fff" d="M.604 0h50.104v50H.604z"/><path fill-rule="evenodd" clip-rule="evenodd" d="M25.253 11c-4.244 0-4.777.018-6.445.094-1.664.075-2.8.34-3.795.724a7.664 7.664 0 00-2.768 1.8 7.643 7.643 0 00-1.804 2.764c-.386.991-.65 2.125-.726 3.786-.076 1.664-.094 2.196-.094 6.432 0 4.236.018 4.768.094 6.432.075 1.66.34 2.795.726 3.786a7.658 7.658 0 001.804 2.764 7.666 7.666 0 002.768 1.8c.994.384 2.13.648 3.795.724 1.668.076 2.2.094 6.445.094s4.778-.018 6.446-.094c1.664-.075 2.8-.34 3.793-.724a7.662 7.662 0 002.77-1.8 7.643 7.643 0 001.804-2.764c.384-.991.649-2.125.726-3.786.076-1.664.094-2.196.094-6.432 0-4.236-.018-4.768-.094-6.432-.076-1.66-.34-2.795-.728-3.786a7.642 7.642 0 00-1.802-2.764 7.662 7.662 0 00-2.77-1.8c-.993-.384-2.13-.648-3.793-.724-1.668-.076-2.2-.094-6.446-.094zm0 2.81c4.174 0 4.668.017 6.317.092 1.524.07 2.352.324 2.903.537.73.283 1.25.62 1.798 1.167a4.833 4.833 0 011.168 1.794c.214.55.47 1.375.54 2.896.074 1.644.09 2.139.09 6.304 0 4.165-.016 4.658-.09 6.304-.07 1.521-.326 2.347-.54 2.896a4.832 4.832 0 01-1.168 1.794 4.844 4.844 0 01-1.798 1.167c-.55.213-1.38.468-2.903.537-1.647.075-2.143.092-6.317.092s-4.669-.017-6.316-.092c-1.525-.07-2.353-.324-2.903-.537a4.845 4.845 0 01-1.798-1.167 4.836 4.836 0 01-1.169-1.794c-.214-.55-.469-1.375-.539-2.896-.074-1.644-.09-2.139-.09-6.304 0-4.165.016-4.658.09-6.304.07-1.521.325-2.347.54-2.896a4.833 4.833 0 011.168-1.794 4.846 4.846 0 011.798-1.167c.55-.213 1.378-.468 2.903-.537 1.647-.075 2.142-.092 6.316-.092z" fill="#009C9D"/><path fill-rule="evenodd" clip-rule="evenodd" d="M25.253 18.2a8.426 8.426 0 00-5.952 2.46 8.392 8.392 0 000 11.88 8.426 8.426 0 0011.904 0 8.391 8.391 0 000-11.88 8.426 8.426 0 00-5.952-2.46zm0 13.8a5.417 5.417 0 01-3.826-1.581 5.394 5.394 0 010-7.637 5.417 5.417 0 017.653 0 5.394 5.394 0 010 7.637A5.417 5.417 0 0125.253 32zm10.462-13.68a1.916 1.916 0 01-1.188 1.774 1.928 1.928 0 01-2.514-1.039 1.916 1.916 0 01.418-2.092 1.926 1.926 0 013.284 1.357z" fill="#009C9D"/></svg>