<svg width="37" height="22" fill="none" xmlns="http://www.w3.org/2000/svg"><g clip-path="url(#clip0)"><path d="M36.03 3.49c.251-.86 0-1.49-1.193-1.49H30.89c-1.004 0-1.463.545-1.715 1.144 0 0-2.008 5.026-4.852 8.285-.918.948-1.338 1.248-1.838 1.248-.25 0-.614-.3-.614-1.16V3.49c0-1.032-.29-1.49-1.127-1.49H14.54c-.626 0-1.005.477-1.005.932 0 .976 1.423 1.201 1.569 3.952v5.966c0 1.307-.229 1.546-.733 1.546-1.338 0-4.593-5.045-6.524-10.82-.377-1.121-.757-1.574-1.765-1.574H2.135c-1.129 0-1.354.545-1.354 1.144 0 1.076 1.338 6.4 6.231 13.44C10.274 21.394 14.867 24 19.051 24c2.507 0 2.817-.579 2.817-1.577V18.79c0-1.157.24-1.39 1.034-1.39.583 0 1.587.303 3.93 2.62 2.675 2.746 3.117 3.98 4.62 3.98H35.4c1.127 0 1.69-.58 1.367-1.722-.355-1.137-1.633-2.79-3.33-4.748-.921-1.117-2.298-2.318-2.718-2.919-.585-.774-.416-1.117 0-1.804.002.002 4.81-6.952 5.311-9.316z" fill="#009C9D"/></g><defs><clipPath id="clip0"><path fill="#fff" transform="translate(.781)" d="M0 0h36.075v22H0z"/></clipPath></defs></svg>