<svg width="80" height="80" fill="none" xmlns="http://www.w3.org/2000/svg"><path fill="#fff" stroke="#009C9D" stroke-width="5" d="M2.5 2.5h75v75h-75z"/><path d="M39.65 50.467c2.849 0 5.158-2.334 5.158-5.213v-23.77c0-2.88-2.31-5.214-5.157-5.214-2.848 0-5.157 2.335-5.157 5.214v23.77c0 2.88 2.309 5.213 5.157 5.213zm.002 2.839c-1.357 0-2.69.554-3.648 1.526a5.26 5.26 0 00-1.51 3.683 5.27 5.27 0 001.51 3.687 5.156 5.156 0 003.648 1.526 5.162 5.162 0 003.647-1.526 5.29 5.29 0 001.51-3.687 5.28 5.28 0 00-1.51-3.683 5.162 5.162 0 00-3.647-1.526z" fill="#009C9D"/></svg>