<svg width="11" height="19" fill="none" xmlns="http://www.w3.org/2000/svg"><mask id="a" fill="#fff"><path d="M8.655 9.286L.675 1.219a.72.72 0 010-1.01.701.701 0 011 0l8.478 8.572a.72.72 0 010 1.01l-8.479 8.572a.701.701 0 01-.999-.018.72.72 0 010-.992l7.98-8.067z"/></mask><path d="M8.655 9.286L.675 1.219a.72.72 0 010-1.01.701.701 0 011 0l8.478 8.572a.72.72 0 010 1.01l-8.479 8.572a.701.701 0 01-.999-.018.72.72 0 010-.992l7.98-8.067z" fill="#fff"/><path d="M8.655 9.286l1.422-1.407 1.391 1.407-1.391 1.406-1.422-1.406zM.675 1.219L-.746 2.626l1.42-1.407zm0-1.01L-.747-1.197.676.208zm1 0l1.421-1.407L1.675.21zm8.478 8.572l1.422-1.407-1.421 1.407zm0 1.01l1.423 1.406-1.423-1.406zm-8.479 8.572l1.422 1.406-.012.012-.012.013-1.397-1.431zm-.999-.018L-.77 19.727l1.446-1.382zm0-.992L-.77 15.97l.012-.013.013-.012 1.421 1.406zm6.558-6.66l-7.98-8.067L2.098-.187l7.98 8.066-2.844 2.813zm-7.98-8.067a2.72 2.72 0 010-3.823l2.844 2.813a1.28 1.28 0 000-1.803L-.747 2.626zm0-3.824a2.701 2.701 0 013.843 0L.253 1.616a1.299 1.299 0 001.844 0L-.746-1.198zm3.843 0l8.48 8.572-2.844 2.813-8.48-8.571 2.844-2.813zm8.48 8.572a2.72 2.72 0 010 3.823L8.73 8.385a1.28 1.28 0 000 1.802l2.845-2.812zm0 3.823l-8.48 8.572-2.843-2.813 8.479-8.572 2.843 2.813zm-8.504 8.597a2.701 2.701 0 01-3.843-.067l2.893-2.764a1.299 1.299 0 00-1.845-.032l2.795 2.863zm-3.843-.068a2.72 2.72 0 010-3.755l2.893 2.763a1.28 1.28 0 000-1.77l-2.893 2.762zm.025-3.78l7.979-8.067 2.844 2.813-7.98 8.067-2.843-2.813z" fill="#fff" mask="url(#a)"/></svg>