<svg width="160" height="196" fill="none" xmlns="http://www.w3.org/2000/svg"><g clip-path="url(#clip0)"><path fill="#E05222" d="M66.939 71h103.673v60H66.939z"/><path d="M83.578 90.178h-6.783v-4.443h18v4.443h-6.862v24.727h-4.355V90.178zm27.467 18.397c0 2.508.073 4.594.14 6.324h-3.82l-.212-3.213h-.063c-1.167 2.349-3.272 3.752-5.517 3.675-3.148 0-6-2.3-6-9.187V93.81h4.335v11.476c0 3.503.927 5.779 3.22 5.779 1.992-.071 3.575-2.077 3.565-4.521V93.817h4.35l.002 14.758zm4.558 6.327c.072-1.436.15-3.761.15-5.932V84.164h4.34V96.72h.072c1.225-2.227 3.313-3.504 5.5-3.369 4.213 0 7.21 4.288 7.18 10.691 0 7.58-3.927 11.332-7.807 11.332-2.228.137-4.33-1.265-5.44-3.636h-.073l-.212 3.161-3.71.003zm4.5-8.704c-.005.423.032.842.107 1.253.44 2.174 2.023 3.709 3.85 3.736 2.72 0 4.385-2.692 4.385-6.924 0-3.736-1.45-6.771-4.35-6.771-1.857.076-3.437 1.675-3.85 3.895a8.52 8.52 0 00-.14 1.384l-.002 3.427zm19.395-.34c.095 3.161 2.265 5.629 4.845 5.513.152-.006.305-.022.455-.049a10.836 10.836 0 004.767-.968l.64 3.675a13.657 13.657 0 01-6.017 1.308c-4.48.499-8.445-3.547-8.853-9.035a12.132 12.132 0 01-.012-1.629c-.398-5.751 3.085-10.807 7.78-11.294.21-.022.417-.034.627-.037 5.59 0 7.425 5.644 7.425 10.272.005.753-.042 1.506-.14 2.25h-11.517v-.006zm7.562-3.736c.275-2.484-1.145-4.771-3.172-5.108a2.914 2.914 0 00-.4-.04c-2.23.162-3.98 2.41-4 5.148h7.572z" fill="#fff"/><path d="M7.53 114.902V102.75L0 85.735h4.95l2.86 7.472c.82 2.168 1.42 3.82 2.06 5.804h.063c.607-1.86 1.27-3.675 2.09-5.804l2.86-7.472h4.905l-7.918 16.88v12.284l-4.34.003zm27.78-10.74c.355 5.745-3.16 10.752-7.85 11.187a6.982 6.982 0 01-.98.022c-4.585.223-8.45-4.153-8.633-9.77-.012-.358-.007-.72.013-1.078-.355-5.733 3.155-10.734 7.835-11.169a6.6 6.6 0 011.072-.015c4.553-.211 8.386 4.137 8.558 9.714.012.371.008.741-.015 1.109zm-12.963.236c0 4.051 1.62 7.135 4.268 7.135 2.478 0 4.213-2.98 4.213-7.24 0-3.292-1.208-7.043-4.17-7.043-3.073-.016-4.31 3.617-4.31 7.148zm31.941 4.177c0 2.508.072 4.594.14 6.324h-3.82l-.213-3.213h-.065c-1.167 2.349-3.273 3.752-5.517 3.675-3.148 0-6-2.3-6-9.187V93.81h4.34v11.476c0 3.503.927 5.779 3.22 5.779 1.992-.071 3.575-2.077 3.565-4.521V93.817h4.35v14.758z" fill="#000"/></g><defs><clipPath id="clip0"><path fill="#fff" d="M0 0h160v196H0z"/></clipPath></defs></svg>