<svg height="512pt" viewBox="0 -11 512.00015 512" width="512pt" xmlns="http://www.w3.org/2000/svg"><path d="m491.507812 343.199219c13.167969-30.0625 20.492188-63.273438 20.492188-98.199219 0-135.308594-109.691406-245-245-245s-245 109.691406-245 245 109.691406 245 245 245c52.023438 0 100.253906-16.230469 139.925781-43.882812zm0 0" fill="#c1d629"/><path d="m23.3125 412.753906c-3.003906-2.992187-5.070312-6.613281-6.179688-10.46875l-13.703124 13.765625c-4.585938 4.605469-4.570313 12.054688.035156 16.640625 4.605468 4.585938 12.054687 4.566406 16.640625-.039062l13.703125-13.765625c-3.859375-1.089844-7.488282-3.144531-10.496094-6.132813zm0 0" fill="#284cb2"/><path d="m34.117188 360.246094-15.570313 23.632812c-6.339844 9.621094-5.027344 22.378906 3.140625 30.507813 8.164062 8.128906 20.925781 9.382812 30.523438 3l23.558593-15.671875c5.820313-3.875 10.148438-9.617188 12.261719-16.28125l3.558594-11.199219-30.0625-29.929687-11.1875 3.605468c-6.652344 2.148438-12.375 6.5-16.222656 12.335938zm0 0" fill="#284cb2"/><path d="m76.558594 359.269531-15.03125-14.964843-11.1875 3.605468c-6.652344 2.148438-12.375 6.5-16.222656 12.335938l-15.566407 23.632812c-6.339843 9.621094-5.027343 22.378906 3.136719 30.507813 2.046875 2.035156 4.378906 3.640625 6.878906 4.800781-1.136718-5.101562 1.15625-12.242188 6.433594-18.929688l17.296875-21.914062c4.273437-5.414062 9.691406-10.066406 15.367187-13.1875l9.539063-5.246094zm0 0" fill="#1d3ba8"/><path d="m383.921875 41.308594 9.210937 9.167968c1.882813 1.875 3.222657 4.078126 4.058594 6.425782l12.230469-12.285156c5.417969-5.441407 5.394531-14.246094-.046875-19.664063s-14.246094-5.398437-19.664062.046875l-12.230469 12.28125c2.351562.824219 4.5625 2.15625 6.441406 4.027344zm0 0" fill="#5488e2"/><path d="m398.042969 36.664062c4.148437-4.167968 10.28125-5.144531 15.375-2.941406-.25-3.199218-1.59375-6.328125-4.042969-8.769531-5.441406-5.417969-14.246094-5.398437-19.664062.046875l-12.230469 12.28125c2.351562.824219 4.5625 2.15625 6.441406 4.027344l4.769531 4.75zm0 0" fill="#406bcc"/><path d="m325.351562 175.042969-63.074218-22.152344s-17.109375 14.472656-55.042969 45.441406-17.59375 81.035157-17.59375 81.035157c9.726563 32.441406 19.71875 55.15625 35.265625 53.65625 14.570312-1.40625 16.464844-16.394532 16.464844-16.394532.984375-8.25.773437-18.308594-.09375-28.734375l30.753906-49.117187s37.085938 26.933594 64.125 33.277344 27.8125-17.242188 27.8125-17.242188c17.539062-52.847656-38.617188-79.769531-38.617188-79.769531zm0 0" fill="#f2c3aa"/><path d="m355.179688 244.71875c-27.039063-6.339844-64.121094-33.277344-64.121094-33.277344l-17.707032 28.277344c6.832032 4.8125 38.78125 26.699219 62.800782 32.335938 27.039062 6.34375 27.8125-17.246094 27.8125-17.246094 1.042968-3.136719 1.816406-6.183594 2.367187-9.140625-3.105469.3125-6.78125.078125-11.152343-.949219zm0 0" fill="#eab39b"/><path d="m213.855469 270.417969s-20.339844-50.0625 17.59375-81.03125c18.007812-14.699219 31.3125-25.675781 40.332031-33.160157l-9.503906-3.339843s-17.109375 14.472656-55.042969 45.445312c-37.933594 30.96875-17.59375 81.03125-17.59375 81.03125 9.726563 32.445313 19.71875 55.160157 35.265625 53.660157 8.847656-.855469 13.015625-6.714844 14.929688-11.1875-10.535157-6.457032-18.339844-25.933594-25.980469-51.417969zm0 0" fill="#eab39b"/><path d="m460.421875 289.488281c-1.726563-2.785156-2.886719-5.875-3.460937-9.097656-6.925782-38.925781-17.03125-84.746094-34.398438-121.773437-3.445312-7.34375-8.589844-13.753907-14.957031-18.78125-12.382813-9.777344-34.847657-26.285157-47.417969-28.070313-35.628906-5.070313-80.167969-26.703125-105.316406-11.113281-36.65625 22.726562-108.707032 97.503906-96.109375 117.828125 2.332031 3.761719 6.257812 6.175781 12.601562 5.445312l15.824219-5.023437c24.027344-10.632813 57.457031-40.769532 70.085938-52.617188 3.304687-3.097656 8.019531-4.167968 12.332031-2.78125 10.886719 3.503906 26.824219 10.09375 37.828125 13.496094 28.222656 8.722656 48.800781 30.960938 50.609375 60.6875.414062 6.832031.871093 12.925781-.128907 17.148438 0 0-2.644531 16.746093-15.371093 13.761718l-42.082031-16.1875c-3.882813-2.804687-62.320313-54.574218-97.796876-37.132812-1.445312.71875-3.050781 1.777344-2.960937 1.71875-4.453125 3.011718-8.328125 8.03125-8.152344 13.289062.085938 4.980469 4.0625 7.320313 32.351563 38.148438 12.378906 13.429687 24.917968 27.605468 30.398437 36.445312 9.136719 14.738282 61.058594 40.890625 84.878907 52.332032 7.863281 3.773437 14.480468 9.710937 19.074218 17.121093l46.347656 73.398438c38.738282-26.34375 69.535157-63.5 88.042969-107.128907zm0 0" fill="#ffead7"/><path d="m387 356.511719c-4.597656-7.410157-11.214844-13.347657-19.074219-17.121094-23.820312-11.445313-75.742187-37.597656-84.878906-52.332031-12.988281-20.953125-60.507813-66.222656-62.449219-72.601563-.308594-1.085937-.308594-1.984375-.289062-2.578125-13.929688-.386718-20.699219 5.171875-20.609375 5.117188-6.152344 4.164062-10.519531 12.066406-6.839844 17.402344 6.019531 8.78125 49.375 51.023437 61.441406 70.480468 9.132813 14.734375 61.054688 40.886719 84.878907 52.332032 7.859374 3.773437 14.476562 9.710937 19.070312 17.121093l46.351562 73.398438c9.398438-6.390625 18.328126-13.417969 26.726563-21.019531zm0 0" fill="#f9d6bf"/><path d="m171.359375 223.925781 15.824219-5.027343c21.980468-9.722657 52.558594-36.171876 70.089844-52.613282.003906-.003906.003906-.003906.007812-.003906 5.644531-5.28125 12.496094-2.757812 12.363281-2.765625 5.046875 1.625 11.902344 4.183594 16.945313 6.070313.023437.007812.050781.019531.074218.027343 7.308594 2.730469 14.769532 5.53125 20.769532 7.386719 28.5 8.804688 48.304687 30.972656 50.519531 59.617188l.023437-.019532c.375 6.339844 1.011719 13.695313-.0625 18.234375-1.125 5.320313-3.457031 11.066407-8.410156 13.277344v.003906s34.320313 2.578125 37.15625-31.101562c1.324219-5.59375.074219-14.078125-.078125-22.84375-.476562-27.183594-18.722656-50.859375-44.675781-58.949219l-74.292969-23.152344c-5.507812-1.773437-11.542969-.421875-15.761719 3.535156-65.074218 61.027344-92.582031 68.023438-92.683593 68.085938 0 .003906-.003907.007812-.003907.011719-.011718.035156-.023437.066406-.035156.101562-1.648437 4.597657-2.929687 10.546875-.367187 14.679688 1.53125 2.46875 3.753906 4.347656 6.886719 5.148437 1.644531.417969 3.535156.546875 5.710937.296875zm0 0" fill="#f9d6bf"/><path d="m230.53125 240.101562 164.222656-164.960937c7.085938-7.121094 7.0625-18.636719-.058594-25.722656l-9.71875-9.675781c-7.117187-7.085938-18.632812-7.0625-25.71875.058593l-164.222656 164.960938zm0 0" fill="#284cb2"/><path d="m256.890625 178.125c-7.8125-7.777344-10.035156-19.039062-6.664063-28.804688l-55.191406 55.441407 35.5 35.339843 55.1875-55.441406c-9.746094 3.414063-21.023437 1.242188-28.832031-6.535156zm0 0" fill="#1d3ba8"/><path d="m201.949219 205.101562 28.230469 28.101563c5.207031 5.183594 5.226562 13.683594.042968 18.886719l-122.113281 122.664062c-5.179687 5.207032-13.679687 5.222656-18.886719.042969l-28.230468-28.105469c-5.203126-5.179687-5.222657-13.679687-.042969-18.886718l122.113281-122.664063c5.183594-5.203125 13.683594-5.222656 18.886719-.039063zm0 0" fill="#5488e2"/><path d="m79.222656 345.996094 122.113282-122.664063c5.179687-5.203125 12.03125-6.867187 15.21875-3.691406l-14.605469-14.539063c-5.203125-5.183593-13.703125-5.164062-18.886719.039063l-122.113281 122.664063c-5.179688 5.207031-5.160157 13.707031.042969 18.886718l14.605468 14.539063c-3.1875-3.171875-1.554687-10.03125 3.625-15.234375zm0 0" fill="#406bcc"/><path d="m300.460938 252.410156c-3.882813-2.804687-62.320313-54.574218-97.800782-37.132812-1.445312.714844-3.050781 1.777344-2.957031 1.71875-4.453125 3.011718-8.328125 8.027344-8.152344 13.285156.085938 4.984375 4.0625 7.320312 32.351563 38.152344 34.078125 36.96875 27.066406 34.066406 34.574218 41.382812l73.21875-45.394531zm0 0" fill="#ffead7"/><path d="m287.222656 291.996094c-1.792968-1.746094-3.226562-3.40625-4.175781-4.9375-12.988281-20.953125-60.507813-66.222656-62.449219-72.601563-.304687-1.082031-.304687-1.984375-.289062-2.578125-12.703125-.351562-25.8125 4.769532-28.476563 15.609375-1.585937 6.972657.601563 6.691407 31.4375 40.257813 35.707031 38.5625 26.898438 33.972656 35.199219 42.066406.003906.003906.003906.003906.003906.003906zm0 0" fill="#f9d6bf"/><path d="m122.09375 321.585938c-2.054688 0-4.113281-.785157-5.683594-2.347657-3.152344-3.140625-3.164062-8.242187-.027344-11.394531l19.113282-19.195312c3.136718-3.15625 8.238281-3.167969 11.390625-.027344 3.15625 3.140625 3.164062 8.242187.027343 11.394531l-19.113281 19.195313c-1.574219 1.582031-3.640625 2.375-5.707031 2.375zm0 0" fill="#406bcc"/><path d="m102.980469 340.78125c-2.054688 0-4.109375-.78125-5.683594-2.347656-3.152344-3.136719-3.164063-8.238282-.023437-11.390625l19.109374-19.199219c3.140626-3.152344 8.242188-3.164062 11.394532-.023438 3.152344 3.140626 3.164062 8.238282.027344 11.390626l-19.113282 19.199218c-1.574218 1.578125-3.640625 2.371094-5.710937 2.371094zm0 0" fill="#284cb2"/><path d="m70.085938 407.421875-41.652344-41.464844c-3.152344-3.140625-3.164063-8.242187-.027344-11.394531 3.140625-3.15625 8.242188-3.164062 11.394531-.027344l41.652344 41.46875c3.152344 3.140625 3.164063 8.238282.027344 11.394532-3.136719 3.152343-8.238281 3.164062-11.394531.023437zm0 0" fill="#406bcc"/><path d="m48.636719 374.492188c2.484375-2.5 6.113281-3.160157 9.210937-1.992188l-18.046875-17.964844c-3.152343-3.136718-8.253906-3.128906-11.394531.027344-3.136719 3.152344-3.125 8.253906.027344 11.390625l18.578125 18.5c-1.597657-3.234375-1.066407-7.261719 1.625-9.960937zm0 0" fill="#284cb2"/></svg>