<svg xmlns="http://www.w3.org/2000/svg" viewBox="0 0 491.71 491.71"><path d="M337.92 51.295v-20.48c0-16.94-13.78-30.72-30.72-30.72H184.32c-16.94 0-30.72 13.78-30.72 30.72v20.48H0v317.44h491.52V51.295h-153.6zm-163.84-20.48c0-5.645 4.595-10.24 10.24-10.24H307.2c5.645 0 10.24 4.595 10.24 10.24v20.48H174.08v-20.48zm296.96 317.44H20.48V160.522l140.8 75.093h53.76v30.72h61.44v-30.72h53.76l140.8-75.093v187.733zm-235.52-102.4v-30.72c0-5.645 4.595-10.24 10.24-10.24 5.645 0 10.24 4.595 10.24 10.24v30.72h-20.48zm235.52-108.544l-145.92 77.824h-48.64c0-16.94-13.78-30.72-30.72-30.72s-30.72 13.78-30.72 30.72H166.4L20.48 137.311V71.775h450.56v65.536zm-31.99 262.144H51.2c-25.41 0-46.08 20.67-46.08 46.08s20.67 46.08 46.08 46.08h387.85l52.66-46.08-52.66-46.08zm-336.65 71.68H51.2c-14.115 0-25.6-11.485-25.6-25.6s11.485-25.6 25.6-25.6h51.2v51.2zm276.48 0h-256v-51.2h256v51.2zm52.47 0h-31.99v-51.2h31.99l29.26 25.6-29.26 25.6z" fill="#fff"/></svg>