<svg width="77" height="79" fill="none" xmlns="http://www.w3.org/2000/svg"><path d="M59.65 62.655l-9.671-9.672a5.156 5.156 0 00-7.293 0L39.869 55.8a47.476 47.476 0 01-15.774-15.774l3.089-3.088a5.163 5.163 0 000-7.293l-9.672-9.672a5.154 5.154 0 00-7.3.006l-6.077 6.125c-2.908 2.442-3.931 6.45-2.605 10.25C8.335 55.855 24.04 71.56 43.54 78.365c3.669 1.28 7.437.323 9.832-2.145a1.82 1.82 0 00.102-.095l6.176-6.177a5.163 5.163 0 000-7.293zm-3.08 4.212l-6.037 6.037a2.128 2.128 0 00-.209.199c-1.27 1.381-3.314 1.858-5.347 1.148C26.719 67.88 12.015 53.176 5.644 34.918c-.73-2.09-.203-4.256 1.341-5.517a2.17 2.17 0 00.168-.153l6.147-6.194a.796.796 0 011.13 0l9.672 9.672a.8.8 0 010 1.13l-4.279 4.28a2.179 2.179 0 00-.357 2.61A51.835 51.835 0 0039.148 60.43a2.18 2.18 0 002.611-.357l4.008-4.008a.8.8 0 011.131 0l9.672 9.672a.8.8 0 010 1.131zM40.163 20.236a2.547 2.547 0 000 5.094c6.523 0 11.83 5.307 11.83 11.83a2.547 2.547 0 005.094 0c0-9.332-7.592-16.924-16.924-16.924z" fill="#fff"/><path d="M40.163 10.24a2.547 2.547 0 000 5.094c12.035 0 21.826 9.791 21.826 21.826a2.547 2.547 0 005.094 0c0-14.843-12.076-26.92-26.92-26.92z" fill="#fff"/><path d="M66.188 11.136C59.236 4.185 49.994.356 40.163.356a2.547 2.547 0 000 5.094c17.485 0 31.71 14.226 31.71 31.71a2.547 2.547 0 005.094 0c0-9.83-3.828-19.072-10.78-26.024z" fill="#fff"/></svg>