<svg width="82" height="82" fill="none" xmlns="http://www.w3.org/2000/svg"><path d="M40.65 24.175H12.1a2.366 2.366 0 00-2.365 2.366c0 9.118 7.553 16.562 16.72 16.562 9.132 0 16.562-7.43 16.562-16.562a2.366 2.366 0 00-2.366-2.366zM26.456 38.37c-5.79 0-10.633-4.071-11.747-9.466h23.34c-1.1 5.395-5.88 9.466-11.593 9.466zM16.99 19.442h4.733a2.366 2.366 0 000-4.732H16.99a2.366 2.366 0 000 4.732zm14.197 0h4.732a2.366 2.366 0 000-4.732h-4.732a2.366 2.366 0 000 4.732z" fill="#fff"/><path d="M54.847 28.907c-.83 0-1.66.041-2.485.12a26.21 26.21 0 00.119-2.486C52.481 12.102 40.806.356 26.455.356 12.066.356.27 12.155.27 26.54c0 14.351 11.746 26.027 26.184 26.027.838 0 1.667-.042 2.486-.12a26.42 26.42 0 00-.12 2.486c0 14.438 11.675 26.184 26.026 26.184 14.389 0 26.184-11.798 26.184-26.184 0-14.351-11.746-26.026-26.184-26.026zM5.003 26.54c0-11.83 9.623-21.453 21.452-21.453 11.741 0 21.294 9.624 21.294 21.453 0 11.741-9.553 21.294-21.294 21.294-11.829 0-21.452-9.553-21.452-21.294zm49.844 49.844c-11.742 0-21.294-9.624-21.294-21.452 0-1.153.094-2.302.277-3.432 8.43-2.495 15.09-9.155 17.585-17.586a21.52 21.52 0 013.432-.276c11.829 0 21.452 9.552 21.452 21.294 0 11.828-9.623 21.452-21.452 21.452z" fill="#fff"/><path d="M54.847 69.7a16.588 16.588 0 01-12.335-5.519 2.366 2.366 0 013.524-3.158 11.85 11.85 0 008.811 3.945 11.85 11.85 0 008.81-3.945 2.366 2.366 0 013.525 3.158 16.588 16.588 0 01-12.335 5.52zm-9.464-17.133h4.732a2.366 2.366 0 100-4.732h-4.732a2.366 2.366 0 100 4.732zm14.196 0h4.732a2.366 2.366 0 000-4.732H59.58a2.366 2.366 0 000 4.732z" fill="#fff"/></svg>