<svg width="42" height="66" fill="none" xmlns="http://www.w3.org/2000/svg"><path d="M36.19 5.17C32.41 1.714 27.358 0 21.006 0 15.008 0 10.193 1.595 6.56 4.816 2.925 8.036.709 12.674 0 18.7l8.184.975c.709-4.52 2.186-7.83 4.46-9.956 2.275-2.127 5.112-3.19 8.51-3.19 3.515 0 6.47 1.18 8.892 3.515 2.422 2.334 3.633 5.081 3.633 8.154 0 1.713-.413 3.28-1.24 4.727-.828 1.447-2.63 3.397-5.377 5.82-2.748 2.422-4.668 4.284-5.732 5.554-1.447 1.743-2.481 3.457-3.131 5.17-.887 2.275-1.33 4.963-1.33 8.095 0 .532.03 1.33.06 2.393h7.651c.06-3.19.266-5.495.65-6.913.384-1.418.975-2.66 1.773-3.752.797-1.093 2.481-2.777 5.081-5.082 3.87-3.427 6.47-6.322 7.8-8.715s1.98-4.993 1.98-7.829c0-4.845-1.892-9.04-5.673-12.497zM25.496 56.93h-9.07V66h9.07v-9.07z" fill="#fff"/></svg>