<svg width="105" height="105" fill="none" xmlns="http://www.w3.org/2000/svg"><path d="M55.78 13.18h-.218v-.22a3.076 3.076 0 10-6.153 0v.22h-.218a3.077 3.077 0 000 6.152h.218v.219a3.076 3.076 0 106.153 0v-.22h.218a3.076 3.076 0 100-6.151z" fill="#fff"/><path d="M101.572 101.078l-4.053-14.181a22.786 22.786 0 00-12.687-14.6L65.447 63.68v-5.558c5.968-4.126 9.886-11.015 9.886-18.802V3.076A3.078 3.078 0 0072.256 0h-39.54a3.076 3.076 0 00-3.077 3.076V39.32c0 7.787 3.918 14.676 9.886 18.802v5.558l-19.386 8.616a22.785 22.785 0 00-12.687 14.6l-4.053 14.182c-.542 1.894.845 3.922 2.96 3.922 1.338 0 2.569-.88 2.955-2.232l4.054-14.181a16.647 16.647 0 019.27-10.669l7.878-3.502c.009.009.016.02.025.028l19.77 19.77c.6.6 1.387.9 2.175.9.787 0 1.574-.3 2.174-.9l19.77-19.77.024-.028 7.88 3.502a16.65 16.65 0 019.27 10.668l4.052 14.182A3.08 3.08 0 0098.613 105c2.21 0 3.476-2.116 2.959-3.922zM35.792 6.152h33.387V26.36H35.792V6.152zm0 33.168v-6.81h33.387v6.809c0 9.204-7.49 16.693-16.694 16.693-9.204 0-16.693-7.489-16.693-16.693zm16.694 48.368L36.537 71.74l7.313-3.25a3.076 3.076 0 001.827-2.811v-4.55a22.768 22.768 0 006.809 1.036c2.37 0 4.657-.363 6.808-1.036v4.55c0 1.216.716 2.317 1.827 2.81l7.312 3.251-15.948 15.948z" fill="#fff"/><path d="M82.14 92.257h-9.884a3.076 3.076 0 100 6.152h9.883a3.076 3.076 0 100-6.152z" fill="#fff"/></svg>