<svg width="12" height="13" viewBox="0 0 12 13" fill="none" xmlns="http://www.w3.org/2000/svg">
<path id="pin" fill-rule="evenodd" clip-rule="evenodd" d="M0 5.41666C0 2.42983 2.55159 0 5.6875 0C8.82341 0 11.375 2.42983 11.375 5.41666C11.375 6.87053 10.7774 8.23608 9.69264 9.26148L5.88966 12.9196C5.83634 12.9712 5.76359 13 5.6875 13C5.61141 13 5.53866 12.9712 5.48534 12.9196L1.68071 9.25963C0.597642 8.23608 0 6.87053 0 5.41666ZM3.31771 5.10701C3.31771 6.38702 4.38051 7.42842 5.6875 7.42842C6.99449 7.42842 8.05729 6.38699 8.05729 5.10698C8.05729 3.82697 6.99449 2.78556 5.6875 2.78556C4.38051 2.78556 3.31771 3.82697 3.31771 5.10701Z" fill="#979EA7"/>
</svg>
