<svg width="28" height="28" viewBox="0 0 28 28" fill="none" xmlns="http://www.w3.org/2000/svg">
<path d="M23.8554 10.7065H21.3037C20.5532 10.679 19.8798 10.2375 19.5555 9.56018C19.434 8.82782 19.5758 8.07607 19.9559 7.43838C20.0975 7.10101 20.2366 6.7645 20.3419 6.42713C20.4642 6.03793 21.4983 2.57311 20.243 0.882288C19.8157 0.305879 19.1322 -0.0235809 18.4151 0.0013167H18.3854C17.445 0.012897 16.6056 0.593553 16.2631 1.46931C15.0978 4.3889 11.9671 9.84698 8.52599 12.0645C7.82827 12.5138 7.40801 13.2881 7.41138 14.118V23.5069C7.41129 24.0154 7.64675 24.4952 8.04907 24.806C9.28826 25.7871 10.817 26.331 12.3973 26.3529H20.2373C21.368 26.3603 22.4234 25.7877 23.0335 24.8358C25.0594 21.7113 26.4518 18.2193 27.1317 14.5582C27.2896 13.5972 27.0169 12.6153 26.3859 11.8733C25.7549 11.1314 24.8293 10.7048 23.8554 10.7065Z" fill="#AFD200"/>
<path fill-rule="evenodd" clip-rule="evenodd" d="M2.47046 12.3537H4.11747C6.58535 12.3537 6.5865 13.458 6.58793 14.8195V25.5346C6.5865 26.8958 6.58535 28 4.11747 28H2.47046C0.00263887 28 0.00145766 26.8958 0 25.5346V14.8195C0.00145766 13.458 0.00263887 12.3537 2.47046 12.3537ZM3.34921 26.1985C3.80402 26.1985 4.17274 25.8298 4.17274 25.375C4.17274 24.9202 3.80402 24.5515 3.34921 24.5515C2.89439 24.5515 2.52568 24.9202 2.52568 25.375C2.52568 25.8298 2.89439 26.1985 3.34921 26.1985Z" fill="#AFD200"/>
</svg>
