<svg xmlns="http://www.w3.org/2000/svg" viewBox="0 0 410.62 330.04"><defs><style>.cls-4{fill:#b9ce00}.cls-5{fill:#009fe3}</style></defs><g id="Слой_2" data-name="Слой 2"><g id="Layer_1" data-name="Layer 1"><path d="M61.64 83.21a61.64 61.64 0 1 0 61.63 61.64 61.64 61.64 0 0 0-61.63-61.64z" fill-rule="evenodd" fill="#b9ce00"/><path d="M61.27 155l-.27-.1-.21-.5-.2-.09-.18-.31h-.99l-.09.14-.26-.14-1.17.11-.2.09-.09-.06 3.68.85zm41.19 36a62.26 62.26 0 0 0 7.26-7.62l-.6-.52-.11-.69-.06.12-.29-.3-.09.21-.15.06-.11-.65-.24-.38-.21-.11.09-.24-.4-.23-.3-.06-.11-.32h-.33l-.29-.15v-.26l-.12-.09-.15-.93-.2-.18-.12-.93-.43-.44-.33.09-.14-.09-.24-1-.17-.18v-.23l-.15-.12v-.44l-.06-.18-.23.18-.38.85.08.12-.14.61.06.85-.21.9-.23.56-.44.14-.47-.29-.17-.26-.5-.12-.5-.44-.46.06-.07-.38-.43-.2.26-.79-.12.06.09-.3.12.09v-.18h.14l.06-.09-.06-.11.21-.29h-.17l-.06-.23-.27.38v-.27h-.12l.09-.11-.43.2-.27-.14h-.31l-.27-.18-.38-.06-.14-.17-.06.11-.27-.24v.07l-.09-.09-.15.09h.11l.36.17v.36l-.29.14h-.59l-.09.08v.21l-.18-.15-.23.15v.23h.06v.15l-.23.06-.29.5.2.26-.06.06v.15l-.29-.21h-.38l-.18.15-.16.32.14-.55-.32-.33-.42-.17-.43.2-.09-.15v.36l-.15.09v-.09h-.32l.09.29-.2-.05v.23l-.29.06v.17l-.14.29v.15h-.17l-.12-.21-.23.06v.2l.14.29h-.12v.27l-.38-.68-.06.21-.26.18-.12.26.12.32-.29.29-.18.41-.35.23-.8.27h-.25l-.21.17-.64.27-.52-.09-.47.29-.27.35-.52.18-.21.41-.06-.5v.09l-.17.29v.64l-.2.38v.29l.46 1-.14.2-.12-.2.08.29-.14.06-.11-.21-.12-.06.41.56.14.58.44.82.06.73.41.88v1l-.15.28h-.2v.44l.23.06.35.38 1 .17v-.11h.17l.38-.33h.29l.35-.39h2.08l.26-.53 1.17-.52 1.14-.12.64-.35h1l.44.09.38.29.18-.09.44.21v-.09l.49.29-.05.27.34.17.39.76v.23l-.17-.12v.12l.46.3v-.3l.27-.38.46-.26.3-.52v-.3l.15.45-.06.25-.26.41v.52h-.26v.2h.47l.2-.65.24.41v.32l-.18.26.67-.17-.06.23.06.07zm12.88-15.9l.07-.13-.26-.11.19.24zm4.9-49.4a61.23 61.23 0 0 0-7.56-15.42h-1.45l-1.23.31-.44-.29.32-.38-.44-.46h-.49l-.29-.38-.66-.08.27-.4.32.08-.15-.55-.17-.15-4.82-1.17-.16.18.18.35-.81 1 .08.35-.11.21.17.52-.31-.11-.85.67-1.38-.87h-.32l-.12.5-.67-.15-.52-1-.38.82v.64l-.41.84-.2-.4-.58-.21-.58-1.15-.15.07-.06-.5.47-.5-.06-.06.08-.35-.2-.41.15-.76-.76-.93-.67-.18-.21.26-1.61-.87v.29l-.24-.08-.11.6.17.62-.15.17-1.22.24-1.46-.47-.06-.52.26-.12-1.87-.44-1.22.41.43.38-.5.2h-.17l.24-.17-.19-.06.07-.59-.33-.78v.47l-.21.2-.67-.24-.06-.28.12-.15-.35.26-.44-.26-.33.43.13.42.49-.38.21.26-.7.47-.36-.24.18.26-.12.12-.94.44-.66-.06v.41l.23.21-.41-.21-.32.21 1-1.49h.59l1.31-1.9.8-.35v-.29l.34-.08-.11-.12.52-.32.35-.59-.09-.37.09-.15-.47-.15-.26-.56.55.56.24-.5v-.29h-.14l-.24-.73-.17.35-.18-.32.12-.23-1-1-1.66-.09-.47.72h-.7l.58-.72.12-.38-.06-.21-.9-.12v-.29l-.82.5 1-1-.24-.52-.94-.44-.64.24-1 1.4-.22.65.29.44-.14-.06v.29L79 98.9l.56.55-.09.53-.23-.24-.36-.35-.58.44.09.27-.73.26.06-.26-.12-.1-.38.33.2-.56-.17-.11-1.67.23v.23h.35l-.05.27-2.4.85-.7.84h-.62l.45.21-.33.14-.2.64-.5-.37-.11.34.52.26-.43.42.44.28.14.4-.17.06v.29l-3.25.59-.25.11.14.18-.29.29.15.08-.15.21.4.53-.11.38.09.49.79.41v.15l-.06.17.7.41.09.44-.21.64.24 1v.5l-.32.15v.35l-.52-.35.06-.76-.06-.82.44-.35.14-.53-1-.11-.4-.59-.87-.58-1.06.35v.2l.38.15-.49.47h-.24l-.23-.46-.23.12.17.58.7.52.24-.17.28.76-1.75-.7-.11-.15.17-.06v-.29l-.17-.7.23-.5-.09-.46.09-.06-.32-.61h-.17l.14 1.08-.94.79-.2.56.73 1.52-.41 1.4.21.64-.09.44.76.23.55-.26.91.59.3.9-.33.23v.56l.76.29-.64.06-.29-.29.11-.7-.11-.15.06-.32-.33-.35-.11-.41-1.2.46-.15.55.27.62v.47l-.44.52-.26.71-.65.4-.05.47h-.13l-1.1-.18-.06-.49-.12-.12.32.08h.06l.85-.35-.32-.33.44.07.29-.65.23-.2V115l.21-.43v-.29l-.56-.68.12-1.34-.15-.73.18-.23v-.79l-.12-.59-.47-.56L64 108l-.06-1-1.84-.41-.27.64-.29 1.52-.9.93-.09.41h.24l-.3.44.5.17-.15.71.09.35-.23.09v.7l.72.17v.2l.23.62.35.24-.47 1-.69-1-1.7-1.17-1.69-.5-.5.38.38.79-.09.38-.55.31v.35l-.23.24-.23-.21.17-.4-.35-.5-.88.79H54.1l-.45.63-.4-.26-.07-.4.12-.32-.2-.09.44-.21-.65.15-.09.17v.21l-.12.06-.18-.18-.2.27.12.08-.12.29-.18-.26-.25.05-2.08 1.38-.21.58v.3l-.61.5-.06-.32h-.32L48 116l.2-.4.73-.18-.15-.55-.34-.45-1.44-.3.5.55v.88l-.14.64.4.53-.26 1v.59l-.21-.36-.2.12.09-.29-.74-.38-.44.6-.91.62v.4l.55 1.17-1.38-.43-.2.23-.06-.2.18-.09-.82-.47-.24.38.09.26.38.47.32-.12.21.73-.41.15-.76-.32-.35-.44-.55-.12.14-.23v-.35l-.28-.62.2-.14.06-.64-1.64-1.7.26-.11.61.58h.53v.26l2.55.64.67-.29.68-.7.11-.52-.17-.12-.07-.61-.6-.71-.85-.29-1.49-1.43-1.43-.06-.12-.29-.17.15v-.18l-.55-.23.08-.29.45.26.11-.26-.7-.32v.25h-.09l-.09.23-.44-.21-.72.15.17-.35-.73-.47.82.12.53-.58-.59-.53-.35.08-.06-.32-.38.18v.53h-.32l.18-.3h-.33l.18-.15-.12-.12.27-.06v-.28L38 110l-.32 1.11-.26.12v-.94l-.88 1.49-.11-.09.17-.58.38-.67-.35.11-.15-.31-.38.23.22.29-.8.76v.41l-.24-.21.06-.15-.35.12-.23-.29-.09.23-.15-.23v.29l.26.06v.62l-.44-.5v.18l-.35.11-.06.14v.27l-.23.37V112l-.3.33-.06.46v-.52h-.26l-.06.44.23.44-.44-.52h-.14l.33.37-.12.11-.23-.11v-.24l-.08.33.06.14-.36.3.17.26h-.11v.18l-.67.35.61.11-.2.23-.53-.09v.59l-.15.12-.14-.41-.27.44.09.26-.2.18h.29l-.65.14-.22.73-.51.44v.17l.11.06-.2.09.15.29-.5.5.29-.18.06.27-.21-.09-.05.35h-.12l.08.38-.19-.26-.12.4.14-.11v.26l-.58.32v.21l.09.06-.06.29-.24-.09-.5.61v.21l-.2.14.23.41.68-.35-.71.56-.2-.32-.26.14.08.18-.11.09-.09-.24-.3.12-.57.52-.35.21.35.2v.15h-.64l.11.09-.06.11v.27l-.15-.24-.18.26.06.15-.53-.12v.27h.68l-.8.17.15.15-.15.26v.32h.71l.11-.29v.23h.3l.29-.43-.13.4.18-.06-.31.18v.21H26v-.14l-.94.21.12.09v.17l-.18-.09.12.21.29-.09-.29.38.06.23.14-.14v.2l-.09.12v.11l.47-.73h.41l-.24.27-.06-.15-.43.67.32.06-.62.41v.12l.59-.21-.21.67-.2-.08-.06.32.47.46.23-.09-.06.33h.58l.82-.62.29-.52.32.09.15-.29V126l.18.17-.06-.35.12-.06.06.76.26.15v.67l.09.23.14-.09v.09l-.14.18.18.06v.26h.11v.47l.62.88-.18.14.05.18-.14.06.3.58-.12.2h.75l.17-.66.88-.09.42-1.38-.09-.49h.12v-.42l-.23-.14.27-.09-.36-.09.45-.08.31-.41.21.17.24-.26v-.14l.17-.09-.77.09-.55-.24.41-.12.5.24.37-.18.18-.41-.29-.43h.09l-.53-.41-.41.52-.35.06.53-.35-.06-1.28.06-.24.12.09.08-.73-.11-.35.2.09.09-.18v-.41l.11.18.18-.27.26-.38 1-.61.62-.82-.24-.55.24-.44-.06-.3.35-.29-.12-.23.24.18.12-.41.87.17.06-.23.7.67.15.67-.49.21-.09.38-1 1.34-.29.32h-.3v.3h-.21l-.2.43.14.53v.23l.27.67h-.12v.38l-.12.24.12.26-.09.15.7.44.18-.12.15.44.14-.12.09.17.49-.11.88-.47 1-.17.56-.12v.32l-.12-.12.09.27.73.17.26.26h-.67l-.46.36-.15-.12-.06.35h-.09l-1.26-.26-1.22.52-.06.41.21.09-.15.11.12.32h.46l-.05.56-.06.67-.12.3-.44-.15-.47-.7-.46.23-.41.85v.56l.17.9v.06l-.06.32L34 131l.09-.15-.43.2-.24.5-.5.18-.18-.41.18.06v-.18l-.82.06-1.64.78-.08.09h.16v.15l-.18-.09-.69-.61-.33.12.12-.18-.67.49h-.41l.17-.38H28l-.12-.15v-.29l-.18-.06h.09l-.12-.23.12-.5-.06-.12h.18v-.17l.26-.09v-.23l.12.06.21-.18v-.18h-.42l.09-.2h-.14l.26-.65-.06-.52-1.2.88-.14.55v.85l.31.23v.41l.21.41-.21.17.27.47-.3.09v.44l-.08-.21-.21.09-.05-.2h-.44l-.11.2.26.24h-.26l-.21-.21-.7.21v.32h.09l-.12.33v.23l-.24-.11v-.21l.12-.09-.12-.17-.47.93.09.18h.33l-.56.17.23.12h-.5l-.37.23-.56.17-.09.62-.76.44-.05.23h.17l-.87.06-.15-.26h-.33l.21 1h-.67l-.47-.2-.73.23v.18h.23l-.12.13.12.11h-.17l.2.23.21-.05.84.29v.17l.41.06h-.24l.06.32.14.26.39.18v.44l.26.4-.18-.22-.11.63.11.06-.2.88-.27.17-3.65-.23-.14.29h-.32l-.18.2.27.27-.06.15.06.14h.08l-.08.41.08.64-.43 1.64.17.24.26-.06-.12 1.05.85-.12.47.12.32.58.35.15.62-.5h1.34l.41-.55h.32l.18-.5.29-.26.06-.12-.23-.15-.07-.29.65-1 1.28-.76.15-.38-.16-.06v-.34l.06-.24.47-.29.58.08.65.27.79-.61.31-.09.38-.35.79.32.24.73.35.52h.27l.81.85h.3l.38.47h.26l.12.32.23.17.12-.08.32.93-.21.12-.08.32v.21h.2l.27-.33.05-.34.27-.13v-.31l-.32-.24.11-.44.27-.14.4.23.27.3.06-.18-.33-.5-1.14-.55.12-.33h-.05l-.5.09-.3-.21-.32-.38-.32-.79-.61-.44-.11-.35.11-.29-.07-.08v-.24l.52-.29h.2l.06.14v.29l.15.27h.08l.21-.37h.12l.17.17.12.44.2.15-.14.14.5.53.49.06.38.32H32l.46.15.2.17.11-.11-.11.1.6.55.17.09-.12.32v.71h-.08l.52.58.32.44h.2v.1h-.23l.23.38h.88l.29.15-.14.12h.41l.23.23v-.38l-.85-.53.27-.06v-.23l.18.06-.33-.56v-.43h.15l-.06.12.41.38v-.24l.29.2-.11-.29.28.12-.34-.29.43-.27h.32l.62.18.32.09-.21.18v.23l.79-.68h.74l.11-.17-.49-.23-.09-.29-.37-.5.21-.21.06-.29.29-.23.12-.3.11-.93.12.12-.06.26.29-.26v-.82l.09.18.35-.33-.14-.29.23.18.12-.3.67-.2.2.23h-.35l.24.09-.12.15 1.05.11.09.09-.73.44.5.24v.46l.32.12.87-.58.56.05.08-.32-.87.12-.12-.29-.23-.09.06-.15h-.23l-.24-.23h.18v-.15l.21.29.12-.14.11.17v-.17l.15-.27.11.15.27-.27 1.46-.41.47-.11.11.14-.52.18v.12h-.38v.12l.43.35-.31.08-.3.5h-.32l-.12.14.41.44h.15l.64.42.62.55.26.23.58.35.23.59v.23l-.11.09-.64.46-.59-.08-.76.17-1-.29-.15-.35-.26.06-.29-.29h-1l-.59.2-.7.55L39 143l-.12.17.09.12.38.09-.47.06h-.11l.11.15h-.11l-.65-.07v.13l-.59.05-.24.18-.11.41.38-.06-.06.26.15.26-.12.15.23.17h-.29l-.12-.17-.09.29.5.18-.06.23.18.06-.06.15.18.19-.11.15h.55l-.49.29.35-.09v.12l.29-.15.15.15.14-.06.12.29.32.12.38-.12.06-.41h.18l1.11.62.72-.23.21-.24.23-.06.35.17.3-.23.11.12-.14.15v1.17l-.59 1.12-.3 1-.19.29-.56.18h-.32l-.24-.18v.14-.15l-.15-.09v-.06l.17.15-.17-.21-.48.05-.29.09.12-.09-1.06.44-1.19-.41-1-.12-.14-.2-1-.2-.2-.32-.47-.15-.61.09-.59.49-.06.29.13.36-.16.29-.55.23-.7-.44-1.08-.26-.35-.64-.79-.32h-.81l-.56-.26h-.15l-.12-.26-.14.06-.27-.12-.17-.2v-.09h.14v-.21l.41-.32.15-.32v-.26l-.23-.15-.09-.2.35-.53v-.14l-.32.23-.12-.06v-.29l-.35-.06-.52.26-.47.06-.36-.17-.16.14-.35-.14-.59.29-.21-.12h-.58l-1.52.3-.56.26-.14.18-.5.08-.29.32-.41.15-.58-.15-.76.09-.35-.18-.24-.31-.26.11-.5 1.14-1 .59-.44.49-.09.32-.32.44v.5l.1.38-.18.32-.18.26-.76.62-.73.23v.12l-.29.58-.56.47-.23.64-.5.7-.43 1-.15.06-.15.76.09-.06.29.47.06.29-.17.27.23.55v.53l-.29.9v.27l-.17.32-.42.2.15.06.44.64-.15.15v.56l.53.43.59-.15-.36.15.06.29.15.15.09.12.11-.12.23.47.27.15.34.43.12.41-.09.06.21.26.29.3.5.23 1.26 1.05 1 .44H18l.64-.29.8-.18h.93l.67.26 1.23-.58h.47l.17-.21.38-.08.5-.06h.82l.35.15.08.17.27.23v.36l.44.35.38-.12.12-.15.57.12.09-.23.09.08.06.09h.18l.08.26h.38l-.06.21.23.23-.17.64-.17.53.11.14v.15l-.11.12.29.23-.32-.09v.42l-.27.17.3.67 1.05 1.17.32.32.2.29.18.47v.23l.5 1.17.06.33-.12.2.12.5.23.29v.29l-.06.68-.4.37-.3.56-.41 1.25v1.31l.55.83 1 1.9v1l.17.52.06.47.21 1.08.29.44.44.35.55 1.35.47.84v.44l-.09.15h-.12v.18l.32.53v.23h.17v.21l.71.26.22-.2.82-.06.41-.24 1.32.12.08-.14.44.05v-.2l.82-.15.79-.64.88-1 .75-1.28.59-.53.27-1.11v-.41l-.07.15-.17-.17.2-.3 1.09-.49.37-.38v-.21l-.11.21v-.12l.14-1.14-.06.06-.23-.85-.17-.17v-.41l.73-.59.06-.17.11.15.23-.36h-.08l.52-.41.91-.32.41-.32v-.13l.46-.43v-.18h-.09l.17-.29-.08-.3h-.06V176l.2-.5-.11-.32-.32-.2-.27-.67-.09-.33.18-.73-.41-.44.27-1 .17-.17.41-.94.67-.58.55-.65v-.2h.21L48 168l.49-.26 1-1 .35-.58.36-.35.55-1.32.15-.14.32-.53.12-.64h.26l-.17-.06v-.53l.06-.26-.29-.12-.32.24-.53.09-1.09.14-.43.27-.46-.12-.44.26h-.29l-.71-.64h-.41l.5-.27-.06-.26-.15-.2-.35-.26-.67-.82-.43-.21h-.18l-.17-.29v.18h-.08l-.3-.5-.2-.91-.23-.32-.62-.52-.08-1.35-.18-.2v-.32l-.73-.67-.09-.5.21-.06-.38-.32-.67-1.28-.3-.94-.46-.59-.18-.49.12-.3.43 1 .45.5.17-.06.26-.94v-.08l-.14.87h.29l1.05 1.7.23.7h.21l.35.29.38.88v.29l.18.76.58.38.35.35.12.44.29.46.35.27.23.7.09.29-.12.35.15.14.23 1.12.15.29h.79l.53-.38h.58l.58-.32.53-.09.2-.24.3-.14 1.51-.52.09-.36.36-.26.66-.24h.44l.35-.49.47-.12.23-.46.59-.18v-.61l.14-.21.16-.15.13.12.65-.87.11-.35-.32-.23-.32-.47-1-.41-.31-.44v-.47l.06-.41-.18.15-.93 1v.12l-.26.11-.76-.05-.21.12H52l-.05-.15h-.16v-.24l.09-.75-.23-.18-.23.41v.46l-.42-.75.06-.26-.09-.32-.41-.26-.06-.21-.29-.26-.24-.44-.14-.47h-.21l.29-.23-.11-.24.23.07.12-.09.15-.32.37.41.3-.12.32.61.2.21.29.64.56.23.17.24.42.14.08.15.62.11 1-.4.3.14.28.79 2.4.35.15-.61.23-.23.44-.15.15-.29-.27-.12v-.52l-.67-.38-.41-.74.38-.52.09-.35-.21-.3-.35-.14L57 149l.14-.41-.17-.14v-.3l.23-.12.11-.35.09-.54.18.11.7.17.17-.14.1-.14-.09-.11.81-.38.24-.65h.29l.17-.17.5.06.62.11.23.23.42-.23h.06l.21.12V146l.07-.26.37.09.09-.15-.06-.11.41-.44.24.14-.06.21.17.09v.55l.14.32.75-.42.28-.16h.17l.06.13.33-.07h.23l-.06.08-.17.09.12.06.4.08v.18h.21l.12.15v.29l.18.15h.21l.11.14.5.18-.35.26-.12.23h-.23l-.5.15-.73-.21-.2.06-.09.26.12.06-.06.12.21.12-.15.15.15.17-.18.21.2.23.24.06v.2h.28l.09.18-.4.2-.09.18.12.14-.12.15.2.11-.35.15-.23.35-.06.17-.2.1-.33.58-.29.2-.29.5-.56.15-.23-.24-.5.64-.05.3.4.09v.38l.29.14.29.79-.23.12-.15-.15-.26.18-.67-.15v.26h-.29l-.17.12.52.58h.44l.38-.2-.06.29-.2.18h-.56v.15l.82.76h.44l.41-.18.18-.75h.35l-.21.24.16.9-.09.47.09.41h.08v.38l.26 1.14.2.44.09.2.12-.06v.35l.44.79.17.77.38.49.52 1.46.42.5h.17l.24-.21.06-.35.46-.15v-.17l.21-.41h.29v-.76l.3-.9-.12-.27v-1l.15-.23h.32l.2-.36.53-.14.15-.3 1-.78.47-.59.76-.41.41-.43v-.44l.52-.24.12-.23.09.41.23-.09v-.12l.06.15h.08l.41-.14v.05l.18-.17.13.14.18-.26v-.24l.15-.16.14.11h.35l.08.35.26.82.38.53.44.2.06.26-.09-.08-.06.11.18.18.06-.09.23.47.12.7-.18.67.18-.06v.15l.44.06.78-.53v-.47l.09.35.5.21v.93l.24.79.05-.05.15.46.06.5-.08.08.17.13-.17.81.11.09-.24.7v.44l.24-.06.88 1.08.21 1.2.43.85 1.2.82.2-.09.21.09.08-.24-.49-.79v-1l-.24-.35-.37-.32H81l-.37-.41h-.38l-.2-.23-.41-1.09h-.33v-.58l.41-1.14.06-.73.11-.09.38.06v.5h.56l.43.32.14.26.15.44.27-.12v.29l.5.06.35.24-.15.38v.44h.12l.61-.46-.09-.3.26.21v-.21l.23-.28h.29l.37-.18.59-.35.09-.21v-.43l.12-.24-.3-1.49-.26-.2-.08-.27-.33-.11-.38-.44-.34-.35-.06-.26-.35-.3v-.29l.17-.53.39-.44.43-.4.32-.09.15-.12v.12l.17-.21.35.24.3-.12v.41l.23.41.2-.09-.14-.32.14-.29 1.43-.32.09-.45.27.21v-.35l.25.32h.18v-.12h.21l-.06.09-.12-.09h.18l.09-.12v.08l.21-.14.17.09.53-.18.35-.34.3-.09.06-.09V155l.26-.26v-.21l.32-.09.34-.55.12.06.18-.56-.09-.2.17-.12v.17l.68-1.1.14.06.15-.53-.06-.15h.21v-.26l-.21.09.3-.26-.48-.27-.55.12 1-.56-.45-.44-.31-.2h-.27l.27-.06.76.24-.59-.67-.41-1.15-.59-.35.3-.46.26-.24v-.23l.26.09.15-.26v-.13l.47-.08.15-.18h.14l.09.15.17-.41-.61-.05-.41-.27-.76.5-.29-.12-.15-.38-.4-.23-.27-.3v-.17l.21-.32h.29l.35-.14.23-.35.53-.29.4-.56.42-.12.2.44-.53.71.24.14-.06.23-.27.18h.09l1.2-.76.59-.12.14.27h.46l-.14.55.12.06-.23.14-.16.33h.27l-.06.12.09.17.2-.06v-.15l.49.18.21.64-.12-.09-.32.15.08.2.13-.14.14.58-.27.67.15.06v.15l-.13-.06v.2l.38-.05.23-.21-.06.12.06.06.09-.24.06.12.2-.23.24.11.14-.23.2.06.21-.17.17-.5-.17-1-.49-.76-.53-.47v-.47l.53-.23.75-.62v-.52l.55-.62h.06V142h.29l.35-.65.12.27.17-.15v.35l.53.12.44-.12.58-.47 1.76-2.21.29-.65.47-.73.52-.58.2-1.37-.11-.62.19-.64.36-.71-.18-.2.06-.2-.06-.3.15-.34-.58-.44-.32-.53h-.65v.5l-.2.26v-.26l-.15.11-.49.12.2-.29-.18-.23.18-.21-.26.12v.26l-.24.18v-.85h-.58l-.29-.17v-.18l1.38-1.26.88-1.17.67-.55.25-.53.83-.87.53-.29 1.34-.09.32.29.24-.32.6.23.47-.17.15.2h.14v-.2l.21-.06v-.23l.11-.07.94.33.29-.15.44.32-.59.24.15.23.67-.18.17.12.44-.32.73.09.15-.06v-.17l-.53-.15.09-.15-.09-.26h.12l.27-.56.63-.52.74-1.11 1-.29.5.29.32-.32-.12.46-.18.3.07.2-.09.21h.32l-.15.49 1.29-1.25.23-.09.14.2.12-.17-.14-.15v-.41l.29-.49.51-.18.32.21v.11l-.44.27-.09.64-.12.17v.35l-.15.18.09.24-1 .52-.08.29-.76.76-1.2 1.61-.55.32h-.33l.12.32-.15.47-.52.41-.17 1.28v.82l.66 3.53.82-.87.2-1 .65-.27.14.09v-.85l.59-.55.35.08.3-.23-.24-.79.14-.43.3-.26-.09-.18.38-.18-.15.33.18.26.17-.29v-.38l-.26-.12v-.47l.29-.67-.32-.18-.26.23-.12-.17v-.35l.49-.93h.14l.21-.88.26-.15.12.15.09-.1.11-.13.27.26.14-.44.5-.35.09.09v.7l.44-.7.61-.37.7.17.56.64v-.08zm-39-31.52l-.84.17-.67.7-.36-.26.18-.61zm-48.14 0v.61h-.33l-.08 1.43-.38.09.14.2-.26.2v.85l-.2.33v.55l-.41.12-.41-.82.44-.27-1.14-.4-.21-.94 1.15.09-.68-.5 1.15-.32v-.3l-1.71.49-.17-.78.33.15.67-.76zm2.31 0l.2.23-.12.53 1 .69-1.23 1.2-.26-.12.23-.65-1.17.24.47-1.2-.41-.53.88-.37zm27.46 49.51l-.09-.23.09.23zM61.1 146l-.62-.11v-.3l.09-.17-.44-.23h-.23l-.5-.44-.33-.11-.28-.29-.53-.33-.43-1-.18-.18-.18.15-.67-.15v-.31h.09l-.15-.12v-.24h-.35l-.41-.37-.09.11h-.14l.14.2-.29-.11-.08.2-.35.06-.15.18.06.46-.08.1-.55-.09L61.1 146zm2.33-3.21l.33.35-.33-.35zm.88.52l-.73.44.73-.44zm-29-16l-.67.12v.23l.14.12v.22l.15-.36.52-.17-.14-.18zm69 4.51l.15.17.26 1.28-.11.5.05.7.59 2 .26.55-.49-.49-.45.11-.26 1.35.3.61.2.12.06.44-.06.14-.06-.41-.44-.12-.26.59-.12-.06v-.53l.18-1.13-.18-.59.18-1.11-.09-.67.06-.47-.27-.43v-.59l.11-1.11.35.06.15-.26-.23-.56h.17zm12.48-5.09l-.39.23h.07l-.26.56.72-.56-.14-.26zm-16.31-22.34l.15.2-.12.17-.38-.75.35.38zm-.11-3.31l-.09.49-.17-.2.09-1 .22.55v.12zm2.33-.64h.27l-.06.47h.29l.09-.38-.09-.58h.44l.52.7-.17.7.09.53.58.52-.61.23-.27-.52-1.1.61-.09-.09.15-.08-.18-.41-.15.09v.23h.08l-.14.5-.77-.26-.72-1.14.38-.06-.3-.53.38-.47-.17-.38 1-.64.58.91zm.9-.68l.71.83-.23.84.41.73h.76l.26-.4v-.17.17l-.26.4h-.76l-.41-.73.23-.84-.71-.83zm-.28 4.45l-.26-.33-.23.3v.41l.18.17.29-.55zm.23.55l.64.09.53.61.06.64-2.1-.29-.12-.15.41-.11.28-.79zM101 109.1l.55.11-.29.2-.41-.2.15-.11zm.64.17l-.11.32h.15l.46-.3-.14-.29-.33.24zm1-1.81h.41l-.15.44h-.73l.18-.44h.29zm9.36 27.72l-.43.41v.17l.44-.26.06-.11v-.21zm-3.18 3.95l-.55.47.26-.36.29-.11zm-58.68-26.24l.29-.12.67.7-.76.61-.41-.22v.22l-.09-.22v-.5l.27-.47zm2.92-6.89l.79-.2.79.47-.44.44.33-.09v.23l-.41.24.24.06-.26.53v.93l.38 1.31.87.85-.47.18h.26l-.08.12-.27-.41-.26.12.15.17-.58-.21-.18.27-.27-.29.15-.09h-.67l-.13-.43.35-.11-.41-.3.24-.38-.32.32v-.43l-1-.09-.13-.35.09-.53.44.06.41-1-.11.09-.24-.5.52-.26-.14-.09.09-.06-.09-.23.35-.33zm0-1l.18.35.64-.18-.56.7.59-.15.9.38.26-.4-.2-.47.38.12-.4-.47.58.2v-.32l-.33-.29.15-.41.35.53.4-.59-.29-.74.35.36.2-.24-.11-.29.5.24-.24-.48.44.15.29-.49-.23-.17.09-.21h.49l1.29-1.46.14.23 2.63-1.29.36-.78h-.13l.13-.41-.33-.67-.61-.09-1.76 1.58-1.11.37-.78-.32v.59l-.38.18.17-.3-.11-.02-1 .76-.73 1.21-.78.49-.3-.24-.08.3v.2h.24l-.15.43.58.15-.67.09.29.47-.46.06.26.23-.32.12.59.44-.59-.26-.88.81zm-.82 4.75l.53.68v-.5l-.15-.18zM56 112l-.18-.42H56l-.12-.11.21-.29.9 1.13-.43.15-.47-.4v.23L56 112zm6.57-5.56v-.52l.15-.33h.38v.09l-.1.32.35.15-.82.35zm5.24 0l.14.62-.47-.24.33-.38zm-1.09 1l.53.09-.76.44.23-.53zm2.75-6.05l-.09.5-.3-.44.18-.29.21.23zm-6.81 15.83l.65-.29.08.29-.46.24-.27-.24zm43.71 23.32l.11.11-.5.5v-.12l.41-.49zm1.57-.76l-1.11.76.53-.71h.21l.31-.2.06.12zm9.82-9h.12l.23.58-.23-.14-.24-.41.12-.06zm-52.89-24.32h.37l-.11.33-.26-.33zm-3.08 39.47l.27.15-.27-.15zm1.61.47l1-.58-1 .58zm1.26-.41l.35-.08-.35.08zm-2.89 8.62v.26-.26zM50 142.55l.27.26.38.64.35.06.08.18-.26-.06-.17.17-.21.84-.2-.11v.52l.14.65.59.15.32.34.56.24.93-.18h.46l-.08-.4-.09-.77.17-.38-.41-.23.29-.2-.29-.15.17-.12-.12-.09-.28.09-.1-.29.1-.59.11.26.67.12.12-.09-.12-.06.3-.23-.39-.35-.2-.32h-.15l-.44.23v.41l-.17-.52.11-.68-.75-.32-.17-.64-.53-.47h.81l-.17-.35.08-.18H52l.15-.17 1.43.26v-.2h.08l-.06-.17-.4-.33-.45-.76-.32-.26-.46.12-.53-.18-.35.35-1 .21.26.17-.26.09-.27.35-.17-.38h-.2l.08.15-.06.38-.08-.06-.06.38-.38.58.29.32.21.44.05-.2v.64l.44.88.09.09zm12.8 1.16l-.06-.15v-.08l.09.23zm.26-1.75l-.06.11v.06l.09-.17zm.35.79l.28.3-.33-.35zm.88.52l-.6.37-.13.07.73-.44zm-15.66 1.5l-.14-.53h-.24l-.2-.15-.18.09.41.55h.35zm27.52 20.06l-.09.06v.21l.06-.27zm-.53-3.65l-.23 1 .09.18.14-1.17zm-7.25-13.93l-.17.52.12-.36v-.13zm24.2 24.54l-.06.32h.21v-.38h-.17zm-15.25-4.36l.38.27-.32-.32-.06.05zm.81.82l.44.44v-.23l-.29-.29-.15.08zm2.64-.23v-.15h-.21l.18.15zm.17.09l.26.14v-.11h-.23zm-1.9 1.49v.28l.26.15-.17-.43zm3.36-1.2l-.14-.06.11.2v-.14zm-.14.93h.08v-.14l-.09.11zm.49.82l.36.15.17.35.35.11v-.29h-.23l-.24-.56-.09.15-.2-.08-.12.2zm1.46.35v.29h.29v-.2l-.29-.12zm2.52 3.3l.31.06.26-.06.8.3-.09-.24v-.35l-.82-.09L87 173l-.58-.17-.18.06-.14-.18-.15.09-.18.23-.85-.06-.35-.32-.47-.06v-.14l-.29.09-.35-.09-.12.06-.23.35h-.21l.06.12.68.14-.1.09.32.14.88.21.17-.09h.53l.65.29.49.09h.27zm-1.46-5.93h-.07l-.2.24-.12.61.15.56.26.14.15.29.24 1h.46l.32-.14.11.44.43-.01.26-.21.38.12v.15L88 171l.15.12.11.32h.09l.65-.35.34-.73-.2-.27.47-.35.24-.38.05-.49.27-.27v-.14l.2.14h.29l-.56-.58.07-.23-.47-.73.31-.06-.19-.24h.08l.09-.09.18.09.29-.12-.18-.29h.29l.29-.18-.55-.29h-.14v-.18h-.24v-.29l-.2-.12-.09-.17-.23.2v-.2l-.56.79-.18.06v.17l-.17.15-.15-.12-.55.29-.12.27-.53.61-.7.11-.11.33h-.15l-.09.41-.58-.12-.21-.17zm3.82 3.07l-.09.15.06.29.12-.12-.09-.32zm6.78.29l.15-.17-.15.06v.11zm4.3-1.75l.31.26h.15l-.27-.23zm.22.44l-.17.09.73.08-.06-.06-.5-.11zm-3.15-.79l.23.18.24-.09-.33-.15-.14.06zm.14.5l.06.11h.12v-.18h-.18zm-.52.46l.15.15.17-.06v-.15l-.29.06zm-1 1l.11-.18.21.18.22-.15.18.12.29-.06.61.29v-.09l-.2-.38-.55-.14h-.76l-.18.23v.15zm2.94 1.08v.26l.15-.29h-.12zm.7.23h.07v.19l-.09-.07v.11l.2.18v-.14h.06v-.49l-.09-.06-.12.23zm-.09.26l.07.24h-.1l.12.17.12-.2-.21-.18zm-1.69.88l.08.14.21-.26v-.23h-.12l-.17.38zm-3 .14l.33-.05.23-.15-.15-.08-.41.08v.2zm-.47.79l1.18-.4v-.18l-1.2.15-.21.26-.52.27-.14.43h.2l.44-.17.23-.39zm-1.28.88l.2-.06.09-.2-.29.26zm.9-1.58l.09.15.29-.09-.38-.06zm-.26.15l.09.09.06-.24-.15.15zm-.38.06h.17l.07-.21-.09.09-.09-.09-.06.21zm-2-.06v.21l.71.08.85-.14.23-.21-.06-.18v.15l-.26.18-.2-.09-.36.09-.47-.24-.41.15zm0 .5l-.5.09.06.2h.3l.38.29.29-.11-.14-.23-.39-.24zm-1.63-.53l-.18.15.15.26.85-.23.09.09.28-.09-.14-.24-.14.15-.06-.15h-.18l-.14-.14-.09.14.23.15-.18.06-.2-.15h-.29zm-.58 0l-.06.27h.37l.07-.33-.24-.09-.14.15zm-.62-.2h-.26v.11l.23.06.18.27.2-.33-.12-.11zm-1.3-.69l.08.12h.33l.31-.06-.06-.12h-.66zm1.43-.06l.08.12.09-.09h-.17zm3.36-4.67l-.18.06-.11.23h-.18l-.15.09-.2.44.06.29-.24.42v.31l-.26.5.08.47h.27l.09.35-.18.7.18.2.44-.06v-1.4l.32-.29.15.09-.09.35.09.15.29.29v.41h.15l.17-.18.35-.11v-.12h-.12l-.17-.26.09-.24-.62-.82h.18l.38-.14.29-.35h.32v-.21h-.14l-.18.15h-.41v.1h-.24l-.32.29h-.24l-.32-.38.12-.59.06-.11h.52l1.67.09.52-.59-.08-.21-.65.5h-.58l-1-.26zm.44 3.77l.14.09-.08-.18-.06.09zm.55-.15l-.09.24.09.14.18-.17-.06-.2.11-.11-.11-.26-.09.37zm.09-.55l.11.12v-.12zm.06-1.64l-.12.07v.14l.15-.12v-.09zm0 .15v.09h.12v-.12l-.18.06zm.71.15l.11.2.38-.15-.49-.05zm.58.08l.06.09.43-.12h-.49zm.35.7l.09.27.2.17h.15l.26-.17v-.15l-.26-.18h-.41zm1.46-3.27l-.18.15v.2l.21-.14-.07-.21zm-.34.24l-.24.26-.09.38.21.79.28.38-.16-.38v-.41l.47.11-.26-.28.23-.17v-.15l-.17-.11-.35.4h-.09l.2-.23v-.55zm-.39 1.51l.12.23.18.07-.18-.3zm.06.61l.06.15.48-.02-.2-.09h-.24zm7.91.62l-.84-.15-1-.49-.32.2-.14.24h-.39l-.46.64H100l-.21-.09-.14-.35h-.06v.15l-.14-.21v-.66l-.12-.3H99l-.29-.21h-.3l-.64.3-.18.29.5.09.15.35h.17l.88-.14-.06.26h-.32l-.29.15h-.42v.08h.21l.26.21.09.41.3-.06.2-.56v.36l.33.26h.19l.24.26.87.18.85.35.39.7-.13.25.26.15-.12.06.12.17-.21-.11h-.2l-.29.56h.64l.06-.12h.52l.79.61.91.09.32-.23-.21-.3.3-.12v-.09l.18-.05v-.21l.18.06.18-.08 1 .43.26.44h.17v.12l.5.44 1.23.2.23.14.17-.11-.17-.06.3-.08-.59-.18.09-.11-.44-.15v-.24l-.32-.06-.38-.49-.38-.39-.15-.32h.47l-.12-.38-1-.35-.2-.53-.67-.46-1.94-.71zM77 165.83l.2.47.61.58.29.15.3.37v.3l.44.17.18.17.26.83.3.17.29.38.41.93.7.74.17.29.73.52.53.5v-.18h.06l.17.14.15-.14.27.17.11-1.61-.23-.32-.47-.05.06-.18-.21-.12-.11-.43-.47-.16v-.08l.13-.23h-.09L82 169v-.14l-.18-.12-.24.12v-.41h-.29l-.17-.15v.06l-.13-.14-.37-.18-.17-.26-.12.09-.11-.09-.71-.68-.64-.4-.41-.59-.7-.09-.38-.17zm5 2.37l-.09-.06-.08.11.17-.05zm12.79-19.46v.11h.11l.29-.15zm8.59-8.86v.07l.12.05-.09-.12zm-1.38 5.38l-.15.35h.06l.09-.35zm-2.51 3.57l.28-.38-.08-.3-.32-.12-.38.3h-.29l-.38.44h.17l.21.41h.11l.27-.47.41.12zm.46-.94l-.18.26h.15v-.23zm-2.43.47l-.67.49.15.15v.09l-.12-.12v.29h.29v-.35l.15.26v.26l-.18.29v.41l.18.12.05-.35h.06v.4l.29-.26.41-.93-.08-.27h-.15l.06-.27h-.26l-.24-.23zm-.17 2.39v.12h.11l-.08-.12zm-.79-1.75l-.08-.06v.18l.08-.12zm-3.18 5.58v.12h.08l-.08-.09zm2.34-1.32v.24l.28-.5-.23.23zm.9-1.22v.12l.14-.18-.14.06zm9.06-11.19l-.23.12-.68-.29-.91-1-.11.14.08.44-.08.56-.15.26v.23l-.06.21-.49-.09v.3l-.32.29v.23l.18.18v.43l.61-.29-.4-.26-.06-.15.12-.09.37.06.41-.11.76.47.38-.68 1-.38.09-.12-.29.06-.11-.35.14-.35-.23.15zm-13.62 13.23l-.29.12-.5.94.06.47.38.55.59-1.7v-.26l-.24-.12zm-6.3 3.22h-.56l-.51.41.12.5.5.15.45-.35.29-.53-.06-.21h-.23zm-6.9 4.9l-.12.12h.15v-.15zm-4.53-6.54v.23h.06v-.17l-.09-.09zm17.12 5.64l.17.12.32.58.15-.08v-.47l-.23-.18h-.41zm1.08-3l-.08-.06-.06.12h-.18l-.56-.18-.05.06-.15 1.43h-.32l.17.64.26.41v-.2l.17.06-.15.29v.24l.38.05.15-.14h.18l.43.41-.11-.41h.11l.38.43.35.15-.06.06.09.15.06-.27-.15-.09v-.08l-.14-.21.14-.08-.35-.15v.17l-.27-.38-.26.09v.19h-.14l-.21-.3-.12-.55.18-.32.23-.15.21-.47-.18-.35v-.58zm-.2 2.07l.06.18v-.24l-.06.06zm0 1l.12.09v-.15h-.15v.09zm.06.53v.1l.08-.26-.08.09zm.72-.09v.35l.18-.09.29.24v-.15l-.41-.35zm.65.06l.49.81.3.06-.16-.35V162l-.14-.14h-.49zm-1.4.37v.85l.58-.41.06-.23-.38-.06-.29-.15zm.58.59l-.12.5h-.14v.15l.38.41v-.5l.18-.49v-.09l-.2-.06-.12.06zm.82-.35v.35h.12v.38l.13.15v-.12h.11l-.14-.56-.35-.17zm.67.76l.09.17v-.32l-.09.15zm-.88-.62l-.35.79v.24l.35-.56v-.47zm-.09.79l.06.15h.32l.06-.26h-.23l-.21.17zm.91.09v.41h-.41l-.08.26h-.2l-.06.18-.26.12v-.36h-.21l-.29.29-.32.12-.23.49v.12h.14l.23-.44h.12v.2l.17-.2.12.15.18-.27.29.27-.12.26.12.38.41.26.2-.12.11.27.16-.29-.18-.3v-.14l.27-.27.18.56.17-.64-.15-.56v-.41l-.33-.32zm-2.07 1.78l.09.12.2-.12zm-.5.44h.23v-.06l-.17-.09-.09.12zm-.65.53l.21-.15h-.15l-.06.12zm-.23-3.71l-.17.55-1 .88-.12.26.4-.23.47-.44v-.15l.43-.32-.08-.55zm17.68 8l.12.12.14-.06-.06-.09h-.2zm1.72.85l-.32-.23.26.7h.06l.12-.26-.12-.21zm-3 .9l.14.15v-.12h-.14zm.29 0l.15.18.35.17h.18l.15.11h.55l.37-.14.18-.27h.21l.2-.61-.12-.14h-.32v.33l-.52.38-.38-.06v-.21l-.22.29zm3.69-.08v.23l.27.26v.21l.18.11h.21v-.21l-.56-.52-.14-.06zm-2.43 2.28l.06.17h.2v-.15l-.23-.06zm-2.25-4.24v.15h.17l.09-.15zm5.7 2.66l.26.29.32.09-.58-.38zm.35.7h-.06v.18-.15zm.08.2l.32.15-.17-.29-.15.05v.09zm.73-.37l.15.2.58.32-.08-.18-.65-.34zm1.23.49l.24.47.29.23-.53-.7zm-.64.53v.15l.26.17h.5l-.32-.29h-.44zm.17 1.49h.24l-.15-.12-.09.09zm-11.65 2.68l-.21.12v.09l.29-.12-.12-.09zm-5.49-2.68h.23l-.18-.23-.11.14.06.12zm.14-.39l.06.24.26.18.29-.21-.12-.21-.31.15-.18-.15zm3.53 1.53v.29l.23-.06V177zm.06 14l.44-.12.44.21-.67.09h-.15l-.06-.18zm-65.5-63.83l.14.18-.52.17-.15.36v-.24l-.14-.12v-.23l.67-.12zm-.15-.43l-.41.11.21.21.29-.15-.09-.17zm46-32.63H79.5l-.18.61.36.26.67-.7.84-.17zm23.11 37.57h-.17l.23.56-.15.26-.35-.06-.11 1.11v.59l.27.43-.06.47.09.67-.18 1.11.18.59-.18 1.13v.53l.12.06.26-.59.44.12.06.41.06-.14-.06-.44-.2-.12-.3-.61.26-1.35.45-.11.49.49-.26-.55-.59-2-.05-.7.11-.5-.26-1.28-.15-.17zm-3.09-.39l.23.09.26-.41-.29-.14-.18.38v.08zm15.57-4.7l.14.26-.72.56.26-.56h-.07l.39-.23zm-16.31-22.34l-.35-.38.38.75.12-.17-.15-.2zm-.11-3.31v-.12l-.22-.55-.09 1 .17.2.09-.49zm2.33-.64l-.58-.91-1 .64.17.38-.38.47.3.53-.38.06.72 1.14.77.26.14-.5h-.08v-.23l.15-.09.18.41-.15.08.09.09 1.1-.61.27.52.61-.23-.58-.52-.09-.53.17-.7-.52-.7h-.44l.09.58-.09.38h-.29l.06-.47h-.27zm.62 3.77l-.29.55-.18-.17v-.41l.23-.3.26.33zm.23.55l.64.09.53.61.06.64-2.1-.29-.12-.15.41-.11.28-.79zM101 109.1l-.15.11.41.2.29-.2-.55-.11zm.64.17l-.11.32h.15l.46-.3-.14-.29-.33.24zm1-1.81h-.29l-.18.44h.73l.15-.44h-.41zm9.36 27.72v.21l-.06.11-.44.26v-.17l.43-.41zm-3.18 3.95l-.29.11-.26.36.55-.47zm-58.68-26.24l-.27.47v.5l.09.22v-.22l.41.22.76-.61-.67-.7-.29.12zm2.92-6.89l-.35.33.09.23-.09.06.14.09-.52.26.24.5.11-.09-.41 1h-.06l-.38-.06-.09.53.13.35h.34l.68.06v.43l.32-.32-.24.38.41.3-.35.11.06.41h.67l-.15.09.27.29.18-.27.58.21-.15-.17.26-.12.27.41.08-.12h-.26l.47-.18-.87-.85-.38-1.31v-.93l.26-.53-.24-.06.41-.24v-.23l-.33.09.44-.44-.79-.47-.79.2zm0-1l.18.35.64-.18-.56.7.59-.15.9.38.26-.4-.2-.47.38.12-.4-.47.58.2v-.32l-.33-.29.15-.41.35.53.4-.59-.29-.74.35.36.2-.24-.11-.29.5.24-.24-.48.44.15.29-.49-.23-.17.09-.21h.49l1.29-1.46.14.23 2.63-1.29.36-.78h-.13l.13-.41-.33-.67-.61-.09-1.76 1.58-1.11.37-.78-.32v.59l-.38.18.17-.3-.11-.02-1 .76-.73 1.21-.78.49-.3-.24-.08.3v.2h.24l-.15.43.58.15-.67.09.29.47-.46.06.26.23-.32.12.59.44-.59-.26-.88.81zm-.82 4.75l.53.68v-.5l-.15-.18zM56 112l.15.29v-.23l.47.4.43-.15-.9-1.13-.21.29.12.11h-.26l.2.42zm6.57-5.56l.82-.35L63 106l.09-.26v-.09h-.39l-.15.33v.52zm5.24 0l-.33.38.47.24-.14-.62zm-1.09 1l-.23.53.76-.44-.53-.09zm2.75-6.05l-.21-.23-.18.29.3.44.09-.5zm-6.81 15.83l.27.24.46-.24-.08-.29-.65.29zm7-6l.09.32.21-.06-.18-.47-.12.21zm36.73 29.3l-.41.49v.12l.5-.5-.11-.11zm1.57-.76l-.06-.12-.31.2h-.21l-.53.71 1.11-.76zm9.82-9l-.12.06.24.41.23.14-.23-.58h-.12zm-52.91-24.3l.26.33.11-.33zm-46.31 21l-.44.26v.47l.38-.26-.06-.12.15-.12v-.23zm2.19 7.86l.49-.15.12-.18.35.16 1-.22.26-.31h-.38l-.08-.15.58-.59v-.55l-.23-.21-.7.09.17-.4-.4-.41.29.11v-.2l-.44-.73-.29-.11-.27-.91-.58-.47h-.38l.35-.2-.17-.27h.17l.23-.38.26-.58-.05-.29-1.31.14-.06-.14.26-.15-.18-.12.56-.47v-.29h-.09l-.93.09-.12.35h-.12v.15l.11.15-.29.14.06.29h-.09v.17l.17.1-.17.55-.21.06.27.26.26-.14-.29 1.31.27-.44L19 130l.17-.2-.06.35.18-.18.14.12-.09.23.09.23-.17.53h-.12l.12.26.08-.17.24.17.06-.14.7-.12-.32.47.26.38.29-.15-.17.44h.12l-.12.26.06.09-.5.06-.53.46.32-.09.13.39-.13.23-.64.41.15.2.32-.14.09.18.26-.06.23.26.53-.26-.29.41-.65.06-.81 1h.23l.26-.29.59.09.14-.35.38-.08.18.17zm-.91-2.51l-.25-.21.14.21zm-.23-1.11l-.17.32.17-.09v-.23zm-1-1.49l-.15.17.23.06-.08-.23zM19 130h-.14l-.15.28.29-.28zm-.14-.3l-.18-.23h-.11l.11.2zm-.33-1.37l-.23.29.5.32.06-.15h-.18l-.15-.43zm.09 3.76l.36-.28-.09-.24.09.15v-.09l-.26-.17.06-.3-.18-.23-.6.07.12-.21-.21-.09-.12.35v-.26l-.3.12-.37.43.32.09-.2.35h-.67l-.1.17v.14h-.14l.3.18-.27.23.11.21.53.14-.5.59.53-.21.09.15-.49.09-.19.29-.26.05.26.13-.23.2h.38l-.26.21.32-.09-.11.2h.25l1-.55h.68l.17-.72v-.59l-.15-.35.09-.12zm2.8-7.09l-.21.43.21.09-.06.32.12-.14v-.44l-.09-.26zm-2.3 5.4l.05.26v-.26zm14.49-5.11h-.16v.29l.21.12v-.41zm1.48.38l.12-.29-.26.29zM54.49 153h-.23l-.29.27.52-.27zm-1 8.74l-.47-.06-.09.15.35.14.18-.12v-.11zm-2.22-8.33h-.11v.21l.09-.18zm-23.77-11.8v.2l-.32.12-.1.12.1.52.29.32.17-.67-.11-.61zm-4.39.41l-.17-.09.12.17.05-.08zm30.8 39.32l.11.2h.18v-.23zm-5.7-4.91l-.12-.05v.14l.08-.09zm-.44-.4l-.14.06.14.11v-.2zm-.64-.44l-.09.17.12.15v-.32zm-16.66-35.77v.15l.17.09-.12-.24zm1-10.07l.29-.79-.23.38-.06.41zm1.06-.73l.4-.47v-.35l.07-.2h-.17l-.27.39v.61zm.52-34.82H31l-.66.76-.34-.15.14.78 1.71-.49v.35l-1.15.32.68.5-1.15-.09.21.94 1.14.4-.44.27.41.82.41-.12v-.55l.2-.33v-.85l.26-.2-.14-.2.38-.09.08-1.43h.33v-.64zm2.31 0H35l-.79.37.41.53-.47 1.2 1.17-.24-.23.65.17.14 1.23-1.2-1-.69.12-.53-.2-.23zM33 103.45l.12.27.12-.3H33zM17.27 110l-.41.44.53-.27.14-.32-.26.15zm8.24 13l.06-.18h-.12l.06.15zm5.61-9.35l-.23.67-.54.47.71-.44.06.26.53-.49v-.26l-.21-.12-.17.41V114l-.15-.29zm-.73.38h.47l-.15-.52v.24l-.32.26zm.79-.82l-.12.26h.17l.21-.44-.26.14zm.7 0v.26l.55-.23.06-.32-.29-.33-.29.35-.05.21.05.06zm.73-.84l-.06.22h.15l.35-.35-.44.09zm.38-.56l.2.38.21-.29-.41-.09zm.52-.21l-.11-.11.08.26h.21l-.18-.15zm.53-.11l-.12.23.15.06v-.29zm1.17 0h.12l-.06-.15h-.21l.15.18zm-.23-.73l-.18.12.15.23.49-.3h-.46zm.58.55l.18-.2-.12-.2-.29.2.06.29.17-.09zm.35-.32v-.23l-.17-.06.14.29zm1.08-1l-.32.11.44.12-.12-.23zm-10 11.3l.44-.06-.15-.14-.29.2zm-3 22.58l-.44.3.41.23.17-.29-.14-.09v-.15zm.59 0h-.18l.23.12-.05-.12zm-1.52.7l-.15.11H23l.06-.15zm-9.91 7.62l-.08.27h.12l.11-.18-.15-.09zm1-.38l-.29.41.27-.15v-.26zm-1.34.12l-.38.14v.12h.24l.14-.29zm-5.14-6.45h-.36l.21.11.17-.11zm-1.14-.68l-.14.06h.11v-.09zm5.9 4.3h-.15l.15.11h.12l-.12-.09zm12.68-16.33H25l-.14.25.26-.25zm6 12.38l-1.11.21-.29-.18h-.33l-.05.18.05.23 1 .44.21.2h.27l.06-.2-.06-.29.29-.62zm-3.74-2.28l-.33.35-.19-.06.15.84v.49l.17.3.27-.27h.14l.09-.15v-1l-.09-.32-.2-.15zm-15.1-22.01h.45l.56-.62.26.21.37-.53-.14-.06.4-.29.15-.44-.17-.06v-.23l-.15-.34h-.43v-.52h-.2l.23-.5-.46.33-.44-.5-.18.06.09.44h-.53l-.17.26-.38-.26.11.73-.37-.76-.39.2v.47l-.51-.55v.76l-.27-.12v.32l-.17.26-.11-.49-.24-.18.27-.08-.15-.21.1-.16-.62-.58-.38-.06v.2l.38.09-.24.09.27.14v.36l-.67-.41.08.09h-.23l.15.24h-.12l.29.29-.49-.21.2.33-.32-.09-.1.32 1.17-.18.38.2-.38.41.41-.09-.06.26H9l-.65.35.76-.06.29.46.15-.11-.17.35.17-.06v.24l-.49.14v.32l.85-.06.7.44.76.21.9-.74zm24.06 24.49l-.24-.41-.47-.3-.2.15.67.44.11.21h.13v-.09zm0-1.87v-.15l-.14.06.11.09zm.17.58l.21-.08h-.15v.12zm.88.56l-.12-.21-.26.15.38.06zm-.32.61l.12-.2-.18-.09.06.29zm1.23 1.58l.12-.29-.29.2v.18l.17-.09zm-1.76.47h-.4l-.13-.17h-.23l-.11.29h.56l.17.21.79-.09v-.18l-.17.06-.53-.17zm0-1.61v-.18l-.14-.05.14.23zm-1.75-.47l-.35.06-.15.29.3.38v.29l.08.09.12-.2.18.44.2-.27.26.27-.23-.82.23.2.18-.14-.18-.35-.64-.24zm-.73.18l-.06-.27-.15.12.21.15zm-.38-1l-.12-.23h-.12l.24.23zm-3.77-12.79v-.12l-.2-.09.08.21-.14-.09v.18l.32.09v-.18zm-11.69-8.24v-.29l-.29.06.29.23zM28.73 130l.05.12-.35.17.12.12.09.38.29.06v.11l.24.06v-.23h.17l-.11-.26.23-.18-.18-.46-.28.11v.09l-.09.23v-.29h-.2zm.2 1.05l.11.38.07-.29-.18-.09zm-.29 0h-.15v.18l.44.08-.09-.2-.2-.09zm-.73-.58h-.18l.2.46.42-.05v-.18l-.14-.35-.32.09zm.46.49l-.11.18v.15l.06-.33zm2.4 0l-.24-.27v.31l.24.09zm11 16.21l-.59.05-.41.24.15.2.29.09.56-.23.32-.53-.32.18zM40.06 174l-.29-.7v-.27l-.41-.32.09-.26-.18-.88-.21-.61L39 172l.08.32v.44l.2.35.38.3.09.34v.27l.23.12.06-.12zm5.09-2l-.07-.12v.3-.18zm-.32.38v.29l.14.09-.14-.38zm-3-2.74l-.09-.12.09-.15.32-.14h-.37l-.06-.33h-.45l-.11.17-.26-.09-.41.21-.06.47v.61l.06.41.2-.12v-.17l.21.2h.12v.18l.12-.21.41-.14-.26-.12.52-.61zm-.17 5v.2l.2.27v.76l-.17.38.35.85v.23l.14-.06.24.18-.24-.5-.11-.67.17-.5-.17-.23-.12-.71-.29-.2zm-1.52-6.8l-.44.41v.17l.09.09.35-.32v-.35zm-11.79-19.43l-.12.12h.14v-.12zM22 162.61l.38.12h.23l.29-.29h.35l.2-.3-.14-.17.06-.11-.06-.15h-.44l-.58-.73-.15-.35v-.24l-.55.06-.94.73-.81.27-.21.55-.44.44-.12.67.3.38h.17l.44-.2h.26l.18.27h.11l-.14-.7v-.18h1.17l.38-.12zm-7.14 2.14h-.17l.06.06.11-.06zm11 4l-.08.09.06.11.11-.11-.09-.09zm3.83-7.75l.55.79.29-.21.27-.08v-.3l-.53-.06-.12-.32-.23-.12h-.17l-.09.12.06.18zm25.5 19.72l-.06.29.21-.06v-.26h-.12zm-7.53-2.26v.15l-.29.59.35 1.37-.72 1.33.06.47.24.55.08.67.15.21.61.43.5-.27h.41l.29-.35 1.14-3.65.15-.93.17-.33v-.7h.12l.12.29H51l.08-.29-.35-1.41-.38-.52-.23.17v.5H50l-.14.33v-.12h-.15l.06.32-.06-.06-.12.18.18.14h-.15l-.18.2v-.2l-.08.08-.12.17.09.24h-.14l-.06-.18-.27.18.12.29h-.14l-.18-.17-.41.2-.09-.06-.43.17zM45.29 160l-.12-.12h-.05v.14h.23-.09zm-18 7l-.18-.09-.08.29h.17l.09-.2zM9 159.69l.14.06-.11.09v-.15zm-.47.53v.2h.14l-.14-.2zm-.73-1.14h-.18v.11l.15-.14zm113.65-26l.26.15.2-.12h-.46zm-3.1 30.59l.23.09.14.24-.08-.33zm-.06-1.25h-.06v.11l.17-.14zm-50 .9v.06l.17.15-.12.06-.14.73H68l.09.76.2.43.35.06.59-.44v-.49l-.55-.94-.32-.32-.15-.06z" fill="#fff" fill-rule="evenodd"/><path d="M54.64 102.16s1.9 5.69-3.66 5.69-8.73-1.89-9.74-1.77-7.34-.5-9.23-1.89a51.34 51.34 0 0 1-6.83-7.09c-1.39-1.77-2.15-8 1-9.73s4.43-2.78 4.43-3.79-.51-3.67.63-3.79.25-1.65.63-3.79-.25-2-1.26.75-4.48 8-5.06 9.86A7 7 0 0 1 23.41 90c-.51.37-1.14 2.4-1.14 3.92S20 96.6 20 98.5s-.63 3.16-1.39 3.16-1.52-.51-1.27-2.66-.76-.88-.76-.88-2.14.76-1.26 1.77 1.85 2.4-.22 2.65c0 0-1 2.07-2.23.13a1.92 1.92 0 0 1-2.35-1.26c-.68-1.78-.6-4 .42-4.55s2.52-1.69 2.86-2.86 2.95-2.36 3-5a47.17 47.17 0 0 1 1.44-7.76c.34-1.52.5-8 2.11-11.13a46.4 46.4 0 0 0 3.87-11.54c.42-3 .34-10 3.55-13.32s8.09-4.22 10.11-5.4 5.23-3.2 5.23-3.95S40.69 32 40 29.42c0 0-1.52 1.18-2-.42a23.22 23.22 0 0 0-2-4.8c-.5-.84-1.85-5.06 1.35-3.63 0 0-.84-7.08-.08-10.45s3.79-7.42 7.25-8.18 5.3-.67 5.3-1.17 4.56-1.78 6.5.76c0 0 5.31.84 7.58 4s3.29 8.85 2 15c0 0 2.54-1.6 1 1.77s-.51 6.66-2 6.32a28.31 28.31 0 0 1-1.33 3.22 6.75 6.75 0 0 1-1.39 2.19c-.56.53-1.4 1.07-1.58 1.87-.42 1.78.81 2.08 2.19 2.56a20.91 20.91 0 0 0 4.62 1.12c2.38.25 6.5 1.27 7.94 10.12a146 146 0 0 1 2 19c0 2.7-.34 4.47.42 4a8.18 8.18 0 0 1 5.73-.59 14.5 14.5 0 0 1 5.65 3.54c.84 1 3.71 1.68 5.56 3.62s7.26 6.41 9.35 10c0 0 1.44 2.62 2.79 1.69s2.28-1.27 2.7-1.94 1.77-2.45 2.87-1.35a1.42 1.42 0 0 1 2-.34 1.18 1.18 0 0 1 1.6.34 1.4 1.4 0 0 1 1.09 1.6 4.82 4.82 0 0 1 0 1.78c-.2.5-1 3.7-2.57 5.05a68.54 68.54 0 0 0-5.56 6c-.76.93-4.89 1.86-5.81.17s-3.8-4.88-5.31-5.39-7.42-3.46-9.28-4.3-5.22-2.87-5.65-4.55-1.25-.93-2.44.34-4.38 4.55-5 4.72-.51 2.61-.76 4.21-2.28 4-2.78 4.72-2.27.17-1.52-1.1 1.18-2.52.42-2.1S69.1 102 69 102.5s-1.52.76-1.6-.67a3 3 0 0 1 .42-2s-.84 1.69-2.19.51c0 0-4.21.34-5.14.59s-6 .86-5.86 1.26z" fill="#009fe3" fill-rule="evenodd"/><path class="cls-4" d="M270.41 155.91h-29.1v11.18h25.38v17h-25.38v10h29v17.11h-51.17v-72.49h51.27zm65.17-.31h-19.26v55.6h-22.17v-55.6H275v-16.89h60.6zm68.97 55.6h-20.61v-38.51l-21.86 38.51h-21.75l.21-72.49h20.71l-.1 17.72v19.37l21.75-37.09h21.85z"/><path class="cls-5" d="M64.36 291.33H43.62v-38.51l-21.87 38.51H0l.21-72.49h20.7l-.09 17.7v19.38l21.74-37.08h21.67zm69.09 0h-22.16v-26.21h-20v26.21H69.14v-72.49H91.3v28h20v-28h22.16zm152.81 0h-20.61v-38.51l-21.84 38.51h-21.75l.2-72.49H243l-.09 17.7v19.38l21.75-37.08h21.87zm4.95-72.49h49.3V236h-27.14v55.29h-22.16zm49.3 36.04c0-22.58 11.19-37.72 35-37.72s35.11 15.14 35.11 37.72c0 23-11.29 38.11-35.11 38.11s-35-15.12-35-38.11zm46.92.2c0-15.12-4.36-20.4-11.92-20.4s-11.6 5.28-11.6 20.4 4.15 20.4 11.6 20.4 11.92-5.17 11.92-20.4z"/><path class="cls-4" d="M152.74 211.2h61.72v-16.77h-10l.1-55.72h-54c0 49.81-7.36 55.72-7.36 55.72h-8.29v16.77zm18-58.6h12v41.83h-17.46s5.49-6 5.49-41.83z"/><path class="cls-5" d="M155.74 291.33h61.71v-16.77h-10l.11-55.72h-54c0 49.79-7.35 55.72-7.35 55.72h-8.28v16.77zm18-58.62h12v41.85h-17.5s5.51-6.02 5.51-41.85zM15.22 326.86H10v-6.19H5.27v6.19H0v-17.12h5.27v6.6H10v-6.6h5.23zm18.05 0H28.4v-9.1l-5.16 9.1H18.1v-17.12l4.89-.27v9.02l5.13-8.75h5.16zm18.09 0h-4.87v-9.1l-5.16 9.1H36.2v-17.12l4.9-.27v9.02l5.14-8.75h5.16zm22.81 0h-5.23v-6.19h-4.72v6.19H59v-17.12h5.24v6.6h4.72v-6.6h5.23zm14.99-13.06h-6.87v2.64h6l-.27 4h-5.73v2.35h6.85v4.06H77.06v-17.11h12.1zm2.42-4.06h7.78c4 0 5.75 1.64 5.75 4.45a3.73 3.73 0 0 1-2.69 3.81 3.94 3.94 0 0 1 3.32 4.06c0 3.21-2.42 4.8-5.57 4.8h-8.59zm7.19 6.58a1.35 1.35 0 1 0 0-2.69h-2.18v2.69zm.42 6.65a1.37 1.37 0 0 0 1.49-1.49 1.44 1.44 0 0 0-1.44-1.48h-2.65v3zm8.63-13.23H116c3.89 0 6 2.52 6 6s-2.25 6-6.11 6H113v5.14h-5.23zm6.82 8a2 2 0 1 0 0-4h-1.59v4zm8.73.51c0-5.33 2.64-8.9 8.26-8.9s8.3 3.57 8.3 8.9-2.67 9-8.3 9-8.26-3.57-8.26-9zm11.08.05c0-3.57-1-4.82-2.82-4.82s-2.74 1.25-2.74 4.82 1 4.82 2.74 4.82 2.82-1.23 2.82-4.82zm23.96 8.56h-5.5l-3.28-12.48-3.32 12.48h-5.26l5.21-17.24h6.94zm1.12-8.61c0-5.33 2.64-8.9 8.27-8.9s8.29 3.57 8.29 8.9-2.66 9-8.29 9-8.27-3.57-8.27-9zm11.08.05c0-3.57-1-4.82-2.81-4.82s-2.74 1.25-2.74 4.82 1 4.82 2.74 4.82 2.81-1.23 2.81-4.82zm7.65-8.56h11.65v4.06h-6.41v13.06h-5.24zm28.81 17.12h-4.86v-9.1l-5.17 9.1h-5.13l.05-17.12 4.89-.27v9.02l5.14-8.75h5.16zm18.1 0h-4.87v-9.1l-5.16 9.1H210l.05-17.12 4.89-.27v9.02l5.14-8.75h5.16zm22.83 0h-4.87v-9.1l-5.16 9.1h-5.14l.05-17.12 4.89-.27v9.02l5.13-8.75h5.1zm22.5 0h-5.23v-13.09h-4.45v13.09h-5.24v-17.12h14.92zm14.99-13.06h-6.87v2.64h6l-.27 4h-5.72v2.35h6.84v4.06h-12.09v-17.11h12.11zm17.95 9.1h2.37v7.1h-4.23v-3.18h-10.35V330H287v-7.1h2s1.74-1.4 1.74-13.16h12.74zm-7.95-9.9c0 8.47-1.3 9.89-1.3 9.89h4.14V313zM323 326.86h-4.87v-9.1l-5.16 9.1h-5.14l.05-17.12 4.89-.27v9.02l5.13-8.75h5.1zm19.39 0h-5.45l-.88-3.35h-5.12l-.9 3.35h-5.19l5.29-17.22h7zM332 319.52h3l-1.46-5.52zm25.65-5.8h-4.55v13.14h-5.23v-13.14h-4.53v-4h14.31zm2-3.98h8.19c3.89 0 6.05 2.52 6.05 6s-2.25 6-6.12 6h-2.89v5.14h-5.23zm6.82 8a2 2 0 1 0 0-4h-1.59v4zm24.61 9.12h-4.87v-9.1l-5.16 9.1h-5.14v-17.12l4.89-.27v9.02l5.13-8.75h5.16zm18.09 0h-4.87v-9.1l-5.16 9.1H394l.05-17.12 4.9-.27v9.02l5.14-8.75h5.16z"/></g></g></svg>