<svg width="18" height="18" viewBox="0 0 18 18" fill="none" xmlns="http://www.w3.org/2000/svg">
<path d="M8.25 14.25C11.5637 14.25 14.25 11.5637 14.25 8.25C14.25 4.93629 11.5637 2.25 8.25 2.25C4.93629 2.25 2.25 4.93629 2.25 8.25C2.25 11.5637 4.93629 14.25 8.25 14.25Z" stroke="#117DC1" stroke-width="2" stroke-linecap="round" stroke-linejoin="round"/>
<path d="M15.75 15.75L12.4875 12.4875" stroke="#117DC1" stroke-width="2" stroke-linecap="round" stroke-linejoin="round"/>
<path d="M4.6333 8.29997C4.6333 8.29997 5.96663 5.6333 8.29997 5.6333C10.6333 5.6333 11.9666 8.29997 11.9666 8.29997C11.9666 8.29997 10.6333 10.9666 8.29997 10.9666C5.96663 10.9666 4.6333 8.29997 4.6333 8.29997Z" stroke="#117DC1" stroke-linecap="round" stroke-linejoin="round"/>
<path d="M8.30005 9.30005C8.85233 9.30005 9.30005 8.85233 9.30005 8.30005C9.30005 7.74776 8.85233 7.30005 8.30005 7.30005C7.74776 7.30005 7.30005 7.74776 7.30005 8.30005C7.30005 8.85233 7.74776 9.30005 8.30005 9.30005Z" stroke="#117DC1" stroke-linecap="round" stroke-linejoin="round"/>
</svg>
