<?xml version="1.0" encoding="UTF-8"?>
<!DOCTYPE svg PUBLIC "-//W3C//DTD SVG 1.1//EN" "http://www.w3.org/Graphics/SVG/1.1/DTD/svg11.dtd">
<!-- Creator: CorelDRAW -->
<svg xmlns="http://www.w3.org/2000/svg" xml:space="preserve" width="253px" height="148px" version="1.1" style="shape-rendering:geometricPrecision; text-rendering:geometricPrecision; image-rendering:optimizeQuality; fill-rule:evenodd; clip-rule:evenodd"
viewBox="0 0 40.21 23.55"
 xmlns:xlink="http://www.w3.org/1999/xlink"
 xmlns:xodm="http://www.corel.com/coreldraw/odm/2003">
 <defs>
  <style type="text/css">
   <![CDATA[
    .fil0 {fill:#00A4A7;fill-rule:nonzero}
   ]]>
  </style>
 </defs>
 <g id="Слой_x0020_1">
  <metadata id="CorelCorpID_0Corel-Layer"/>
  <g id="_2557222749552">
   <g>
    <path class="fil0" d="M0.96 6.39l0.71 -1.65 0.61 -1.47c0.23,-0.57 0.45,-1.12 0.66,-1.66 0.19,-0.49 0.37,-0.97 0.54,-1.45 0.04,0 0.08,0 0.12,0 0.05,0.01 0.09,0.02 0.11,0.03 0.03,0 0.06,0.01 0.1,0.01 0.05,0 0.08,0 0.1,0 0.04,0 0.08,0 0.12,0 0.04,-0.01 0.07,-0.01 0.1,-0.02 0.08,-0.01 0.15,-0.02 0.21,-0.02 0.68,1.85 1.48,3.92 2.43,6.23l0.48 0 -0.06 0.55c0,0.17 0.02,0.35 0.06,0.55l-0.15 0c-0.12,-0.15 -0.33,-0.25 -0.64,-0.29 -0.3,-0.05 -0.64,-0.07 -1.03,-0.07l-3.01 0c-0.45,0 -0.82,0.02 -1.11,0.06 -0.3,0.04 -0.51,0.14 -0.63,0.3l-0.16 0c0.02,-0.07 0.03,-0.16 0.04,-0.25 0.01,-0.09 0.02,-0.19 0.02,-0.3 0,-0.06 -0.01,-0.14 -0.02,-0.24 -0.01,-0.09 -0.02,-0.2 -0.04,-0.31l0.44 0zm4.08 0c-0.19,-0.6 -0.41,-1.23 -0.66,-1.87l-0.9 -2.42c-0.76,1.87 -1.31,3.3 -1.65,4.29l0.7 0.03 0.84 0.01 0.91 -0.01 0.76 -0.03z"/>
    <path class="fil0" d="M10.91 7.31c-0.76,0 -1.42,-0.14 -1.99,-0.42 -0.57,-0.28 -1.01,-0.7 -1.32,-1.25 -0.31,-0.55 -0.47,-1.2 -0.47,-1.97 0,-0.51 0.09,-0.98 0.27,-1.42 0.17,-0.45 0.44,-0.84 0.79,-1.18 0.36,-0.34 0.78,-0.61 1.28,-0.79 0.49,-0.19 1.05,-0.28 1.68,-0.28 0.69,0 1.28,0.11 1.77,0.33 0.5,0.22 0.89,0.51 1.18,0.86 0.28,0.35 0.49,0.74 0.62,1.17 0.14,0.42 0.2,0.84 0.2,1.27 0,0.49 -0.09,0.97 -0.28,1.41 -0.18,0.45 -0.45,0.84 -0.8,1.18 -0.35,0.34 -0.77,0.61 -1.27,0.8 -0.5,0.2 -1.05,0.29 -1.66,0.29zm-2.09 -3.34c0,0.47 0.08,0.91 0.22,1.32 0.15,0.42 0.39,0.76 0.71,1.02 0.32,0.26 0.72,0.39 1.2,0.39 0.5,0 0.92,-0.15 1.26,-0.45 0.35,-0.29 0.6,-0.69 0.77,-1.19 0.17,-0.5 0.25,-1.04 0.25,-1.62 0,-0.35 -0.04,-0.69 -0.12,-1.02 -0.08,-0.32 -0.21,-0.63 -0.39,-0.9 -0.17,-0.28 -0.4,-0.5 -0.68,-0.66 -0.27,-0.17 -0.6,-0.25 -0.96,-0.25 -0.47,0 -0.88,0.12 -1.22,0.37 -0.33,0.24 -0.58,0.61 -0.77,1.11 -0.18,0.51 -0.27,1.13 -0.27,1.88z"/>
    <path class="fil0" d="M15.64 0.18l0.33 0.04 0.44 0.02 0.21 0 0.26 -0.03 0.29 -0.03 0 3.2c0.27,-0.31 0.57,-0.66 0.89,-1.04 0.28,-0.33 0.57,-0.68 0.89,-1.07 0.27,-0.33 0.56,-0.69 0.87,-1.09l0.21 0.03 0.18 0.03 0.17 0c0.03,0 0.07,0 0.12,0 0.05,-0.01 0.11,-0.01 0.18,-0.02l0.23 -0.04 0 0.08c-0.23,0.22 -0.46,0.46 -0.71,0.71 -0.24,0.25 -0.49,0.51 -0.75,0.79 -0.52,0.57 -0.91,1.01 -1.18,1.33l2.85 3.95 0 0.13 -0.44 -0.02 -0.43 -0.02 -0.44 0.02 -0.43 0.02 -2.21 -3.23 0 3.23 -0.38 -0.02 -0.38 -0.02 -0.38 0.02 -0.39 0.02 0 -6.99z"/>
    <path class="fil0" d="M24.56 7.17l-0.38 -0.02 -0.38 -0.02 -0.39 0.02 -0.38 0.02 0 -6.26c-0.54,0 -1.18,0.04 -1.9,0.14 0.04,-0.23 0.05,-0.38 0.05,-0.44 0,-0.05 -0.01,-0.2 -0.05,-0.43l5.26 0 -0.04 0.17 -0.02 0.14 0 0.12 0 0.13 0.02 0.15 0.04 0.16c-0.82,-0.1 -1.43,-0.14 -1.83,-0.14l0 6.26z"/>
    <path class="fil0" d="M30.16 7.31c-0.76,0 -1.42,-0.14 -1.98,-0.42 -0.57,-0.28 -1.01,-0.7 -1.32,-1.25 -0.32,-0.55 -0.47,-1.2 -0.47,-1.97 0,-0.51 0.09,-0.98 0.26,-1.42 0.18,-0.45 0.45,-0.84 0.8,-1.18 0.35,-0.34 0.78,-0.61 1.27,-0.79 0.5,-0.19 1.06,-0.28 1.69,-0.28 0.68,0 1.28,0.11 1.77,0.33 0.5,0.22 0.89,0.51 1.17,0.86 0.29,0.35 0.5,0.74 0.63,1.17 0.13,0.42 0.2,0.84 0.2,1.27 0,0.49 -0.09,0.97 -0.28,1.41 -0.18,0.45 -0.45,0.84 -0.8,1.18 -0.35,0.34 -0.77,0.61 -1.27,0.8 -0.5,0.2 -1.06,0.29 -1.67,0.29zm-2.08 -3.34c0,0.47 0.07,0.91 0.22,1.32 0.15,0.42 0.38,0.76 0.7,1.02 0.32,0.26 0.73,0.39 1.21,0.39 0.5,0 0.92,-0.15 1.26,-0.45 0.34,-0.29 0.6,-0.69 0.77,-1.19 0.16,-0.5 0.25,-1.04 0.25,-1.62 0,-0.35 -0.04,-0.69 -0.12,-1.02 -0.09,-0.32 -0.21,-0.63 -0.39,-0.9 -0.18,-0.28 -0.4,-0.5 -0.68,-0.66 -0.28,-0.17 -0.6,-0.25 -0.96,-0.25 -0.48,0 -0.88,0.12 -1.22,0.37 -0.33,0.24 -0.59,0.61 -0.77,1.11 -0.18,0.51 -0.27,1.13 -0.27,1.88z"/>
    <path class="fil0" d="M36.43 7.17l-0.39 -0.02 -0.38 -0.02c-0.07,0 -0.13,0 -0.2,0 -0.08,0.01 -0.14,0.02 -0.18,0.02l-0.38 0.02 0 -6.99 2.51 0c0.71,0 1.25,0.15 1.62,0.44 0.37,0.29 0.56,0.72 0.56,1.29 0,0.57 -0.13,1.02 -0.39,1.35 -0.26,0.32 -0.62,0.55 -1.09,0.68 -0.47,0.12 -1.03,0.18 -1.68,0.18l0 3.05zm0 -3.62c0.15,0 0.28,-0.01 0.38,-0.02 0.1,-0.01 0.2,-0.03 0.29,-0.05 0.31,-0.08 0.54,-0.25 0.69,-0.5 0.15,-0.26 0.22,-0.55 0.22,-0.89 0,-0.4 -0.09,-0.73 -0.27,-0.97 -0.18,-0.25 -0.41,-0.37 -0.68,-0.37l-0.63 0 0 2.8z"/>
   </g>
   <path class="fil0" d="M7.47 23.55c-0.55,0 -1.08,-0.05 -1.59,-0.13 -0.51,-0.08 -0.99,-0.21 -1.46,-0.38l0 0c-0.46,-0.17 -0.89,-0.37 -1.29,-0.62 -0.39,-0.24 -0.76,-0.52 -1.08,-0.84 -0.33,-0.32 -0.62,-0.67 -0.88,-1.05 -0.25,-0.38 -0.47,-0.8 -0.65,-1.24l0 0c-0.08,-0.23 -0.16,-0.46 -0.23,-0.69 -0.06,-0.23 -0.12,-0.46 -0.16,-0.7l0 0c-0.04,-0.23 -0.08,-0.48 -0.1,-0.74 -0.02,-0.25 -0.03,-0.52 -0.03,-0.79 0,-0.55 0.05,-1.06 0.14,-1.56 0.1,-0.49 0.24,-0.97 0.42,-1.42 0.19,-0.45 0.42,-0.86 0.69,-1.25 0.27,-0.39 0.58,-0.74 0.93,-1.07 0.34,-0.31 0.71,-0.58 1.1,-0.82 0.4,-0.24 0.82,-0.45 1.27,-0.62 0.46,-0.17 0.93,-0.29 1.42,-0.38 0.49,-0.08 1.01,-0.13 1.54,-0.13 0.48,0 0.96,0.04 1.44,0.11 0.47,0.07 0.94,0.17 1.4,0.31 0.47,0.13 0.9,0.31 1.32,0.52 0.41,0.21 0.79,0.45 1.16,0.74 0.36,0.28 0.68,0.6 0.97,0.97 0.29,0.36 0.54,0.76 0.75,1.2 0.21,0.44 0.37,0.92 0.48,1.44 0.11,0.51 0.16,1.06 0.16,1.65 0,0.73 -0.08,1.42 -0.25,2.07 -0.16,0.65 -0.4,1.26 -0.73,1.83 -0.33,0.57 -0.72,1.07 -1.18,1.51 -0.46,0.44 -0.98,0.82 -1.57,1.14l0 0c-0.59,0.31 -1.22,0.54 -1.89,0.7 -0.66,0.16 -1.37,0.24 -2.1,0.24zm5.68 -7.33c0,-0.33 -0.01,-0.64 -0.03,-0.92 -0.02,-0.28 -0.04,-0.54 -0.07,-0.76l0 0c-0.04,-0.23 -0.08,-0.47 -0.15,-0.7 -0.06,-0.24 -0.14,-0.47 -0.24,-0.71l0 0c-0.1,-0.25 -0.21,-0.48 -0.34,-0.71 -0.13,-0.22 -0.28,-0.43 -0.44,-0.63 -0.16,-0.21 -0.34,-0.4 -0.53,-0.57 -0.19,-0.18 -0.39,-0.34 -0.61,-0.48 -0.22,-0.14 -0.45,-0.27 -0.69,-0.38 -0.24,-0.11 -0.5,-0.2 -0.77,-0.28 -0.26,-0.08 -0.53,-0.14 -0.79,-0.18 -0.27,-0.04 -0.53,-0.05 -0.79,-0.05 -0.43,0 -0.85,0.04 -1.24,0.12 -0.39,0.08 -0.77,0.2 -1.12,0.36l0 0c-0.35,0.16 -0.68,0.35 -0.97,0.57 -0.3,0.23 -0.58,0.5 -0.82,0.79l0 0c-0.25,0.3 -0.47,0.63 -0.65,0.99 -0.19,0.35 -0.35,0.74 -0.47,1.16 -0.13,0.42 -0.23,0.86 -0.29,1.32 -0.06,0.46 -0.1,0.94 -0.1,1.44 0,0.49 0.04,0.95 0.11,1.39 0.07,0.43 0.17,0.84 0.3,1.23 0.14,0.39 0.31,0.74 0.5,1.07 0.2,0.33 0.42,0.63 0.68,0.9 0.25,0.27 0.53,0.5 0.83,0.71 0.29,0.2 0.61,0.37 0.95,0.51 0.34,0.13 0.68,0.23 1.04,0.3 0.35,0.07 0.71,0.1 1.08,0.1 0.47,0 0.92,-0.05 1.33,-0.15 0.42,-0.1 0.8,-0.25 1.16,-0.46 0.36,-0.2 0.68,-0.44 0.98,-0.71 0.29,-0.26 0.55,-0.56 0.77,-0.9l0 0c0.23,-0.33 0.43,-0.68 0.6,-1.04 0.17,-0.37 0.32,-0.75 0.43,-1.15l0 0c0.12,-0.4 0.2,-0.78 0.26,-1.14 0.06,-0.37 0.09,-0.71 0.09,-1.04z"/>
   <path class="fil0" d="M28.48 21.09l-0.11 1.27 0 0.02 -0.01 0.01c-0.2,0.13 -0.41,0.25 -0.63,0.36 -0.23,0.11 -0.47,0.21 -0.72,0.3l0 0c-0.23,0.08 -0.47,0.15 -0.72,0.21 -0.25,0.06 -0.51,0.11 -0.77,0.16l0 0c-0.27,0.04 -0.54,0.07 -0.81,0.09 -0.27,0.03 -0.55,0.04 -0.83,0.04 -0.55,0 -1.07,-0.04 -1.57,-0.13 -0.5,-0.08 -0.97,-0.21 -1.41,-0.37 -0.44,-0.17 -0.85,-0.38 -1.22,-0.62 -0.38,-0.24 -0.72,-0.52 -1.02,-0.84l-0.01 0c-0.3,-0.31 -0.57,-0.67 -0.81,-1.05 -0.24,-0.39 -0.44,-0.81 -0.6,-1.27l0 0c-0.17,-0.45 -0.29,-0.93 -0.37,-1.43 -0.08,-0.5 -0.13,-1.01 -0.13,-1.56 0,-0.74 0.09,-1.43 0.25,-2.07 0.17,-0.64 0.42,-1.23 0.76,-1.77 0.33,-0.54 0.72,-1.02 1.18,-1.43 0.46,-0.41 0.98,-0.76 1.57,-1.04 0.58,-0.28 1.2,-0.49 1.85,-0.63 0.65,-0.15 1.33,-0.22 2.04,-0.22l0 0c0.25,0 0.49,0.01 0.74,0.03 0.25,0.02 0.5,0.04 0.75,0.07l0 0c0.25,0.04 0.5,0.08 0.75,0.13 0.24,0.05 0.49,0.12 0.73,0.19 0.24,0.07 0.48,0.15 0.71,0.24 0.23,0.08 0.45,0.18 0.67,0.28l0.03 0.01 -0.02 0.03c-0.08,0.2 -0.15,0.44 -0.22,0.69 -0.07,0.26 -0.14,0.54 -0.2,0.85l0 0.02 -0.02 0 -0.14 0.03 -0.02 0.01 -0.01 -0.02c-0.08,-0.1 -0.18,-0.21 -0.3,-0.32 -0.13,-0.12 -0.27,-0.23 -0.44,-0.36l0 0c-0.17,-0.13 -0.36,-0.25 -0.59,-0.37 -0.22,-0.12 -0.46,-0.23 -0.74,-0.35 -0.27,-0.11 -0.56,-0.19 -0.85,-0.25 -0.29,-0.06 -0.6,-0.08 -0.91,-0.08 -0.59,0 -1.14,0.07 -1.64,0.21 -0.5,0.14 -0.95,0.36 -1.37,0.64 -0.41,0.29 -0.77,0.63 -1.09,1.02 -0.31,0.39 -0.57,0.84 -0.78,1.34 -0.22,0.5 -0.38,1.01 -0.48,1.55 -0.11,0.53 -0.16,1.08 -0.16,1.66 0,0.63 0.06,1.22 0.17,1.77 0.11,0.56 0.28,1.07 0.51,1.55 0.22,0.48 0.49,0.91 0.81,1.28 0.32,0.37 0.68,0.68 1.09,0.94l0 0c0.41,0.26 0.85,0.46 1.31,0.59 0.47,0.13 0.96,0.2 1.48,0.2 0.33,0 0.66,-0.03 0.97,-0.08 0.31,-0.05 0.62,-0.12 0.91,-0.22l0 0c0.29,-0.1 0.56,-0.21 0.8,-0.32 0.24,-0.11 0.46,-0.23 0.65,-0.35l0 0c0.2,-0.12 0.37,-0.24 0.53,-0.35 0.15,-0.11 0.29,-0.22 0.41,-0.32l0.06 -0.04 -0.01 0.07z"/>
   <path class="fil0" d="M35.98 10.46l0 12.81 0 0.03 -0.03 0c-0.16,-0.02 -0.31,-0.03 -0.46,-0.04 -0.14,-0.01 -0.29,-0.02 -0.42,-0.02 -0.3,0 -0.6,0.02 -0.9,0.06l-0.03 0.01 0 -0.04 0 -12.81c-0.69,0 -1.4,0.02 -2.13,0.06 -0.73,0.04 -1.48,0.09 -2.26,0.17l-0.04 0.01 0.01 -0.04 0.04 -0.33 0.02 -0.27 -0.01 -0.19 -0.02 -0.16 0 0 -0.03 -0.26 0 -0.03 0.03 0 10.43 0 0.03 0 0 0.03 -0.04 0.37 0 0 -0.02 0.24 0.02 0.25 0 0 0.04 0.35 0 0.04 -0.04 0 -1.95 -0.17c-0.25,0 -0.53,-0.01 -0.83,-0.02 -0.37,-0.02 -0.68,-0.03 -0.92,-0.04 -0.21,-0.01 -0.38,-0.01 -0.49,-0.01z"/>
  </g>
 </g>
</svg>
