<svg width="116" height="116" viewBox="0 0 116 116" fill="none" xmlns="http://www.w3.org/2000/svg">
<path d="M99.3901 0L93.0498 5.4375H99.3901V0Z" fill="#005A94"/>
<path d="M42.5684 25.3749H72.5189L99.3899 0H70.5096C69.4742 0 68.4792 0.401457 67.7337 1.11996L42.5684 25.3749Z" fill="#106CA6"/>
<path d="M16.0596 0L22.3999 5.4375H16.0596V0Z" fill="#0A649E"/>
<path d="M78.0753 38.9073H35.5645V22.2988C35.5645 21.1942 36.4599 20.2988 37.5645 20.2988H76.0751C77.1796 20.2988 78.0751 21.1942 78.0751 22.2987L78.0753 38.9073ZM40.3952 34.074H73.2443V25.1323H40.3952V34.074Z" fill="#BF772D"/>
<path d="M72.5197 25.3749H42.5692L16 0H44.9817C45.7583 0 46.5045 0.301089 47.0636 0.839958L72.5197 25.3749Z" fill="url(#paint0_linear)"/>
<path d="M58 111.55C34.804 111.55 16 92.7459 16 69.55C16 46.354 34.804 27.55 58 27.55C81.196 27.55 100 46.354 100 69.55C100 92.7459 81.196 111.55 58 111.55Z" fill="url(#paint1_linear)"/>
<path d="M35.4175 105C41.6009 109.062 49.2051 112 57.4285 112C65.6519 112 73.2559 109.603 79.4395 105.541V42.4591C73.2559 38.3971 65.6519 36 57.4285 36C49.2051 36 41.6011 38.3971 35.4175 42.4591V105Z" fill="url(#paint2_linear)"/>
<path d="M57.2898 33.2393C77.6431 33.2393 94.1426 49.5274 94.1426 69.6197C94.1426 89.712 77.6431 106 57.2898 106C36.9366 106 20.437 89.712 20.437 69.6197C20.437 49.5274 36.9366 33.2393 57.2898 33.2393Z" fill="url(#paint3_linear)"/>
<path d="M90.5378 70.8437C90.4966 70.8097 90.4367 70.7989 90.3901 70.8146C90.3332 70.8321 90.2811 70.8473 90.2319 70.8617L90.2078 70.8687C90.0865 70.9042 89.9817 70.9346 89.8779 70.9763C88.2375 71.6277 86.9462 72.7437 85.9298 74.3879C85.6788 74.7942 85.4844 75.2165 85.3295 75.6377C85.5835 74.2211 85.6423 73.6692 85.6873 72.0841C85.6894 72.0176 85.6894 71.95 85.6894 71.8828C85.6894 71.6994 85.6894 71.5262 85.7295 71.3682C85.7776 71.1809 85.8742 70.9941 85.9677 70.8133C85.994 70.7622 86.0204 70.711 86.0421 70.6661C86.0496 70.6572 86.074 70.6424 86.0835 70.6409C86.5526 70.5693 86.9674 70.3703 87.352 70.0325C87.7395 69.6904 88.0582 69.2717 88.2994 68.7876C89.165 67.0527 89.5981 65.1351 89.5871 63.0886C89.5862 62.8912 89.563 62.699 89.5374 62.49C89.5258 62.3964 89.5141 62.3006 89.5042 62.2014C89.4987 62.147 89.4652 62.0986 89.4166 62.0751C89.3687 62.0519 89.3108 62.0535 89.2624 62.0828C89.2332 62.1011 89.2081 62.1159 89.1854 62.1292C89.1414 62.1553 89.1079 62.1757 89.0762 62.1986C88.3378 62.7276 87.6865 63.3862 87.1402 64.1557C86.2488 65.4132 85.7303 66.8352 85.5907 68.3995C85.5768 68.2251 85.5627 68.0508 85.5486 67.8764L85.5437 67.8131C85.489 67.1295 85.4324 66.4225 85.3863 65.7273C85.3747 65.5513 85.3408 65.38 85.3081 65.2143C85.245 64.8958 85.1853 64.5949 85.2808 64.2797C85.3026 64.2084 85.3209 64.1367 85.3392 64.0651C85.3843 63.8878 85.6023 63.6147 85.937 63.3161L85.9496 63.3049C86.073 63.2003 86.7071 62.6204 87.0668 61.4735C87.4319 60.3083 87.4043 59.0907 87.3842 58.2017L87.3837 58.178C87.3569 56.9559 87.2248 56.035 86.9553 55.1915C86.9205 55.0837 86.8791 54.9773 86.8353 54.8655C86.8126 54.8073 86.7894 54.7472 86.7655 54.6843C86.7459 54.631 86.6988 54.5923 86.6437 54.5831L86.6167 54.5807C86.5689 54.5807 86.5243 54.6021 86.4941 54.639L86.2323 54.9578C84.9772 56.4878 84.3606 58.2823 84.3992 60.2914C84.4059 60.6453 84.4324 61.0082 84.4793 61.383C84.1603 60.2826 83.7862 59.2115 83.3607 58.1811C83.3519 58.1586 83.3462 58.1306 83.3455 58.1069L83.3426 57.966C83.3382 57.7627 83.3336 57.5524 83.3423 57.3455C83.3436 57.3112 83.3658 57.2496 83.4121 57.1889C83.4778 57.1022 83.5507 57.0173 83.6263 56.9291C83.755 56.7794 83.8879 56.6248 83.9932 56.4483C84.3323 55.8806 84.4916 55.2099 84.4942 54.3373C84.4988 53.3102 84.3403 52.2293 83.995 50.9354C83.8063 50.2296 83.5215 49.3126 82.991 48.4813C82.9551 48.4254 82.9149 48.3727 82.872 48.317C82.8527 48.2923 82.8324 48.266 82.8118 48.2378C82.7818 48.1974 82.7402 48.1739 82.6732 48.1739C82.6197 48.1778 82.572 48.2082 82.5453 48.2554C81.8795 49.4564 81.5479 50.7395 81.5322 52.178C81.5188 53.3774 81.7062 54.4094 81.9412 55.2251C81.3432 54.1332 80.6787 53.0783 79.9585 52.0776L79.9419 52.0549C79.9256 52.0332 79.9187 52.0225 79.9199 52.0301C79.8746 51.7063 79.8432 51.4473 79.8214 51.2218C79.8219 51.2183 79.8262 51.1994 79.8599 51.1431C79.9074 51.0621 79.9596 50.9827 80.015 50.8987C80.1262 50.7297 80.241 50.5548 80.3146 50.359C80.5366 49.7681 80.5865 49.0979 80.4666 48.3108C80.2036 46.5688 79.4352 45.0003 78.1183 43.5152C77.9828 43.3627 77.833 43.2279 77.6746 43.0854L77.6307 43.0457C77.5688 42.9896 77.5052 42.9323 77.4409 42.8716C77.4 42.8327 77.3415 42.8182 77.2848 42.8349C77.2311 42.8519 77.1898 42.8963 77.177 42.9516L77.1482 43.0777C77.1286 43.1614 77.1134 43.2274 77.1021 43.2938C76.9249 44.3511 76.9378 45.4837 77.1419 46.7565C77.3443 48.0188 77.7477 49.1075 78.3665 50.0533C77.4385 48.9603 76.5357 48.0425 75.5923 47.2291C75.588 47.2235 75.5818 47.2067 75.5813 47.2024C75.6551 46.5675 75.4984 45.9694 75.1021 45.3739C74.5816 44.5912 73.8584 43.9947 72.9526 43.6012C72.4106 43.3662 71.8489 43.1581 71.299 42.9543C71.0356 42.8566 70.7722 42.7592 70.501 42.6548C70.2284 42.5464 70.1118 42.5271 70.0485 42.5856C69.9671 42.6615 69.9867 42.7262 70.0222 42.8439L70.0336 42.8823C70.3661 44.0014 70.8072 44.8865 71.3826 45.5881C72.4389 46.8774 73.6742 47.5324 75.1572 47.5903C75.2092 47.5934 75.2504 47.6077 75.2672 47.6208C75.476 47.7771 75.6297 47.9021 75.7656 48.026C76.1953 48.4185 76.6185 48.8367 77.0325 49.2771C76.4167 48.8947 75.6641 48.7221 74.8164 48.765C74.3526 48.7883 73.8921 48.8563 73.4469 48.922L73.4299 48.9246C73.2983 48.9439 73.1673 48.963 73.0366 48.9815C72.7505 49.0202 72.4621 49.0709 72.2073 49.1154C72.1042 49.1338 71.8577 49.1899 71.801 49.3093C71.7814 49.3502 71.783 49.395 71.8053 49.4357C71.8249 49.4711 71.8465 49.5045 71.87 49.5349C72.6053 50.4885 73.4441 51.1165 74.4343 51.4546C75.6417 51.8691 76.7506 51.8349 77.747 51.3474C77.8994 51.2636 78.0832 51.2211 78.2931 51.2211C78.4516 51.2211 78.5704 51.2461 78.6098 51.2551C78.6689 51.2649 78.749 51.2979 78.7653 51.3192C79.385 52.1335 79.9732 53.0033 80.5224 53.917C80.0584 53.4659 79.4532 53.1618 78.6288 52.9637C77.9063 52.7916 77.1675 52.7547 76.4533 52.7187L76.2141 52.7066C75.9901 52.6952 75.7661 52.681 75.5354 52.6664L75.1485 52.6426C75.0985 52.6426 75.0509 52.6668 75.0218 52.707C74.9896 52.7503 74.9819 52.8065 75.0009 52.857C75.0164 52.8992 75.0447 52.9735 75.0592 52.9984C75.8125 54.2577 76.6971 55.1288 77.7632 55.6616C78.8054 56.1819 79.747 56.3195 80.6969 56.0925C80.8067 56.066 80.9341 56.052 81.0657 56.052C81.4698 56.052 81.7515 56.1752 81.8107 56.2893C82.3333 57.3668 82.7996 58.4864 83.2018 59.6284C82.78 59.0471 82.19 58.575 81.4431 58.2218C80.7011 57.8717 79.9285 57.5518 79.1684 57.2368C78.8417 57.1018 78.5137 56.9664 78.1872 56.8278C78.1386 56.8065 78.0812 56.8109 78.0359 56.8408C77.9914 56.8704 77.965 56.9198 77.965 56.9729C77.965 57.0749 79.049 60.0821 80.6234 61.2671C81.2657 61.7505 82.0568 62.2478 83.0543 62.2712C83.3529 62.2772 83.6616 62.3194 83.8948 62.5843C83.9304 62.6265 83.9777 62.6593 84.0292 62.6768C84.1088 62.703 84.1307 62.7517 84.1699 62.9177C84.493 64.2735 84.7283 65.6709 84.8732 67.09C84.8294 66.946 84.7785 66.8005 84.7202 66.6533C84.3678 65.7602 83.7747 64.9787 82.8539 64.1937C82.3792 63.7875 81.8821 63.3941 81.4014 63.0135L81.3785 62.9955C81.1596 62.8221 80.9411 62.6494 80.7233 62.4745C80.6784 62.4384 80.6346 62.4011 80.5837 62.3576L80.4478 62.2413C80.4003 62.2011 80.3295 62.1927 80.2739 62.2205C80.2168 62.2494 80.1826 62.3093 80.187 62.3732C80.1937 62.4691 80.1991 62.5598 80.2042 62.6469L80.2068 62.6876C80.2176 62.8669 80.2278 63.036 80.2459 63.203C80.4163 64.8293 80.9001 66.187 81.725 67.3537C82.2356 68.0749 82.9682 68.9565 84.1104 69.3734C84.3884 69.4753 84.59 69.6298 84.806 69.907C85.0097 70.1665 85.0477 70.4036 85.0431 70.702C85.0236 71.9521 84.9345 73.1922 84.7774 74.4066C84.7406 74.0686 84.6628 73.7207 84.5432 73.3592C84.2958 72.6107 83.9103 71.8829 83.3643 71.1345C82.8931 70.4863 82.4027 69.8359 81.9286 69.2065L81.897 69.1645C81.709 68.9153 81.5211 68.6657 81.3381 68.4216C81.3038 68.3714 81.2543 68.3534 81.2256 68.3435C81.1851 68.3237 81.1367 68.3217 81.0937 68.34C81.0515 68.358 81.0191 68.3935 81.0049 68.4369L80.9993 68.4539C80.9915 68.4768 80.9853 68.4971 80.982 68.5173C80.655 70.4664 80.8556 72.2126 81.5952 73.8563C81.9564 74.6601 82.4408 75.57 83.295 76.2247C83.685 76.5236 83.9929 76.943 84.1619 77.4053C84.1977 77.5048 84.1964 77.548 84.1923 77.5646C83.8308 79.0613 83.3586 80.5048 82.7845 81.8711C82.9323 81.151 82.9222 80.3947 82.7535 79.6111C82.5139 78.5004 82.1022 77.4241 81.735 76.5024L81.6249 76.2263C81.4528 75.7944 81.2794 75.359 81.1004 74.9078C81.0777 74.8501 81.0229 74.8107 80.9498 74.8071C80.8922 74.8071 80.8393 74.84 80.8118 74.8933L80.7541 75.0018C80.7287 75.0493 80.705 75.0936 80.6848 75.1394C79.946 76.8054 79.6965 78.5132 79.9436 80.2154C80.1202 81.4326 80.4194 82.3042 80.9138 83.0415C81.1697 83.4227 81.4129 83.8472 81.457 84.3694C81.4675 84.4929 81.4626 84.5781 81.4075 84.675C80.7838 85.7665 80.0847 86.7966 79.319 87.7536C79.3219 87.7484 79.3247 87.7432 79.3276 87.7379C79.8785 86.7317 79.8952 85.6438 79.8389 84.7121C79.7904 83.9134 79.6988 83.1159 79.6107 82.3449L79.6056 82.3002C79.5701 81.9914 79.5348 81.6826 79.5026 81.3733C79.484 81.1979 79.4632 81.0226 79.4418 80.8446L79.4135 80.6037C79.4073 80.5504 79.3747 80.5043 79.328 80.4811C79.241 80.4357 79.1002 80.5058 78.9481 80.6856C77.9032 81.9209 77.2547 83.3169 77.0205 84.835C76.7777 86.4089 76.9093 87.7559 77.4234 88.9528C77.4371 88.9847 77.4368 89.0498 77.4367 89.0715L77.409 89.7602C77.4049 89.8097 77.3788 89.8656 77.3572 89.8863C76.3137 90.8908 75.1649 91.7639 73.932 92.4907C74.5156 91.9635 74.9351 91.2756 75.2071 90.4039C75.5084 89.4377 75.6631 88.4322 75.813 87.4572L75.8261 87.3704C75.8792 87.0278 75.9347 86.686 75.9912 86.3365L76.0552 85.9415C76.0643 85.884 76.0416 85.8265 75.997 85.792C75.9527 85.7567 75.8886 85.7482 75.8375 85.7701L75.7818 85.7932C75.7223 85.8175 75.6704 85.8392 75.6216 85.8642C73.2909 87.0277 71.7567 89.7412 71.9735 92.3162C72.0075 92.7195 71.9706 93.0983 71.8604 93.4735C71.8501 93.5077 71.817 93.5448 71.8036 93.551C70.6967 94.0176 69.6442 94.358 68.5851 94.5917C68.5307 94.6043 68.4875 94.6432 68.4698 94.6956C68.452 94.7484 68.4628 94.8058 68.4991 94.8489C68.6142 94.9852 68.7145 95.1318 68.7969 95.2853C68.8307 95.348 68.9113 95.3802 68.9717 95.3646C69.8345 95.1678 70.6748 94.913 71.4699 94.6067C71.5342 94.5809 71.5832 94.5687 71.6292 94.5762C71.8061 94.5997 71.993 94.636 72.2005 94.6875C72.2433 94.6979 72.2794 94.7159 72.2794 94.7159C72.7327 95.619 73.5116 96.1943 74.6616 96.4742C74.9118 96.5342 75.1698 96.5785 75.4284 96.6056C75.6992 96.6342 76.0012 96.6488 76.3258 96.6488C76.7754 96.6488 77.0961 96.621 77.1 96.6206C78.0967 96.5092 78.948 96.285 79.7019 95.9351C80.0113 95.7917 80.3638 95.5987 80.6347 95.2541C80.6866 95.1881 80.6779 95.0928 80.6149 95.0374C79.8491 94.3619 79.0693 93.8712 78.2307 93.5371C76.9882 93.0436 75.8564 92.9099 74.7469 93.1232C74.5811 93.1554 74.4193 93.1959 74.262 93.2425C75.2998 92.6224 76.2934 91.8937 77.2318 91.0635C77.2498 91.0472 77.2794 91.0328 77.3024 91.0287C77.456 91.0032 77.6599 90.9718 77.8685 90.9568C77.8878 90.9568 77.9123 90.9661 77.9151 90.9671C78.4805 91.5995 79.2089 91.9069 80.1421 91.9069C80.1897 91.9069 80.2374 91.906 80.285 91.9043C81.2996 91.8716 82.3195 91.593 83.3171 91.0758C84.0421 90.6978 84.7978 90.2576 85.4106 89.6013C85.5465 89.4554 85.6678 89.2903 85.7749 89.1447L85.7854 89.1305C85.8328 89.0663 85.8807 89.0015 85.93 88.9376C85.9568 88.9032 85.968 88.8587 85.961 88.8139C85.9535 88.7708 85.9285 88.7324 85.8858 88.7046C85.875 88.6987 85.6155 88.5596 85.3786 88.468C83.7922 87.8553 82.1907 87.7925 80.6629 88.2846C80.1627 88.4452 79.6919 88.6865 79.2336 89.0198C80.0813 88.035 80.8661 86.9554 81.5787 85.7938C81.5863 85.7816 81.6066 85.7484 81.6132 85.7423C81.6755 85.7026 81.7392 85.665 81.8028 85.6279C81.9168 85.5611 82.0349 85.492 82.1457 85.4096C82.2392 85.3398 82.2656 85.338 82.3601 85.3988C82.4938 85.4856 82.6493 85.5307 82.7849 85.5662C83.5779 85.7691 84.3773 85.668 85.2615 85.253C86.0693 84.8745 86.6903 84.2762 87.2413 83.6863C88.0428 82.8257 88.5665 82.0492 88.8896 81.2425C88.9575 81.0732 89.0059 80.8982 89.0562 80.7152C89.077 80.6384 89.0983 80.5615 89.1208 80.486C89.1455 80.405 89.1023 80.3192 89.0222 80.2909L88.9558 80.2858C88.629 80.2858 85.7133 80.3337 84.0079 81.9876C83.6369 82.3475 83.3043 82.7299 83.0007 83.1486C83.6753 81.7206 84.2474 80.2156 84.7085 78.6534L84.7152 78.6305C84.7208 78.6114 84.7291 78.5824 84.7347 78.5746L85.1808 77.9624C85.1974 77.9379 85.1994 77.9379 85.2256 77.9379C85.2372 77.9379 85.2499 77.9387 85.2645 77.9395L85.3598 77.9453C85.6917 77.9658 85.8871 77.9629 86.0478 77.9377C86.6829 77.8376 87.2562 77.5179 87.8002 76.9603C89.0724 75.6561 89.9482 74.0291 90.4773 71.9866C90.534 71.7677 90.5499 71.5468 90.5669 71.3124C90.5744 71.2062 90.5827 71.0967 90.5948 70.9836C90.5999 70.9294 90.5787 70.8775 90.5378 70.8437Z" fill="url(#paint4_linear)"/>
<path d="M47.3715 94.5904C46.3134 94.3569 45.2611 94.0164 44.1538 93.5499C44.1406 93.5436 44.1077 93.5065 44.0974 93.4732C43.987 93.0972 43.9501 92.7183 43.9841 92.315C44.2009 89.7399 42.6667 87.0265 40.3366 85.8633C40.287 85.8381 40.2353 85.8164 40.1758 85.792L40.1206 85.7691C40.0681 85.7467 40.0041 85.756 39.9618 85.79C39.916 85.8253 39.8933 85.8829 39.9026 85.9406L39.9664 86.3354C40.0229 86.6848 40.0784 87.0267 40.1315 87.3689L40.1449 87.4585C40.2945 88.431 40.4492 89.4367 40.7506 90.4029C41.0225 91.2746 41.442 91.9625 42.0256 92.4895C40.7927 91.7629 39.6439 90.8898 38.6006 89.8855C38.5787 89.8644 38.5527 89.8085 38.5489 89.7624L38.521 89.0733C38.5208 89.0488 38.5205 88.9837 38.5344 88.9515C39.0483 87.7549 39.1799 86.408 38.9371 84.834C38.7029 83.3159 38.0545 81.9199 37.0095 80.6846C36.8872 80.54 36.7793 80.4668 36.6887 80.4668C36.6666 80.4668 36.6467 80.4712 36.631 80.4793C36.5829 80.5032 36.5504 80.5494 36.544 80.6029L36.516 80.8433C36.4944 81.0217 36.4737 81.1969 36.455 81.3725C36.4228 81.6817 36.3875 81.9904 36.352 82.2993L36.347 82.3439C36.2587 83.1151 36.1671 83.9126 36.1187 84.7111C36.0625 85.6426 36.0791 86.7306 36.63 87.7369C36.6329 87.742 36.6355 87.7474 36.6385 87.7525C35.8728 86.7954 35.1738 85.7655 34.5502 84.6742C34.4951 84.5771 34.4903 84.4919 34.5006 84.3684C34.5449 83.8459 34.7879 83.4213 35.0438 83.0406C35.5381 82.3032 35.8373 81.4316 36.0141 80.2144C36.2611 78.5122 36.0116 76.8045 35.2729 75.1386C35.2526 75.0926 35.2289 75.0483 35.2035 75.0008L35.1458 74.8919C35.1182 74.8388 35.0592 74.8039 34.9969 74.8066C34.9347 74.8099 34.88 74.8493 34.8574 74.9065C34.6782 75.3582 34.5049 75.7934 34.3327 76.2253L34.2227 76.5014C33.8554 77.4233 33.4435 78.4996 33.2042 79.6101C33.0354 80.3937 33.0251 81.15 33.1731 81.8701C32.5989 80.504 32.1268 79.0605 31.7653 77.5636C31.7612 77.547 31.7599 77.5038 31.7957 77.4043C31.9648 76.9418 32.2727 76.5225 32.6628 76.2235C33.5168 75.5689 34.0013 74.6589 34.3625 73.8552C35.102 72.2114 35.3026 70.4652 34.9756 68.5164C34.9722 68.4959 34.966 68.4757 34.9586 68.4536L34.9527 68.4359C34.9385 68.3923 34.9061 68.357 34.8633 68.3385C34.8214 68.3211 34.7688 68.3243 34.7362 68.3403C34.7035 68.3523 34.654 68.3704 34.6218 68.4176C34.4367 68.6647 34.2488 68.9141 34.0608 69.1634L34.0292 69.2054C33.5551 69.8347 33.0647 70.4852 32.5935 71.1331C32.0475 71.8818 31.662 72.6095 31.4146 73.358C31.2952 73.7195 31.2172 74.0675 31.1804 74.4054C31.0233 73.191 30.9342 71.9511 30.9147 70.7009C30.9101 70.4025 30.9481 70.1653 31.152 69.9056C31.3678 69.6288 31.5694 69.4742 31.8474 69.3722C32.9895 68.9552 33.7222 68.0738 34.2328 67.3526C35.0577 66.1859 35.5415 64.8283 35.7119 63.2022C35.73 63.0349 35.7403 62.8656 35.751 62.6864L35.7536 62.6457C35.7587 62.5586 35.764 62.4679 35.7709 62.3718C35.7752 62.3081 35.741 62.2483 35.6839 62.2194C35.6287 62.1916 35.5579 62.1998 35.5098 62.2405L35.3742 62.3565C35.3232 62.4 35.2796 62.4372 35.2343 62.4735C35.0167 62.6482 34.7982 62.8211 34.5793 62.9945L34.5564 63.0125C34.0758 63.3929 33.5788 63.7863 33.1041 64.1926C32.1831 64.9777 31.59 65.7592 31.2377 66.6523C31.1794 66.7996 31.1284 66.9452 31.0846 67.0893C31.2295 65.6701 31.4648 64.2725 31.7879 62.9165C31.8271 62.7507 31.849 62.702 31.9296 62.6755C31.9803 62.6583 32.0276 62.6253 32.0621 62.5845C32.2964 62.3182 32.6049 62.2761 32.9038 62.27C33.9012 62.2467 34.6923 61.7494 35.3343 61.2659C36.9088 60.0808 37.9928 57.0737 37.9928 56.9717C37.9928 56.9186 37.9663 56.8691 37.9214 56.8392C37.8771 56.81 37.8172 56.8059 37.7721 56.826C37.4441 56.965 37.1161 57.1005 36.7765 57.2409C36.0293 57.5506 35.2567 57.8706 34.5147 58.2205C33.7679 58.5737 33.1778 59.046 32.756 59.6271C33.1581 58.4852 33.6242 57.3658 34.1461 56.2899C34.2061 56.1739 34.488 56.0507 34.8922 56.0507C35.0237 56.0507 35.1511 56.0647 35.2611 56.0912C36.2108 56.3187 37.1524 56.1808 38.1946 55.6602C39.2608 55.1275 40.1454 54.2564 40.8989 52.9966C40.9132 52.9722 40.9415 52.8979 40.9567 52.8562C40.9759 52.8052 40.9682 52.749 40.9365 52.7063C40.907 52.6658 40.8599 52.6416 40.7999 52.6416C40.7994 52.6416 40.7991 52.6416 40.7986 52.6416L40.4222 52.6653C40.1915 52.6798 39.9675 52.6941 39.7435 52.7055L39.5043 52.7176C38.7901 52.7535 38.0514 52.7905 37.3287 52.9626C36.5044 53.1606 35.8993 53.4648 35.4352 53.9158C35.9845 53.0021 36.5726 52.1327 37.1921 51.3183C37.2088 51.2968 37.2888 51.2637 37.3543 51.2528C37.387 51.2451 37.5061 51.2201 37.6643 51.2201C37.8743 51.2201 38.0581 51.2628 38.2139 51.3484C39.2039 51.8323 40.3158 51.8683 41.523 51.4538C42.5132 51.1157 43.3518 50.4876 44.0869 49.5344C44.1108 49.5036 44.1324 49.4701 44.152 49.4348C44.1744 49.3942 44.1759 49.3494 44.1563 49.3085C44.0994 49.1892 43.8531 49.1332 43.7495 49.1145C43.495 49.0701 43.2068 49.0194 42.921 48.9807C42.79 48.9624 42.6589 48.9433 42.5274 48.9238L42.5106 48.9212C42.0652 48.8555 41.6047 48.7875 41.1409 48.7641C40.2932 48.7208 39.5406 48.8937 38.9247 49.2765C39.3388 48.8359 39.762 48.4178 40.1917 48.0251C40.3276 47.9013 40.4813 47.7764 40.6907 47.6197C40.7069 47.6072 40.7481 47.5927 40.7986 47.5898C42.2831 47.5317 43.5184 46.8767 44.5747 45.5876C45.1501 44.8859 45.5912 44.0008 45.9236 42.8816L45.9351 42.8432C45.9706 42.7255 45.9902 42.6608 45.9086 42.585C45.8456 42.5265 45.7348 42.5438 45.4467 42.6579C45.1851 42.7584 44.9218 42.8559 44.6515 42.9561C44.1085 43.1573 43.5469 43.3653 43.0048 43.6004C42.099 43.9939 41.3756 44.5904 40.8552 45.373C40.4589 45.9686 40.3022 46.5669 40.376 47.199C40.3755 47.206 40.3693 47.2229 40.3683 47.2248C39.4227 48.0408 38.5188 48.9594 37.5908 50.0528C38.2096 49.107 38.613 48.0181 38.8154 46.7558C39.0195 45.4832 39.0324 44.3505 38.8552 43.2931C38.8439 43.2269 38.8287 43.1607 38.8092 43.0779L38.7803 42.9502C38.7672 42.8955 38.726 42.8512 38.6719 42.8342C38.6178 42.8182 38.5571 42.8324 38.5167 42.8708C38.452 42.9318 38.3885 42.9893 38.3265 43.0452L38.2829 43.0846C38.1243 43.2274 37.9745 43.3622 37.839 43.5147C36.5219 44.9998 35.7537 46.5683 35.4907 48.3101C35.3708 49.0974 35.4205 49.7676 35.6427 50.3585C35.7163 50.5543 35.8311 50.7292 35.9454 50.9027C35.9977 50.982 36.05 51.0616 36.0979 51.1433C36.1333 51.202 36.1362 51.2172 36.136 51.2144C36.1143 51.4473 36.0831 51.7068 36.0409 52.0183C36.0391 52.0222 36.0332 52.0314 36.0144 52.0562L35.9992 52.0773C35.2789 53.0779 34.6144 54.1329 34.0165 55.2247C34.2516 54.4092 34.4388 53.377 34.4256 52.1776C34.4095 50.739 34.0781 49.4559 33.412 48.2546C33.3857 48.2078 33.3379 48.1774 33.271 48.1729C33.2225 48.1729 33.1757 48.1969 33.1451 48.2379C33.1252 48.2657 33.1049 48.2918 33.0856 48.3167C33.0426 48.3722 33.0024 48.4249 32.9664 48.4811C32.436 49.3124 32.1515 50.2291 31.9626 50.9349C31.6175 52.2294 31.4589 53.3103 31.4635 54.3368C31.4661 55.2094 31.6252 55.8801 31.9643 56.4476C32.0697 56.6243 32.2025 56.7789 32.3359 56.9345C32.4067 57.017 32.4795 57.1018 32.5454 57.1888C32.5915 57.2492 32.6137 57.3109 32.615 57.3452C32.6237 57.5521 32.6191 57.7624 32.6147 57.9657L32.6116 58.1063C32.6111 58.1304 32.6056 58.1582 32.5972 58.1795C32.1714 59.2105 31.7972 60.2821 31.478 61.3826C31.5249 61.0079 31.5514 60.6451 31.5581 60.2911C31.5967 58.2819 30.9801 56.4877 29.725 54.9575L29.4634 54.639C29.4332 54.6016 29.3884 54.5803 29.3406 54.5803L29.3145 54.5826C29.2585 54.5919 29.2115 54.6307 29.192 54.6834C29.1681 54.747 29.1447 54.807 29.122 54.865C29.0782 54.9771 29.0368 55.0834 29.0018 55.1914C28.7325 56.0345 28.6004 56.9556 28.5736 58.1773L28.5731 58.2012C28.553 59.0901 28.5254 60.3078 28.8907 61.473C29.2502 62.6201 29.8843 63.1998 30.0073 63.3039L30.0203 63.3156C30.355 63.6142 30.573 63.8873 30.6181 64.0646C30.6363 64.1362 30.6547 64.2079 30.6763 64.2789C30.7718 64.5944 30.7121 64.8952 30.6477 65.2199C30.6157 65.3838 30.5823 65.5531 30.5707 65.7268C30.5246 66.422 30.468 67.129 30.4132 67.8126L30.4083 67.8759C30.3943 68.0503 30.3802 68.2246 30.3663 68.399C30.2267 66.8347 29.7084 65.4127 28.8166 64.1552C28.2705 63.3857 27.6194 62.7275 26.881 62.1981C26.8491 62.1752 26.8156 62.1548 26.7708 62.1282C26.749 62.1156 26.7238 62.1006 26.6933 62.0814C26.6472 62.0538 26.588 62.0514 26.5404 62.0746C26.4917 62.0983 26.4581 62.1465 26.4526 62.2011C26.4426 62.2999 26.431 62.3957 26.4187 62.4951C26.3941 62.6985 26.3707 62.8907 26.3697 63.0881C26.3587 65.1346 26.7919 67.0522 27.6575 68.7872C27.8987 69.2712 28.2173 69.6899 28.605 70.0321C28.9894 70.3696 29.4042 70.5687 29.8724 70.6402C29.8827 70.642 29.9072 70.6569 29.9109 70.6599C29.9363 70.7107 29.9626 70.7617 29.9889 70.8128C30.0825 70.9934 30.1791 71.1802 30.2272 71.3675C30.2672 71.5259 30.2672 71.6989 30.2672 71.8823C30.2672 71.9495 30.2672 72.0171 30.2694 72.0835C30.3143 73.6687 30.3733 74.2208 30.6271 75.6372C30.4723 75.216 30.2779 74.7937 30.0269 74.3874C29.0105 72.7432 27.7193 71.6272 26.0795 70.9759C25.9751 70.9339 25.8705 70.9037 25.7492 70.8684L25.725 70.8612C25.6758 70.8468 25.6236 70.8315 25.5678 70.8145C25.5175 70.798 25.4601 70.8092 25.4191 70.8432C25.3782 70.877 25.3568 70.9289 25.3622 70.9828C25.3742 71.0952 25.3826 71.2046 25.3903 71.3113C25.4071 71.5453 25.423 71.7663 25.4797 71.9849C26.0088 74.0276 26.8846 75.6545 28.1568 76.9588C28.7008 77.5164 29.2741 77.8361 29.9093 77.9363C30.0696 77.9613 30.2654 77.9644 30.597 77.9438L30.6925 77.9381C30.7071 77.9372 30.7198 77.9364 30.7314 77.9364C30.7576 77.9364 30.7597 77.9364 30.7779 77.9632L31.2221 78.573C31.2278 78.581 31.2362 78.6099 31.2419 78.6298L31.2484 78.6517C31.7095 80.2141 32.2817 81.7189 32.9563 83.1471C32.6527 82.7282 32.3199 82.3458 31.9491 81.9861C30.2437 80.3323 27.328 80.2844 27.0012 80.2844L26.9604 80.2847L26.9348 80.2894C26.8547 80.3179 26.8113 80.4035 26.836 80.4841C26.8587 80.5601 26.88 80.6369 26.9044 80.7271C26.951 80.8966 26.9994 81.0716 27.0672 81.2409C27.3903 82.0479 27.914 82.8242 28.7157 83.6848C29.2666 84.2748 29.8876 84.8731 30.6951 85.2514C31.5795 85.6665 32.3781 85.7678 33.1723 85.5645C33.3073 85.529 33.4627 85.4841 33.5963 85.3975C33.6914 85.3365 33.7174 85.3385 33.8109 85.4081C33.9218 85.4905 34.0397 85.5596 34.1541 85.6266C34.2174 85.6637 34.2812 85.7011 34.3407 85.7387C34.3502 85.7467 34.3705 85.7799 34.378 85.7922C35.0906 86.9538 35.8756 88.0334 36.7232 89.0182C36.2647 88.6848 35.794 88.4436 35.294 88.2829C33.766 87.7909 32.1644 87.8535 30.5782 88.4665C30.3415 88.5582 30.082 88.6971 30.0646 88.7069C30.0283 88.7307 30.0033 88.7693 29.9955 88.8136C29.9886 88.8571 29.9999 88.9015 30.0264 88.9355C30.0759 88.9999 30.1238 89.0646 30.1713 89.1288L30.1817 89.1429C30.2888 89.2887 30.4101 89.4536 30.5462 89.5997C31.1588 90.2562 31.9144 90.6963 32.6397 91.0741C33.6371 91.5914 34.6571 91.87 35.6715 91.9027C35.7192 91.9043 35.767 91.9053 35.8146 91.9053C36.7477 91.9053 37.4761 91.5979 38.0376 90.9692C38.0445 90.9643 38.0689 90.955 38.0823 90.9548C38.2968 90.9702 38.5007 91.0014 38.6531 91.0267C38.6771 91.031 38.7067 91.0453 38.7252 91.062C39.6632 91.8921 40.6567 92.6206 41.6945 93.2407C41.5372 93.1941 41.3752 93.1535 41.2094 93.121C40.1003 92.9079 38.9685 93.0416 37.7257 93.5351C36.8872 93.8692 36.1074 94.36 35.3417 95.0354C35.2786 95.0908 35.2698 95.1861 35.3218 95.2521C35.5927 95.5968 35.9452 95.7898 36.2544 95.9329C37.0085 96.2832 37.8597 96.5074 38.8576 96.6188C38.8606 96.619 39.1812 96.6468 39.6309 96.6468C39.9554 96.6468 40.2574 96.6322 40.528 96.6036C40.7867 96.5765 41.0447 96.5322 41.295 96.4721C42.4448 96.1923 43.2239 95.617 43.6703 94.7239C43.6783 94.7162 43.7127 94.6963 43.7562 94.6857C43.9637 94.6342 44.1504 94.5979 44.328 94.5742C44.3698 94.5675 44.422 94.5788 44.4877 94.6053C45.2817 94.911 46.122 95.1658 46.9835 95.3623C46.9956 95.3652 47.0082 95.3667 47.0208 95.3667C47.0786 95.3667 47.132 95.3348 47.1601 95.2828C47.2423 95.1299 47.3426 94.9831 47.4578 94.8466C47.494 94.8037 47.5048 94.7465 47.4869 94.6935C47.4699 94.6422 47.4268 94.6033 47.3715 94.5904Z" fill="url(#paint5_linear)"/>
<path d="M57.8495 82.3569C64.3186 82.3569 68.8766 79.1502 68.8508 74.6105C68.8766 71.4541 66.7073 69.2283 62.4463 68.7756V68.5744C65.5969 68.2474 67.8953 66.2731 67.8694 63.3934C67.8953 59.0549 63.7633 55.8985 57.9011 55.8985C51.9098 55.8985 47.6488 59.231 47.6229 63.9467H54.4923C54.5181 62.3874 55.9256 61.2807 57.9011 61.2807C59.7089 61.2807 60.9743 62.3496 60.9484 63.8461C60.9743 65.4054 59.4764 66.5121 57.333 66.5121H54.6472V71.341H57.333C59.6572 71.341 61.2842 72.4476 61.2583 74.0069C61.2842 75.604 59.8896 76.7232 57.9011 76.7232C55.8352 76.7232 54.3632 75.6543 54.3373 74.1578H47.1064C47.1323 78.9616 51.587 82.3569 57.8495 82.3569Z" fill="url(#paint6_linear)"/>
<path d="M49.0956 100.869H52.8513V99.8274H50.94V99.7992L51.3987 99.424C52.5145 98.5117 52.7988 98.038 52.7988 97.4822C52.7988 96.5863 52.051 96 50.8779 96C49.7383 96 48.9976 96.6215 49 97.6323H50.2615C50.2591 97.2289 50.51 97.0038 50.8779 97.0038C51.2434 97.0038 51.5039 97.2265 51.5039 97.5947C51.5039 97.9348 51.2817 98.1553 50.9209 98.4484L49.0956 99.9306V100.869Z" fill="url(#paint7_linear)"/>
<path d="M55.5762 101C56.907 101.002 57.7336 100.067 57.736 98.4765C57.7384 96.8959 56.907 96 55.5762 96C54.243 96 53.4212 96.8912 53.4164 98.4765C53.4116 100.06 54.243 100.998 55.5762 101ZM55.5762 99.94C55.1175 99.94 54.7878 99.4873 54.7925 98.4765C54.7973 97.4892 55.1175 97.0507 55.5762 97.0507C56.0349 97.0507 56.3574 97.4892 56.3598 98.4765C56.3622 99.4873 56.0349 99.94 55.5762 99.94Z" fill="url(#paint8_linear)"/>
<path d="M58.3596 100.869H62.1153V99.8274H60.204V99.7992L60.6627 99.424C61.7785 98.5117 62.0628 98.038 62.0628 97.4822C62.0628 96.5863 61.315 96 60.1419 96C59.0023 96 58.2616 96.6215 58.264 97.6323H59.5255C59.5231 97.2289 59.774 97.0038 60.1419 97.0038C60.5074 97.0038 60.7679 97.2265 60.7679 97.5947C60.7679 97.9348 60.5457 98.1553 60.1849 98.4484L58.3596 99.9306V100.869Z" fill="url(#paint9_linear)"/>
<path d="M64.8402 101C66.171 101.002 66.9976 100.067 67 98.4765C67.0024 96.8959 66.171 96 64.8402 96C63.507 96 62.6852 96.8912 62.6804 98.4765C62.6756 100.06 63.507 100.998 64.8402 101ZM64.8402 99.94C64.3815 99.94 64.0518 99.4873 64.0565 98.4765C64.0613 97.4892 64.3815 97.0507 64.8402 97.0507C65.2989 97.0507 65.6214 97.4892 65.6238 98.4765C65.6262 99.4873 65.2989 99.94 64.8402 99.94Z" fill="url(#paint10_linear)"/>
<defs>
<linearGradient id="paint0_linear" x1="44.2599" y1="0" x2="44.2599" y2="25.3749" gradientUnits="userSpaceOnUse">
<stop stop-color="#117DC1"/>
<stop offset="1" stop-color="#1599EC"/>
</linearGradient>
<linearGradient id="paint1_linear" x1="16" y1="69.55" x2="99.9997" y2="69.55" gradientUnits="userSpaceOnUse">
<stop stop-color="#FBC77B"/>
<stop offset="1" stop-color="#B96F26"/>
</linearGradient>
<linearGradient id="paint2_linear" x1="34.417" y1="94.5" x2="93.7043" y2="125.464" gradientUnits="userSpaceOnUse">
<stop stop-color="#DC9E58"/>
<stop offset="0.779184" stop-color="#BC7021"/>
</linearGradient>
<linearGradient id="paint3_linear" x1="111.812" y1="54.2163" x2="17.318" y2="95.7939" gradientUnits="userSpaceOnUse">
<stop stop-color="#FFCA7E"/>
<stop offset="1" stop-color="#D48D3D"/>
</linearGradient>
<linearGradient id="paint4_linear" x1="53.9268" y1="46.5" x2="94.9261" y2="89.0205" gradientUnits="userSpaceOnUse">
<stop stop-color="#A86F2E"/>
<stop offset="1" stop-color="#CC8535"/>
</linearGradient>
<linearGradient id="paint5_linear" x1="18.4091" y1="51" x2="50.4052" y2="92.0155" gradientUnits="userSpaceOnUse">
<stop stop-color="#AB6C25"/>
<stop offset="1" stop-color="#CA7C25"/>
</linearGradient>
<linearGradient id="paint6_linear" x1="47.4235" y1="56" x2="69.9219" y2="82.0111" gradientUnits="userSpaceOnUse">
<stop offset="0.0505161" stop-color="#9D6628"/>
<stop offset="1" stop-color="#D18B3C"/>
</linearGradient>
<linearGradient id="paint7_linear" x1="48.4272" y1="94.524" x2="63.9272" y2="103.024" gradientUnits="userSpaceOnUse">
<stop stop-color="#A26929"/>
<stop offset="1" stop-color="#C37925"/>
</linearGradient>
<linearGradient id="paint8_linear" x1="48.4272" y1="94.524" x2="63.9272" y2="103.024" gradientUnits="userSpaceOnUse">
<stop stop-color="#A26929"/>
<stop offset="1" stop-color="#C37925"/>
</linearGradient>
<linearGradient id="paint9_linear" x1="48.4272" y1="94.524" x2="63.9272" y2="103.024" gradientUnits="userSpaceOnUse">
<stop stop-color="#A26929"/>
<stop offset="1" stop-color="#C37925"/>
</linearGradient>
<linearGradient id="paint10_linear" x1="48.4272" y1="94.524" x2="63.9272" y2="103.024" gradientUnits="userSpaceOnUse">
<stop stop-color="#A26929"/>
<stop offset="1" stop-color="#C37925"/>
</linearGradient>
</defs>
</svg>
