<svg width="116" height="116" viewBox="0 0 116 116" fill="none" xmlns="http://www.w3.org/2000/svg">
<path d="M99.3901 0L93.0499 5.4375H99.3901V0Z" fill="#005A94"/>
<path d="M42.5679 25.3749H72.5181L99.3888 0H70.5088C69.4734 0 68.4784 0.401463 67.7329 1.11997L42.5679 25.3749Z" fill="#106CA6"/>
<path d="M16.0596 0L22.3999 5.4375H16.0596V0Z" fill="#0A649E"/>
<path d="M78.0748 38.9073H35.5645V22.2988C35.5645 21.1942 36.4599 20.2988 37.5645 20.2988H76.0746C77.1791 20.2988 78.0746 21.1942 78.0746 22.2987L78.0748 38.9073ZM40.3952 34.074H73.2438V25.1323H40.3952V34.074Z" fill="#F8B64C"/>
<path d="M72.5191 25.3749H42.5689L16 0H44.9814C45.7579 0 46.5042 0.301094 47.0633 0.83997L72.5191 25.3749Z" fill="url(#paint0_linear)"/>
<path d="M58 112C34.804 112 16 93.196 16 70C16 46.804 34.804 28 58 28C81.196 28 100 46.804 100 70C100 93.196 81.196 112 58 112Z" fill="url(#paint1_linear)"/>
<path d="M36.0503 105.61C42.2306 109.663 49.831 112 58.0503 112C66.2696 112 73.8698 109.608 80.0503 105.556V42.6192C73.8698 38.5666 66.2696 36.1749 58.0503 36.1749C49.831 36.1749 42.2308 38.5666 36.0503 42.6192V105.61Z" fill="url(#paint2_linear)"/>
<path d="M58 33C78.4345 33 95 49.5655 95 70C95 90.4345 78.4345 107 58 107C37.5655 107 21 90.4345 21 70C21 49.5655 37.5655 33 58 33Z" fill="url(#paint3_linear)"/>
<g clip-path="url(#clip0)">
<path d="M89.943 71.2207C89.9026 71.1874 89.8439 71.1768 89.7982 71.1922C89.7423 71.2093 89.6912 71.2242 89.6429 71.2384L89.6193 71.2453C89.5003 71.2801 89.3974 71.3099 89.2956 71.3508C87.6863 71.9902 86.4193 73.0857 85.4222 74.6997C85.1759 75.0985 84.9852 75.513 84.8333 75.9264C85.0824 74.5359 85.1402 73.9941 85.1843 72.4383C85.1864 72.373 85.1864 72.3066 85.1864 72.2406C85.1864 72.0607 85.1864 71.8906 85.2257 71.7355C85.2728 71.5517 85.3676 71.3683 85.4594 71.1909C85.4852 71.1407 85.511 71.0905 85.5324 71.0463C85.5398 71.0377 85.5637 71.0231 85.573 71.0216C86.0332 70.9514 86.4402 70.756 86.8175 70.4244C87.1977 70.0887 87.5103 69.6777 87.7469 69.2025C88.5962 67.4996 89.0211 65.6172 89.0104 63.6085C89.0094 63.4147 88.9866 63.2261 88.9616 63.0209C88.9502 62.929 88.9387 62.835 88.929 62.7376C88.9236 62.6842 88.8907 62.6367 88.843 62.6136C88.796 62.5908 88.7393 62.5924 88.6918 62.6211C88.6631 62.6391 88.6385 62.6537 88.6162 62.6667C88.5731 62.6924 88.5402 62.7124 88.5091 62.7349C87.7846 63.2541 87.1457 63.9006 86.6097 64.6559C85.7351 65.8903 85.2265 67.286 85.0895 68.8215C85.0758 68.6504 85.062 68.4792 85.0482 68.308L85.0434 68.246C84.9897 67.5749 84.9342 66.881 84.8889 66.1986C84.8776 66.0258 84.8444 65.8577 84.8123 65.695C84.7503 65.3824 84.6918 65.0871 84.7855 64.7776C84.8068 64.7077 84.8248 64.6373 84.8427 64.567C84.887 64.3929 85.1009 64.1249 85.4292 63.8318L85.4416 63.8207C85.5627 63.7181 86.1848 63.1489 86.5377 62.0231C86.8959 60.8794 86.8688 59.6843 86.8491 58.8116L86.8486 58.7883C86.8223 57.5887 86.6927 56.6848 86.4283 55.8569C86.3941 55.751 86.3535 55.6466 86.3106 55.5369C86.2883 55.4798 86.2655 55.4207 86.2421 55.359C86.2228 55.3067 86.1766 55.2686 86.1225 55.2597L86.0961 55.2573C86.0492 55.2573 86.0054 55.2783 85.9758 55.3145L85.7189 55.6275C84.4876 57.1293 83.8827 58.8907 83.9205 60.8628C83.9271 61.2101 83.9531 61.5664 83.9991 61.9342C83.6861 60.8542 83.3191 59.8028 82.9017 58.7914C82.893 58.7692 82.8874 58.7418 82.8868 58.7185L82.8839 58.5803C82.8796 58.3807 82.8751 58.1743 82.8836 57.9712C82.8849 57.9375 82.9067 57.877 82.9521 57.8175C83.0166 57.7323 83.0881 57.6491 83.1622 57.5624C83.2885 57.4155 83.4189 57.2637 83.5222 57.0905C83.8549 56.5332 84.0111 55.8749 84.0137 55.0184C84.0182 54.0102 83.8628 52.9492 83.524 51.6792C83.3388 50.9863 83.0594 50.0863 82.539 49.2702C82.5037 49.2154 82.4643 49.1637 82.4222 49.109C82.4033 49.0848 82.3834 49.0589 82.3632 49.0312C82.3337 48.9916 82.2929 48.9685 82.2272 48.9685C82.1747 48.9723 82.1279 49.0022 82.1017 49.0485C81.4485 50.2274 81.1232 51.4868 81.1078 52.8988C81.0946 54.0761 81.2785 55.0891 81.509 55.8898C80.9223 54.818 80.2704 53.7826 79.5638 52.8003L79.5476 52.778C79.5315 52.7567 79.5248 52.7463 79.5259 52.7536C79.4815 52.4359 79.4507 52.1816 79.4293 51.9602C79.4298 51.9569 79.434 51.9383 79.467 51.8831C79.5137 51.8035 79.5649 51.7255 79.6193 51.6431C79.7284 51.4772 79.841 51.3056 79.9132 51.1134C80.131 50.5333 80.1799 49.8755 80.0623 49.1029C79.8042 47.393 79.0504 45.8534 77.7584 44.3957C77.6255 44.246 77.4785 44.1136 77.3231 43.9738L77.2801 43.9348C77.2193 43.8798 77.1569 43.8235 77.0938 43.7639C77.0537 43.7258 76.9963 43.7115 76.9406 43.7278C76.888 43.7445 76.8474 43.7882 76.8349 43.8424L76.8067 43.9662C76.7874 44.0484 76.7725 44.1132 76.7615 44.1783C76.5876 45.2162 76.6002 46.3279 76.8004 47.5772C76.999 48.8162 77.3948 49.8849 78.002 50.8133C77.0914 49.7404 76.2058 48.8395 75.2802 48.0411C75.276 48.0357 75.2699 48.0191 75.2694 48.015C75.3418 47.3917 75.1881 46.8046 74.7992 46.2201C74.2886 45.4518 73.5791 44.8663 72.6904 44.48C72.1586 44.2494 71.6076 44.0452 71.0681 43.8451C70.8097 43.7492 70.5513 43.6536 70.2851 43.5511C70.0177 43.4447 69.9033 43.4258 69.8413 43.4832C69.7614 43.5576 69.7806 43.6212 69.8154 43.7367L69.8267 43.7744C70.1528 44.8729 70.5856 45.7417 71.1501 46.4304C72.1864 47.6959 73.3983 48.3388 74.8533 48.3956C74.9043 48.3987 74.9447 48.4128 74.9613 48.4256C75.1661 48.579 75.3169 48.7017 75.4502 48.8233C75.8718 49.2086 76.2869 49.6191 76.6931 50.0514C76.089 49.6761 75.3506 49.5067 74.519 49.5487C74.0639 49.5716 73.6122 49.6384 73.1754 49.7029L73.1587 49.7054C73.0295 49.7244 72.901 49.7431 72.7729 49.7612C72.4921 49.7993 72.2092 49.849 71.9592 49.8926C71.858 49.9108 71.6163 49.9658 71.5606 50.083C71.5414 50.1231 71.543 50.1671 71.5648 50.207C71.584 50.2419 71.6052 50.2746 71.6283 50.3044C72.3497 51.2404 73.1726 51.8569 74.1441 52.1888C75.3286 52.5956 76.4166 52.5621 77.3941 52.0836C77.5436 52.0013 77.724 51.9596 77.9299 51.9596C78.0854 51.9596 78.202 51.9841 78.2407 51.993C78.2986 52.0026 78.3772 52.035 78.3932 52.0558C79.0012 52.8552 79.5782 53.7089 80.117 54.6058C79.6618 54.1631 79.0681 53.8645 78.2593 53.6701C77.5504 53.5012 76.8256 53.4649 76.1249 53.4296L75.8902 53.4178C75.6705 53.4065 75.4507 53.3926 75.2243 53.3783L74.8448 53.3549C74.7957 53.3549 74.749 53.3786 74.7205 53.4181C74.6889 53.4606 74.6813 53.5158 74.6999 53.5654C74.7152 53.6067 74.7429 53.6797 74.7572 53.7041C75.4963 54.9403 76.3641 55.7953 77.41 56.3182C78.4325 56.829 79.3563 56.9641 80.2882 56.7413C80.396 56.7153 80.521 56.7015 80.6501 56.7015C81.0465 56.7015 81.3229 56.8224 81.381 56.9344C81.8937 57.992 82.3512 59.091 82.7458 60.212C82.3319 59.6414 81.7531 59.178 81.0203 58.8313C80.2924 58.4877 79.5344 58.1736 78.7886 57.8645C78.4681 57.732 78.1463 57.599 77.826 57.463C77.7783 57.4421 77.722 57.4465 77.6776 57.4758C77.634 57.5048 77.608 57.5533 77.608 57.6054C77.608 57.7055 78.6715 60.6573 80.2162 61.8205C80.8463 62.295 81.6224 62.7832 82.6011 62.8061C82.894 62.812 83.1969 62.8534 83.4256 63.1135C83.4606 63.1549 83.507 63.1871 83.5575 63.2043C83.6356 63.2299 83.6571 63.2777 83.6956 63.4407C84.0126 64.7715 84.2434 66.1432 84.3856 67.5361C84.3426 67.3948 84.2927 67.252 84.2354 67.1075C83.8897 66.2308 83.3079 65.4637 82.4044 64.6932C81.9387 64.2944 81.4511 63.9083 80.9794 63.5347L80.957 63.5171C80.7422 63.3469 80.5279 63.1773 80.3142 63.0057C80.2701 62.9702 80.2271 62.9336 80.1772 62.891L80.0439 62.7768C79.9972 62.7373 79.9278 62.7291 79.8732 62.7564C79.8172 62.7848 79.7837 62.8435 79.788 62.9062C79.7946 63.0004 79.7999 63.0894 79.8049 63.1749L79.8074 63.2148C79.818 63.3908 79.828 63.5569 79.8458 63.7208C80.0129 65.3171 80.4876 66.6498 81.2969 67.795C81.7979 68.503 82.5165 69.3682 83.6372 69.7775C83.9099 69.8776 84.1077 70.0291 84.3196 70.3012C84.5195 70.556 84.5567 70.7887 84.5522 71.0816C84.5331 72.3087 84.4457 73.5259 84.2916 74.7179C84.2555 74.3862 84.1791 74.0447 84.0618 73.6898C83.8191 72.9551 83.4409 72.2408 82.9052 71.5061C82.4429 70.8699 81.9618 70.2314 81.4966 69.6137L81.4657 69.5724C81.2812 69.3278 81.0969 69.0829 80.9174 68.8432C80.8837 68.7939 80.8351 68.7763 80.807 68.7665C80.7672 68.7471 80.7197 68.7452 80.6775 68.7631C80.6361 68.7808 80.6044 68.8156 80.5904 68.8583L80.585 68.875C80.5773 68.8974 80.5712 68.9173 80.568 68.9372C80.2471 70.8503 80.444 72.5644 81.1695 74.1778C81.5239 74.9667 81.9992 75.8599 82.8372 76.5026C83.2198 76.796 83.5219 77.2076 83.6877 77.6614C83.7229 77.7591 83.7216 77.8015 83.7176 77.8178C83.3629 79.2869 82.8996 80.7039 82.3364 82.0449C82.4814 81.3381 82.4715 80.5957 82.3059 79.8266C82.0709 78.7364 81.667 77.6799 81.3067 76.7751L81.1987 76.5042C81.0298 76.0802 80.8598 75.6528 80.6841 75.2099C80.6618 75.1533 80.6081 75.1147 80.5364 75.1111C80.4799 75.1111 80.4279 75.1434 80.401 75.1957L80.3444 75.3022C80.3195 75.3489 80.2962 75.3923 80.2763 75.4373C79.5516 77.0725 79.3068 78.7489 79.5492 80.4198C79.7224 81.6145 80.016 82.47 80.5011 83.1938C80.7521 83.5679 80.9907 83.9847 81.034 84.4972C81.0442 84.6185 81.0394 84.7021 80.9854 84.7972C80.3735 85.8686 79.6876 86.8797 78.9364 87.8191C78.9393 87.814 78.942 87.8088 78.9449 87.8037C79.4853 86.816 79.5017 85.7481 79.4465 84.8336C79.3989 84.0497 79.309 83.2668 79.2226 82.51L79.2176 82.4662C79.1828 82.163 79.1481 81.86 79.1165 81.5563C79.0982 81.3842 79.0779 81.2121 79.0569 81.0374L79.0291 80.8009C79.023 80.7486 78.9911 80.7034 78.9452 80.6806C78.8599 80.636 78.7217 80.7048 78.5726 80.8813C77.5473 82.0939 76.9111 83.4641 76.6814 84.9542C76.4432 86.4992 76.5723 87.8214 77.0767 88.9962C77.0901 89.0275 77.0898 89.0914 77.0897 89.1127L77.0626 89.7887C77.0585 89.8373 77.0329 89.8922 77.0117 89.9125C75.9879 90.8985 74.8608 91.7556 73.6513 92.4689C74.2238 91.9514 74.6355 91.2762 74.9022 90.4206C75.1979 89.4722 75.3496 88.4852 75.4967 87.5281L75.5096 87.4429C75.5617 87.1067 75.6161 86.7711 75.6716 86.4281L75.7343 86.0404C75.7433 85.984 75.721 85.9275 75.6772 85.8936C75.6337 85.859 75.5708 85.8506 75.5208 85.8721L75.4661 85.8948C75.4077 85.9187 75.3569 85.94 75.3089 85.9645C73.0223 87.1065 71.5171 89.7701 71.7298 92.2976C71.7632 92.6935 71.727 93.0654 71.6188 93.4337C71.6087 93.4672 71.5763 93.5036 71.5632 93.5097C70.4772 93.9677 69.4446 94.3018 68.4055 94.5312C68.3521 94.5436 68.3098 94.5818 68.2924 94.6333C68.275 94.6851 68.2855 94.7414 68.3212 94.7837C68.4341 94.9175 68.5324 95.0614 68.6133 95.212C68.6465 95.2736 68.7256 95.3052 68.7848 95.2898C69.6313 95.0967 70.4557 94.8466 71.2358 94.546C71.2988 94.5206 71.3469 94.5086 71.392 94.516C71.5656 94.5391 71.7489 94.5747 71.9525 94.6252C71.9945 94.6355 72.0293 94.6549 72.03 94.6531C72.4747 95.5396 73.2389 96.1043 74.3671 96.3791C74.6125 96.4379 74.8657 96.4814 75.1194 96.508C75.3851 96.5361 75.6814 96.5504 75.9998 96.5504C76.4409 96.5504 76.7555 96.5231 76.7594 96.5228C77.7373 96.4134 78.5724 96.1933 79.3121 95.8498C79.6156 95.7092 79.9614 95.5197 80.2273 95.1814C80.2781 95.1166 80.2696 95.0231 80.2078 94.9687C79.4565 94.3057 78.6914 93.824 77.8687 93.4961C76.6496 93.0116 75.5392 92.8804 74.4508 93.0897C74.2882 93.1213 74.1293 93.1611 73.975 93.2068C74.9932 92.5982 75.968 91.8829 76.8887 91.068C76.9063 91.052 76.9353 91.0379 76.958 91.0338C77.1086 91.0088 77.3086 90.978 77.5133 90.9633C77.5323 90.9633 77.5563 90.9724 77.559 90.9734C78.1138 91.5942 78.8284 91.8959 79.7439 91.8959C79.7906 91.8959 79.8374 91.895 79.8841 91.8934C80.8795 91.8613 81.8802 91.5878 82.8589 91.08C83.5702 90.709 84.3116 90.277 84.9128 89.6328C85.0462 89.4895 85.1652 89.3275 85.2703 89.1846L85.2805 89.1706C85.327 89.1076 85.374 89.044 85.4223 88.9813C85.4486 88.9475 85.4597 88.9038 85.4528 88.8599C85.4454 88.8175 85.4209 88.7798 85.379 88.7526C85.3684 88.7468 85.1138 88.6103 84.8814 88.5203C83.325 87.9189 81.7538 87.8573 80.2548 88.3403C79.7641 88.498 79.3023 88.7348 78.8526 89.062C79.6842 88.0953 80.4542 87.0356 81.1533 85.8954C81.1609 85.8834 81.1808 85.8508 81.1872 85.8449C81.2483 85.8059 81.3109 85.769 81.3733 85.7326C81.4851 85.667 81.6009 85.5991 81.7097 85.5183C81.8014 85.4498 81.8272 85.448 81.92 85.5077C82.0512 85.5929 82.2037 85.6371 82.3367 85.6719C83.1147 85.8712 83.899 85.7719 84.7665 85.3646C85.559 84.9931 86.1683 84.4058 86.7089 83.8267C87.4952 82.9819 88.009 82.2198 88.326 81.428C88.3926 81.2618 88.4401 81.09 88.4895 80.9103C88.5099 80.8349 88.5307 80.7595 88.5529 80.6854C88.5771 80.6059 88.5347 80.5216 88.4561 80.4939L88.391 80.4889C88.0703 80.4889 85.2098 80.5359 83.5366 82.1593C83.1726 82.5126 82.8464 82.8879 82.5485 83.2989C83.2104 81.8972 83.7716 80.4199 84.224 78.8865L84.2306 78.8641C84.2361 78.8453 84.2442 78.8169 84.2497 78.8092L84.6873 78.2083C84.7037 78.1842 84.7056 78.1842 84.7313 78.1842C84.7426 78.1842 84.7552 78.185 84.7694 78.1858L84.863 78.1914C85.1886 78.2116 85.3803 78.2088 85.538 78.1841C86.161 78.0857 86.7235 77.7719 87.2572 77.2246C88.5054 75.9445 89.3646 74.3474 89.8837 72.3425C89.9393 72.1277 89.9549 71.9108 89.9716 71.6808C89.9789 71.5765 89.9871 71.469 89.999 71.358C90.004 71.3048 89.9831 71.2539 89.943 71.2207Z" fill="url(#paint4_linear)"/>
<path d="M47.5929 94.5298C46.5549 94.3006 45.5224 93.9664 44.4361 93.5084C44.4231 93.5023 44.3909 93.4659 44.3808 93.4332C44.2725 93.0641 44.2362 92.6922 44.2696 92.2963C44.4823 89.7687 42.9771 87.1053 40.691 85.9634C40.6424 85.9387 40.5917 85.9174 40.5333 85.8935L40.4791 85.871C40.4276 85.8491 40.3649 85.8582 40.3234 85.8916C40.2784 85.9262 40.2561 85.9827 40.2653 86.0393L40.3279 86.4269C40.3834 86.7698 40.4377 87.1054 40.4899 87.4413L40.503 87.5292C40.6498 88.4839 40.8016 89.4711 41.0972 90.4195C41.364 91.2751 41.7756 91.9503 42.3481 92.4676C41.1386 91.7544 40.0115 90.8973 38.9879 89.9116C38.9664 89.8909 38.9409 89.836 38.9372 89.7908L38.9098 89.1143C38.9096 89.0903 38.9093 89.0264 38.9229 88.9948C39.4271 87.8202 39.5563 86.4981 39.318 84.9531C39.0883 83.463 38.4521 82.0928 37.4269 80.8802C37.3069 80.7382 37.201 80.6663 37.1122 80.6663C37.0905 80.6663 37.0709 80.6707 37.0555 80.6787C37.0084 80.7021 36.9764 80.7475 36.9702 80.8L36.9428 81.0359C36.9216 81.2111 36.9012 81.3831 36.8829 81.5554C36.8513 81.8589 36.8167 82.1619 36.7819 82.4651L36.7769 82.5089C36.6903 83.2659 36.6004 84.0487 36.5529 84.8325C36.4978 85.7469 36.5141 86.8148 37.0546 87.8026C37.0575 87.8076 37.06 87.8129 37.0629 87.8178C36.3117 86.8784 35.6259 85.8675 35.0141 84.7962C34.96 84.701 34.9554 84.6174 34.9655 84.4961C35.0089 83.9833 35.2473 83.5665 35.4984 83.1927C35.9833 82.4689 36.2769 81.6134 36.4503 80.4187C36.6927 78.7478 36.4479 77.0716 35.7231 75.4363C35.7032 75.3912 35.68 75.3477 35.6551 75.3011L35.5985 75.1942C35.5714 75.1421 35.5135 75.1078 35.4523 75.1105C35.3914 75.1137 35.3376 75.1524 35.3155 75.2085C35.1397 75.6519 34.9696 76.0791 34.8007 76.5031L34.6928 76.774C34.3325 77.6789 33.9284 78.7354 33.6935 79.8254C33.528 80.5946 33.5179 81.337 33.6631 82.0438C33.0997 80.7029 32.6366 79.286 32.2819 77.8167C32.2779 77.8003 32.2766 77.758 32.3117 77.6603C32.4776 77.2063 32.7796 76.7947 33.1624 76.5013C34.0003 75.8587 34.4756 74.9655 34.8299 74.1766C35.5555 72.5631 35.7523 70.849 35.4315 68.9361C35.4281 68.916 35.422 68.8961 35.4148 68.8745L35.409 68.8572C35.3951 68.8143 35.3633 68.7797 35.3213 68.7616C35.2802 68.7444 35.2286 68.7476 35.1966 68.7633C35.1645 68.775 35.1159 68.7928 35.0843 68.8392C34.9028 69.0817 34.7184 69.3265 34.534 69.5712L34.503 69.6124C34.0378 70.2302 33.5567 70.8686 33.0944 71.5047C32.5588 72.2395 32.1805 72.9539 31.9378 73.6886C31.8207 74.0434 31.7442 74.3849 31.7081 74.7167C31.5539 73.5246 31.4665 72.3075 31.4474 71.0804C31.4429 70.7874 31.4801 70.5547 31.6802 70.2998C31.8919 70.028 32.0897 69.8763 32.3624 69.7762C33.4829 69.3668 34.2017 68.5017 34.7027 67.7938C35.512 66.6486 35.9867 65.316 36.1538 63.7198C36.1716 63.5556 36.1817 63.3894 36.1922 63.2136L36.1947 63.1736C36.1997 63.0881 36.205 62.9991 36.2117 62.9048C36.2159 62.8422 36.1824 62.7835 36.1264 62.7551C36.0722 62.7278 36.0027 62.7359 35.9556 62.7758L35.8226 62.8897C35.7725 62.9324 35.7297 62.9689 35.6853 63.0046C35.4717 63.176 35.2574 63.3458 35.0426 63.516L35.0202 63.5336C34.5487 63.9071 34.061 64.2932 33.5954 64.692C32.6917 65.4626 32.1099 66.2297 31.7642 67.1064C31.7071 67.2509 31.6571 67.3939 31.6141 67.5353C31.7562 66.1423 31.987 64.7704 32.304 63.4394C32.3425 63.2766 32.364 63.2288 32.4431 63.2028C32.4928 63.186 32.5392 63.1536 32.573 63.1135C32.8029 62.8522 33.1056 62.8108 33.3989 62.8048C34.3774 62.7819 35.1535 62.2937 35.7834 61.8192C37.3281 60.6559 38.3916 57.7043 38.3916 57.6042C38.3916 57.552 38.3656 57.5034 38.3215 57.4741C38.2781 57.4453 38.2193 57.4413 38.1751 57.4611C37.8533 57.5976 37.5315 57.7306 37.1983 57.8684C36.4652 58.1723 35.7072 58.4864 34.9793 58.8299C34.2466 59.1766 33.6677 59.6402 33.2538 60.2106C33.6483 59.0898 34.1056 57.9909 34.6177 56.9349C34.6766 56.821 34.9531 56.7 35.3497 56.7C35.4786 56.7 35.6036 56.7138 35.7116 56.7398C36.6433 56.9631 37.5671 56.8277 38.5896 56.3168C39.6357 55.7939 40.5035 54.9388 41.2427 53.7022C41.2568 53.6783 41.2846 53.6053 41.2995 53.5644C41.3183 53.5144 41.3107 53.4592 41.2796 53.4173C41.2507 53.3775 41.2045 53.3538 41.1457 53.3538C41.1452 53.3538 41.1449 53.3538 41.1444 53.3538L40.7751 53.377C40.5487 53.3913 40.329 53.4053 40.1092 53.4165L39.8745 53.4284C39.1738 53.4637 38.4491 53.4999 37.74 53.6688C36.9314 53.8633 36.3377 54.1618 35.8824 54.6045C36.4212 53.7077 36.9983 52.8542 37.6061 52.0549C37.6224 52.0337 37.7009 52.0013 37.7652 51.9906C37.7973 51.983 37.9141 51.9585 38.0694 51.9585C38.2753 51.9585 38.4556 52.0003 38.6085 52.0844C39.5798 52.5594 40.6707 52.5947 41.855 52.1879C42.8265 51.856 43.6493 51.2395 44.3705 50.3038C44.3939 50.2736 44.4151 50.2407 44.4343 50.2061C44.4563 50.1662 44.4578 50.1222 44.4385 50.0821C44.3827 49.965 44.1411 49.91 44.0394 49.8917C43.7898 49.848 43.507 49.7983 43.2266 49.7603C43.0981 49.7423 42.9694 49.7236 42.8404 49.7045L42.8239 49.7019C42.387 49.6374 41.9352 49.5707 41.4801 49.5477C40.6485 49.5052 39.9101 49.675 39.3058 50.0507C39.7122 49.6182 40.1273 49.2078 40.5489 48.8223C40.6822 48.7008 40.833 48.5782 41.0385 48.4244C41.0544 48.4122 41.0948 48.3979 41.1444 48.395C42.6008 48.3381 43.8127 47.6951 44.849 46.4297C45.4135 45.7409 45.8463 44.8721 46.1724 43.7736L46.1837 43.7359C46.2185 43.6204 46.2377 43.5569 46.1577 43.4824C46.0959 43.425 45.9872 43.442 45.7045 43.554C45.4478 43.6526 45.1896 43.7484 44.9244 43.8467C44.3917 44.0442 43.8406 44.2484 43.3089 44.4791C42.4202 44.8654 41.7105 45.4509 41.1999 46.2191C40.811 46.8037 40.6573 47.391 40.7297 48.0114C40.7292 48.0183 40.7231 48.0349 40.7222 48.0368C39.7945 48.8377 38.9077 49.7394 37.9972 50.8126C38.6043 49.8843 39.0001 48.8155 39.1987 47.5764C39.3989 46.3272 39.4116 45.2154 39.2377 44.1775C39.2266 44.1125 39.2117 44.0476 39.1926 43.9662L39.1642 43.841C39.1514 43.7872 39.1109 43.7437 39.0578 43.7271C39.0047 43.7113 38.9452 43.7253 38.9056 43.763C38.8421 43.8228 38.7798 43.8793 38.719 43.9342L38.6762 43.9728C38.5206 44.113 38.3737 44.2454 38.2407 44.395C36.9485 45.8527 36.1949 47.3924 35.9368 49.1021C35.8192 49.8748 35.868 50.5327 36.086 51.1128C36.1582 51.3049 36.2708 51.4766 36.3829 51.6469C36.4342 51.7248 36.4856 51.8029 36.5326 51.8831C36.5672 51.9407 36.5701 51.9556 36.57 51.9529C36.5486 52.1815 36.518 52.4362 36.4766 52.7419C36.4748 52.7458 36.4691 52.7548 36.4506 52.7792L36.4357 52.7999C35.7291 53.7821 35.0771 54.8176 34.4905 55.8893C34.7212 55.0888 34.9048 54.0756 34.8918 52.8984C34.8761 51.4862 34.551 50.2268 33.8974 49.0476C33.8716 49.0017 33.8248 48.9719 33.7591 48.9674C33.7115 48.9674 33.6656 48.9909 33.6356 49.0312C33.6161 49.0585 33.5962 49.0841 33.5772 49.1085C33.535 49.1631 33.4956 49.2147 33.4603 49.2699C32.9399 50.0859 32.6608 50.9857 32.4755 51.6786C32.1369 52.9492 31.9813 54.0102 31.9857 55.0178C31.9883 55.8742 32.1444 56.5326 32.4771 57.0897C32.5806 57.2631 32.7108 57.4149 32.8417 57.5676C32.9112 57.6486 32.9826 57.7318 33.0472 57.8172C33.0925 57.8765 33.1143 57.937 33.1156 57.9707C33.1241 58.1738 33.1196 58.3802 33.1152 58.5798L33.1122 58.7178C33.1117 58.7415 33.1063 58.7688 33.0981 58.7896C32.6803 59.8017 32.3132 60.8535 32 61.9338C32.0461 61.5659 32.0721 61.2098 32.0786 60.8624C32.1165 58.8902 31.5116 57.129 30.2802 55.627L30.0235 55.3144C29.9939 55.2776 29.9499 55.2568 29.9031 55.2568L29.8774 55.259C29.8225 55.2682 29.7763 55.3062 29.7573 55.358C29.7338 55.4204 29.7109 55.4793 29.6886 55.5362C29.6456 55.6463 29.605 55.7505 29.5707 55.8566C29.3065 56.6842 29.1769 57.5883 29.1506 58.7875L29.1501 58.811C29.1303 59.6835 29.1032 60.8787 29.4616 62.0225C29.8144 63.1484 30.4365 63.7174 30.5571 63.8196L30.5699 63.8312C30.8983 64.1243 31.1121 64.3923 31.1564 64.5664C31.1742 64.6366 31.1923 64.707 31.2135 64.7767C31.3072 65.0864 31.2486 65.3816 31.1854 65.7003C31.154 65.8612 31.1213 66.0274 31.1099 66.198C31.0646 66.8804 31.0091 67.5743 30.9554 68.2453L30.9506 68.3074C30.9368 68.4786 30.923 68.6497 30.9094 68.8209C30.7724 67.2854 30.2638 65.8896 29.3889 64.6552C28.8531 63.9 28.2144 63.2538 27.4899 62.7343C27.4587 62.7118 27.4258 62.6917 27.3818 62.6656C27.3605 62.6532 27.3358 62.6385 27.3058 62.6197C27.2605 62.5926 27.2025 62.5902 27.1558 62.613C27.108 62.6362 27.0751 62.6836 27.0696 62.7371C27.0599 62.8342 27.0485 62.9282 27.0364 63.0257C27.0122 63.2254 26.9893 63.4141 26.9883 63.6079C26.9776 65.6166 27.4025 67.4989 28.2517 69.2019C28.4884 69.677 28.801 70.088 29.1814 70.4239C29.5585 70.7552 29.9655 70.9506 30.4247 71.0209C30.4348 71.0226 30.4589 71.0372 30.4626 71.0401C30.4875 71.09 30.5133 71.14 30.5391 71.1903C30.6309 71.3675 30.7257 71.5509 30.7728 71.7347C30.8121 71.8901 30.8121 72.06 30.8121 72.24C30.8121 72.3059 30.8121 72.3724 30.8142 72.4375C30.8583 73.9935 30.9163 74.5354 31.1652 75.9257C31.0133 75.5123 30.8226 75.0978 30.5763 74.699C29.5792 73.0851 28.3124 71.9896 26.7036 71.3503C26.6012 71.3091 26.4986 71.2794 26.3795 71.2448L26.3558 71.2377C26.3075 71.2236 26.2563 71.2085 26.2016 71.1919C26.1522 71.1757 26.0959 71.1867 26.0557 71.2201C26.0156 71.2533 25.9945 71.3041 25.9998 71.3571C26.0117 71.4675 26.0199 71.5748 26.0274 71.6795C26.0439 71.9092 26.0595 72.1261 26.1152 72.3408C26.6343 74.3458 27.4935 75.9427 28.7417 77.223C29.2754 77.7703 29.8378 78.0841 30.461 78.1825C30.6182 78.207 30.8104 78.21 31.1357 78.1898L31.2294 78.1842C31.2437 78.1834 31.2562 78.1826 31.2676 78.1826C31.2932 78.1826 31.2953 78.1826 31.3131 78.2089L31.749 78.8074C31.7546 78.8153 31.7628 78.8437 31.7684 78.8633L31.7748 78.8848C32.2272 80.4183 32.7885 81.8954 33.4503 83.2973C33.1525 82.8862 32.826 82.5108 32.4622 82.1577C30.789 80.5343 27.9285 80.4873 27.6078 80.4873L27.5679 80.4876L27.5427 80.4923C27.4641 80.5202 27.4216 80.6043 27.4458 80.6833C27.4681 80.7579 27.489 80.8333 27.5129 80.9219C27.5586 81.0882 27.6061 81.26 27.6726 81.4262C27.9896 82.2184 28.5034 82.9803 29.29 83.8251C29.8304 84.4042 30.4397 84.9915 31.232 85.3628C32.0996 85.7703 32.8831 85.8697 33.6623 85.6702C33.7948 85.6354 33.9472 85.5913 34.0782 85.5062C34.1716 85.4464 34.1971 85.4483 34.2888 85.5167C34.3976 85.5975 34.5133 85.6654 34.6256 85.7311C34.6876 85.7676 34.7502 85.8043 34.8086 85.8412C34.8179 85.8491 34.8378 85.8816 34.8452 85.8936C35.5443 87.0339 36.3144 88.0936 37.146 89.0603C36.6962 88.733 36.2344 88.4962 35.7438 88.3385C34.2447 87.8555 32.6735 87.917 31.1173 88.5187C30.885 88.6087 30.6304 88.745 30.6134 88.7547C30.5778 88.7781 30.5532 88.8159 30.5455 88.8594C30.5388 88.9021 30.5499 88.9457 30.5759 88.9791C30.6245 89.0423 30.6715 89.1058 30.718 89.1689L30.7282 89.1827C30.8333 89.3257 30.9523 89.4876 31.0858 89.631C31.6869 90.2754 32.4282 90.7074 33.1398 91.0783C34.1183 91.586 35.119 91.8595 36.1142 91.8916C36.1611 91.8932 36.2079 91.8942 36.2546 91.8942C37.1701 91.8942 37.8847 91.5924 38.4356 90.9753C38.4423 90.9705 38.4662 90.9613 38.4794 90.9612C38.6898 90.9763 38.8899 91.0069 39.0394 91.0318C39.063 91.0359 39.092 91.0501 39.1101 91.0664C40.0304 91.8812 41.0051 92.5963 42.0233 93.2049C41.869 93.1592 41.71 93.1194 41.5473 93.0875C40.4592 92.8783 39.3488 93.0095 38.1295 93.494C37.3069 93.8219 36.5419 94.3036 35.7907 94.9666C35.7287 95.021 35.7201 95.1145 35.7711 95.1793C36.0369 95.5176 36.3827 95.7071 36.6861 95.8476C37.4259 96.1914 38.2611 96.4115 39.2401 96.5209C39.243 96.521 39.5575 96.5483 39.9987 96.5483C40.3171 96.5483 40.6134 96.534 40.8789 96.506C41.1327 96.4793 41.3858 96.4359 41.6314 96.3768C42.7594 96.1022 43.5238 95.5375 43.9618 94.6609C43.9696 94.6533 44.0033 94.6337 44.046 94.6233C44.2495 94.5728 44.4327 94.5372 44.6069 94.5139C44.648 94.5073 44.6992 94.5184 44.7637 94.5444C45.5427 94.8445 46.367 95.0946 47.2123 95.2874C47.2241 95.2903 47.2365 95.2918 47.2488 95.2918C47.3056 95.2918 47.3579 95.2605 47.3855 95.2095C47.4662 95.0593 47.5645 94.9153 47.6776 94.7813C47.7131 94.7391 47.7237 94.683 47.7062 94.631C47.6895 94.5806 47.6472 94.5425 47.5929 94.5298Z" fill="url(#paint5_linear)"/>
</g>
<path d="M64.1573 82.1664V55.8003H57.8993C57.8489 56.8883 57.5893 57.8021 57.1159 58.5464C56.6449 59.2908 56.0417 59.8873 55.3063 60.3263C54.5661 60.7701 53.7418 61.0826 52.8238 61.2735C51.9081 61.462 50.9685 61.5455 50 61.5216V66.9757H56.2219V82.1664H64.1573Z" fill="url(#paint6_linear)"/>
<path d="M49.0956 101.869H52.8513V100.827H50.94V100.799L51.3987 100.424C52.5145 99.5117 52.7988 99.038 52.7988 98.4822C52.7988 97.5863 52.051 97 50.8779 97C49.7383 97 48.9976 97.6215 49 98.6323H50.2615C50.2591 98.2289 50.51 98.0038 50.8779 98.0038C51.2434 98.0038 51.5039 98.2265 51.5039 98.5947C51.5039 98.9348 51.2817 99.1553 50.9209 99.4484L49.0956 100.931V101.869Z" fill="url(#paint7_linear)"/>
<path d="M55.5762 102C56.907 102.002 57.7336 101.067 57.736 99.4765C57.7384 97.8959 56.907 97 55.5762 97C54.243 97 53.4212 97.8912 53.4164 99.4765C53.4116 101.06 54.243 101.998 55.5762 102ZM55.5762 100.94C55.1175 100.94 54.7878 100.487 54.7925 99.4765C54.7973 98.4892 55.1175 98.0507 55.5762 98.0507C56.0349 98.0507 56.3574 98.4892 56.3598 99.4765C56.3622 100.487 56.0349 100.94 55.5762 100.94Z" fill="url(#paint8_linear)"/>
<path d="M58.3596 101.869H62.1153V100.827H60.204V100.799L60.6627 100.424C61.7785 99.5117 62.0628 99.038 62.0628 98.4822C62.0628 97.5863 61.315 97 60.1419 97C59.0023 97 58.2616 97.6215 58.264 98.6323H59.5255C59.5231 98.2289 59.774 98.0038 60.1419 98.0038C60.5074 98.0038 60.7679 98.2265 60.7679 98.5947C60.7679 98.9348 60.5457 99.1553 60.1849 99.4484L58.3596 100.931V101.869Z" fill="url(#paint9_linear)"/>
<path d="M64.8402 102C66.171 102.002 66.9976 101.067 67 99.4765C67.0024 97.8959 66.171 97 64.8402 97C63.507 97 62.6852 97.8912 62.6804 99.4765C62.6756 101.06 63.507 101.998 64.8402 102ZM64.8402 100.94C64.3815 100.94 64.0518 100.487 64.0565 99.4765C64.0613 98.4892 64.3815 98.0507 64.8402 98.0507C65.2989 98.0507 65.6214 98.4892 65.6238 99.4765C65.6262 100.487 65.2989 100.94 64.8402 100.94Z" fill="url(#paint10_linear)"/>
<defs>
<linearGradient id="paint0_linear" x1="44.2595" y1="0" x2="44.2595" y2="25.3749" gradientUnits="userSpaceOnUse">
<stop stop-color="#117DC1"/>
<stop offset="1" stop-color="#1599EC"/>
</linearGradient>
<linearGradient id="paint1_linear" x1="16" y1="70" x2="99.9997" y2="70" gradientUnits="userSpaceOnUse">
<stop stop-color="#FFDA45"/>
<stop offset="1" stop-color="#FFA425"/>
</linearGradient>
<linearGradient id="paint2_linear" x1="56.8964" y1="85.7252" x2="56.7308" y2="128.766" gradientUnits="userSpaceOnUse">
<stop stop-color="#FFDA45"/>
<stop offset="0.779184" stop-color="#DF7A35"/>
</linearGradient>
<linearGradient id="paint3_linear" x1="95" y1="70" x2="21.0002" y2="70" gradientUnits="userSpaceOnUse">
<stop stop-color="#FFDA45"/>
<stop offset="1" stop-color="#FFA425"/>
</linearGradient>
<linearGradient id="paint4_linear" x1="61.9256" y1="46.365" x2="93.3735" y2="88.6231" gradientUnits="userSpaceOnUse">
<stop stop-color="#D68E21"/>
<stop offset="1" stop-color="#D89023"/>
</linearGradient>
<linearGradient id="paint5_linear" x1="21.6328" y1="53.2442" x2="56.5203" y2="98.942" gradientUnits="userSpaceOnUse">
<stop stop-color="#B4761A"/>
<stop offset="1" stop-color="#EE9815"/>
</linearGradient>
<linearGradient id="paint6_linear" x1="47.5166" y1="55.4366" x2="68.9527" y2="84.4171" gradientUnits="userSpaceOnUse">
<stop stop-color="#AE7115"/>
<stop offset="1" stop-color="#F5990E"/>
</linearGradient>
<linearGradient id="paint7_linear" x1="46.3688" y1="96.5841" x2="72.8569" y2="104.001" gradientUnits="userSpaceOnUse">
<stop stop-color="#AD6D0D"/>
<stop offset="1" stop-color="#D89023"/>
</linearGradient>
<linearGradient id="paint8_linear" x1="46.3688" y1="96.5841" x2="72.8569" y2="104.001" gradientUnits="userSpaceOnUse">
<stop stop-color="#AD6D0D"/>
<stop offset="1" stop-color="#D89023"/>
</linearGradient>
<linearGradient id="paint9_linear" x1="46.3688" y1="96.5841" x2="72.8569" y2="104.001" gradientUnits="userSpaceOnUse">
<stop stop-color="#AD6D0D"/>
<stop offset="1" stop-color="#D89023"/>
</linearGradient>
<linearGradient id="paint10_linear" x1="46.3688" y1="96.5841" x2="72.8569" y2="104.001" gradientUnits="userSpaceOnUse">
<stop stop-color="#AD6D0D"/>
<stop offset="1" stop-color="#D89023"/>
</linearGradient>
<clipPath id="clip0">
<rect width="64" height="64" fill="white" transform="translate(26 38)"/>
</clipPath>
</defs>
</svg>
