<svg width="116" height="116" viewBox="0 0 116 116" fill="none" xmlns="http://www.w3.org/2000/svg">
<path d="M100.393 0L94.0525 5.4375H100.393V0Z" fill="#005A94"/>
<path d="M43.5698 25.3749H73.5214L100.393 0H71.5119C70.4766 0 69.4816 0.401438 68.7361 1.11991L43.5698 25.3749Z" fill="#106CA6"/>
<path d="M17.0596 0L23.4002 5.4375H17.0596V0Z" fill="#0A649E"/>
<path d="M79.0772 38.9073H36.5649V22.2988C36.5649 21.1942 37.4604 20.2988 38.5649 20.2988H77.077C78.1816 20.2988 79.077 21.1942 79.077 22.2987L79.0772 38.9073ZM41.3959 34.074H74.2461V25.1323H41.3959V34.074Z" fill="#A9A9A9"/>
<path d="M73.5217 25.3749H43.5701L17 0H45.9828C46.7593 0 47.5056 0.301075 48.0647 0.839922L73.5217 25.3749Z" fill="url(#paint0_linear)"/>
<path d="M58 112C34.804 112 16 93.196 16 70C16 46.804 34.804 28 58 28C81.196 28 100 46.804 100 70C100 93.196 81.196 112 58 112Z" fill="url(#paint1_linear)"/>
<path d="M35.7754 105.225C42.0105 109.266 49.6783 111.65 57.9705 111.65C66.2626 111.65 73.9302 109.266 80.1655 105.225V42.4793C73.9302 38.4389 66.2626 36.0545 57.9705 36.0545C49.6783 36.0545 42.0107 38.4389 35.7754 42.4793V105.225Z" fill="url(#paint2_linear)"/>
<path d="M58 33C78.4345 33 95 49.5655 95 70C95 90.4345 78.4345 107 58 107C37.5655 107 21 90.4345 21 70C21 49.5655 37.5655 33 58 33Z" fill="url(#paint3_linear)"/>
<path d="M49.0946 101.421H52.8504V100.379H50.939V100.351L51.3978 99.9753C52.5135 99.0625 52.7978 98.5886 52.7978 98.0325C52.7978 97.1362 52.05 96.5496 50.8769 96.5496C49.7373 96.5496 48.9966 97.1714 48.999 98.1826H50.2605C50.2581 97.7791 50.509 97.5538 50.8769 97.5538C51.2425 97.5538 51.5029 97.7767 51.5029 98.1451C51.5029 98.4853 51.2807 98.7059 50.9199 98.9992L49.0946 100.482V101.421Z" fill="url(#paint4_linear)"/>
<path d="M55.5752 101.552C56.906 101.554 57.7326 100.618 57.735 99.0273C57.7374 97.4459 56.906 96.5496 55.5752 96.5496C54.2421 96.5496 53.4202 97.4412 53.4154 99.0273C53.4106 100.611 54.2421 101.55 55.5752 101.552ZM55.5752 100.491C55.1165 100.491 54.7868 100.039 54.7916 99.0273C54.7963 98.0395 55.1165 97.6007 55.5752 97.6007C56.0339 97.6007 56.3565 98.0395 56.3589 99.0273C56.3612 100.039 56.0339 100.491 55.5752 100.491Z" fill="url(#paint5_linear)"/>
<path d="M58.3586 101.421H62.1144V100.379H60.203V100.351L60.6618 99.9753C61.7775 99.0625 62.0618 98.5886 62.0618 98.0325C62.0618 97.1362 61.314 96.5496 60.1409 96.5496C59.0013 96.5496 58.2606 97.1714 58.263 98.1826H59.5245C59.5221 97.7791 59.773 97.5538 60.1409 97.5538C60.5065 97.5538 60.7669 97.7767 60.7669 98.1451C60.7669 98.4853 60.5447 98.7059 60.1839 98.9992L58.3586 100.482V101.421Z" fill="url(#paint6_linear)"/>
<path d="M64.8392 101.552C66.17 101.554 66.9966 100.618 66.999 99.0273C67.0014 97.4459 66.17 96.5496 64.8392 96.5496C63.5061 96.5496 62.6842 97.4412 62.6794 99.0273C62.6746 100.611 63.5061 101.55 64.8392 101.552ZM64.8392 100.491C64.3805 100.491 64.0508 100.039 64.0556 99.0273C64.0603 98.0395 64.3805 97.6007 64.8392 97.6007C65.2979 97.6007 65.6205 98.0395 65.6229 99.0273C65.6252 100.039 65.2979 100.491 64.8392 100.491Z" fill="url(#paint7_linear)"/>
<path d="M89.945 70.7703C89.9045 70.737 89.8458 70.7264 89.8001 70.7418C89.7443 70.7589 89.6931 70.7739 89.6448 70.788L89.6213 70.7949C89.5022 70.8297 89.3994 70.8595 89.2975 70.9004C87.6882 71.5399 86.4213 72.6353 85.4241 74.2493C85.1779 74.6481 84.9871 75.0626 84.8352 75.476C85.0844 74.0855 85.1421 73.5438 85.1862 71.9879C85.1883 71.9226 85.1883 71.8562 85.1883 71.7903C85.1883 71.6103 85.1883 71.4402 85.2276 71.2851C85.2748 71.1013 85.3696 70.9179 85.4613 70.7405C85.4872 70.6903 85.513 70.6401 85.5343 70.596C85.5417 70.5873 85.5656 70.5727 85.5749 70.5713C86.0351 70.501 86.4421 70.3056 86.8194 69.974C87.1996 69.6383 87.5123 69.2273 87.7489 68.7521C88.5981 67.0492 89.0231 65.1669 89.0123 63.1581C89.0113 62.9643 88.9886 62.7757 88.9635 62.5705C88.9522 62.4786 88.9406 62.3846 88.931 62.2872C88.9255 62.2338 88.8926 62.1863 88.845 62.1632C88.798 62.1404 88.7412 62.1421 88.6937 62.1708C88.665 62.1887 88.6405 62.2033 88.6182 62.2163C88.575 62.242 88.5421 62.262 88.511 62.2845C87.7866 62.8038 87.1476 63.4502 86.6117 64.2055C85.7371 65.4399 85.2284 66.8357 85.0914 68.3712C85.0778 68.2 85.064 68.0288 85.0502 67.8577L85.0454 67.7956C84.9916 67.1246 84.9361 66.4306 84.8909 65.7482C84.8795 65.5754 84.8463 65.4073 84.8142 65.2447C84.7523 64.932 84.6937 64.6367 84.7874 64.3272C84.8088 64.2573 84.8267 64.1869 84.8447 64.1166C84.889 63.9426 85.1028 63.6745 85.4312 63.3814L85.4435 63.3704C85.5646 63.2677 86.1867 62.6985 86.5397 61.5727C86.8979 60.429 86.8708 59.2339 86.851 58.3612L86.8505 58.338C86.8242 57.1384 86.6946 56.2344 86.4303 55.4065C86.3961 55.3006 86.3555 55.1962 86.3125 55.0865C86.2902 55.0294 86.2674 54.9703 86.244 54.9086C86.2248 54.8563 86.1786 54.8183 86.1245 54.8093L86.098 54.8069C86.0512 54.8069 86.0074 54.8279 85.9777 54.8641L85.7209 55.1771C84.4895 56.6789 83.8846 58.4403 83.9225 60.4124C83.929 60.7597 83.955 61.116 84.0011 61.4839C83.6881 60.4038 83.3211 59.3524 82.9037 58.341C82.895 58.3189 82.8894 58.2914 82.8887 58.2682L82.8859 58.1299C82.8815 57.9303 82.877 57.7239 82.8855 57.5208C82.8868 57.4871 82.9086 57.4266 82.954 57.3671C83.0185 57.2819 83.0901 57.1987 83.1642 57.1121C83.2904 56.9651 83.4208 56.8134 83.5242 56.6401C83.8569 56.0828 84.0131 55.4245 84.0157 54.568C84.0202 53.5598 83.8647 52.4988 83.5259 51.2288C83.3408 50.536 83.0614 49.6359 82.541 48.8198C82.5057 48.765 82.4662 48.7133 82.4242 48.6586C82.4052 48.6344 82.3854 48.6086 82.3651 48.5808C82.3356 48.5412 82.2949 48.5181 82.2291 48.5181C82.1767 48.5219 82.1298 48.5518 82.1037 48.5981C81.4505 49.777 81.1251 51.0365 81.1097 52.4484C81.0966 53.6257 81.2804 54.6388 81.5109 55.4394C80.9243 54.3677 80.2724 53.3322 79.5657 52.3499L79.5495 52.3277C79.5335 52.3063 79.5267 52.2959 79.5279 52.3033C79.4834 51.9855 79.4526 51.7312 79.4313 51.5099C79.4318 51.5065 79.4359 51.4879 79.469 51.4327C79.5157 51.3531 79.5668 51.2752 79.6212 51.1927C79.7303 51.0268 79.8429 50.8552 79.9151 50.663C80.133 50.083 80.1819 49.4251 80.0643 48.6525C79.8062 46.9427 79.0524 45.403 77.7604 43.9453C77.6274 43.7956 77.4805 43.6633 77.325 43.5234L77.282 43.4844C77.2212 43.4294 77.1588 43.3731 77.0958 43.3136C77.0557 43.2754 76.9983 43.2611 76.9426 43.2775C76.89 43.2942 76.8494 43.3378 76.8369 43.392L76.8086 43.5158C76.7894 43.598 76.7745 43.6628 76.7634 43.7279C76.5895 44.7658 76.6022 45.8775 76.8024 47.1268C77.001 48.3659 77.3967 49.4346 78.0039 50.3629C77.0934 49.29 76.2077 48.3891 75.2821 47.5907C75.278 47.5853 75.2719 47.5688 75.2714 47.5646C75.3437 46.9414 75.19 46.3542 74.8012 45.7697C74.2906 45.0015 73.5811 44.4159 72.6924 44.0297C72.1606 43.799 71.6096 43.5948 71.0701 43.3947C70.8116 43.2988 70.5532 43.2032 70.2871 43.1007C70.0197 42.9943 69.9053 42.9754 69.8432 43.0328C69.7633 43.1073 69.7826 43.1708 69.8174 43.2863L69.8286 43.324C70.1547 44.4225 70.5875 45.2913 71.152 45.98C72.1883 47.2455 73.4003 47.8885 74.8553 47.9453C74.9063 47.9483 74.9467 47.9624 74.9632 47.9752C75.1681 48.1286 75.3189 48.2513 75.4522 48.3729C75.8737 48.7582 76.2889 49.1687 76.6951 49.6011C76.0909 49.2257 75.3525 49.0563 74.521 49.0983C74.0659 49.1213 73.6141 49.188 73.1773 49.2525L73.1606 49.255C73.0315 49.274 72.903 49.2927 72.7748 49.3109C72.4941 49.3489 72.2111 49.3986 71.9612 49.4423C71.86 49.4604 71.6182 49.5154 71.5626 49.6327C71.5433 49.6728 71.5449 49.7167 71.5667 49.7567C71.586 49.7915 71.6072 49.8242 71.6303 49.854C72.3516 50.7901 73.1746 51.4065 74.1461 51.7384C75.3306 52.1453 76.4185 52.1117 77.3961 51.6332C77.5456 51.5509 77.7259 51.5092 77.9319 51.5092C78.0873 51.5092 78.204 51.5338 78.2426 51.5426C78.3005 51.5522 78.3791 51.5846 78.3952 51.6055C79.0031 52.4048 79.5802 53.2585 80.119 54.1554C79.6637 53.7127 79.07 53.4141 78.2612 53.2197C77.5523 53.0508 76.8276 53.0146 76.1269 52.9793L75.8922 52.9674C75.6724 52.9562 75.4526 52.9422 75.2263 52.9279L74.8468 52.9045C74.7977 52.9045 74.751 52.9282 74.7224 52.9677C74.6908 53.0102 74.6833 53.0654 74.7019 53.115C74.7171 53.1564 74.7449 53.2293 74.7592 53.2537C75.4982 54.4899 76.3661 55.3449 77.412 55.8679C78.4345 56.3786 79.3583 56.5137 80.2902 56.2909C80.398 56.2649 80.5229 56.2511 80.6521 56.2511C81.0484 56.2511 81.3248 56.3721 81.3829 56.484C81.8956 57.5416 82.3531 58.6407 82.7477 59.7616C82.3339 59.191 81.7551 58.7276 81.0223 58.3809C80.2943 58.0373 79.5364 57.7232 78.7906 57.4141C78.4701 57.2816 78.1483 57.1486 77.8279 57.0126C77.7803 56.9917 77.724 56.9961 77.6795 57.0254C77.6359 57.0545 77.6099 57.1029 77.6099 57.155C77.6099 57.2551 78.6735 60.207 80.2181 61.3701C80.8483 61.8446 81.6243 62.3328 82.603 62.3557C82.896 62.3617 83.1988 62.4031 83.4276 62.6631C83.4626 62.7045 83.5089 62.7367 83.5594 62.7539C83.6376 62.7795 83.6591 62.8273 83.6976 62.9903C84.0145 64.3211 84.2454 65.6929 84.3875 67.0857C84.3445 66.9444 84.2946 66.8017 84.2374 66.6571C83.8917 65.7804 83.3098 65.0133 82.4064 64.2429C81.9407 63.8441 81.453 63.4579 80.9814 63.0843L80.9589 63.0667C80.7441 62.8965 80.5298 62.7269 80.3162 62.5553C80.272 62.5198 80.229 62.4833 80.1792 62.4406L80.0458 62.3264C79.9992 62.2869 79.9297 62.2787 79.8752 62.306C79.8192 62.3344 79.7857 62.3931 79.79 62.4558C79.7966 62.55 79.8019 62.639 79.8068 62.7245L79.8094 62.7645C79.82 62.9404 79.8299 63.1065 79.8477 63.2704C80.0149 64.8667 80.4896 66.1994 81.2989 67.3447C81.7998 68.0526 82.5185 68.9179 83.6392 69.3271C83.9119 69.4272 84.1097 69.5788 84.3216 69.8508C84.5215 70.1056 84.5587 70.3383 84.5542 70.6313C84.5351 71.8583 84.4477 73.0755 84.2935 74.2676C84.2574 73.9358 84.1811 73.5943 84.0638 73.2395C83.8211 72.5048 83.4428 71.7904 82.9072 71.0557C82.4449 70.4195 81.9638 69.7811 81.4986 69.1633L81.4676 69.1221C81.2831 68.8774 81.0988 68.6325 80.9193 68.3928C80.8856 68.3436 80.837 68.3259 80.8089 68.3161C80.7692 68.2967 80.7217 68.2948 80.6795 68.3128C80.6381 68.3304 80.6063 68.3652 80.5924 68.4079L80.5869 68.4246C80.5792 68.447 80.5731 68.4669 80.5699 68.4868C80.2491 70.3999 80.4459 72.114 81.1715 73.7274C81.5258 74.5164 82.0012 75.4096 82.8392 76.0522C83.2218 76.3456 83.5238 76.7572 83.6897 77.211C83.7248 77.3087 83.7236 77.3511 83.7195 77.3674C83.3649 78.8365 82.9016 80.2535 82.3384 81.5946C82.4834 80.8878 82.4734 80.1454 82.3079 79.3762C82.0729 78.286 81.6689 77.2295 81.3086 76.3247L81.2007 76.0538C81.0318 75.6298 80.8617 75.2025 80.6861 74.7596C80.6638 74.7029 80.61 74.6643 80.5383 74.6607C80.4819 74.6607 80.4299 74.693 80.4029 74.7453L80.3463 74.8518C80.3214 74.8985 80.2982 74.942 80.2783 74.9869C79.5535 76.6222 79.3087 78.2985 79.5511 79.9694C79.7244 81.1642 80.0179 82.0197 80.503 82.7435C80.7541 83.1175 80.9926 83.5343 81.0359 84.0468C81.0462 84.1681 81.0414 84.2517 80.9873 84.3468C80.3755 85.4182 79.6896 86.4293 78.9383 87.3687C78.9412 87.3636 78.9439 87.3585 78.9468 87.3533C79.4873 86.3657 79.5036 85.2978 79.4485 84.3832C79.4008 83.5993 79.311 82.8164 79.2245 82.0596L79.2195 82.0158C79.1847 81.7126 79.1501 81.4096 79.1185 81.1059C79.1002 80.9338 79.0798 80.7617 79.0588 80.587L79.0311 80.3505C79.025 80.2982 78.993 80.253 78.9472 80.2302C78.8618 80.1856 78.7237 80.2544 78.5745 80.4309C77.5493 81.6435 76.9131 83.0138 76.6834 84.5039C76.4451 86.0488 76.5743 87.371 77.0786 88.5459C77.0921 88.5771 77.0918 88.641 77.0916 88.6623L77.0645 89.3383C77.0605 89.3869 77.0348 89.4418 77.0137 89.4622C75.9899 90.4481 74.8628 91.3052 73.6533 92.0185C74.2258 91.501 74.6374 90.8259 74.9042 89.9702C75.1998 89.0218 75.3516 88.0348 75.4987 87.0777L75.5115 86.9926C75.5637 86.6563 75.618 86.3207 75.6735 85.9778L75.7363 85.59C75.7452 85.5336 75.723 85.4771 75.6792 85.4433C75.6357 85.4086 75.5728 85.4003 75.5227 85.4218L75.468 85.4444C75.4097 85.4683 75.3588 85.4896 75.3108 85.5142C73.0243 86.6562 71.5191 89.3197 71.7318 91.8472C71.7652 92.2431 71.7289 92.615 71.6208 92.9833C71.6107 93.0168 71.5783 93.0532 71.5651 93.0593C70.4791 93.5173 69.4465 93.8515 68.4075 94.0808C68.3541 94.0932 68.3117 94.1314 68.2944 94.1829C68.2769 94.2347 68.2875 94.291 68.3231 94.3333C68.436 94.4671 68.5344 94.611 68.6152 94.7617C68.6484 94.8233 68.7275 94.8549 68.7867 94.8395C69.6332 94.6463 70.4576 94.3962 71.2377 94.0956C71.3008 94.0703 71.3489 94.0582 71.394 94.0656C71.5675 94.0887 71.7509 94.1243 71.9545 94.1749C71.9965 94.1851 72.0313 94.2045 72.0319 94.2028C72.4766 95.0892 73.2408 95.6539 74.369 95.9287C74.6145 95.9876 74.8676 96.031 75.1214 96.0577C75.387 96.0857 75.6833 96.1 76.0018 96.1C76.4429 96.1 76.7575 96.0727 76.7613 96.0724C77.7392 95.963 78.5743 95.7429 79.314 95.3995C79.6175 95.2588 79.9634 95.0693 80.2292 94.731C80.2801 94.6662 80.2716 94.5727 80.2098 94.5183C79.4584 93.8553 78.6934 93.3736 77.8706 93.0457C76.6516 92.5612 75.5412 92.43 74.4528 92.6394C74.2901 92.671 74.1313 92.7107 73.977 92.7565C74.9951 92.1478 75.97 91.4325 76.8906 90.6176C76.9083 90.6016 76.9373 90.5875 76.9599 90.5835C77.1106 90.5584 77.3106 90.5276 77.5153 90.5129C77.5342 90.5129 77.5583 90.522 77.561 90.523C78.1157 91.1438 78.8304 91.4455 79.7459 91.4455C79.7926 91.4455 79.8394 91.4446 79.8861 91.443C80.8815 91.4109 81.8821 91.1374 82.8608 90.6297C83.5721 90.2586 84.3136 89.8266 84.9148 89.1824C85.0481 89.0391 85.1671 88.8771 85.2722 88.7342L85.2825 88.7202C85.329 88.6572 85.376 88.5937 85.4243 88.5309C85.4506 88.4971 85.4617 88.4535 85.4548 88.4095C85.4474 88.3672 85.4228 88.3295 85.381 88.3022C85.3704 88.2964 85.1158 88.1599 84.8834 88.0699C83.327 87.4685 81.7557 87.4069 80.2568 87.8899C79.7661 88.0476 79.3042 88.2844 78.8546 88.6116C79.6862 87.645 80.4562 86.5853 81.1553 85.445C81.1628 85.433 81.1827 85.4004 81.1891 85.3945C81.2503 85.3555 81.3128 85.3186 81.3752 85.2822C81.487 85.2166 81.6028 85.1487 81.7116 85.0679C81.8034 84.9994 81.8292 84.9976 81.9219 85.0573C82.0531 85.1425 82.2057 85.1868 82.3387 85.2216C83.1167 85.4208 83.901 85.3215 84.7685 84.9142C85.561 84.5427 86.1702 83.9554 86.7108 83.3763C87.4972 82.5316 88.011 81.7694 88.328 80.9776C88.3946 80.8114 88.442 80.6396 88.4914 80.4599C88.5118 80.3845 88.5327 80.3091 88.5548 80.235C88.579 80.1555 88.5367 80.0713 88.4581 80.0435L88.3929 80.0385C88.0723 80.0385 85.2117 80.0855 83.5386 81.7089C83.1746 82.0622 82.8483 82.4375 82.5504 82.8485C83.2123 81.4468 83.7736 79.9695 84.226 78.4361L84.2326 78.4137C84.238 78.3949 84.2462 78.3665 84.2516 78.3588L84.6893 77.7579C84.7056 77.7338 84.7075 77.7338 84.7332 77.7338C84.7446 77.7338 84.7571 77.7346 84.7714 77.7354L84.8649 77.7411C85.1906 77.7613 85.3823 77.7584 85.5399 77.7337C86.163 77.6353 86.7254 77.3216 87.2591 76.7742C88.5073 75.4941 89.3665 73.897 89.8856 71.8921C89.9413 71.6773 89.9568 71.4604 89.9735 71.2304C89.9809 71.1261 89.9891 71.0187 90.001 70.9077C90.0059 70.8544 89.9851 70.8035 89.945 70.7703Z" fill="url(#paint8_linear)"/>
<path d="M47.5939 94.0795C46.5559 93.8503 45.5234 93.5161 44.4371 93.0581C44.4241 93.0521 44.3918 93.0156 44.3817 92.9829C44.2735 92.6138 44.2372 92.242 44.2706 91.846C44.4833 89.3184 42.9781 86.655 40.692 85.5131C40.6434 85.4884 40.5927 85.4671 40.5343 85.4432L40.4801 85.4208C40.4286 85.3988 40.3659 85.4079 40.3243 85.4413C40.2794 85.4759 40.2571 85.5324 40.2663 85.589L40.3288 85.9766C40.3843 86.3196 40.4387 86.6552 40.4909 86.9911L40.504 87.079C40.6508 88.0336 40.8025 89.0208 41.0982 89.9692C41.365 90.8248 41.7766 91.5 42.3491 92.0174C41.1396 91.3042 40.0125 90.4471 38.9889 89.4613C38.9674 89.4406 38.9419 89.3857 38.9382 89.3405L38.9108 88.664C38.9106 88.64 38.9103 88.5761 38.9239 88.5445C39.4281 87.37 39.5572 86.0478 39.319 84.5028C39.0893 83.0127 38.4531 81.6425 37.4279 80.4299C37.3079 80.2879 37.202 80.2161 37.1131 80.2161C37.0915 80.2161 37.0719 80.2204 37.0565 80.2284C37.0093 80.2518 36.9774 80.2972 36.9712 80.3497L36.9437 80.5857C36.9226 80.7608 36.9022 80.9328 36.8839 81.1051C36.8523 81.4086 36.8176 81.7116 36.7828 82.0148L36.7779 82.0586C36.6912 82.8156 36.6014 83.5984 36.5539 84.3822C36.4987 85.2966 36.5151 86.3645 37.0555 87.3523C37.0584 87.3573 37.061 87.3626 37.0639 87.3676C36.3127 86.4282 35.6269 85.4172 35.0151 84.346C34.961 84.2507 34.9563 84.1671 34.9664 84.0458C35.0099 83.533 35.2483 83.1162 35.4994 82.7424C35.9843 82.0186 36.2778 81.1632 36.4513 79.9684C36.6936 78.2975 36.4489 76.6213 35.7241 74.986C35.7042 74.9409 35.6809 74.8975 35.6561 74.8508L35.5995 74.744C35.5723 74.6918 35.5144 74.6575 35.4533 74.6602C35.3924 74.6634 35.3386 74.7021 35.3165 74.7582C35.1407 75.2016 34.9706 75.6288 34.8017 76.0528L34.6937 76.3237C34.3334 77.2286 33.9294 78.2851 33.6945 79.3752C33.529 80.1444 33.5189 80.8868 33.664 81.5935C33.1007 80.2526 32.6375 78.8357 32.2829 77.3664C32.2788 77.3501 32.2776 77.3077 32.3127 77.21C32.4786 76.756 32.7806 76.3444 33.1634 76.051C34.0012 75.4084 34.4765 74.5152 34.8309 73.7263C35.5565 72.1128 35.7533 70.3988 35.4325 68.4858C35.4291 68.4658 35.423 68.4459 35.4158 68.4242L35.41 68.4069C35.396 68.3641 35.3643 68.3294 35.3223 68.3113C35.2812 68.2941 35.2295 68.2973 35.1976 68.313C35.1655 68.3247 35.1169 68.3426 35.0853 68.3889C34.9037 68.6315 34.7194 68.8763 34.5349 69.1209L34.504 69.1621C34.0388 69.7799 33.5577 70.4183 33.0954 71.0544C32.5597 71.7893 32.1815 72.5036 31.9388 73.2383C31.8217 73.5931 31.7451 73.9347 31.709 74.2664C31.5549 73.0743 31.4675 71.8573 31.4484 70.6301C31.4439 70.3372 31.4811 70.1044 31.6811 69.8495C31.8929 69.5778 32.0907 69.426 32.3634 69.3259C33.4839 68.9165 34.2027 68.0514 34.7037 67.3435C35.513 66.1983 35.9877 64.8657 36.1548 63.2696C36.1726 63.1053 36.1827 62.9391 36.1931 62.7633L36.1957 62.7233C36.2007 62.6378 36.206 62.5488 36.2127 62.4545C36.2169 62.3919 36.1834 62.3332 36.1274 62.3048C36.0732 62.2776 36.0037 62.2856 35.9565 62.3255L35.8236 62.4394C35.7735 62.4821 35.7307 62.5187 35.6862 62.5543C35.4727 62.7258 35.2584 62.8955 35.0436 63.0657L35.0212 63.0833C34.5497 63.4568 34.062 63.8429 33.5963 64.2417C32.6927 65.0123 32.1109 65.7794 31.7652 66.6561C31.7081 66.8006 31.658 66.9436 31.615 67.0851C31.7572 65.692 31.988 64.3201 32.305 62.9892C32.3435 62.8263 32.365 62.7785 32.4441 62.7525C32.4938 62.7357 32.5402 62.7033 32.574 62.6632C32.8039 62.4019 33.1066 62.3605 33.3998 62.3546C34.3784 62.3316 35.1545 61.8435 35.7844 61.369C37.3291 60.2056 38.3926 57.254 38.3926 57.1539C38.3926 57.1017 38.3666 57.0531 38.3225 57.0238C38.279 56.9951 38.2203 56.991 38.176 57.0108C37.8543 57.1473 37.5325 57.2803 37.1993 57.4181C36.4662 57.7221 35.7082 58.0362 34.9802 58.3796C34.2476 58.7263 33.6687 59.1899 33.2548 59.7603C33.6493 58.6395 34.1066 57.5406 34.6187 56.4846C34.6775 56.3707 34.9541 56.2498 35.3506 56.2498C35.4796 56.2498 35.6046 56.2636 35.7125 56.2895C36.6442 56.5128 37.5681 56.3775 38.5906 55.8665C39.6366 55.3436 40.5045 54.4886 41.2437 53.2519C41.2578 53.228 41.2856 53.155 41.3005 53.1141C41.3192 53.0641 41.3117 53.0089 41.2806 52.967C41.2517 52.9272 41.2055 52.9035 41.1466 52.9035C41.1461 52.9035 41.1458 52.9035 41.1453 52.9035L40.7761 52.9268C40.5497 52.941 40.33 52.955 40.1102 52.9662L39.8755 52.9781C39.1748 53.0134 38.45 53.0496 37.741 53.2185C36.9323 53.413 36.3386 53.7115 35.8834 54.1543C36.4222 53.2574 36.9992 52.404 37.6071 51.6046C37.6234 51.5834 37.7019 51.551 37.7662 51.5403C37.7983 51.5327 37.9151 51.5082 38.0703 51.5082C38.2763 51.5082 38.4566 51.5501 38.6095 51.6341C39.5808 52.1091 40.6716 52.1444 41.856 51.7376C42.8275 51.4057 43.6502 50.7892 44.3715 49.8535C44.3949 49.8233 44.4161 49.7905 44.4353 49.7558C44.4573 49.7159 44.4587 49.6719 44.4395 49.6318C44.3837 49.5147 44.1421 49.4597 44.0404 49.4414C43.7908 49.3978 43.508 49.348 43.2275 49.31C43.0991 49.292 42.9704 49.2733 42.8414 49.2542L42.8249 49.2516C42.3879 49.1871 41.9362 49.1204 41.4811 49.0975C40.6495 49.055 39.9111 49.2247 39.3068 49.6004C39.7132 49.1679 40.1283 48.7575 40.5499 48.3721C40.6832 48.2505 40.834 48.1279 41.0395 47.9741C41.0554 47.9619 41.0958 47.9476 41.1453 47.9447C42.6018 47.8878 43.8137 47.2448 44.85 45.9795C45.4145 45.2906 45.8473 44.4218 46.1734 43.3233L46.1847 43.2856C46.2195 43.1701 46.2387 43.1066 46.1587 43.0321C46.0969 42.9747 45.9881 42.9917 45.7055 43.1037C45.4488 43.2023 45.1906 43.2981 44.9254 43.3964C44.3926 43.5939 43.8416 43.7981 43.3098 44.0288C42.4211 44.4151 41.7115 45.0006 41.2009 45.7688C40.812 46.3534 40.6583 46.9407 40.7307 47.5612C40.7302 47.5681 40.7241 47.5846 40.7231 47.5865C39.7954 48.3875 38.9087 49.2892 37.9981 50.3623C38.6053 49.434 39.0011 48.3652 39.1997 47.1261C39.3999 45.877 39.4125 44.7651 39.2386 43.7272C39.2276 43.6623 39.2127 43.5973 39.1936 43.516L39.1652 43.3907C39.1523 43.3369 39.1119 43.2935 39.0588 43.2768C39.0057 43.2611 38.9462 43.275 38.9066 43.3127C38.8431 43.3725 38.7808 43.429 38.72 43.4839L38.6772 43.5225C38.5216 43.6627 38.3746 43.7951 38.2417 43.9447C36.9495 45.4024 36.1959 46.9421 35.9378 48.6518C35.8202 49.4246 35.8689 50.0824 36.087 50.6625C36.1591 50.8547 36.2718 51.0263 36.3839 51.1967C36.4352 51.2745 36.4866 51.3526 36.5336 51.4328C36.5682 51.4904 36.5711 51.5053 36.5709 51.5026C36.5496 51.7312 36.519 51.9859 36.4776 52.2917C36.4758 52.2955 36.47 52.3045 36.4516 52.3289L36.4367 52.3496C35.73 53.3318 35.0781 54.3673 34.4915 55.439C34.7221 54.6385 34.9058 53.6254 34.8928 52.4481C34.8771 51.0359 34.5519 49.7765 33.8984 48.5973C33.8726 48.5514 33.8257 48.5216 33.7601 48.5171C33.7125 48.5171 33.6666 48.5407 33.6366 48.5809C33.617 48.6082 33.5971 48.6339 33.5782 48.6582C33.536 48.7128 33.4966 48.7644 33.4613 48.8196C32.9409 49.6357 32.6618 50.5354 32.4765 51.2283C32.1378 52.4989 31.9822 53.5599 31.9867 54.5675C31.9893 55.4239 32.1454 56.0823 32.4781 56.6394C32.5815 56.8128 32.7118 56.9646 32.8427 57.1173C32.9122 57.1983 32.9835 57.2816 33.0482 57.3669C33.0934 57.4263 33.1153 57.4867 33.1165 57.5204C33.125 57.7235 33.1205 57.93 33.1162 58.1295L33.1132 58.2675C33.1127 58.2912 33.1072 58.3185 33.099 58.3393C32.6813 59.3514 32.3141 60.4033 32.001 61.4835C32.047 61.1157 32.073 60.7595 32.0796 60.4121C32.1175 58.4399 31.5125 56.6787 30.2812 55.1767L30.0245 54.8641C29.9948 54.8274 29.9509 54.8065 29.904 54.8065L29.8784 54.8087C29.8235 54.8179 29.7773 54.8559 29.7582 54.9077C29.7348 54.9701 29.7119 55.029 29.6896 55.0859C29.6466 55.196 29.606 55.3003 29.5717 55.4063C29.3075 56.2339 29.1778 57.138 29.1515 58.3373L29.1511 58.3607C29.1313 59.2332 29.1042 60.4284 29.4626 61.5722C29.8153 62.6982 30.4374 63.2672 30.5581 63.3693L30.5709 63.3809C30.8993 63.674 31.1131 63.942 31.1574 64.1161C31.1752 64.1863 31.1933 64.2568 31.2145 64.3264C31.3082 64.6361 31.2496 64.9313 31.1864 65.2501C31.155 65.411 31.1222 65.5771 31.1109 65.7477C31.0656 66.4301 31.0101 67.124 30.9564 67.7951L30.9516 67.8571C30.9378 68.0283 30.924 68.1995 30.9103 68.3706C30.7733 66.8351 30.2648 65.4393 29.3899 64.2049C28.8541 63.4497 28.2153 62.8036 27.4909 62.284C27.4596 62.2615 27.4267 62.2415 27.3828 62.2153C27.3615 62.203 27.3367 62.1882 27.3068 62.1694C27.2615 62.1423 27.2034 62.1399 27.1568 62.1627C27.109 62.186 27.0761 62.2333 27.0706 62.2869C27.0608 62.3839 27.0494 62.4779 27.0374 62.5754C27.0132 62.7752 26.9903 62.9638 26.9893 63.1576C26.9785 65.1663 27.4035 67.0486 28.2527 68.7516C28.4893 69.2268 28.802 69.6378 29.1823 69.9737C29.5595 70.3049 29.9664 70.5003 30.4257 70.5706C30.4358 70.5723 30.4599 70.5869 30.4636 70.5898C30.4884 70.6397 30.5143 70.6898 30.5401 70.74C30.6319 70.9172 30.7267 71.1006 30.7738 71.2844C30.8131 71.4399 30.8131 71.6097 30.8131 71.7897C30.8131 71.8557 30.8131 71.9221 30.8152 71.9872C30.8593 73.5432 30.9172 74.0851 31.1662 75.4754C31.0143 75.0621 30.8235 74.6475 30.5773 74.2487C29.5802 72.6348 28.3134 71.5393 26.7046 70.9001C26.6022 70.8588 26.4995 70.8292 26.3805 70.7945L26.3568 70.7875C26.3085 70.7733 26.2573 70.7583 26.2026 70.7416C26.1532 70.7254 26.0969 70.7364 26.0566 70.7698C26.0165 70.803 25.9955 70.8539 26.0008 70.9068C26.0127 71.0172 26.0209 71.1245 26.0284 71.2292C26.0449 71.459 26.0605 71.6758 26.1161 71.8905C26.6353 73.8955 27.4944 75.4925 28.7426 76.7727C29.2763 77.3201 29.8388 77.6338 30.462 77.7322C30.6192 77.7567 30.8114 77.7598 31.1367 77.7396L31.2304 77.7339C31.2446 77.7331 31.2572 77.7323 31.2685 77.7323C31.2942 77.7323 31.2963 77.7323 31.3141 77.7586L31.75 78.3572C31.7556 78.365 31.7637 78.3934 31.7694 78.413L31.7758 78.4345C32.2282 79.9681 32.7894 81.4452 33.4513 82.847C33.1534 82.4359 32.827 82.0605 32.4632 81.7074C30.79 80.084 27.9295 80.037 27.6088 80.037L27.5689 80.0374L27.5437 80.042C27.4651 80.0699 27.4226 80.154 27.4468 80.2331C27.4691 80.3077 27.4899 80.383 27.5138 80.4716C27.5596 80.6379 27.6071 80.8098 27.6736 80.9759C27.9906 81.7681 28.5044 82.5301 29.2909 83.3748C29.8314 83.9539 30.4406 84.5412 31.2329 84.9126C32.1006 85.32 32.8841 85.4195 33.6632 85.2199C33.7957 85.1851 33.9481 85.141 34.0792 85.056C34.1726 84.9961 34.1981 84.9981 34.2898 85.0664C34.3986 85.1472 34.5142 85.2151 34.6265 85.2809C34.6886 85.3173 34.7512 85.354 34.8096 85.3909C34.8189 85.3988 34.8388 85.4313 34.8461 85.4434C35.5452 86.5836 36.3154 87.6433 37.147 88.61C36.6972 88.2827 36.2353 88.046 35.7448 87.8883C34.2457 87.4053 32.6744 87.4667 31.1182 88.0684C30.886 88.1584 30.6314 88.2948 30.6144 88.3044C30.5788 88.3278 30.5542 88.3657 30.5465 88.4091C30.5398 88.4518 30.5508 88.4954 30.5768 88.5288C30.6254 88.592 30.6724 88.6555 30.719 88.7186L30.7292 88.7324C30.8343 88.8755 30.9533 89.0373 31.0868 89.1807C31.6879 89.8251 32.4292 90.2571 33.1408 90.628C34.1193 91.1357 35.12 91.4092 36.1152 91.4413C36.162 91.4429 36.2089 91.4439 36.2556 91.4439C37.171 91.4439 37.8857 91.1421 38.4366 90.525C38.4433 90.5202 38.4672 90.5111 38.4804 90.5109C38.6908 90.526 38.8909 90.5566 39.0404 90.5815C39.064 90.5857 39.093 90.5998 39.1111 90.6161C40.0314 91.4309 41.0061 92.146 42.0243 92.7546C41.8699 92.7089 41.711 92.6691 41.5483 92.6372C40.4602 92.428 39.3498 92.5593 38.1305 93.0437C37.3079 93.3716 36.5429 93.8533 35.7916 94.5163C35.7297 94.5707 35.721 94.6642 35.7721 94.729C36.0379 95.0674 36.3837 95.2568 36.6871 95.3973C37.4269 95.7411 38.262 95.9612 39.2411 96.0706C39.2439 96.0708 39.5585 96.098 39.9997 96.098C40.3181 96.098 40.6144 96.0838 40.8799 96.0557C41.1336 96.0291 41.3868 95.9856 41.6324 95.9265C42.7604 95.6519 43.5248 95.0873 43.9627 94.2106C43.9706 94.203 44.0043 94.1835 44.0469 94.173C44.2505 94.1225 44.4337 94.0869 44.6079 94.0636C44.649 94.0571 44.7002 94.0681 44.7646 94.0941C45.5436 94.3943 46.368 94.6443 47.2132 94.8372C47.2251 94.84 47.2375 94.8415 47.2498 94.8415C47.3066 94.8415 47.3589 94.8102 47.3865 94.7592C47.4672 94.609 47.5655 94.465 47.6786 94.331C47.7141 94.2889 47.7246 94.2327 47.7072 94.1807C47.6905 94.1304 47.6481 94.0922 47.5939 94.0795Z" fill="url(#paint9_linear)"/>
<path d="M48.5074 81.5495H68.4291V75.9888H58.2908V75.8385L60.724 73.8347C66.6422 68.9628 68.1503 66.433 68.1503 63.4648C68.1503 58.6806 64.1837 55.5495 57.9613 55.5495C51.9164 55.5495 47.9878 58.8684 48.0005 64.2663H54.6918C54.6791 62.1122 56.0097 60.9098 57.9613 60.9098C59.9003 60.9098 61.2816 62.0996 61.2816 64.0659C61.2816 65.8819 60.103 67.0592 58.1894 68.6247L48.5074 76.5399V81.5495Z" fill="url(#paint10_linear)"/>
<defs>
<linearGradient id="paint0_linear" x1="45.2609" y1="0" x2="45.2609" y2="25.3749" gradientUnits="userSpaceOnUse">
<stop stop-color="#117DC1"/>
<stop offset="1" stop-color="#1599EC"/>
</linearGradient>
<linearGradient id="paint1_linear" x1="16" y1="70" x2="99.9997" y2="70" gradientUnits="userSpaceOnUse">
<stop stop-color="#EBEBEB"/>
<stop offset="1" stop-color="#A0A0A0"/>
</linearGradient>
<linearGradient id="paint2_linear" x1="56.8063" y1="85.6476" x2="53.141" y2="122.867" gradientUnits="userSpaceOnUse">
<stop offset="0.416667" stop-color="#C0C0C0"/>
<stop offset="1" stop-color="#EDEDED"/>
</linearGradient>
<linearGradient id="paint3_linear" x1="89.0223" y1="83.646" x2="15.7869" y2="30.2505" gradientUnits="userSpaceOnUse">
<stop stop-color="#EBEBEB"/>
<stop offset="1" stop-color="#979797"/>
</linearGradient>
<linearGradient id="paint4_linear" x1="49" y1="96.0737" x2="67" y2="102.574" gradientUnits="userSpaceOnUse">
<stop stop-color="#878787"/>
<stop offset="1" stop-color="#9E9E9E"/>
</linearGradient>
<linearGradient id="paint5_linear" x1="49" y1="96.0737" x2="67" y2="102.574" gradientUnits="userSpaceOnUse">
<stop stop-color="#878787"/>
<stop offset="1" stop-color="#9E9E9E"/>
</linearGradient>
<linearGradient id="paint6_linear" x1="49" y1="96.0737" x2="67" y2="102.574" gradientUnits="userSpaceOnUse">
<stop stop-color="#878787"/>
<stop offset="1" stop-color="#9E9E9E"/>
</linearGradient>
<linearGradient id="paint7_linear" x1="49" y1="96.0737" x2="67" y2="102.574" gradientUnits="userSpaceOnUse">
<stop stop-color="#878787"/>
<stop offset="1" stop-color="#9E9E9E"/>
</linearGradient>
<linearGradient id="paint8_linear" x1="66.8344" y1="48.3475" x2="92.3554" y2="92.5185" gradientUnits="userSpaceOnUse">
<stop stop-color="#767676"/>
<stop offset="1" stop-color="#AEAEAE"/>
</linearGradient>
<linearGradient id="paint9_linear" x1="17.2645" y1="51.2922" x2="53.0921" y2="92.5185" gradientUnits="userSpaceOnUse">
<stop stop-color="#7A7A7A"/>
<stop offset="1" stop-color="#AAAAAA"/>
</linearGradient>
<linearGradient id="paint10_linear" x1="48.9045" y1="56.6321" x2="70.032" y2="83.1643" gradientUnits="userSpaceOnUse">
<stop stop-color="#6F6F6F"/>
<stop offset="1" stop-color="#BAB9B9"/>
</linearGradient>
</defs>
</svg>
